G75*
%MOIN*%
%OFA0B0*%
%FSLAX25Y25*%
%IPPOS*%
%LPD*%
%AMOC8*
5,1,8,0,0,1.08239X$1,22.5*
%
%ADD10C,0.01000*%
D10*
X0379200Y0380350D02*
X0379089Y0380464D01*
X0378981Y0380580D01*
X0378876Y0380699D01*
X0378774Y0380820D01*
X0378675Y0380944D01*
X0378580Y0381071D01*
X0378487Y0381200D01*
X0378398Y0381331D01*
X0378311Y0381464D01*
X0378229Y0381600D01*
X0378149Y0381737D01*
X0378073Y0381876D01*
X0378001Y0382017D01*
X0377932Y0382160D01*
X0377867Y0382305D01*
X0377805Y0382451D01*
X0377747Y0382599D01*
X0377693Y0382748D01*
X0377643Y0382899D01*
X0377596Y0383050D01*
X0377553Y0383203D01*
X0377514Y0383357D01*
X0377478Y0383511D01*
X0377447Y0383667D01*
X0377419Y0383823D01*
X0377396Y0383980D01*
X0377376Y0384137D01*
X0377360Y0384295D01*
X0377348Y0384454D01*
X0377340Y0384612D01*
X0377336Y0384771D01*
X0377336Y0384929D01*
X0377340Y0385088D01*
X0377348Y0385246D01*
X0377360Y0385405D01*
X0377376Y0385563D01*
X0377396Y0385720D01*
X0377419Y0385877D01*
X0377447Y0386033D01*
X0377478Y0386189D01*
X0377514Y0386343D01*
X0377553Y0386497D01*
X0377596Y0386650D01*
X0377643Y0386801D01*
X0377693Y0386952D01*
X0377747Y0387101D01*
X0377805Y0387249D01*
X0377867Y0387395D01*
X0377932Y0387540D01*
X0378001Y0387683D01*
X0378073Y0387824D01*
X0378149Y0387963D01*
X0378229Y0388100D01*
X0378311Y0388236D01*
X0378398Y0388369D01*
X0378487Y0388500D01*
X0378580Y0388629D01*
X0378675Y0388756D01*
X0378774Y0388880D01*
X0378876Y0389001D01*
X0378981Y0389120D01*
X0379089Y0389236D01*
X0379200Y0389350D01*
X0380750Y0388050D02*
X0380662Y0387952D01*
X0380578Y0387850D01*
X0380497Y0387747D01*
X0380418Y0387641D01*
X0380343Y0387533D01*
X0380271Y0387422D01*
X0380203Y0387310D01*
X0380138Y0387196D01*
X0380076Y0387079D01*
X0380017Y0386961D01*
X0379963Y0386842D01*
X0379911Y0386720D01*
X0379864Y0386597D01*
X0379820Y0386473D01*
X0379780Y0386348D01*
X0379743Y0386221D01*
X0379710Y0386094D01*
X0379681Y0385965D01*
X0379656Y0385836D01*
X0379635Y0385706D01*
X0379617Y0385576D01*
X0379604Y0385445D01*
X0379594Y0385313D01*
X0379588Y0385182D01*
X0379586Y0385050D01*
X0379588Y0384918D01*
X0379594Y0384787D01*
X0379604Y0384655D01*
X0379617Y0384524D01*
X0379635Y0384394D01*
X0379656Y0384264D01*
X0379681Y0384135D01*
X0379710Y0384006D01*
X0379743Y0383879D01*
X0379780Y0383752D01*
X0379820Y0383627D01*
X0379864Y0383503D01*
X0379911Y0383380D01*
X0379963Y0383258D01*
X0380017Y0383139D01*
X0380076Y0383021D01*
X0380138Y0382904D01*
X0380203Y0382790D01*
X0380271Y0382678D01*
X0380343Y0382567D01*
X0380418Y0382459D01*
X0380497Y0382353D01*
X0380578Y0382250D01*
X0380662Y0382148D01*
X0380750Y0382050D01*
X0382200Y0383650D02*
X0382145Y0383733D01*
X0382093Y0383818D01*
X0382044Y0383905D01*
X0381999Y0383994D01*
X0381957Y0384085D01*
X0381918Y0384176D01*
X0381883Y0384270D01*
X0381852Y0384364D01*
X0381824Y0384460D01*
X0381800Y0384557D01*
X0381779Y0384654D01*
X0381762Y0384753D01*
X0381749Y0384852D01*
X0381740Y0384951D01*
X0381734Y0385050D01*
X0381732Y0385150D01*
X0381734Y0385250D01*
X0381740Y0385349D01*
X0381749Y0385448D01*
X0381762Y0385547D01*
X0381779Y0385646D01*
X0381800Y0385743D01*
X0381824Y0385840D01*
X0381852Y0385936D01*
X0381883Y0386030D01*
X0381918Y0386124D01*
X0381957Y0386215D01*
X0381999Y0386306D01*
X0382044Y0386395D01*
X0382093Y0386482D01*
X0382145Y0386567D01*
X0382200Y0386650D01*
M02*
