G75*
%MOIN*%
%OFA0B0*%
%FSLAX25Y25*%
%IPPOS*%
%LPD*%
%AMOC8*
5,1,8,0,0,1.08239X$1,22.5*
%
%ADD10C,0.00787*%
%ADD11R,0.07874X0.05000*%
%ADD12R,0.03550X0.05118*%
%ADD13C,0.00800*%
%ADD14R,0.04134X0.01181*%
%ADD15C,0.01181*%
%ADD16R,0.11200X0.07800*%
%ADD17R,0.04331X0.03937*%
%ADD18R,0.08700X0.02400*%
%ADD19R,0.03937X0.00984*%
%ADD20R,0.05118X0.03550*%
D10*
X0383306Y0247322D02*
X0385670Y0247322D01*
X0383306Y0247322D02*
X0383306Y0251654D01*
X0385670Y0251654D01*
X0385670Y0247322D01*
X0385670Y0248108D02*
X0383306Y0248108D01*
X0383306Y0248894D02*
X0385670Y0248894D01*
X0385670Y0249680D02*
X0383306Y0249680D01*
X0383306Y0250466D02*
X0385670Y0250466D01*
X0385670Y0251252D02*
X0383306Y0251252D01*
X0383306Y0257322D02*
X0385670Y0257322D01*
X0383306Y0257322D02*
X0383306Y0261654D01*
X0385670Y0261654D01*
X0385670Y0257322D01*
X0385670Y0258108D02*
X0383306Y0258108D01*
X0383306Y0258894D02*
X0385670Y0258894D01*
X0385670Y0259680D02*
X0383306Y0259680D01*
X0383306Y0260466D02*
X0385670Y0260466D01*
X0385670Y0261252D02*
X0383306Y0261252D01*
X0383306Y0267322D02*
X0385670Y0267322D01*
X0383306Y0267322D02*
X0383306Y0271654D01*
X0385670Y0271654D01*
X0385670Y0267322D01*
X0385670Y0268108D02*
X0383306Y0268108D01*
X0383306Y0268894D02*
X0385670Y0268894D01*
X0385670Y0269680D02*
X0383306Y0269680D01*
X0383306Y0270466D02*
X0385670Y0270466D01*
X0385670Y0271252D02*
X0383306Y0271252D01*
X0383306Y0277322D02*
X0385670Y0277322D01*
X0383306Y0277322D02*
X0383306Y0281654D01*
X0385670Y0281654D01*
X0385670Y0277322D01*
X0385670Y0278108D02*
X0383306Y0278108D01*
X0383306Y0278894D02*
X0385670Y0278894D01*
X0385670Y0279680D02*
X0383306Y0279680D01*
X0383306Y0280466D02*
X0385670Y0280466D01*
X0385670Y0281252D02*
X0383306Y0281252D01*
X0391180Y0277322D02*
X0393544Y0277322D01*
X0391180Y0277322D02*
X0391180Y0281654D01*
X0393544Y0281654D01*
X0393544Y0277322D01*
X0393544Y0278108D02*
X0391180Y0278108D01*
X0391180Y0278894D02*
X0393544Y0278894D01*
X0393544Y0279680D02*
X0391180Y0279680D01*
X0391180Y0280466D02*
X0393544Y0280466D01*
X0393544Y0281252D02*
X0391180Y0281252D01*
X0398306Y0282048D02*
X0400670Y0282048D01*
X0400670Y0277716D01*
X0398306Y0277716D01*
X0398306Y0282048D01*
X0398306Y0278502D02*
X0400670Y0278502D01*
X0400670Y0279288D02*
X0398306Y0279288D01*
X0398306Y0280074D02*
X0400670Y0280074D01*
X0400670Y0280860D02*
X0398306Y0280860D01*
X0398306Y0281646D02*
X0400670Y0281646D01*
X0406180Y0282048D02*
X0408544Y0282048D01*
X0408544Y0277716D01*
X0406180Y0277716D01*
X0406180Y0282048D01*
X0406180Y0278502D02*
X0408544Y0278502D01*
X0408544Y0279288D02*
X0406180Y0279288D01*
X0406180Y0280074D02*
X0408544Y0280074D01*
X0408544Y0280860D02*
X0406180Y0280860D01*
X0406180Y0281646D02*
X0408544Y0281646D01*
X0408544Y0271575D02*
X0406180Y0271575D01*
X0408544Y0271575D02*
X0408544Y0267243D01*
X0406180Y0267243D01*
X0406180Y0271575D01*
X0406180Y0268029D02*
X0408544Y0268029D01*
X0408544Y0268815D02*
X0406180Y0268815D01*
X0406180Y0269601D02*
X0408544Y0269601D01*
X0408544Y0270387D02*
X0406180Y0270387D01*
X0406180Y0271173D02*
X0408544Y0271173D01*
X0400670Y0271575D02*
X0398306Y0271575D01*
X0400670Y0271575D02*
X0400670Y0267243D01*
X0398306Y0267243D01*
X0398306Y0271575D01*
X0398306Y0268029D02*
X0400670Y0268029D01*
X0400670Y0268815D02*
X0398306Y0268815D01*
X0398306Y0269601D02*
X0400670Y0269601D01*
X0400670Y0270387D02*
X0398306Y0270387D01*
X0398306Y0271173D02*
X0400670Y0271173D01*
X0393544Y0267322D02*
X0391180Y0267322D01*
X0391180Y0271654D01*
X0393544Y0271654D01*
X0393544Y0267322D01*
X0393544Y0268108D02*
X0391180Y0268108D01*
X0391180Y0268894D02*
X0393544Y0268894D01*
X0393544Y0269680D02*
X0391180Y0269680D01*
X0391180Y0270466D02*
X0393544Y0270466D01*
X0393544Y0271252D02*
X0391180Y0271252D01*
X0391180Y0257322D02*
X0393544Y0257322D01*
X0391180Y0257322D02*
X0391180Y0261654D01*
X0393544Y0261654D01*
X0393544Y0257322D01*
X0393544Y0258108D02*
X0391180Y0258108D01*
X0391180Y0258894D02*
X0393544Y0258894D01*
X0393544Y0259680D02*
X0391180Y0259680D01*
X0391180Y0260466D02*
X0393544Y0260466D01*
X0393544Y0261252D02*
X0391180Y0261252D01*
X0398306Y0261654D02*
X0400670Y0261654D01*
X0400670Y0257322D01*
X0398306Y0257322D01*
X0398306Y0261654D01*
X0398306Y0258108D02*
X0400670Y0258108D01*
X0400670Y0258894D02*
X0398306Y0258894D01*
X0398306Y0259680D02*
X0400670Y0259680D01*
X0400670Y0260466D02*
X0398306Y0260466D01*
X0398306Y0261252D02*
X0400670Y0261252D01*
X0406180Y0261654D02*
X0408544Y0261654D01*
X0408544Y0257322D01*
X0406180Y0257322D01*
X0406180Y0261654D01*
X0406180Y0258108D02*
X0408544Y0258108D01*
X0408544Y0258894D02*
X0406180Y0258894D01*
X0406180Y0259680D02*
X0408544Y0259680D01*
X0408544Y0260466D02*
X0406180Y0260466D01*
X0406180Y0261252D02*
X0408544Y0261252D01*
X0408544Y0251654D02*
X0406180Y0251654D01*
X0408544Y0251654D02*
X0408544Y0247322D01*
X0406180Y0247322D01*
X0406180Y0251654D01*
X0406180Y0248108D02*
X0408544Y0248108D01*
X0408544Y0248894D02*
X0406180Y0248894D01*
X0406180Y0249680D02*
X0408544Y0249680D01*
X0408544Y0250466D02*
X0406180Y0250466D01*
X0406180Y0251252D02*
X0408544Y0251252D01*
X0400670Y0251654D02*
X0398306Y0251654D01*
X0400670Y0251654D02*
X0400670Y0247322D01*
X0398306Y0247322D01*
X0398306Y0251654D01*
X0398306Y0248108D02*
X0400670Y0248108D01*
X0400670Y0248894D02*
X0398306Y0248894D01*
X0398306Y0249680D02*
X0400670Y0249680D01*
X0400670Y0250466D02*
X0398306Y0250466D01*
X0398306Y0251252D02*
X0400670Y0251252D01*
X0393544Y0247322D02*
X0391180Y0247322D01*
X0391180Y0251654D01*
X0393544Y0251654D01*
X0393544Y0247322D01*
X0393544Y0248108D02*
X0391180Y0248108D01*
X0391180Y0248894D02*
X0393544Y0248894D01*
X0393544Y0249680D02*
X0391180Y0249680D01*
X0391180Y0250466D02*
X0393544Y0250466D01*
X0393544Y0251252D02*
X0391180Y0251252D01*
D11*
X0427246Y0332441D03*
X0427246Y0339941D03*
X0427254Y0348189D03*
X0427254Y0356063D03*
X0427254Y0379685D03*
X0427254Y0387559D03*
X0490276Y0387559D03*
X0490254Y0379435D03*
X0490246Y0371437D03*
X0490246Y0363937D03*
X0490276Y0356015D03*
X0490254Y0348189D03*
X0490276Y0340315D03*
X0490246Y0332441D03*
D12*
X0413937Y0355000D03*
X0406063Y0355000D03*
D13*
X0387680Y0377612D02*
X0379820Y0377612D01*
X0379820Y0380812D01*
X0387680Y0380812D01*
X0387680Y0377612D01*
X0387680Y0378411D02*
X0379820Y0378411D01*
X0379820Y0379210D02*
X0387680Y0379210D01*
X0387680Y0380009D02*
X0379820Y0380009D01*
X0379820Y0380808D02*
X0387680Y0380808D01*
X0387529Y0383400D02*
X0392729Y0383400D01*
X0387529Y0383400D02*
X0387529Y0386600D01*
X0392729Y0386600D01*
X0392729Y0383400D01*
X0392729Y0384199D02*
X0387529Y0384199D01*
X0387529Y0384998D02*
X0392729Y0384998D01*
X0392729Y0385797D02*
X0387529Y0385797D01*
X0387529Y0386596D02*
X0392729Y0386596D01*
X0387680Y0389188D02*
X0379820Y0389188D01*
X0379820Y0392388D01*
X0387680Y0392388D01*
X0387680Y0389188D01*
X0387680Y0389987D02*
X0379820Y0389987D01*
X0379820Y0390786D02*
X0387680Y0390786D01*
X0387680Y0391585D02*
X0379820Y0391585D01*
X0379820Y0392384D02*
X0387680Y0392384D01*
D14*
X0481949Y0257559D03*
D15*
X0483426Y0255000D02*
X0480472Y0255000D01*
X0480472Y0255000D01*
X0483426Y0255000D01*
X0483426Y0255000D01*
X0483426Y0252441D02*
X0480472Y0252441D01*
X0480472Y0252441D01*
X0483426Y0252441D01*
X0483426Y0252441D01*
X0486574Y0252441D02*
X0489528Y0252441D01*
X0486574Y0252441D02*
X0486574Y0252441D01*
X0489528Y0252441D01*
X0489528Y0252441D01*
X0489528Y0255000D02*
X0486574Y0255000D01*
X0486574Y0255000D01*
X0489528Y0255000D01*
X0489528Y0255000D01*
X0489528Y0257559D02*
X0486574Y0257559D01*
X0486574Y0257559D01*
X0489528Y0257559D01*
X0489528Y0257559D01*
D16*
X0495000Y0235000D03*
D17*
X0516654Y0240000D03*
X0523346Y0240000D03*
X0523346Y0250000D03*
X0516654Y0250000D03*
X0516654Y0265000D03*
X0523346Y0265000D03*
X0525039Y0285157D03*
X0518346Y0285157D03*
X0453898Y0281772D03*
X0447205Y0281772D03*
X0446791Y0293760D03*
X0453484Y0293760D03*
X0453858Y0268780D03*
X0447165Y0268780D03*
X0446654Y0255000D03*
X0453346Y0255000D03*
X0453346Y0240000D03*
X0446654Y0240000D03*
X0571654Y0360000D03*
X0578346Y0360000D03*
X0578346Y0375000D03*
X0571654Y0375000D03*
X0524055Y0378898D03*
X0517362Y0378898D03*
X0516654Y0365551D03*
X0523346Y0365551D03*
D18*
X0495300Y0292500D03*
X0495300Y0287500D03*
X0495300Y0282500D03*
X0495300Y0277500D03*
X0474700Y0277500D03*
X0474700Y0282500D03*
X0474700Y0287500D03*
X0474700Y0292500D03*
D19*
X0536681Y0366063D03*
X0536681Y0368031D03*
X0536681Y0370000D03*
X0536681Y0371969D03*
X0536681Y0373937D03*
X0553319Y0373937D03*
X0553319Y0371969D03*
X0553319Y0370000D03*
X0553319Y0368031D03*
X0553319Y0366063D03*
D20*
X0555999Y0386037D03*
X0555999Y0393911D03*
X0545501Y0393911D03*
X0545501Y0386037D03*
M02*
