G75*
%MOIN*%
%OFA0B0*%
%FSLAX25Y25*%
%IPPOS*%
%LPD*%
%AMOC8*
5,1,8,0,0,1.08239X$1,22.5*
%
%ADD10C,0.00987*%
%ADD11R,0.08674X0.05800*%
%ADD12R,0.04350X0.05918*%
%ADD13C,0.00960*%
%ADD14C,0.05800*%
%ADD15R,0.17800X0.06800*%
%ADD16C,0.11824*%
%ADD17C,0.07400*%
%ADD18R,0.04934X0.01981*%
%ADD19C,0.01981*%
%ADD20R,0.03300X0.05800*%
%ADD21R,0.05131X0.04737*%
%ADD22R,0.09500X0.03200*%
%ADD23R,0.04737X0.01784*%
%ADD24R,0.05918X0.04350*%
%ADD25C,0.06800*%
%ADD26R,0.04762X0.04762*%
%ADD27C,0.04369*%
D10*
X0383006Y0247022D02*
X0385970Y0247022D01*
X0383006Y0247022D02*
X0383006Y0251954D01*
X0385970Y0251954D01*
X0385970Y0247022D01*
X0385970Y0248008D02*
X0383006Y0248008D01*
X0383006Y0248994D02*
X0385970Y0248994D01*
X0385970Y0249980D02*
X0383006Y0249980D01*
X0383006Y0250966D02*
X0385970Y0250966D01*
X0385970Y0251952D02*
X0383006Y0251952D01*
X0383006Y0257022D02*
X0385970Y0257022D01*
X0383006Y0257022D02*
X0383006Y0261954D01*
X0385970Y0261954D01*
X0385970Y0257022D01*
X0385970Y0258008D02*
X0383006Y0258008D01*
X0383006Y0258994D02*
X0385970Y0258994D01*
X0385970Y0259980D02*
X0383006Y0259980D01*
X0383006Y0260966D02*
X0385970Y0260966D01*
X0385970Y0261952D02*
X0383006Y0261952D01*
X0383006Y0267022D02*
X0385970Y0267022D01*
X0383006Y0267022D02*
X0383006Y0271954D01*
X0385970Y0271954D01*
X0385970Y0267022D01*
X0385970Y0268008D02*
X0383006Y0268008D01*
X0383006Y0268994D02*
X0385970Y0268994D01*
X0385970Y0269980D02*
X0383006Y0269980D01*
X0383006Y0270966D02*
X0385970Y0270966D01*
X0385970Y0271952D02*
X0383006Y0271952D01*
X0383006Y0277022D02*
X0385970Y0277022D01*
X0383006Y0277022D02*
X0383006Y0281954D01*
X0385970Y0281954D01*
X0385970Y0277022D01*
X0385970Y0278008D02*
X0383006Y0278008D01*
X0383006Y0278994D02*
X0385970Y0278994D01*
X0385970Y0279980D02*
X0383006Y0279980D01*
X0383006Y0280966D02*
X0385970Y0280966D01*
X0385970Y0281952D02*
X0383006Y0281952D01*
X0390880Y0277022D02*
X0393844Y0277022D01*
X0390880Y0277022D02*
X0390880Y0281954D01*
X0393844Y0281954D01*
X0393844Y0277022D01*
X0393844Y0278008D02*
X0390880Y0278008D01*
X0390880Y0278994D02*
X0393844Y0278994D01*
X0393844Y0279980D02*
X0390880Y0279980D01*
X0390880Y0280966D02*
X0393844Y0280966D01*
X0393844Y0281952D02*
X0390880Y0281952D01*
X0398006Y0282348D02*
X0400970Y0282348D01*
X0400970Y0277416D01*
X0398006Y0277416D01*
X0398006Y0282348D01*
X0398006Y0278402D02*
X0400970Y0278402D01*
X0400970Y0279388D02*
X0398006Y0279388D01*
X0398006Y0280374D02*
X0400970Y0280374D01*
X0400970Y0281360D02*
X0398006Y0281360D01*
X0398006Y0282346D02*
X0400970Y0282346D01*
X0405880Y0282348D02*
X0408844Y0282348D01*
X0408844Y0277416D01*
X0405880Y0277416D01*
X0405880Y0282348D01*
X0405880Y0278402D02*
X0408844Y0278402D01*
X0408844Y0279388D02*
X0405880Y0279388D01*
X0405880Y0280374D02*
X0408844Y0280374D01*
X0408844Y0281360D02*
X0405880Y0281360D01*
X0405880Y0282346D02*
X0408844Y0282346D01*
X0408844Y0271875D02*
X0405880Y0271875D01*
X0408844Y0271875D02*
X0408844Y0266943D01*
X0405880Y0266943D01*
X0405880Y0271875D01*
X0405880Y0267929D02*
X0408844Y0267929D01*
X0408844Y0268915D02*
X0405880Y0268915D01*
X0405880Y0269901D02*
X0408844Y0269901D01*
X0408844Y0270887D02*
X0405880Y0270887D01*
X0405880Y0271873D02*
X0408844Y0271873D01*
X0400970Y0271875D02*
X0398006Y0271875D01*
X0400970Y0271875D02*
X0400970Y0266943D01*
X0398006Y0266943D01*
X0398006Y0271875D01*
X0398006Y0267929D02*
X0400970Y0267929D01*
X0400970Y0268915D02*
X0398006Y0268915D01*
X0398006Y0269901D02*
X0400970Y0269901D01*
X0400970Y0270887D02*
X0398006Y0270887D01*
X0398006Y0271873D02*
X0400970Y0271873D01*
X0393844Y0267022D02*
X0390880Y0267022D01*
X0390880Y0271954D01*
X0393844Y0271954D01*
X0393844Y0267022D01*
X0393844Y0268008D02*
X0390880Y0268008D01*
X0390880Y0268994D02*
X0393844Y0268994D01*
X0393844Y0269980D02*
X0390880Y0269980D01*
X0390880Y0270966D02*
X0393844Y0270966D01*
X0393844Y0271952D02*
X0390880Y0271952D01*
X0390880Y0257022D02*
X0393844Y0257022D01*
X0390880Y0257022D02*
X0390880Y0261954D01*
X0393844Y0261954D01*
X0393844Y0257022D01*
X0393844Y0258008D02*
X0390880Y0258008D01*
X0390880Y0258994D02*
X0393844Y0258994D01*
X0393844Y0259980D02*
X0390880Y0259980D01*
X0390880Y0260966D02*
X0393844Y0260966D01*
X0393844Y0261952D02*
X0390880Y0261952D01*
X0398006Y0261954D02*
X0400970Y0261954D01*
X0400970Y0257022D01*
X0398006Y0257022D01*
X0398006Y0261954D01*
X0398006Y0258008D02*
X0400970Y0258008D01*
X0400970Y0258994D02*
X0398006Y0258994D01*
X0398006Y0259980D02*
X0400970Y0259980D01*
X0400970Y0260966D02*
X0398006Y0260966D01*
X0398006Y0261952D02*
X0400970Y0261952D01*
X0405880Y0261954D02*
X0408844Y0261954D01*
X0408844Y0257022D01*
X0405880Y0257022D01*
X0405880Y0261954D01*
X0405880Y0258008D02*
X0408844Y0258008D01*
X0408844Y0258994D02*
X0405880Y0258994D01*
X0405880Y0259980D02*
X0408844Y0259980D01*
X0408844Y0260966D02*
X0405880Y0260966D01*
X0405880Y0261952D02*
X0408844Y0261952D01*
X0408844Y0251954D02*
X0405880Y0251954D01*
X0408844Y0251954D02*
X0408844Y0247022D01*
X0405880Y0247022D01*
X0405880Y0251954D01*
X0405880Y0248008D02*
X0408844Y0248008D01*
X0408844Y0248994D02*
X0405880Y0248994D01*
X0405880Y0249980D02*
X0408844Y0249980D01*
X0408844Y0250966D02*
X0405880Y0250966D01*
X0405880Y0251952D02*
X0408844Y0251952D01*
X0400970Y0251954D02*
X0398006Y0251954D01*
X0400970Y0251954D02*
X0400970Y0247022D01*
X0398006Y0247022D01*
X0398006Y0251954D01*
X0398006Y0248008D02*
X0400970Y0248008D01*
X0400970Y0248994D02*
X0398006Y0248994D01*
X0398006Y0249980D02*
X0400970Y0249980D01*
X0400970Y0250966D02*
X0398006Y0250966D01*
X0398006Y0251952D02*
X0400970Y0251952D01*
X0393844Y0247022D02*
X0390880Y0247022D01*
X0390880Y0251954D01*
X0393844Y0251954D01*
X0393844Y0247022D01*
X0393844Y0248008D02*
X0390880Y0248008D01*
X0390880Y0248994D02*
X0393844Y0248994D01*
X0393844Y0249980D02*
X0390880Y0249980D01*
X0390880Y0250966D02*
X0393844Y0250966D01*
X0393844Y0251952D02*
X0390880Y0251952D01*
D11*
X0427246Y0332441D03*
X0427246Y0339941D03*
X0427254Y0348189D03*
X0427254Y0356063D03*
X0427254Y0379685D03*
X0427254Y0387559D03*
X0490276Y0387559D03*
X0490254Y0379435D03*
X0490246Y0371437D03*
X0490246Y0363937D03*
X0490276Y0356015D03*
X0490254Y0348189D03*
X0490276Y0340315D03*
X0490246Y0332441D03*
D12*
X0413937Y0355000D03*
X0406063Y0355000D03*
D13*
X0388000Y0377292D02*
X0379500Y0377292D01*
X0379500Y0381132D01*
X0388000Y0381132D01*
X0388000Y0377292D01*
X0388000Y0378251D02*
X0379500Y0378251D01*
X0379500Y0379210D02*
X0388000Y0379210D01*
X0388000Y0380169D02*
X0379500Y0380169D01*
X0379500Y0381128D02*
X0388000Y0381128D01*
X0387209Y0383080D02*
X0393049Y0383080D01*
X0387209Y0383080D02*
X0387209Y0386920D01*
X0393049Y0386920D01*
X0393049Y0383080D01*
X0393049Y0384039D02*
X0387209Y0384039D01*
X0387209Y0384998D02*
X0393049Y0384998D01*
X0393049Y0385957D02*
X0387209Y0385957D01*
X0387209Y0386916D02*
X0393049Y0386916D01*
X0388000Y0388868D02*
X0379500Y0388868D01*
X0379500Y0392708D01*
X0388000Y0392708D01*
X0388000Y0388868D01*
X0388000Y0389827D02*
X0379500Y0389827D01*
X0379500Y0390786D02*
X0388000Y0390786D01*
X0388000Y0391745D02*
X0379500Y0391745D01*
X0379500Y0392704D02*
X0388000Y0392704D01*
D14*
X0395000Y0385000D03*
D15*
X0384250Y0395000D03*
X0384250Y0375000D03*
D16*
X0388780Y0228780D03*
X0617126Y0228780D03*
X0617126Y0421693D03*
X0388780Y0421693D03*
D17*
X0407953Y0426693D03*
X0417953Y0426693D03*
X0427953Y0426693D03*
X0437953Y0426693D03*
X0447953Y0426693D03*
X0457953Y0426693D03*
X0467953Y0426693D03*
X0477953Y0426693D03*
X0487953Y0426693D03*
X0497953Y0426693D03*
X0507953Y0426693D03*
X0517953Y0426693D03*
X0527953Y0426693D03*
X0537953Y0426693D03*
X0547953Y0426693D03*
X0557953Y0426693D03*
X0567953Y0426693D03*
X0577953Y0426693D03*
X0587953Y0426693D03*
X0597953Y0426693D03*
X0597953Y0416693D03*
X0587953Y0416693D03*
X0577953Y0416693D03*
X0567953Y0416693D03*
X0557953Y0416693D03*
X0547953Y0416693D03*
X0537953Y0416693D03*
X0527953Y0416693D03*
X0517953Y0416693D03*
X0507953Y0416693D03*
X0497953Y0416693D03*
X0487953Y0416693D03*
X0477953Y0416693D03*
X0467953Y0416693D03*
X0457953Y0416693D03*
X0447953Y0416693D03*
X0437953Y0416693D03*
X0427953Y0416693D03*
X0417953Y0416693D03*
X0407953Y0416693D03*
D18*
X0481949Y0257559D03*
D19*
X0483426Y0255000D02*
X0480472Y0255000D01*
X0480472Y0255000D01*
X0483426Y0255000D01*
X0483426Y0255000D01*
X0483426Y0252441D02*
X0480472Y0252441D01*
X0480472Y0252441D01*
X0483426Y0252441D01*
X0483426Y0252441D01*
X0486574Y0252441D02*
X0489528Y0252441D01*
X0486574Y0252441D02*
X0486574Y0252441D01*
X0489528Y0252441D01*
X0489528Y0252441D01*
X0489528Y0255000D02*
X0486574Y0255000D01*
X0486574Y0255000D01*
X0489528Y0255000D01*
X0489528Y0255000D01*
X0489528Y0257559D02*
X0486574Y0257559D01*
X0486574Y0257559D01*
X0489528Y0257559D01*
X0489528Y0257559D01*
D20*
X0491800Y0235000D03*
X0495000Y0235000D03*
X0498200Y0235000D03*
X0483500Y0235000D03*
X0480000Y0235000D03*
X0476500Y0235000D03*
D21*
X0453346Y0240000D03*
X0446654Y0240000D03*
X0446654Y0255000D03*
X0453346Y0255000D03*
X0453858Y0268780D03*
X0447165Y0268780D03*
X0447205Y0281772D03*
X0453898Y0281772D03*
X0453484Y0293760D03*
X0446791Y0293760D03*
X0518346Y0285157D03*
X0525039Y0285157D03*
X0523346Y0265000D03*
X0516654Y0265000D03*
X0516654Y0250000D03*
X0523346Y0250000D03*
X0523346Y0240000D03*
X0516654Y0240000D03*
X0571654Y0360000D03*
X0578346Y0360000D03*
X0578346Y0375000D03*
X0571654Y0375000D03*
X0524055Y0378898D03*
X0517362Y0378898D03*
X0516654Y0365551D03*
X0523346Y0365551D03*
D22*
X0495300Y0292500D03*
X0495300Y0287500D03*
X0495300Y0282500D03*
X0495300Y0277500D03*
X0474700Y0277500D03*
X0474700Y0282500D03*
X0474700Y0287500D03*
X0474700Y0292500D03*
D23*
X0536681Y0366063D03*
X0536681Y0368031D03*
X0536681Y0370000D03*
X0536681Y0371969D03*
X0536681Y0373937D03*
X0553319Y0373937D03*
X0553319Y0371969D03*
X0553319Y0370000D03*
X0553319Y0368031D03*
X0553319Y0366063D03*
D24*
X0555999Y0386037D03*
X0555999Y0393911D03*
X0545501Y0393911D03*
X0545501Y0386037D03*
D25*
X0612000Y0380000D02*
X0618000Y0380000D01*
X0619000Y0390000D02*
X0613000Y0390000D01*
X0613000Y0370000D02*
X0619000Y0370000D01*
X0618000Y0360000D02*
X0612000Y0360000D01*
X0613000Y0350000D02*
X0619000Y0350000D01*
X0618000Y0340000D02*
X0612000Y0340000D01*
D26*
X0588858Y0333228D03*
X0551850Y0341890D03*
X0536890Y0342677D03*
X0530591Y0334016D03*
X0506969Y0331260D03*
X0507756Y0316299D03*
X0533346Y0285984D03*
X0564055Y0300551D03*
X0510512Y0259606D03*
X0497913Y0268661D03*
X0470748Y0265118D03*
X0462874Y0241102D03*
X0486496Y0241890D03*
X0536890Y0235197D03*
X0471535Y0332835D03*
X0506575Y0357638D03*
X0516417Y0372205D03*
X0532559Y0409606D03*
X0551850Y0408819D03*
X0571929Y0394646D03*
X0597520Y0396614D03*
X0597520Y0380079D03*
X0592402Y0365118D03*
X0449094Y0386772D03*
X0403425Y0396614D03*
X0412874Y0343071D03*
D27*
X0473504Y0348189D03*
X0482165Y0340315D03*
X0498701Y0356063D03*
X0530197Y0356850D03*
X0534134Y0361575D03*
X0562480Y0365512D03*
X0571535Y0366299D03*
X0564449Y0340709D03*
X0533740Y0320236D03*
X0526260Y0321417D03*
X0496339Y0311969D03*
X0487677Y0312756D03*
X0505787Y0283228D03*
X0512087Y0282047D03*
X0508937Y0276142D03*
X0534921Y0263937D03*
X0544370Y0272598D03*
X0517205Y0256063D03*
X0492402Y0241102D03*
X0484528Y0247402D03*
X0453819Y0263150D03*
X0460906Y0277323D03*
X0423898Y0249764D03*
X0420748Y0259213D03*
X0419173Y0271024D03*
X0415236Y0280472D03*
X0406969Y0300551D03*
X0533740Y0299370D03*
X0522717Y0385984D03*
X0549882Y0401732D03*
M02*
