G75*
%MOIN*%
%OFA0B0*%
%FSLAX25Y25*%
%IPPOS*%
%LPD*%
%AMOC8*
5,1,8,0,0,1.08239X$1,22.5*
%
%ADD10C,0.05000*%
%ADD11C,0.00450*%
%ADD12R,0.17000X0.06000*%
%ADD13C,0.06600*%
%ADD14C,0.06000*%
%ADD15C,0.01000*%
%ADD16R,0.03962X0.03962*%
%ADD17C,0.02400*%
%ADD18C,0.03569*%
%ADD19C,0.01600*%
%ADD20C,0.04000*%
%ADD21C,0.03200*%
%ADD22C,0.01200*%
D10*
X0395000Y0385000D03*
D11*
X0392904Y0387025D02*
X0385354Y0387025D01*
X0392904Y0387025D02*
X0392904Y0382975D01*
X0385354Y0382975D01*
X0385354Y0387025D01*
X0385354Y0383424D02*
X0392904Y0383424D01*
X0392904Y0383873D02*
X0385354Y0383873D01*
X0385354Y0384322D02*
X0392904Y0384322D01*
X0392904Y0384771D02*
X0385354Y0384771D01*
X0385354Y0385220D02*
X0392904Y0385220D01*
X0392904Y0385669D02*
X0385354Y0385669D01*
X0385354Y0386118D02*
X0392904Y0386118D01*
X0392904Y0386567D02*
X0385354Y0386567D01*
X0385354Y0387016D02*
X0392904Y0387016D01*
D12*
X0384250Y0395000D03*
X0384250Y0375000D03*
D13*
X0407953Y0416693D03*
X0417953Y0416693D03*
X0427953Y0416693D03*
X0437953Y0416693D03*
X0447953Y0416693D03*
X0457953Y0416693D03*
X0467953Y0416693D03*
X0477953Y0416693D03*
X0487953Y0416693D03*
X0497953Y0416693D03*
X0507953Y0416693D03*
X0517953Y0416693D03*
X0527953Y0416693D03*
X0537953Y0416693D03*
X0547953Y0416693D03*
X0557953Y0416693D03*
X0567953Y0416693D03*
X0577953Y0416693D03*
X0587953Y0416693D03*
X0597953Y0416693D03*
X0597953Y0426693D03*
X0587953Y0426693D03*
X0577953Y0426693D03*
X0567953Y0426693D03*
X0557953Y0426693D03*
X0547953Y0426693D03*
X0537953Y0426693D03*
X0527953Y0426693D03*
X0517953Y0426693D03*
X0507953Y0426693D03*
X0497953Y0426693D03*
X0487953Y0426693D03*
X0477953Y0426693D03*
X0467953Y0426693D03*
X0457953Y0426693D03*
X0447953Y0426693D03*
X0437953Y0426693D03*
X0427953Y0426693D03*
X0417953Y0426693D03*
X0407953Y0426693D03*
D14*
X0613000Y0390000D02*
X0619000Y0390000D01*
X0618000Y0380000D02*
X0612000Y0380000D01*
X0613000Y0370000D02*
X0619000Y0370000D01*
X0618000Y0360000D02*
X0612000Y0360000D01*
X0613000Y0350000D02*
X0619000Y0350000D01*
X0618000Y0340000D02*
X0612000Y0340000D01*
D15*
X0379500Y0287000D02*
X0379500Y0232539D01*
X0380292Y0234451D01*
X0383108Y0237267D01*
X0386788Y0238791D01*
X0390771Y0238791D01*
X0394451Y0237267D01*
X0397267Y0234451D01*
X0398791Y0230771D01*
X0398791Y0226788D01*
X0397267Y0223108D01*
X0394451Y0220292D01*
X0392539Y0219500D01*
X0613367Y0219500D01*
X0611455Y0220292D01*
X0608638Y0223108D01*
X0607114Y0226788D01*
X0607114Y0230771D01*
X0608638Y0234451D01*
X0611455Y0237267D01*
X0615134Y0238791D01*
X0619117Y0238791D01*
X0622797Y0237267D01*
X0625614Y0234451D01*
X0626406Y0232539D01*
X0626406Y0325730D01*
X0624781Y0324105D01*
X0623966Y0323290D01*
X0622900Y0322848D01*
X0578248Y0322848D01*
X0554060Y0298660D01*
X0554295Y0298660D01*
X0554507Y0298681D01*
X0555016Y0298526D01*
X0555546Y0298474D01*
X0555807Y0298335D01*
X0556101Y0298306D01*
X0556571Y0298055D01*
X0557080Y0297900D01*
X0557309Y0297713D01*
X0557592Y0297627D01*
X0558003Y0297289D01*
X0558473Y0297038D01*
X0558660Y0296810D01*
X0558921Y0296670D01*
X0559259Y0296259D01*
X0559670Y0295921D01*
X0559810Y0295660D01*
X0560038Y0295473D01*
X0560289Y0295003D01*
X0560627Y0294592D01*
X0560713Y0294309D01*
X0560900Y0294080D01*
X0561055Y0293571D01*
X0561306Y0293101D01*
X0561335Y0292807D01*
X0561474Y0292546D01*
X0561526Y0292016D01*
X0561681Y0291507D01*
X0561660Y0291295D01*
X0561660Y0290660D01*
X0561738Y0289870D01*
X0561660Y0289614D01*
X0561660Y0231696D01*
X0561732Y0231468D01*
X0561660Y0230649D01*
X0561660Y0230117D01*
X0561694Y0229860D01*
X0561541Y0229289D01*
X0561490Y0228701D01*
X0561387Y0228504D01*
X0561377Y0228282D01*
X0561128Y0227747D01*
X0560975Y0227177D01*
X0560840Y0227000D01*
X0560792Y0226784D01*
X0560453Y0226300D01*
X0560203Y0225765D01*
X0560040Y0225615D01*
X0559955Y0225409D01*
X0559537Y0224992D01*
X0559198Y0224508D01*
X0559011Y0224389D01*
X0558892Y0224202D01*
X0558408Y0223863D01*
X0557991Y0223445D01*
X0557785Y0223360D01*
X0557635Y0223197D01*
X0557100Y0222947D01*
X0556616Y0222608D01*
X0556400Y0222560D01*
X0556223Y0222425D01*
X0555653Y0222272D01*
X0555118Y0222023D01*
X0554896Y0222013D01*
X0554699Y0221910D01*
X0554111Y0221859D01*
X0553540Y0221706D01*
X0553283Y0221740D01*
X0552826Y0221740D01*
X0552570Y0221662D01*
X0552237Y0221695D01*
X0551932Y0221668D01*
X0551704Y0221740D01*
X0550986Y0221740D01*
X0550968Y0221747D01*
X0550808Y0221731D01*
X0550299Y0221886D01*
X0549769Y0221938D01*
X0549452Y0222108D01*
X0549094Y0222143D01*
X0548624Y0222394D01*
X0548115Y0222548D01*
X0547837Y0222777D01*
X0547493Y0222881D01*
X0547081Y0223219D01*
X0546612Y0223469D01*
X0546384Y0223748D01*
X0546066Y0223917D01*
X0545729Y0224329D01*
X0545317Y0224666D01*
X0545148Y0224984D01*
X0544869Y0225212D01*
X0544619Y0225681D01*
X0544281Y0226093D01*
X0544177Y0226437D01*
X0543948Y0226715D01*
X0543794Y0227224D01*
X0543543Y0227694D01*
X0543508Y0228052D01*
X0543338Y0228369D01*
X0543286Y0228899D01*
X0543131Y0229408D01*
X0543147Y0229568D01*
X0543140Y0229586D01*
X0543140Y0230380D01*
X0543062Y0231170D01*
X0543140Y0231426D01*
X0543140Y0269337D01*
X0542396Y0269645D01*
X0542343Y0269698D01*
X0536910Y0269698D01*
X0534633Y0267421D01*
X0535614Y0267421D01*
X0536895Y0266891D01*
X0537875Y0265911D01*
X0538405Y0264630D01*
X0538405Y0263988D01*
X0538615Y0263778D01*
X0538996Y0262859D01*
X0538996Y0244542D01*
X0538615Y0243623D01*
X0537912Y0242920D01*
X0536993Y0242539D01*
X0507610Y0242539D01*
X0504054Y0238983D01*
X0503135Y0238602D01*
X0494829Y0238602D01*
X0494375Y0238149D01*
X0493095Y0237618D01*
X0491709Y0237618D01*
X0490428Y0238149D01*
X0489448Y0239129D01*
X0488917Y0240409D01*
X0488917Y0241795D01*
X0489448Y0243076D01*
X0490428Y0244056D01*
X0491709Y0244587D01*
X0493095Y0244587D01*
X0494375Y0244056D01*
X0494829Y0243602D01*
X0501602Y0243602D01*
X0504455Y0246455D01*
X0505159Y0247159D01*
X0506078Y0247539D01*
X0533996Y0247539D01*
X0533996Y0260549D01*
X0532948Y0260983D01*
X0532703Y0261228D01*
X0532703Y0257848D01*
X0532262Y0256782D01*
X0529899Y0254420D01*
X0529084Y0253604D01*
X0528018Y0253163D01*
X0519232Y0253163D01*
X0519178Y0253109D01*
X0517898Y0252579D01*
X0516512Y0252579D01*
X0515231Y0253109D01*
X0514251Y0254089D01*
X0513720Y0255370D01*
X0513720Y0256756D01*
X0514251Y0258037D01*
X0515231Y0259017D01*
X0516512Y0259547D01*
X0517898Y0259547D01*
X0519178Y0259017D01*
X0519232Y0258963D01*
X0526240Y0258963D01*
X0526903Y0259626D01*
X0526903Y0267270D01*
X0527345Y0268336D01*
X0528160Y0269151D01*
X0532251Y0273242D01*
X0510964Y0273242D01*
X0510911Y0273188D01*
X0509630Y0272657D01*
X0508244Y0272657D01*
X0506963Y0273188D01*
X0505983Y0274168D01*
X0505453Y0275449D01*
X0505453Y0276835D01*
X0505983Y0278115D01*
X0506963Y0279096D01*
X0508244Y0279626D01*
X0509580Y0279626D01*
X0509133Y0280074D01*
X0508672Y0281186D01*
X0507761Y0280275D01*
X0506480Y0279744D01*
X0505094Y0279744D01*
X0503814Y0280275D01*
X0502834Y0281255D01*
X0502303Y0282535D01*
X0502303Y0283921D01*
X0502834Y0285202D01*
X0502877Y0285246D01*
X0502887Y0285629D01*
X0502887Y0286167D01*
X0502903Y0286204D01*
X0502904Y0286243D01*
X0503123Y0286736D01*
X0503329Y0287233D01*
X0503357Y0287261D01*
X0503373Y0287297D01*
X0503764Y0287668D01*
X0504145Y0288049D01*
X0504181Y0288064D01*
X0518242Y0301404D01*
X0518242Y0373175D01*
X0518683Y0374241D01*
X0531675Y0387233D01*
X0532491Y0388049D01*
X0533557Y0388491D01*
X0546982Y0388491D01*
X0546982Y0399705D01*
X0546928Y0399759D01*
X0546398Y0401039D01*
X0546398Y0402425D01*
X0546928Y0403706D01*
X0547908Y0404686D01*
X0549189Y0405217D01*
X0550575Y0405217D01*
X0551856Y0404686D01*
X0552836Y0403706D01*
X0553366Y0402425D01*
X0553366Y0401039D01*
X0552836Y0399759D01*
X0552782Y0399705D01*
X0552782Y0386588D01*
X0552340Y0385523D01*
X0551525Y0384707D01*
X0549950Y0383132D01*
X0548884Y0382691D01*
X0535335Y0382691D01*
X0524042Y0371397D01*
X0524042Y0370545D01*
X0524617Y0371120D01*
X0524617Y0371120D01*
X0532463Y0378966D01*
X0532463Y0378966D01*
X0533279Y0379781D01*
X0534344Y0380223D01*
X0547500Y0380223D01*
X0555053Y0387776D01*
X0555053Y0412522D01*
X0553714Y0413861D01*
X0552953Y0415698D01*
X0552953Y0417687D01*
X0553714Y0419525D01*
X0555120Y0420932D01*
X0556958Y0421693D01*
X0558947Y0421693D01*
X0560785Y0422454D01*
X0562192Y0423861D01*
X0562953Y0425698D01*
X0562953Y0427687D01*
X0562192Y0429525D01*
X0560785Y0430932D01*
X0558947Y0431693D01*
X0556958Y0431693D01*
X0555120Y0430932D01*
X0553714Y0429525D01*
X0552953Y0427687D01*
X0552953Y0425698D01*
X0553714Y0423861D01*
X0555120Y0422454D01*
X0556958Y0421693D01*
X0558947Y0421693D01*
X0560785Y0420932D01*
X0562192Y0419525D01*
X0562953Y0417687D01*
X0562953Y0415698D01*
X0563714Y0413861D01*
X0565120Y0412454D01*
X0566958Y0411693D01*
X0568947Y0411693D01*
X0570785Y0412454D01*
X0572192Y0413861D01*
X0572953Y0415698D01*
X0573714Y0413861D01*
X0575053Y0412522D01*
X0575053Y0409699D01*
X0575494Y0408633D01*
X0582463Y0401664D01*
X0583279Y0400849D01*
X0584344Y0400407D01*
X0622303Y0400407D01*
X0622572Y0400137D01*
X0622572Y0393074D01*
X0621662Y0393984D01*
X0619935Y0394700D01*
X0612065Y0394700D01*
X0610338Y0393984D01*
X0609016Y0392662D01*
X0608300Y0390935D01*
X0608300Y0389065D01*
X0609016Y0387338D01*
X0610338Y0386016D01*
X0612065Y0385300D01*
X0619935Y0385300D01*
X0621662Y0386016D01*
X0622572Y0386926D01*
X0622572Y0373074D01*
X0621662Y0373984D01*
X0619935Y0374700D01*
X0612065Y0374700D01*
X0610338Y0373984D01*
X0609889Y0373536D01*
X0588478Y0373536D01*
X0583808Y0378207D01*
X0582742Y0378648D01*
X0556392Y0378648D01*
X0555326Y0378207D01*
X0554510Y0377391D01*
X0545531Y0368412D01*
X0531195Y0368412D01*
X0530129Y0367970D01*
X0529313Y0367155D01*
X0529160Y0367001D01*
X0529160Y0367460D01*
X0536122Y0374423D01*
X0549278Y0374423D01*
X0550344Y0374864D01*
X0551159Y0375680D01*
X0560411Y0384932D01*
X0560853Y0385998D01*
X0560853Y0412522D01*
X0562192Y0413861D01*
X0562953Y0415698D01*
X0562953Y0417687D01*
X0563714Y0419525D01*
X0565120Y0420932D01*
X0566958Y0421693D01*
X0568947Y0421693D01*
X0570785Y0420932D01*
X0572192Y0419525D01*
X0572953Y0417687D01*
X0572953Y0415698D01*
X0572953Y0417687D01*
X0573714Y0419525D01*
X0575120Y0420932D01*
X0576958Y0421693D01*
X0578947Y0421693D01*
X0580785Y0422454D01*
X0582192Y0423861D01*
X0582953Y0425698D01*
X0583714Y0423861D01*
X0585120Y0422454D01*
X0586958Y0421693D01*
X0588947Y0421693D01*
X0590785Y0422454D01*
X0592192Y0423861D01*
X0592953Y0425698D01*
X0593714Y0423861D01*
X0595120Y0422454D01*
X0596958Y0421693D01*
X0598947Y0421693D01*
X0600785Y0422454D01*
X0602192Y0423861D01*
X0602953Y0425698D01*
X0602953Y0427687D01*
X0602192Y0429525D01*
X0600785Y0430932D01*
X0598947Y0431693D01*
X0596958Y0431693D01*
X0595120Y0430932D01*
X0593714Y0429525D01*
X0592953Y0427687D01*
X0592953Y0425698D01*
X0592953Y0427687D01*
X0592192Y0429525D01*
X0590785Y0430932D01*
X0588947Y0431693D01*
X0586958Y0431693D01*
X0585120Y0430932D01*
X0583714Y0429525D01*
X0582953Y0427687D01*
X0582953Y0425698D01*
X0582953Y0427687D01*
X0582192Y0429525D01*
X0580785Y0430932D01*
X0578947Y0431693D01*
X0576958Y0431693D01*
X0575120Y0430932D01*
X0573714Y0429525D01*
X0572953Y0427687D01*
X0572953Y0425698D01*
X0573714Y0423861D01*
X0575120Y0422454D01*
X0576958Y0421693D01*
X0578947Y0421693D01*
X0580785Y0420932D01*
X0582192Y0419525D01*
X0582953Y0417687D01*
X0582953Y0415698D01*
X0583714Y0413861D01*
X0585120Y0412454D01*
X0586958Y0411693D01*
X0588947Y0411693D01*
X0590785Y0412454D01*
X0592192Y0413861D01*
X0592953Y0415698D01*
X0592953Y0417687D01*
X0592192Y0419525D01*
X0590785Y0420932D01*
X0588947Y0421693D01*
X0586958Y0421693D01*
X0585120Y0420932D01*
X0583714Y0419525D01*
X0582953Y0417687D01*
X0582953Y0415698D01*
X0582192Y0413861D01*
X0580853Y0412522D01*
X0580853Y0411477D01*
X0586122Y0406207D01*
X0624081Y0406207D01*
X0625147Y0405766D01*
X0626406Y0404507D01*
X0626406Y0417934D01*
X0625614Y0416022D01*
X0622797Y0413205D01*
X0619117Y0411681D01*
X0615134Y0411681D01*
X0611455Y0413205D01*
X0608638Y0416022D01*
X0607114Y0419701D01*
X0607114Y0423684D01*
X0608638Y0427364D01*
X0611455Y0430181D01*
X0615134Y0431705D01*
X0619117Y0431705D01*
X0622797Y0430181D01*
X0625614Y0427364D01*
X0626406Y0425452D01*
X0626406Y0425630D01*
X0626343Y0426584D01*
X0625849Y0428428D01*
X0624895Y0430081D01*
X0623545Y0431430D01*
X0621892Y0432384D01*
X0620049Y0432878D01*
X0619095Y0432941D01*
X0524571Y0432941D01*
X0524836Y0432676D01*
X0525217Y0431757D01*
X0525217Y0430971D01*
X0526958Y0431693D01*
X0528947Y0431693D01*
X0530785Y0430932D01*
X0532192Y0429525D01*
X0532953Y0427687D01*
X0532953Y0425698D01*
X0533714Y0423861D01*
X0535120Y0422454D01*
X0536958Y0421693D01*
X0538947Y0421693D01*
X0540785Y0422454D01*
X0542192Y0423861D01*
X0542953Y0425698D01*
X0542953Y0427687D01*
X0542192Y0429525D01*
X0540785Y0430932D01*
X0538947Y0431693D01*
X0536958Y0431693D01*
X0535120Y0430932D01*
X0533714Y0429525D01*
X0532953Y0427687D01*
X0532953Y0425698D01*
X0532192Y0423861D01*
X0530785Y0422454D01*
X0528947Y0421693D01*
X0526958Y0421693D01*
X0525217Y0422414D01*
X0525217Y0420638D01*
X0525437Y0420798D01*
X0526110Y0421141D01*
X0526829Y0421375D01*
X0527567Y0421492D01*
X0527567Y0417079D01*
X0528339Y0417079D01*
X0532751Y0417079D01*
X0532635Y0417817D01*
X0532401Y0418535D01*
X0532058Y0419209D01*
X0531614Y0419820D01*
X0531080Y0420354D01*
X0530468Y0420798D01*
X0529795Y0421141D01*
X0529077Y0421375D01*
X0528339Y0421492D01*
X0528339Y0417079D01*
X0528339Y0416307D01*
X0532751Y0416307D01*
X0532635Y0415569D01*
X0532401Y0414850D01*
X0532058Y0414177D01*
X0531614Y0413566D01*
X0531080Y0413032D01*
X0530468Y0412588D01*
X0529795Y0412245D01*
X0529077Y0412011D01*
X0528339Y0411894D01*
X0528339Y0416307D01*
X0527567Y0416307D01*
X0527567Y0411894D01*
X0526829Y0412011D01*
X0526110Y0412245D01*
X0525437Y0412588D01*
X0525217Y0412748D01*
X0525217Y0388412D01*
X0525670Y0387958D01*
X0526201Y0386677D01*
X0526201Y0385291D01*
X0525670Y0384011D01*
X0524690Y0383030D01*
X0523410Y0382500D01*
X0522023Y0382500D01*
X0520743Y0383030D01*
X0519763Y0384011D01*
X0519232Y0385291D01*
X0519232Y0386677D01*
X0519763Y0387958D01*
X0520217Y0388412D01*
X0520217Y0405761D01*
X0501601Y0387145D01*
X0501601Y0358090D01*
X0501655Y0358037D01*
X0502185Y0356756D01*
X0502185Y0355370D01*
X0501655Y0354089D01*
X0500674Y0353109D01*
X0499394Y0352579D01*
X0498008Y0352579D01*
X0496727Y0353109D01*
X0495747Y0354089D01*
X0495217Y0355370D01*
X0495217Y0356756D01*
X0495747Y0358037D01*
X0495801Y0358090D01*
X0495801Y0387816D01*
X0495295Y0387311D01*
X0495295Y0374070D01*
X0494915Y0373151D01*
X0485453Y0363689D01*
X0485453Y0352768D01*
X0489093Y0349127D01*
X0489797Y0348424D01*
X0490177Y0347505D01*
X0490177Y0315183D01*
X0490631Y0314730D01*
X0491161Y0313449D01*
X0491161Y0312063D01*
X0490690Y0310925D01*
X0491760Y0310925D01*
X0492854Y0312020D01*
X0492854Y0312662D01*
X0493385Y0313942D01*
X0494365Y0314922D01*
X0495646Y0315453D01*
X0497032Y0315453D01*
X0498312Y0314922D01*
X0499292Y0313942D01*
X0499823Y0312662D01*
X0499823Y0311275D01*
X0499292Y0309995D01*
X0498312Y0309015D01*
X0497032Y0308484D01*
X0496390Y0308484D01*
X0494211Y0306306D01*
X0493293Y0305925D01*
X0480487Y0305925D01*
X0479568Y0306306D01*
X0478865Y0307009D01*
X0461443Y0324431D01*
X0461443Y0310998D01*
X0461002Y0309932D01*
X0460186Y0309116D01*
X0439396Y0288326D01*
X0439396Y0260211D01*
X0438955Y0259145D01*
X0438139Y0258329D01*
X0427115Y0247305D01*
X0426049Y0246864D01*
X0425925Y0246864D01*
X0425871Y0246810D01*
X0424591Y0246280D01*
X0423205Y0246280D01*
X0421924Y0246810D01*
X0420944Y0247790D01*
X0420413Y0249071D01*
X0420413Y0250457D01*
X0420944Y0251737D01*
X0421924Y0252718D01*
X0423205Y0253248D01*
X0424591Y0253248D01*
X0424778Y0253170D01*
X0433596Y0261989D01*
X0433596Y0273688D01*
X0433443Y0273318D01*
X0432627Y0272502D01*
X0423648Y0263523D01*
X0423648Y0261240D01*
X0423702Y0261186D01*
X0424232Y0259906D01*
X0424232Y0258520D01*
X0423702Y0257239D01*
X0422722Y0256259D01*
X0421441Y0255728D01*
X0420055Y0255728D01*
X0418774Y0256259D01*
X0417794Y0257239D01*
X0417264Y0258520D01*
X0417264Y0259906D01*
X0417794Y0261186D01*
X0417848Y0261240D01*
X0417848Y0265301D01*
X0418290Y0266367D01*
X0419462Y0267539D01*
X0418480Y0267539D01*
X0417200Y0268070D01*
X0416219Y0269050D01*
X0415689Y0270331D01*
X0415689Y0271717D01*
X0416219Y0272997D01*
X0417200Y0273977D01*
X0417644Y0274162D01*
X0422172Y0278690D01*
X0422172Y0296089D01*
X0422675Y0297302D01*
X0443432Y0318060D01*
X0443432Y0372467D01*
X0443935Y0373680D01*
X0454456Y0384202D01*
X0454456Y0413119D01*
X0453714Y0413861D01*
X0452953Y0415698D01*
X0452953Y0417687D01*
X0453714Y0419525D01*
X0455120Y0420932D01*
X0456958Y0421693D01*
X0458947Y0421693D01*
X0459307Y0421842D01*
X0459817Y0421333D01*
X0458947Y0421693D01*
X0456958Y0421693D01*
X0455120Y0422454D01*
X0453714Y0423861D01*
X0452953Y0425698D01*
X0452953Y0427687D01*
X0453714Y0429525D01*
X0455120Y0430932D01*
X0456958Y0431693D01*
X0458947Y0431693D01*
X0460785Y0430932D01*
X0462192Y0429525D01*
X0462953Y0427687D01*
X0462953Y0425698D01*
X0462827Y0425394D01*
X0463644Y0424577D01*
X0463504Y0424850D01*
X0463271Y0425569D01*
X0463154Y0426307D01*
X0467567Y0426307D01*
X0468339Y0426307D01*
X0468339Y0421894D01*
X0469077Y0422011D01*
X0469795Y0422245D01*
X0470468Y0422588D01*
X0470610Y0422691D01*
X0470610Y0421665D01*
X0470143Y0421198D01*
X0468947Y0421693D01*
X0466958Y0421693D01*
X0465768Y0421200D01*
X0465768Y0421915D01*
X0465503Y0422554D01*
X0466110Y0422245D01*
X0466829Y0422011D01*
X0467567Y0421894D01*
X0467567Y0426307D01*
X0467567Y0427079D01*
X0467567Y0431492D01*
X0466829Y0431375D01*
X0466110Y0431141D01*
X0465437Y0430798D01*
X0464826Y0430354D01*
X0464292Y0429820D01*
X0463847Y0429209D01*
X0463504Y0428535D01*
X0463271Y0427817D01*
X0463154Y0427079D01*
X0467567Y0427079D01*
X0468339Y0427079D01*
X0468339Y0431492D01*
X0469077Y0431375D01*
X0469795Y0431141D01*
X0470468Y0430798D01*
X0470610Y0430695D01*
X0470610Y0431757D01*
X0470991Y0432676D01*
X0471256Y0432941D01*
X0386811Y0432941D01*
X0385857Y0432878D01*
X0384013Y0432384D01*
X0382360Y0431430D01*
X0381011Y0430081D01*
X0380057Y0428428D01*
X0379563Y0426584D01*
X0379500Y0425630D01*
X0379500Y0425452D01*
X0380292Y0427364D01*
X0383108Y0430181D01*
X0386788Y0431705D01*
X0390771Y0431705D01*
X0394451Y0430181D01*
X0397267Y0427364D01*
X0398791Y0423684D01*
X0398791Y0419701D01*
X0397267Y0416022D01*
X0394451Y0413205D01*
X0390771Y0411681D01*
X0386788Y0411681D01*
X0383108Y0413205D01*
X0380292Y0416022D01*
X0379500Y0417934D01*
X0379500Y0399700D01*
X0393454Y0399700D01*
X0394450Y0398704D01*
X0394450Y0391296D01*
X0393454Y0390300D01*
X0379500Y0390300D01*
X0379500Y0379700D01*
X0393454Y0379700D01*
X0394450Y0378704D01*
X0394450Y0371296D01*
X0393454Y0370300D01*
X0379500Y0370300D01*
X0379500Y0363800D01*
X0390037Y0363800D01*
X0390066Y0363812D01*
X0391031Y0363800D01*
X0391995Y0363800D01*
X0392024Y0363788D01*
X0392055Y0363787D01*
X0392942Y0363408D01*
X0393087Y0363347D01*
X0393235Y0363341D01*
X0393739Y0363106D01*
X0394278Y0362961D01*
X0394482Y0362805D01*
X0394733Y0362749D01*
X0395190Y0362429D01*
X0395407Y0362328D01*
X0395407Y0366482D01*
X0395849Y0367548D01*
X0396664Y0368364D01*
X0415053Y0386752D01*
X0415053Y0412522D01*
X0413714Y0413861D01*
X0412953Y0415698D01*
X0412953Y0417687D01*
X0413714Y0419525D01*
X0415120Y0420932D01*
X0416958Y0421693D01*
X0418947Y0421693D01*
X0420785Y0422454D01*
X0422192Y0423861D01*
X0422953Y0425698D01*
X0422953Y0427687D01*
X0422192Y0429525D01*
X0420785Y0430932D01*
X0418947Y0431693D01*
X0416958Y0431693D01*
X0415120Y0430932D01*
X0413714Y0429525D01*
X0412953Y0427687D01*
X0412953Y0425698D01*
X0413714Y0423861D01*
X0415120Y0422454D01*
X0416958Y0421693D01*
X0418947Y0421693D01*
X0420785Y0420932D01*
X0422192Y0419525D01*
X0422953Y0417687D01*
X0422953Y0415698D01*
X0423714Y0413861D01*
X0425053Y0412522D01*
X0425053Y0384941D01*
X0403357Y0363246D01*
X0402541Y0362430D01*
X0402100Y0361364D01*
X0402100Y0301943D01*
X0402541Y0300877D01*
X0403484Y0299934D01*
X0403484Y0299858D01*
X0404015Y0298578D01*
X0404995Y0297597D01*
X0406275Y0297067D01*
X0407662Y0297067D01*
X0408942Y0297597D01*
X0409922Y0298578D01*
X0410453Y0299858D01*
X0410453Y0301244D01*
X0409922Y0302525D01*
X0408942Y0303505D01*
X0407900Y0303937D01*
X0407900Y0359586D01*
X0430411Y0382097D01*
X0430853Y0383163D01*
X0430853Y0412522D01*
X0432192Y0413861D01*
X0432953Y0415698D01*
X0433714Y0413861D01*
X0434653Y0412922D01*
X0434653Y0323454D01*
X0412439Y0301239D01*
X0411936Y0300026D01*
X0411936Y0281610D01*
X0411752Y0281166D01*
X0411752Y0279779D01*
X0412282Y0278499D01*
X0413263Y0277519D01*
X0414543Y0276988D01*
X0415929Y0276988D01*
X0417210Y0277519D01*
X0418190Y0278499D01*
X0418720Y0279779D01*
X0418720Y0281166D01*
X0418536Y0281610D01*
X0418536Y0298003D01*
X0439822Y0319289D01*
X0440750Y0320217D01*
X0441253Y0321430D01*
X0441253Y0412922D01*
X0442192Y0413861D01*
X0442953Y0415698D01*
X0442953Y0417687D01*
X0442192Y0419525D01*
X0440785Y0420932D01*
X0438947Y0421693D01*
X0440785Y0422454D01*
X0442192Y0423861D01*
X0442953Y0425698D01*
X0443714Y0423861D01*
X0445120Y0422454D01*
X0446958Y0421693D01*
X0448947Y0421693D01*
X0450785Y0422454D01*
X0452192Y0423861D01*
X0452953Y0425698D01*
X0452953Y0427687D01*
X0452192Y0429525D01*
X0450785Y0430932D01*
X0448947Y0431693D01*
X0446958Y0431693D01*
X0445120Y0430932D01*
X0443714Y0429525D01*
X0442953Y0427687D01*
X0442953Y0425698D01*
X0442953Y0427687D01*
X0442192Y0429525D01*
X0440785Y0430932D01*
X0438947Y0431693D01*
X0436958Y0431693D01*
X0435120Y0430932D01*
X0433714Y0429525D01*
X0432953Y0427687D01*
X0432953Y0425698D01*
X0433714Y0423861D01*
X0435120Y0422454D01*
X0436958Y0421693D01*
X0438947Y0421693D01*
X0436958Y0421693D01*
X0435120Y0420932D01*
X0433714Y0419525D01*
X0432953Y0417687D01*
X0432953Y0415698D01*
X0432953Y0417687D01*
X0432192Y0419525D01*
X0430785Y0420932D01*
X0428947Y0421693D01*
X0426958Y0421693D01*
X0425120Y0420932D01*
X0423714Y0419525D01*
X0422953Y0417687D01*
X0422953Y0415698D01*
X0422192Y0413861D01*
X0420853Y0412522D01*
X0420853Y0384974D01*
X0420411Y0383908D01*
X0401207Y0364704D01*
X0401207Y0295453D01*
X0408611Y0288049D01*
X0409427Y0287233D01*
X0409868Y0286167D01*
X0409868Y0250965D01*
X0417619Y0243215D01*
X0425059Y0243215D01*
X0446636Y0264792D01*
X0447452Y0265608D01*
X0448518Y0266050D01*
X0451791Y0266050D01*
X0451845Y0266103D01*
X0453126Y0266634D01*
X0454512Y0266634D01*
X0455793Y0266103D01*
X0456773Y0265123D01*
X0457303Y0263843D01*
X0457303Y0262457D01*
X0456773Y0261176D01*
X0455793Y0260196D01*
X0454512Y0259665D01*
X0453126Y0259665D01*
X0451845Y0260196D01*
X0451791Y0260250D01*
X0450296Y0260250D01*
X0427903Y0237856D01*
X0426837Y0237415D01*
X0415840Y0237415D01*
X0414775Y0237856D01*
X0413959Y0238672D01*
X0404510Y0248121D01*
X0404069Y0249187D01*
X0404069Y0284389D01*
X0397915Y0290543D01*
X0397632Y0290260D01*
X0397312Y0289803D01*
X0397095Y0289665D01*
X0396957Y0289448D01*
X0396500Y0289128D01*
X0396106Y0288734D01*
X0395868Y0288636D01*
X0395694Y0288446D01*
X0395190Y0288211D01*
X0394733Y0287891D01*
X0394482Y0287835D01*
X0394278Y0287679D01*
X0393739Y0287534D01*
X0393235Y0287299D01*
X0392977Y0287288D01*
X0392749Y0287169D01*
X0392194Y0287120D01*
X0391656Y0286976D01*
X0391475Y0287000D01*
X0390818Y0287000D01*
X0390045Y0286932D01*
X0389830Y0287000D01*
X0379500Y0287000D01*
X0379500Y0286811D02*
X0401647Y0286811D01*
X0402645Y0285812D02*
X0379500Y0285812D01*
X0379500Y0284814D02*
X0403644Y0284814D01*
X0404069Y0283815D02*
X0379500Y0283815D01*
X0379500Y0282817D02*
X0404069Y0282817D01*
X0404069Y0281818D02*
X0379500Y0281818D01*
X0379500Y0280820D02*
X0404069Y0280820D01*
X0404069Y0279821D02*
X0379500Y0279821D01*
X0379500Y0278823D02*
X0404069Y0278823D01*
X0404069Y0277824D02*
X0379500Y0277824D01*
X0379500Y0276826D02*
X0404069Y0276826D01*
X0404069Y0275827D02*
X0379500Y0275827D01*
X0379500Y0274829D02*
X0404069Y0274829D01*
X0404069Y0273830D02*
X0379500Y0273830D01*
X0379500Y0272832D02*
X0404069Y0272832D01*
X0404069Y0271833D02*
X0379500Y0271833D01*
X0379500Y0270835D02*
X0404069Y0270835D01*
X0404069Y0269836D02*
X0379500Y0269836D01*
X0379500Y0268838D02*
X0404069Y0268838D01*
X0404069Y0267839D02*
X0379500Y0267839D01*
X0379500Y0266841D02*
X0404069Y0266841D01*
X0404069Y0265842D02*
X0379500Y0265842D01*
X0379500Y0264844D02*
X0404069Y0264844D01*
X0404069Y0263845D02*
X0379500Y0263845D01*
X0379500Y0262847D02*
X0404069Y0262847D01*
X0404069Y0261848D02*
X0379500Y0261848D01*
X0379500Y0260850D02*
X0404069Y0260850D01*
X0404069Y0259851D02*
X0379500Y0259851D01*
X0379500Y0258853D02*
X0404069Y0258853D01*
X0404069Y0257854D02*
X0379500Y0257854D01*
X0379500Y0256856D02*
X0404069Y0256856D01*
X0404069Y0255857D02*
X0379500Y0255857D01*
X0379500Y0254859D02*
X0404069Y0254859D01*
X0404069Y0253860D02*
X0379500Y0253860D01*
X0379500Y0252862D02*
X0404069Y0252862D01*
X0404069Y0251863D02*
X0379500Y0251863D01*
X0379500Y0250865D02*
X0404069Y0250865D01*
X0404069Y0249866D02*
X0379500Y0249866D01*
X0379500Y0248868D02*
X0404201Y0248868D01*
X0404762Y0247869D02*
X0379500Y0247869D01*
X0379500Y0246870D02*
X0405761Y0246870D01*
X0406759Y0245872D02*
X0379500Y0245872D01*
X0379500Y0244873D02*
X0407758Y0244873D01*
X0408756Y0243875D02*
X0379500Y0243875D01*
X0379500Y0242876D02*
X0409755Y0242876D01*
X0410753Y0241878D02*
X0379500Y0241878D01*
X0379500Y0240879D02*
X0411752Y0240879D01*
X0412750Y0239881D02*
X0379500Y0239881D01*
X0379500Y0238882D02*
X0413749Y0238882D01*
X0414747Y0237884D02*
X0392962Y0237884D01*
X0394833Y0236885D02*
X0543140Y0236885D01*
X0543140Y0235887D02*
X0395831Y0235887D01*
X0396830Y0234888D02*
X0543140Y0234888D01*
X0543140Y0233890D02*
X0397499Y0233890D01*
X0397913Y0232891D02*
X0543140Y0232891D01*
X0543140Y0231893D02*
X0398327Y0231893D01*
X0398740Y0230894D02*
X0543089Y0230894D01*
X0543140Y0229896D02*
X0398791Y0229896D01*
X0398791Y0228897D02*
X0543286Y0228897D01*
X0543523Y0227899D02*
X0398791Y0227899D01*
X0398791Y0226900D02*
X0543892Y0226900D01*
X0544438Y0225902D02*
X0398424Y0225902D01*
X0398011Y0224903D02*
X0545191Y0224903D01*
X0546090Y0223905D02*
X0397597Y0223905D01*
X0397065Y0222906D02*
X0547462Y0222906D01*
X0550077Y0221908D02*
X0396067Y0221908D01*
X0395068Y0220909D02*
X0610837Y0220909D01*
X0609839Y0221908D02*
X0554668Y0221908D01*
X0557042Y0222906D02*
X0608840Y0222906D01*
X0608308Y0223905D02*
X0558468Y0223905D01*
X0559475Y0224903D02*
X0607895Y0224903D01*
X0607481Y0225902D02*
X0560267Y0225902D01*
X0560818Y0226900D02*
X0607114Y0226900D01*
X0607114Y0227899D02*
X0561199Y0227899D01*
X0561507Y0228897D02*
X0607114Y0228897D01*
X0607114Y0229896D02*
X0561689Y0229896D01*
X0561681Y0230894D02*
X0607165Y0230894D01*
X0607579Y0231893D02*
X0561660Y0231893D01*
X0561660Y0232891D02*
X0607992Y0232891D01*
X0608406Y0233890D02*
X0561660Y0233890D01*
X0561660Y0234888D02*
X0609076Y0234888D01*
X0610074Y0235887D02*
X0561660Y0235887D01*
X0561660Y0236885D02*
X0611073Y0236885D01*
X0612944Y0237884D02*
X0561660Y0237884D01*
X0561660Y0238882D02*
X0626406Y0238882D01*
X0626406Y0237884D02*
X0621308Y0237884D01*
X0623179Y0236885D02*
X0626406Y0236885D01*
X0626406Y0235887D02*
X0624177Y0235887D01*
X0625176Y0234888D02*
X0626406Y0234888D01*
X0626406Y0233890D02*
X0625846Y0233890D01*
X0626260Y0232891D02*
X0626406Y0232891D01*
X0626406Y0239881D02*
X0561660Y0239881D01*
X0561660Y0240879D02*
X0626406Y0240879D01*
X0626406Y0241878D02*
X0561660Y0241878D01*
X0561660Y0242876D02*
X0626406Y0242876D01*
X0626406Y0243875D02*
X0561660Y0243875D01*
X0561660Y0244873D02*
X0626406Y0244873D01*
X0626406Y0245872D02*
X0561660Y0245872D01*
X0561660Y0246870D02*
X0626406Y0246870D01*
X0626406Y0247869D02*
X0561660Y0247869D01*
X0561660Y0248868D02*
X0626406Y0248868D01*
X0626406Y0249866D02*
X0561660Y0249866D01*
X0561660Y0250865D02*
X0626406Y0250865D01*
X0626406Y0251863D02*
X0561660Y0251863D01*
X0561660Y0252862D02*
X0626406Y0252862D01*
X0626406Y0253860D02*
X0561660Y0253860D01*
X0561660Y0254859D02*
X0626406Y0254859D01*
X0626406Y0255857D02*
X0561660Y0255857D01*
X0561660Y0256856D02*
X0626406Y0256856D01*
X0626406Y0257854D02*
X0561660Y0257854D01*
X0561660Y0258853D02*
X0626406Y0258853D01*
X0626406Y0259851D02*
X0561660Y0259851D01*
X0561660Y0260850D02*
X0626406Y0260850D01*
X0626406Y0261848D02*
X0561660Y0261848D01*
X0561660Y0262847D02*
X0626406Y0262847D01*
X0626406Y0263845D02*
X0561660Y0263845D01*
X0561660Y0264844D02*
X0626406Y0264844D01*
X0626406Y0265842D02*
X0561660Y0265842D01*
X0561660Y0266841D02*
X0626406Y0266841D01*
X0626406Y0267839D02*
X0561660Y0267839D01*
X0561660Y0268838D02*
X0626406Y0268838D01*
X0626406Y0269836D02*
X0561660Y0269836D01*
X0561660Y0270835D02*
X0626406Y0270835D01*
X0626406Y0271833D02*
X0561660Y0271833D01*
X0561660Y0272832D02*
X0626406Y0272832D01*
X0626406Y0273830D02*
X0561660Y0273830D01*
X0561660Y0274829D02*
X0626406Y0274829D01*
X0626406Y0275827D02*
X0561660Y0275827D01*
X0561660Y0276826D02*
X0626406Y0276826D01*
X0626406Y0277824D02*
X0561660Y0277824D01*
X0561660Y0278823D02*
X0626406Y0278823D01*
X0626406Y0279821D02*
X0561660Y0279821D01*
X0561660Y0280820D02*
X0626406Y0280820D01*
X0626406Y0281818D02*
X0561660Y0281818D01*
X0561660Y0282817D02*
X0626406Y0282817D01*
X0626406Y0283815D02*
X0561660Y0283815D01*
X0561660Y0284814D02*
X0626406Y0284814D01*
X0626406Y0285812D02*
X0561660Y0285812D01*
X0561660Y0286811D02*
X0626406Y0286811D01*
X0626406Y0287809D02*
X0561660Y0287809D01*
X0561660Y0288808D02*
X0626406Y0288808D01*
X0626406Y0289806D02*
X0561718Y0289806D01*
X0561660Y0290805D02*
X0626406Y0290805D01*
X0626406Y0291803D02*
X0561591Y0291803D01*
X0561338Y0292802D02*
X0626406Y0292802D01*
X0626406Y0293801D02*
X0560985Y0293801D01*
X0560457Y0294799D02*
X0626406Y0294799D01*
X0626406Y0295798D02*
X0559736Y0295798D01*
X0558686Y0296796D02*
X0626406Y0296796D01*
X0626406Y0297795D02*
X0557209Y0297795D01*
X0555192Y0299792D02*
X0626406Y0299792D01*
X0626406Y0300790D02*
X0556191Y0300790D01*
X0557189Y0301789D02*
X0626406Y0301789D01*
X0626406Y0302787D02*
X0558188Y0302787D01*
X0559186Y0303786D02*
X0626406Y0303786D01*
X0626406Y0304784D02*
X0560185Y0304784D01*
X0561183Y0305783D02*
X0626406Y0305783D01*
X0626406Y0306781D02*
X0562182Y0306781D01*
X0563180Y0307780D02*
X0626406Y0307780D01*
X0626406Y0308778D02*
X0564179Y0308778D01*
X0565177Y0309777D02*
X0626406Y0309777D01*
X0626406Y0310775D02*
X0566176Y0310775D01*
X0567174Y0311774D02*
X0626406Y0311774D01*
X0626406Y0312772D02*
X0568173Y0312772D01*
X0569171Y0313771D02*
X0626406Y0313771D01*
X0626406Y0314769D02*
X0570170Y0314769D01*
X0571168Y0315768D02*
X0626406Y0315768D01*
X0626406Y0316766D02*
X0572167Y0316766D01*
X0573165Y0317765D02*
X0626406Y0317765D01*
X0626406Y0318763D02*
X0574164Y0318763D01*
X0575162Y0319762D02*
X0626406Y0319762D01*
X0626406Y0320760D02*
X0576161Y0320760D01*
X0577159Y0321759D02*
X0626406Y0321759D01*
X0626406Y0322757D02*
X0578158Y0322757D01*
X0575014Y0327816D02*
X0575223Y0328321D01*
X0575223Y0366089D01*
X0575020Y0366579D01*
X0575020Y0366992D01*
X0574489Y0368273D01*
X0574038Y0368724D01*
X0574126Y0368724D01*
X0582802Y0360047D01*
X0582802Y0359344D01*
X0583305Y0358131D01*
X0584233Y0357202D01*
X0585446Y0356700D01*
X0608653Y0356700D01*
X0609338Y0356016D01*
X0611065Y0355300D01*
X0618935Y0355300D01*
X0620662Y0356016D01*
X0621984Y0357338D01*
X0622572Y0358757D01*
X0622572Y0353074D01*
X0621662Y0353984D01*
X0619935Y0354700D01*
X0612065Y0354700D01*
X0610338Y0353984D01*
X0609016Y0352662D01*
X0608300Y0350935D01*
X0608300Y0349065D01*
X0609016Y0347338D01*
X0610338Y0346016D01*
X0612065Y0345300D01*
X0619935Y0345300D01*
X0621662Y0346016D01*
X0622572Y0346926D01*
X0622572Y0341243D01*
X0621984Y0342662D01*
X0620662Y0343984D01*
X0618935Y0344700D01*
X0611065Y0344700D01*
X0609338Y0343984D01*
X0608016Y0342662D01*
X0607300Y0340935D01*
X0607300Y0339065D01*
X0608016Y0337338D01*
X0609338Y0336016D01*
X0611065Y0335300D01*
X0618935Y0335300D01*
X0620662Y0336016D01*
X0621984Y0337338D01*
X0622572Y0338757D01*
X0622572Y0330099D01*
X0621122Y0328648D01*
X0576470Y0328648D01*
X0575405Y0328207D01*
X0575014Y0327816D01*
X0575223Y0328748D02*
X0621222Y0328748D01*
X0622221Y0329747D02*
X0575223Y0329747D01*
X0575223Y0330745D02*
X0622572Y0330745D01*
X0622572Y0331744D02*
X0575223Y0331744D01*
X0575223Y0332742D02*
X0622572Y0332742D01*
X0622572Y0333741D02*
X0575223Y0333741D01*
X0575223Y0334739D02*
X0622572Y0334739D01*
X0622572Y0335738D02*
X0619992Y0335738D01*
X0621383Y0336737D02*
X0622572Y0336737D01*
X0622572Y0337735D02*
X0622149Y0337735D01*
X0622563Y0338734D02*
X0622572Y0338734D01*
X0622572Y0341729D02*
X0622371Y0341729D01*
X0622572Y0342728D02*
X0621919Y0342728D01*
X0622572Y0343726D02*
X0620921Y0343726D01*
X0622572Y0344725D02*
X0575223Y0344725D01*
X0575223Y0345723D02*
X0611044Y0345723D01*
X0609632Y0346722D02*
X0575223Y0346722D01*
X0575223Y0347720D02*
X0608857Y0347720D01*
X0608444Y0348719D02*
X0575223Y0348719D01*
X0575223Y0349717D02*
X0608300Y0349717D01*
X0608300Y0350716D02*
X0575223Y0350716D01*
X0575223Y0351714D02*
X0608623Y0351714D01*
X0609066Y0352713D02*
X0575223Y0352713D01*
X0575223Y0353711D02*
X0610064Y0353711D01*
X0610080Y0355708D02*
X0575223Y0355708D01*
X0575223Y0354710D02*
X0622572Y0354710D01*
X0622572Y0355708D02*
X0619920Y0355708D01*
X0621354Y0356707D02*
X0622572Y0356707D01*
X0622572Y0357705D02*
X0622137Y0357705D01*
X0622550Y0358704D02*
X0622572Y0358704D01*
X0622572Y0361243D02*
X0621984Y0362662D01*
X0620662Y0363984D01*
X0618935Y0364700D01*
X0611065Y0364700D01*
X0609338Y0363984D01*
X0608653Y0363300D01*
X0586055Y0363300D01*
X0576507Y0372848D01*
X0580964Y0372848D01*
X0584480Y0369333D01*
X0584880Y0368367D01*
X0585808Y0367439D01*
X0587021Y0366936D01*
X0609417Y0366936D01*
X0610338Y0366016D01*
X0612065Y0365300D01*
X0619935Y0365300D01*
X0621662Y0366016D01*
X0622572Y0366926D01*
X0622572Y0361243D01*
X0622572Y0361699D02*
X0622383Y0361699D01*
X0622572Y0362698D02*
X0621949Y0362698D01*
X0622572Y0363696D02*
X0620950Y0363696D01*
X0622572Y0364695D02*
X0618947Y0364695D01*
X0620884Y0365693D02*
X0622572Y0365693D01*
X0622572Y0366692D02*
X0622339Y0366692D01*
X0622572Y0373681D02*
X0621965Y0373681D01*
X0622572Y0374680D02*
X0619983Y0374680D01*
X0619727Y0375830D02*
X0620359Y0376151D01*
X0620932Y0376568D01*
X0621432Y0377068D01*
X0621849Y0377641D01*
X0622170Y0378273D01*
X0622389Y0378946D01*
X0622477Y0379500D01*
X0615500Y0379500D01*
X0615500Y0380500D01*
X0614500Y0380500D01*
X0614500Y0384500D01*
X0611646Y0384500D01*
X0610946Y0384389D01*
X0610273Y0384170D01*
X0609641Y0383849D01*
X0609068Y0383432D01*
X0608568Y0382932D01*
X0608151Y0382359D01*
X0607830Y0381727D01*
X0607611Y0381054D01*
X0607523Y0380500D01*
X0614500Y0380500D01*
X0614500Y0379500D01*
X0615500Y0379500D01*
X0615500Y0375500D01*
X0618354Y0375500D01*
X0619054Y0375611D01*
X0619727Y0375830D01*
X0619262Y0375678D02*
X0622572Y0375678D01*
X0622572Y0376677D02*
X0621041Y0376677D01*
X0621866Y0377675D02*
X0622572Y0377675D01*
X0622572Y0378674D02*
X0622301Y0378674D01*
X0622572Y0379672D02*
X0615500Y0379672D01*
X0615500Y0380500D02*
X0622477Y0380500D01*
X0622389Y0381054D01*
X0622170Y0381727D01*
X0621849Y0382359D01*
X0621432Y0382932D01*
X0620932Y0383432D01*
X0620359Y0383849D01*
X0619727Y0384170D01*
X0619054Y0384389D01*
X0618354Y0384500D01*
X0615500Y0384500D01*
X0615500Y0380500D01*
X0615500Y0380671D02*
X0614500Y0380671D01*
X0614500Y0381670D02*
X0615500Y0381670D01*
X0615500Y0382668D02*
X0614500Y0382668D01*
X0614500Y0383667D02*
X0615500Y0383667D01*
X0614500Y0379672D02*
X0555152Y0379672D01*
X0554153Y0378674D02*
X0607699Y0378674D01*
X0607611Y0378946D02*
X0607830Y0378273D01*
X0608151Y0377641D01*
X0608568Y0377068D01*
X0609068Y0376568D01*
X0609641Y0376151D01*
X0610273Y0375830D01*
X0610946Y0375611D01*
X0611646Y0375500D01*
X0614500Y0375500D01*
X0614500Y0379500D01*
X0607523Y0379500D01*
X0607611Y0378946D01*
X0608134Y0377675D02*
X0584339Y0377675D01*
X0585338Y0376677D02*
X0608959Y0376677D01*
X0610738Y0375678D02*
X0586336Y0375678D01*
X0587335Y0374680D02*
X0612017Y0374680D01*
X0610035Y0373681D02*
X0588333Y0373681D01*
X0584125Y0369687D02*
X0579668Y0369687D01*
X0580666Y0368689D02*
X0584746Y0368689D01*
X0585556Y0367690D02*
X0581665Y0367690D01*
X0582663Y0366692D02*
X0609661Y0366692D01*
X0611116Y0365693D02*
X0583662Y0365693D01*
X0584660Y0364695D02*
X0611053Y0364695D01*
X0609050Y0363696D02*
X0585659Y0363696D01*
X0582149Y0360701D02*
X0575223Y0360701D01*
X0575223Y0361699D02*
X0581150Y0361699D01*
X0580152Y0362698D02*
X0575223Y0362698D01*
X0575223Y0363696D02*
X0579153Y0363696D01*
X0578155Y0364695D02*
X0575223Y0364695D01*
X0575223Y0365693D02*
X0577156Y0365693D01*
X0576158Y0366692D02*
X0575020Y0366692D01*
X0575159Y0367690D02*
X0574731Y0367690D01*
X0574161Y0368689D02*
X0574073Y0368689D01*
X0577671Y0371684D02*
X0582128Y0371684D01*
X0583126Y0370686D02*
X0578669Y0370686D01*
X0576672Y0372683D02*
X0581129Y0372683D01*
X0569032Y0368724D02*
X0568582Y0368273D01*
X0568051Y0366992D01*
X0568051Y0365606D01*
X0568582Y0364326D01*
X0569423Y0363484D01*
X0569423Y0330099D01*
X0533720Y0294396D01*
X0522140Y0294396D01*
X0521074Y0293955D01*
X0520258Y0293139D01*
X0512651Y0285531D01*
X0511394Y0285531D01*
X0510113Y0285001D01*
X0509202Y0284090D01*
X0508981Y0284623D01*
X0522748Y0297684D01*
X0522784Y0297699D01*
X0523165Y0298080D01*
X0523556Y0298451D01*
X0523572Y0298487D01*
X0523600Y0298515D01*
X0523806Y0299012D01*
X0524026Y0299505D01*
X0524027Y0299544D01*
X0524042Y0299581D01*
X0524042Y0300119D01*
X0524056Y0300658D01*
X0524042Y0300695D01*
X0524042Y0318708D01*
X0524286Y0318464D01*
X0525567Y0317933D01*
X0526953Y0317933D01*
X0528234Y0318464D01*
X0529214Y0319444D01*
X0529744Y0320724D01*
X0529744Y0322110D01*
X0529214Y0323391D01*
X0529160Y0323445D01*
X0529160Y0353509D01*
X0529504Y0353366D01*
X0530890Y0353366D01*
X0532171Y0353897D01*
X0533151Y0354877D01*
X0533681Y0356157D01*
X0533681Y0357543D01*
X0533454Y0358091D01*
X0534827Y0358091D01*
X0536108Y0358621D01*
X0536761Y0359275D01*
X0550047Y0359275D01*
X0559496Y0368724D01*
X0561130Y0368724D01*
X0560507Y0368466D01*
X0559527Y0367485D01*
X0558996Y0366205D01*
X0558996Y0364819D01*
X0559527Y0363538D01*
X0559580Y0363484D01*
X0559580Y0342100D01*
X0560022Y0341034D01*
X0560965Y0340092D01*
X0560965Y0340016D01*
X0561495Y0338735D01*
X0562475Y0337755D01*
X0563756Y0337224D01*
X0565142Y0337224D01*
X0566422Y0337755D01*
X0567403Y0338735D01*
X0567933Y0340016D01*
X0567933Y0341402D01*
X0567403Y0342682D01*
X0566422Y0343662D01*
X0565380Y0344094D01*
X0565380Y0363484D01*
X0565434Y0363538D01*
X0565965Y0364819D01*
X0565965Y0366205D01*
X0565434Y0367485D01*
X0564454Y0368466D01*
X0563831Y0368724D01*
X0569032Y0368724D01*
X0568998Y0368689D02*
X0563915Y0368689D01*
X0565229Y0367690D02*
X0568340Y0367690D01*
X0568051Y0366692D02*
X0565763Y0366692D01*
X0565965Y0365693D02*
X0568051Y0365693D01*
X0568429Y0364695D02*
X0565913Y0364695D01*
X0565500Y0363696D02*
X0569211Y0363696D01*
X0569423Y0362698D02*
X0565380Y0362698D01*
X0565380Y0361699D02*
X0569423Y0361699D01*
X0569423Y0360701D02*
X0565380Y0360701D01*
X0565380Y0359702D02*
X0569423Y0359702D01*
X0569423Y0358704D02*
X0565380Y0358704D01*
X0565380Y0357705D02*
X0569423Y0357705D01*
X0569423Y0356707D02*
X0565380Y0356707D01*
X0565380Y0355708D02*
X0569423Y0355708D01*
X0569423Y0354710D02*
X0565380Y0354710D01*
X0565380Y0353711D02*
X0569423Y0353711D01*
X0569423Y0352713D02*
X0565380Y0352713D01*
X0565380Y0351714D02*
X0569423Y0351714D01*
X0569423Y0350716D02*
X0565380Y0350716D01*
X0565380Y0349717D02*
X0569423Y0349717D01*
X0569423Y0348719D02*
X0565380Y0348719D01*
X0565380Y0347720D02*
X0569423Y0347720D01*
X0569423Y0346722D02*
X0565380Y0346722D01*
X0565380Y0345723D02*
X0569423Y0345723D01*
X0569423Y0344725D02*
X0565380Y0344725D01*
X0566269Y0343726D02*
X0569423Y0343726D01*
X0569423Y0342728D02*
X0567357Y0342728D01*
X0567797Y0341729D02*
X0569423Y0341729D01*
X0569423Y0340731D02*
X0567933Y0340731D01*
X0567816Y0339732D02*
X0569423Y0339732D01*
X0569423Y0338734D02*
X0567401Y0338734D01*
X0566375Y0337735D02*
X0569423Y0337735D01*
X0569423Y0336737D02*
X0529160Y0336737D01*
X0529160Y0337735D02*
X0562523Y0337735D01*
X0561496Y0338734D02*
X0529160Y0338734D01*
X0529160Y0339732D02*
X0561082Y0339732D01*
X0560326Y0340731D02*
X0529160Y0340731D01*
X0529160Y0341729D02*
X0559734Y0341729D01*
X0559580Y0342728D02*
X0529160Y0342728D01*
X0529160Y0343726D02*
X0559580Y0343726D01*
X0559580Y0344725D02*
X0529160Y0344725D01*
X0529160Y0345723D02*
X0559580Y0345723D01*
X0559580Y0346722D02*
X0529160Y0346722D01*
X0529160Y0347720D02*
X0559580Y0347720D01*
X0559580Y0348719D02*
X0529160Y0348719D01*
X0529160Y0349717D02*
X0559580Y0349717D01*
X0559580Y0350716D02*
X0529160Y0350716D01*
X0529160Y0351714D02*
X0559580Y0351714D01*
X0559580Y0352713D02*
X0529160Y0352713D01*
X0531723Y0353711D02*
X0559580Y0353711D01*
X0559580Y0354710D02*
X0532984Y0354710D01*
X0533495Y0355708D02*
X0559580Y0355708D01*
X0559580Y0356707D02*
X0533681Y0356707D01*
X0533614Y0357705D02*
X0559580Y0357705D01*
X0559580Y0358704D02*
X0536190Y0358704D01*
X0529849Y0367690D02*
X0529390Y0367690D01*
X0530388Y0368689D02*
X0545808Y0368689D01*
X0546807Y0369687D02*
X0531387Y0369687D01*
X0532386Y0370686D02*
X0547805Y0370686D01*
X0548804Y0371684D02*
X0533384Y0371684D01*
X0534383Y0372683D02*
X0549802Y0372683D01*
X0550801Y0373681D02*
X0535381Y0373681D01*
X0531173Y0377675D02*
X0530320Y0377675D01*
X0530174Y0376677D02*
X0529321Y0376677D01*
X0529176Y0375678D02*
X0528323Y0375678D01*
X0528177Y0374680D02*
X0527324Y0374680D01*
X0527179Y0373681D02*
X0526326Y0373681D01*
X0526180Y0372683D02*
X0525327Y0372683D01*
X0525182Y0371684D02*
X0524329Y0371684D01*
X0524183Y0370686D02*
X0524042Y0370686D01*
X0518242Y0370686D02*
X0501601Y0370686D01*
X0501601Y0371684D02*
X0518242Y0371684D01*
X0518242Y0372683D02*
X0501601Y0372683D01*
X0501601Y0373681D02*
X0518451Y0373681D01*
X0519122Y0374680D02*
X0501601Y0374680D01*
X0501601Y0375678D02*
X0520121Y0375678D01*
X0521119Y0376677D02*
X0501601Y0376677D01*
X0501601Y0377675D02*
X0522118Y0377675D01*
X0523116Y0378674D02*
X0501601Y0378674D01*
X0501601Y0379672D02*
X0524115Y0379672D01*
X0525113Y0380671D02*
X0501601Y0380671D01*
X0501601Y0381670D02*
X0526112Y0381670D01*
X0527110Y0382668D02*
X0523815Y0382668D01*
X0525326Y0383667D02*
X0528109Y0383667D01*
X0529107Y0384665D02*
X0525941Y0384665D01*
X0526201Y0385664D02*
X0530106Y0385664D01*
X0531104Y0386662D02*
X0526201Y0386662D01*
X0525794Y0387661D02*
X0532103Y0387661D01*
X0535313Y0382668D02*
X0549945Y0382668D01*
X0550484Y0383667D02*
X0550943Y0383667D01*
X0551483Y0384665D02*
X0551942Y0384665D01*
X0552399Y0385664D02*
X0552940Y0385664D01*
X0552782Y0386662D02*
X0553939Y0386662D01*
X0554937Y0387661D02*
X0552782Y0387661D01*
X0552782Y0388659D02*
X0555053Y0388659D01*
X0555053Y0389658D02*
X0552782Y0389658D01*
X0552782Y0390656D02*
X0555053Y0390656D01*
X0555053Y0391655D02*
X0552782Y0391655D01*
X0552782Y0392653D02*
X0555053Y0392653D01*
X0555053Y0393652D02*
X0552782Y0393652D01*
X0552782Y0394650D02*
X0555053Y0394650D01*
X0555053Y0395649D02*
X0552782Y0395649D01*
X0552782Y0396647D02*
X0555053Y0396647D01*
X0555053Y0397646D02*
X0552782Y0397646D01*
X0552782Y0398644D02*
X0555053Y0398644D01*
X0555053Y0399643D02*
X0552782Y0399643D01*
X0553201Y0400641D02*
X0555053Y0400641D01*
X0555053Y0401640D02*
X0553366Y0401640D01*
X0553278Y0402638D02*
X0555053Y0402638D01*
X0555053Y0403637D02*
X0552864Y0403637D01*
X0551906Y0404635D02*
X0555053Y0404635D01*
X0555053Y0405634D02*
X0525217Y0405634D01*
X0525217Y0406632D02*
X0555053Y0406632D01*
X0555053Y0407631D02*
X0525217Y0407631D01*
X0525217Y0408629D02*
X0555053Y0408629D01*
X0555053Y0409628D02*
X0525217Y0409628D01*
X0525217Y0410626D02*
X0555053Y0410626D01*
X0555053Y0411625D02*
X0525217Y0411625D01*
X0525217Y0412623D02*
X0525388Y0412623D01*
X0527567Y0412623D02*
X0528339Y0412623D01*
X0528339Y0413622D02*
X0527567Y0413622D01*
X0527567Y0414620D02*
X0528339Y0414620D01*
X0528339Y0415619D02*
X0527567Y0415619D01*
X0528339Y0416617D02*
X0532953Y0416617D01*
X0532953Y0415698D02*
X0533714Y0413861D01*
X0535120Y0412454D01*
X0536958Y0411693D01*
X0538947Y0411693D01*
X0540785Y0412454D01*
X0542192Y0413861D01*
X0542953Y0415698D01*
X0543714Y0413861D01*
X0545120Y0412454D01*
X0546958Y0411693D01*
X0548947Y0411693D01*
X0550785Y0412454D01*
X0552192Y0413861D01*
X0552953Y0415698D01*
X0552953Y0417687D01*
X0552192Y0419525D01*
X0550785Y0420932D01*
X0548947Y0421693D01*
X0546958Y0421693D01*
X0545120Y0420932D01*
X0543714Y0419525D01*
X0542953Y0417687D01*
X0542953Y0415698D01*
X0542953Y0417687D01*
X0542192Y0419525D01*
X0540785Y0420932D01*
X0538947Y0421693D01*
X0536958Y0421693D01*
X0535120Y0420932D01*
X0533714Y0419525D01*
X0532953Y0417687D01*
X0532953Y0415698D01*
X0532986Y0415619D02*
X0532642Y0415619D01*
X0532284Y0414620D02*
X0533399Y0414620D01*
X0533953Y0413622D02*
X0531655Y0413622D01*
X0530518Y0412623D02*
X0534951Y0412623D01*
X0532953Y0417616D02*
X0532666Y0417616D01*
X0532361Y0418614D02*
X0533337Y0418614D01*
X0533802Y0419613D02*
X0531764Y0419613D01*
X0530726Y0420611D02*
X0534800Y0420611D01*
X0534966Y0422608D02*
X0530939Y0422608D01*
X0531938Y0423607D02*
X0533968Y0423607D01*
X0533405Y0424605D02*
X0532500Y0424605D01*
X0532914Y0425604D02*
X0532992Y0425604D01*
X0532953Y0426603D02*
X0532953Y0426603D01*
X0532953Y0427601D02*
X0532953Y0427601D01*
X0532575Y0428600D02*
X0533331Y0428600D01*
X0533787Y0429598D02*
X0532119Y0429598D01*
X0531120Y0430597D02*
X0534785Y0430597D01*
X0536722Y0431595D02*
X0529183Y0431595D01*
X0526722Y0431595D02*
X0525217Y0431595D01*
X0524870Y0432594D02*
X0621112Y0432594D01*
X0619382Y0431595D02*
X0623259Y0431595D01*
X0624379Y0430597D02*
X0621793Y0430597D01*
X0623380Y0429598D02*
X0625173Y0429598D01*
X0625750Y0428600D02*
X0624378Y0428600D01*
X0625377Y0427601D02*
X0626070Y0427601D01*
X0625929Y0426603D02*
X0626338Y0426603D01*
X0626343Y0425604D02*
X0626406Y0425604D01*
X0626406Y0417616D02*
X0626274Y0417616D01*
X0626406Y0416617D02*
X0625860Y0416617D01*
X0626406Y0415619D02*
X0625211Y0415619D01*
X0624212Y0414620D02*
X0626406Y0414620D01*
X0626406Y0413622D02*
X0623214Y0413622D01*
X0621392Y0412623D02*
X0626406Y0412623D01*
X0626406Y0411625D02*
X0580853Y0411625D01*
X0580954Y0412623D02*
X0584951Y0412623D01*
X0583953Y0413622D02*
X0581953Y0413622D01*
X0582506Y0414620D02*
X0583399Y0414620D01*
X0582986Y0415619D02*
X0582920Y0415619D01*
X0582953Y0416617D02*
X0582953Y0416617D01*
X0582953Y0417616D02*
X0582953Y0417616D01*
X0582569Y0418614D02*
X0583337Y0418614D01*
X0583802Y0419613D02*
X0582104Y0419613D01*
X0581105Y0420611D02*
X0584800Y0420611D01*
X0584966Y0422608D02*
X0580939Y0422608D01*
X0581938Y0423607D02*
X0583968Y0423607D01*
X0583405Y0424605D02*
X0582500Y0424605D01*
X0582914Y0425604D02*
X0582992Y0425604D01*
X0582953Y0426603D02*
X0582953Y0426603D01*
X0582953Y0427601D02*
X0582953Y0427601D01*
X0582575Y0428600D02*
X0583331Y0428600D01*
X0583787Y0429598D02*
X0582119Y0429598D01*
X0581120Y0430597D02*
X0584785Y0430597D01*
X0586722Y0431595D02*
X0579183Y0431595D01*
X0576722Y0431595D02*
X0559183Y0431595D01*
X0561120Y0430597D02*
X0565159Y0430597D01*
X0565437Y0430798D02*
X0564826Y0430354D01*
X0564292Y0429820D01*
X0563847Y0429209D01*
X0563504Y0428535D01*
X0563271Y0427817D01*
X0563154Y0427079D01*
X0567567Y0427079D01*
X0567567Y0431492D01*
X0566829Y0431375D01*
X0566110Y0431141D01*
X0565437Y0430798D01*
X0564130Y0429598D02*
X0562119Y0429598D01*
X0562575Y0428600D02*
X0563537Y0428600D01*
X0563237Y0427601D02*
X0562953Y0427601D01*
X0562953Y0426603D02*
X0567567Y0426603D01*
X0567567Y0426307D02*
X0563154Y0426307D01*
X0563271Y0425569D01*
X0563504Y0424850D01*
X0563847Y0424177D01*
X0564292Y0423566D01*
X0564826Y0423032D01*
X0565437Y0422588D01*
X0566110Y0422245D01*
X0566829Y0422011D01*
X0567567Y0421894D01*
X0567567Y0426307D01*
X0568339Y0426307D01*
X0568339Y0427079D01*
X0572751Y0427079D01*
X0572635Y0427817D01*
X0572401Y0428535D01*
X0572058Y0429209D01*
X0571614Y0429820D01*
X0571080Y0430354D01*
X0570468Y0430798D01*
X0569795Y0431141D01*
X0569077Y0431375D01*
X0568339Y0431492D01*
X0568339Y0427079D01*
X0567567Y0427079D01*
X0567567Y0426307D01*
X0567567Y0425604D02*
X0568339Y0425604D01*
X0568339Y0426307D02*
X0568339Y0421894D01*
X0569077Y0422011D01*
X0569795Y0422245D01*
X0570468Y0422588D01*
X0571080Y0423032D01*
X0571614Y0423566D01*
X0572058Y0424177D01*
X0572401Y0424850D01*
X0572635Y0425569D01*
X0572751Y0426307D01*
X0568339Y0426307D01*
X0568339Y0426603D02*
X0572953Y0426603D01*
X0572953Y0427601D02*
X0572669Y0427601D01*
X0572368Y0428600D02*
X0573331Y0428600D01*
X0573787Y0429598D02*
X0571775Y0429598D01*
X0570746Y0430597D02*
X0574785Y0430597D01*
X0572992Y0425604D02*
X0572640Y0425604D01*
X0572276Y0424605D02*
X0573405Y0424605D01*
X0573968Y0423607D02*
X0571644Y0423607D01*
X0570497Y0422608D02*
X0574966Y0422608D01*
X0574800Y0420611D02*
X0571105Y0420611D01*
X0572104Y0419613D02*
X0573802Y0419613D01*
X0573337Y0418614D02*
X0572569Y0418614D01*
X0572953Y0417616D02*
X0572953Y0417616D01*
X0572953Y0416617D02*
X0572953Y0416617D01*
X0572920Y0415619D02*
X0572986Y0415619D01*
X0573399Y0414620D02*
X0572506Y0414620D01*
X0571953Y0413622D02*
X0573953Y0413622D01*
X0574951Y0412623D02*
X0570954Y0412623D01*
X0575053Y0411625D02*
X0560853Y0411625D01*
X0560853Y0410626D02*
X0575053Y0410626D01*
X0575082Y0409628D02*
X0560853Y0409628D01*
X0560853Y0408629D02*
X0575498Y0408629D01*
X0576496Y0407631D02*
X0560853Y0407631D01*
X0560853Y0406632D02*
X0577495Y0406632D01*
X0578493Y0405634D02*
X0560853Y0405634D01*
X0560853Y0404635D02*
X0579492Y0404635D01*
X0580490Y0403637D02*
X0560853Y0403637D01*
X0560853Y0402638D02*
X0581489Y0402638D01*
X0582487Y0401640D02*
X0560853Y0401640D01*
X0560853Y0400641D02*
X0583779Y0400641D01*
X0585697Y0406632D02*
X0626406Y0406632D01*
X0626406Y0405634D02*
X0625278Y0405634D01*
X0626277Y0404635D02*
X0626406Y0404635D01*
X0626406Y0407631D02*
X0584699Y0407631D01*
X0583700Y0408629D02*
X0626406Y0408629D01*
X0626406Y0409628D02*
X0582702Y0409628D01*
X0581703Y0410626D02*
X0626406Y0410626D01*
X0622572Y0399643D02*
X0560853Y0399643D01*
X0560853Y0398644D02*
X0622572Y0398644D01*
X0622572Y0397646D02*
X0560853Y0397646D01*
X0560853Y0396647D02*
X0622572Y0396647D01*
X0622572Y0395649D02*
X0560853Y0395649D01*
X0560853Y0394650D02*
X0611945Y0394650D01*
X0610005Y0393652D02*
X0560853Y0393652D01*
X0560853Y0392653D02*
X0609012Y0392653D01*
X0608598Y0391655D02*
X0560853Y0391655D01*
X0560853Y0390656D02*
X0608300Y0390656D01*
X0608300Y0389658D02*
X0560853Y0389658D01*
X0560853Y0388659D02*
X0608468Y0388659D01*
X0608882Y0387661D02*
X0560853Y0387661D01*
X0560853Y0386662D02*
X0609691Y0386662D01*
X0611187Y0385664D02*
X0560714Y0385664D01*
X0560144Y0384665D02*
X0622572Y0384665D01*
X0622572Y0383667D02*
X0620609Y0383667D01*
X0621624Y0382668D02*
X0622572Y0382668D01*
X0622572Y0381670D02*
X0622189Y0381670D01*
X0622450Y0380671D02*
X0622572Y0380671D01*
X0622572Y0385664D02*
X0620813Y0385664D01*
X0622309Y0386662D02*
X0622572Y0386662D01*
X0622572Y0393652D02*
X0621995Y0393652D01*
X0622572Y0394650D02*
X0620055Y0394650D01*
X0609391Y0383667D02*
X0559146Y0383667D01*
X0558147Y0382668D02*
X0608376Y0382668D01*
X0607811Y0381670D02*
X0557149Y0381670D01*
X0556150Y0380671D02*
X0607550Y0380671D01*
X0614500Y0378674D02*
X0615500Y0378674D01*
X0615500Y0377675D02*
X0614500Y0377675D01*
X0614500Y0376677D02*
X0615500Y0376677D01*
X0615500Y0375678D02*
X0614500Y0375678D01*
X0621936Y0353711D02*
X0622572Y0353711D01*
X0622572Y0346722D02*
X0622368Y0346722D01*
X0622572Y0345723D02*
X0620956Y0345723D01*
X0609079Y0343726D02*
X0575223Y0343726D01*
X0575223Y0342728D02*
X0608081Y0342728D01*
X0607629Y0341729D02*
X0575223Y0341729D01*
X0575223Y0340731D02*
X0607300Y0340731D01*
X0607300Y0339732D02*
X0575223Y0339732D01*
X0575223Y0338734D02*
X0607437Y0338734D01*
X0607851Y0337735D02*
X0575223Y0337735D01*
X0575223Y0336737D02*
X0608617Y0336737D01*
X0610008Y0335738D02*
X0575223Y0335738D01*
X0569423Y0335738D02*
X0529160Y0335738D01*
X0529160Y0334739D02*
X0569423Y0334739D01*
X0569423Y0333741D02*
X0529160Y0333741D01*
X0529160Y0332742D02*
X0569423Y0332742D01*
X0569423Y0331744D02*
X0529160Y0331744D01*
X0529160Y0330745D02*
X0569423Y0330745D01*
X0569071Y0329747D02*
X0529160Y0329747D01*
X0529160Y0328748D02*
X0568072Y0328748D01*
X0567074Y0327750D02*
X0529160Y0327750D01*
X0529160Y0326751D02*
X0566075Y0326751D01*
X0565077Y0325753D02*
X0529160Y0325753D01*
X0529160Y0324754D02*
X0564078Y0324754D01*
X0563080Y0323756D02*
X0529160Y0323756D01*
X0529476Y0322757D02*
X0531334Y0322757D01*
X0531766Y0323190D02*
X0530786Y0322210D01*
X0530256Y0320929D01*
X0530256Y0319543D01*
X0530786Y0318263D01*
X0530840Y0318209D01*
X0530840Y0301398D01*
X0530786Y0301344D01*
X0530256Y0300063D01*
X0530256Y0298677D01*
X0530786Y0297396D01*
X0531766Y0296416D01*
X0533047Y0295886D01*
X0534433Y0295886D01*
X0535714Y0296416D01*
X0536694Y0297396D01*
X0537224Y0298677D01*
X0537224Y0300063D01*
X0536694Y0301344D01*
X0536640Y0301398D01*
X0536640Y0318209D01*
X0536694Y0318263D01*
X0537224Y0319543D01*
X0537224Y0320929D01*
X0536694Y0322210D01*
X0535714Y0323190D01*
X0534433Y0323720D01*
X0533047Y0323720D01*
X0531766Y0323190D01*
X0530600Y0321759D02*
X0529744Y0321759D01*
X0529744Y0320760D02*
X0530256Y0320760D01*
X0530256Y0319762D02*
X0529345Y0319762D01*
X0528533Y0318763D02*
X0530579Y0318763D01*
X0530840Y0317765D02*
X0524042Y0317765D01*
X0524042Y0316766D02*
X0530840Y0316766D01*
X0530840Y0315768D02*
X0524042Y0315768D01*
X0524042Y0314769D02*
X0530840Y0314769D01*
X0530840Y0313771D02*
X0524042Y0313771D01*
X0524042Y0312772D02*
X0530840Y0312772D01*
X0530840Y0311774D02*
X0524042Y0311774D01*
X0524042Y0310775D02*
X0530840Y0310775D01*
X0530840Y0309777D02*
X0524042Y0309777D01*
X0524042Y0308778D02*
X0530840Y0308778D01*
X0530840Y0307780D02*
X0524042Y0307780D01*
X0524042Y0306781D02*
X0530840Y0306781D01*
X0530840Y0305783D02*
X0524042Y0305783D01*
X0524042Y0304784D02*
X0530840Y0304784D01*
X0530840Y0303786D02*
X0524042Y0303786D01*
X0524042Y0302787D02*
X0530840Y0302787D01*
X0530840Y0301789D02*
X0524042Y0301789D01*
X0524042Y0300790D02*
X0530557Y0300790D01*
X0530256Y0299792D02*
X0524042Y0299792D01*
X0523715Y0298793D02*
X0530256Y0298793D01*
X0530621Y0297795D02*
X0522880Y0297795D01*
X0521812Y0296796D02*
X0531387Y0296796D01*
X0534123Y0294799D02*
X0519707Y0294799D01*
X0518655Y0293801D02*
X0520920Y0293801D01*
X0519921Y0292802D02*
X0517602Y0292802D01*
X0516550Y0291803D02*
X0518923Y0291803D01*
X0517924Y0290805D02*
X0515497Y0290805D01*
X0514445Y0289806D02*
X0516926Y0289806D01*
X0515927Y0288808D02*
X0513392Y0288808D01*
X0512340Y0287809D02*
X0514929Y0287809D01*
X0513930Y0286811D02*
X0511287Y0286811D01*
X0510235Y0285812D02*
X0512932Y0285812D01*
X0509926Y0284814D02*
X0509182Y0284814D01*
X0508824Y0280820D02*
X0508306Y0280820D01*
X0509385Y0279821D02*
X0506667Y0279821D01*
X0506691Y0278823D02*
X0464056Y0278823D01*
X0463859Y0279296D02*
X0462879Y0280277D01*
X0461599Y0280807D01*
X0460212Y0280807D01*
X0458932Y0280277D01*
X0457952Y0279296D01*
X0457421Y0278016D01*
X0457421Y0276630D01*
X0457952Y0275349D01*
X0458006Y0275295D01*
X0458006Y0253911D01*
X0458447Y0252845D01*
X0459263Y0252030D01*
X0465534Y0245759D01*
X0466349Y0244943D01*
X0467415Y0244502D01*
X0482500Y0244502D01*
X0482554Y0244448D01*
X0483834Y0243917D01*
X0485221Y0243917D01*
X0486501Y0244448D01*
X0487481Y0245428D01*
X0488012Y0246709D01*
X0488012Y0248095D01*
X0487481Y0249375D01*
X0486501Y0250355D01*
X0485221Y0250886D01*
X0483834Y0250886D01*
X0482554Y0250355D01*
X0482500Y0250302D01*
X0469193Y0250302D01*
X0463805Y0255689D01*
X0463805Y0275295D01*
X0463859Y0275349D01*
X0464390Y0276630D01*
X0464390Y0278016D01*
X0463859Y0279296D01*
X0463334Y0279821D02*
X0504908Y0279821D01*
X0503268Y0280820D02*
X0439396Y0280820D01*
X0439396Y0281818D02*
X0502600Y0281818D01*
X0502303Y0282817D02*
X0439396Y0282817D01*
X0439396Y0283815D02*
X0502303Y0283815D01*
X0502673Y0284814D02*
X0439396Y0284814D01*
X0439396Y0285812D02*
X0502887Y0285812D01*
X0503154Y0286811D02*
X0439396Y0286811D01*
X0439396Y0287809D02*
X0503905Y0287809D01*
X0504965Y0288808D02*
X0439878Y0288808D01*
X0440876Y0289806D02*
X0506018Y0289806D01*
X0507070Y0290805D02*
X0441875Y0290805D01*
X0442873Y0291803D02*
X0508123Y0291803D01*
X0509175Y0292802D02*
X0443872Y0292802D01*
X0444870Y0293801D02*
X0510228Y0293801D01*
X0511280Y0294799D02*
X0445869Y0294799D01*
X0446867Y0295798D02*
X0512333Y0295798D01*
X0513385Y0296796D02*
X0447866Y0296796D01*
X0448864Y0297795D02*
X0514438Y0297795D01*
X0515490Y0298793D02*
X0449863Y0298793D01*
X0450861Y0299792D02*
X0516543Y0299792D01*
X0517595Y0300790D02*
X0451860Y0300790D01*
X0452858Y0301789D02*
X0518242Y0301789D01*
X0518242Y0302787D02*
X0453857Y0302787D01*
X0454855Y0303786D02*
X0518242Y0303786D01*
X0518242Y0304784D02*
X0455854Y0304784D01*
X0456852Y0305783D02*
X0518242Y0305783D01*
X0518242Y0306781D02*
X0494687Y0306781D01*
X0495685Y0307780D02*
X0518242Y0307780D01*
X0518242Y0308778D02*
X0497741Y0308778D01*
X0499074Y0309777D02*
X0518242Y0309777D01*
X0518242Y0310775D02*
X0499616Y0310775D01*
X0499823Y0311774D02*
X0518242Y0311774D01*
X0518242Y0312772D02*
X0499777Y0312772D01*
X0499363Y0313771D02*
X0518242Y0313771D01*
X0518242Y0314769D02*
X0498465Y0314769D01*
X0494212Y0314769D02*
X0490591Y0314769D01*
X0490177Y0315768D02*
X0518242Y0315768D01*
X0518242Y0316766D02*
X0490177Y0316766D01*
X0490177Y0317765D02*
X0518242Y0317765D01*
X0518242Y0318763D02*
X0490177Y0318763D01*
X0490177Y0319762D02*
X0518242Y0319762D01*
X0518242Y0320760D02*
X0490177Y0320760D01*
X0490177Y0321759D02*
X0518242Y0321759D01*
X0518242Y0322757D02*
X0490177Y0322757D01*
X0490177Y0323756D02*
X0518242Y0323756D01*
X0518242Y0324754D02*
X0490177Y0324754D01*
X0490177Y0325753D02*
X0518242Y0325753D01*
X0518242Y0326751D02*
X0490177Y0326751D01*
X0490177Y0327750D02*
X0518242Y0327750D01*
X0518242Y0328748D02*
X0490177Y0328748D01*
X0490177Y0329747D02*
X0518242Y0329747D01*
X0518242Y0330745D02*
X0490177Y0330745D01*
X0490177Y0331744D02*
X0518242Y0331744D01*
X0518242Y0332742D02*
X0490177Y0332742D01*
X0490177Y0333741D02*
X0518242Y0333741D01*
X0518242Y0334739D02*
X0490177Y0334739D01*
X0490177Y0335738D02*
X0518242Y0335738D01*
X0518242Y0336737D02*
X0490177Y0336737D01*
X0490177Y0337735D02*
X0518242Y0337735D01*
X0518242Y0338734D02*
X0490177Y0338734D01*
X0490177Y0339732D02*
X0518242Y0339732D01*
X0518242Y0340731D02*
X0490177Y0340731D01*
X0490177Y0341729D02*
X0518242Y0341729D01*
X0518242Y0342728D02*
X0490177Y0342728D01*
X0490177Y0343726D02*
X0518242Y0343726D01*
X0518242Y0344725D02*
X0490177Y0344725D01*
X0490177Y0345723D02*
X0518242Y0345723D01*
X0518242Y0346722D02*
X0490177Y0346722D01*
X0490088Y0347720D02*
X0518242Y0347720D01*
X0518242Y0348719D02*
X0489502Y0348719D01*
X0488503Y0349717D02*
X0518242Y0349717D01*
X0518242Y0350716D02*
X0487505Y0350716D01*
X0486506Y0351714D02*
X0518242Y0351714D01*
X0518242Y0352713D02*
X0499717Y0352713D01*
X0501276Y0353711D02*
X0518242Y0353711D01*
X0518242Y0354710D02*
X0501912Y0354710D01*
X0502185Y0355708D02*
X0518242Y0355708D01*
X0518242Y0356707D02*
X0502185Y0356707D01*
X0501792Y0357705D02*
X0518242Y0357705D01*
X0518242Y0358704D02*
X0501601Y0358704D01*
X0501601Y0359702D02*
X0518242Y0359702D01*
X0518242Y0360701D02*
X0501601Y0360701D01*
X0501601Y0361699D02*
X0518242Y0361699D01*
X0518242Y0362698D02*
X0501601Y0362698D01*
X0501601Y0363696D02*
X0518242Y0363696D01*
X0518242Y0364695D02*
X0501601Y0364695D01*
X0501601Y0365693D02*
X0518242Y0365693D01*
X0518242Y0366692D02*
X0501601Y0366692D01*
X0501601Y0367690D02*
X0518242Y0367690D01*
X0518242Y0368689D02*
X0501601Y0368689D01*
X0501601Y0369687D02*
X0518242Y0369687D01*
X0521618Y0382668D02*
X0501601Y0382668D01*
X0501601Y0383667D02*
X0520107Y0383667D01*
X0519492Y0384665D02*
X0501601Y0384665D01*
X0501601Y0385664D02*
X0519232Y0385664D01*
X0519232Y0386662D02*
X0501601Y0386662D01*
X0502116Y0387661D02*
X0519640Y0387661D01*
X0520217Y0388659D02*
X0503115Y0388659D01*
X0504113Y0389658D02*
X0520217Y0389658D01*
X0520217Y0390656D02*
X0505112Y0390656D01*
X0506110Y0391655D02*
X0520217Y0391655D01*
X0520217Y0392653D02*
X0507109Y0392653D01*
X0508107Y0393652D02*
X0520217Y0393652D01*
X0520217Y0394650D02*
X0509106Y0394650D01*
X0510104Y0395649D02*
X0520217Y0395649D01*
X0520217Y0396647D02*
X0511103Y0396647D01*
X0512101Y0397646D02*
X0520217Y0397646D01*
X0520217Y0398644D02*
X0513100Y0398644D01*
X0514098Y0399643D02*
X0520217Y0399643D01*
X0520217Y0400641D02*
X0515097Y0400641D01*
X0516095Y0401640D02*
X0520217Y0401640D01*
X0520217Y0402638D02*
X0517094Y0402638D01*
X0518092Y0403637D02*
X0520217Y0403637D01*
X0520217Y0404635D02*
X0519091Y0404635D01*
X0520089Y0405634D02*
X0520217Y0405634D01*
X0525217Y0404635D02*
X0547857Y0404635D01*
X0546899Y0403637D02*
X0525217Y0403637D01*
X0525217Y0402638D02*
X0546486Y0402638D01*
X0546398Y0401640D02*
X0525217Y0401640D01*
X0525217Y0400641D02*
X0546562Y0400641D01*
X0546982Y0399643D02*
X0525217Y0399643D01*
X0525217Y0398644D02*
X0546982Y0398644D01*
X0546982Y0397646D02*
X0525217Y0397646D01*
X0525217Y0396647D02*
X0546982Y0396647D01*
X0546982Y0395649D02*
X0525217Y0395649D01*
X0525217Y0394650D02*
X0546982Y0394650D01*
X0546982Y0393652D02*
X0525217Y0393652D01*
X0525217Y0392653D02*
X0546982Y0392653D01*
X0546982Y0391655D02*
X0525217Y0391655D01*
X0525217Y0390656D02*
X0546982Y0390656D01*
X0546982Y0389658D02*
X0525217Y0389658D01*
X0525217Y0388659D02*
X0546982Y0388659D01*
X0548946Y0381670D02*
X0534314Y0381670D01*
X0533316Y0380671D02*
X0547948Y0380671D01*
X0552156Y0376677D02*
X0553796Y0376677D01*
X0553155Y0377675D02*
X0554795Y0377675D01*
X0552798Y0375678D02*
X0551158Y0375678D01*
X0551799Y0374680D02*
X0549898Y0374680D01*
X0557464Y0366692D02*
X0559198Y0366692D01*
X0558996Y0365693D02*
X0556466Y0365693D01*
X0555467Y0364695D02*
X0559047Y0364695D01*
X0559461Y0363696D02*
X0554469Y0363696D01*
X0553470Y0362698D02*
X0559580Y0362698D01*
X0559580Y0361699D02*
X0552472Y0361699D01*
X0551473Y0360701D02*
X0559580Y0360701D01*
X0559580Y0359702D02*
X0550475Y0359702D01*
X0558463Y0367690D02*
X0559731Y0367690D01*
X0559461Y0368689D02*
X0561046Y0368689D01*
X0575223Y0359702D02*
X0582802Y0359702D01*
X0583067Y0358704D02*
X0575223Y0358704D01*
X0575223Y0357705D02*
X0583730Y0357705D01*
X0585430Y0356707D02*
X0575223Y0356707D01*
X0533170Y0379672D02*
X0532317Y0379672D01*
X0532171Y0378674D02*
X0531319Y0378674D01*
X0495801Y0378674D02*
X0495295Y0378674D01*
X0495295Y0379672D02*
X0495801Y0379672D01*
X0495801Y0380671D02*
X0495295Y0380671D01*
X0495295Y0381670D02*
X0495801Y0381670D01*
X0495801Y0382668D02*
X0495295Y0382668D01*
X0495295Y0383667D02*
X0495801Y0383667D01*
X0495801Y0384665D02*
X0495295Y0384665D01*
X0495295Y0385664D02*
X0495801Y0385664D01*
X0495801Y0386662D02*
X0495295Y0386662D01*
X0495645Y0387661D02*
X0495801Y0387661D01*
X0495801Y0377675D02*
X0495295Y0377675D01*
X0495295Y0376677D02*
X0495801Y0376677D01*
X0495801Y0375678D02*
X0495295Y0375678D01*
X0495295Y0374680D02*
X0495801Y0374680D01*
X0495801Y0373681D02*
X0495134Y0373681D01*
X0495801Y0372683D02*
X0494447Y0372683D01*
X0493448Y0371684D02*
X0495801Y0371684D01*
X0495801Y0370686D02*
X0492450Y0370686D01*
X0491451Y0369687D02*
X0495801Y0369687D01*
X0495801Y0368689D02*
X0490453Y0368689D01*
X0489454Y0367690D02*
X0495801Y0367690D01*
X0495801Y0366692D02*
X0488456Y0366692D01*
X0487457Y0365693D02*
X0495801Y0365693D01*
X0495801Y0364695D02*
X0486459Y0364695D01*
X0485460Y0363696D02*
X0495801Y0363696D01*
X0495801Y0362698D02*
X0485453Y0362698D01*
X0485453Y0361699D02*
X0495801Y0361699D01*
X0495801Y0360701D02*
X0485453Y0360701D01*
X0485453Y0359702D02*
X0495801Y0359702D01*
X0495801Y0358704D02*
X0485453Y0358704D01*
X0485453Y0357705D02*
X0495610Y0357705D01*
X0495217Y0356707D02*
X0485453Y0356707D01*
X0485453Y0355708D02*
X0495217Y0355708D01*
X0495490Y0354710D02*
X0485453Y0354710D01*
X0485453Y0353711D02*
X0496125Y0353711D01*
X0497684Y0352713D02*
X0485508Y0352713D01*
X0478955Y0345723D02*
X0475966Y0345723D01*
X0475478Y0345235D02*
X0476458Y0346215D01*
X0476988Y0347496D01*
X0476988Y0347690D01*
X0479265Y0345413D01*
X0479265Y0342342D01*
X0479212Y0342289D01*
X0478681Y0341008D01*
X0478681Y0339622D01*
X0479212Y0338341D01*
X0480192Y0337361D01*
X0481472Y0336831D01*
X0482858Y0336831D01*
X0484139Y0337361D01*
X0485119Y0338341D01*
X0485177Y0338481D01*
X0485177Y0315183D01*
X0484723Y0314730D01*
X0484193Y0313449D01*
X0484193Y0312063D01*
X0484664Y0310925D01*
X0482020Y0310925D01*
X0465768Y0327177D01*
X0465768Y0365264D01*
X0468642Y0368138D01*
X0468642Y0351048D01*
X0468642Y0350054D01*
X0469022Y0349135D01*
X0470020Y0348138D01*
X0470020Y0347496D01*
X0470550Y0346215D01*
X0471530Y0345235D01*
X0472811Y0344705D01*
X0474197Y0344705D01*
X0475478Y0345235D01*
X0474245Y0344725D02*
X0479265Y0344725D01*
X0479265Y0343726D02*
X0465768Y0343726D01*
X0465768Y0342728D02*
X0479265Y0342728D01*
X0478980Y0341729D02*
X0465768Y0341729D01*
X0465768Y0340731D02*
X0478681Y0340731D01*
X0478681Y0339732D02*
X0465768Y0339732D01*
X0465768Y0338734D02*
X0479049Y0338734D01*
X0479818Y0337735D02*
X0465768Y0337735D01*
X0465768Y0336737D02*
X0485177Y0336737D01*
X0485177Y0337735D02*
X0484513Y0337735D01*
X0485177Y0335738D02*
X0465768Y0335738D01*
X0465768Y0334739D02*
X0485177Y0334739D01*
X0485177Y0333741D02*
X0465768Y0333741D01*
X0465768Y0332742D02*
X0485177Y0332742D01*
X0485177Y0331744D02*
X0465768Y0331744D01*
X0465768Y0330745D02*
X0485177Y0330745D01*
X0485177Y0329747D02*
X0465768Y0329747D01*
X0465768Y0328748D02*
X0485177Y0328748D01*
X0485177Y0327750D02*
X0465768Y0327750D01*
X0466194Y0326751D02*
X0485177Y0326751D01*
X0485177Y0325753D02*
X0467192Y0325753D01*
X0468191Y0324754D02*
X0485177Y0324754D01*
X0485177Y0323756D02*
X0469189Y0323756D01*
X0470188Y0322757D02*
X0485177Y0322757D01*
X0485177Y0321759D02*
X0471186Y0321759D01*
X0472185Y0320760D02*
X0485177Y0320760D01*
X0485177Y0319762D02*
X0473183Y0319762D01*
X0474182Y0318763D02*
X0485177Y0318763D01*
X0485177Y0317765D02*
X0475180Y0317765D01*
X0476179Y0316766D02*
X0485177Y0316766D01*
X0485177Y0315768D02*
X0477177Y0315768D01*
X0478176Y0314769D02*
X0484763Y0314769D01*
X0484326Y0313771D02*
X0479174Y0313771D01*
X0480173Y0312772D02*
X0484193Y0312772D01*
X0484313Y0311774D02*
X0481171Y0311774D01*
X0478094Y0307780D02*
X0458849Y0307780D01*
X0457851Y0306781D02*
X0479093Y0306781D01*
X0477096Y0308778D02*
X0459848Y0308778D01*
X0460846Y0309777D02*
X0476097Y0309777D01*
X0475099Y0310775D02*
X0461351Y0310775D01*
X0461443Y0311774D02*
X0474100Y0311774D01*
X0473102Y0312772D02*
X0461443Y0312772D01*
X0461443Y0313771D02*
X0472103Y0313771D01*
X0471105Y0314769D02*
X0461443Y0314769D01*
X0461443Y0315768D02*
X0470106Y0315768D01*
X0469108Y0316766D02*
X0461443Y0316766D01*
X0461443Y0317765D02*
X0468109Y0317765D01*
X0467111Y0318763D02*
X0461443Y0318763D01*
X0461443Y0319762D02*
X0466112Y0319762D01*
X0465114Y0320760D02*
X0461443Y0320760D01*
X0461443Y0321759D02*
X0464115Y0321759D01*
X0463117Y0322757D02*
X0461443Y0322757D01*
X0461443Y0323756D02*
X0462118Y0323756D01*
X0443432Y0323756D02*
X0441253Y0323756D01*
X0441253Y0324754D02*
X0443432Y0324754D01*
X0443432Y0325753D02*
X0441253Y0325753D01*
X0441253Y0326751D02*
X0443432Y0326751D01*
X0443432Y0327750D02*
X0441253Y0327750D01*
X0441253Y0328748D02*
X0443432Y0328748D01*
X0443432Y0329747D02*
X0441253Y0329747D01*
X0441253Y0330745D02*
X0443432Y0330745D01*
X0443432Y0331744D02*
X0441253Y0331744D01*
X0441253Y0332742D02*
X0443432Y0332742D01*
X0443432Y0333741D02*
X0441253Y0333741D01*
X0441253Y0334739D02*
X0443432Y0334739D01*
X0443432Y0335738D02*
X0441253Y0335738D01*
X0441253Y0336737D02*
X0443432Y0336737D01*
X0443432Y0337735D02*
X0441253Y0337735D01*
X0441253Y0338734D02*
X0443432Y0338734D01*
X0443432Y0339732D02*
X0441253Y0339732D01*
X0441253Y0340731D02*
X0443432Y0340731D01*
X0443432Y0341729D02*
X0441253Y0341729D01*
X0441253Y0342728D02*
X0443432Y0342728D01*
X0443432Y0343726D02*
X0441253Y0343726D01*
X0441253Y0344725D02*
X0443432Y0344725D01*
X0443432Y0345723D02*
X0441253Y0345723D01*
X0441253Y0346722D02*
X0443432Y0346722D01*
X0443432Y0347720D02*
X0441253Y0347720D01*
X0441253Y0348719D02*
X0443432Y0348719D01*
X0443432Y0349717D02*
X0441253Y0349717D01*
X0441253Y0350716D02*
X0443432Y0350716D01*
X0443432Y0351714D02*
X0441253Y0351714D01*
X0441253Y0352713D02*
X0443432Y0352713D01*
X0443432Y0353711D02*
X0441253Y0353711D01*
X0441253Y0354710D02*
X0443432Y0354710D01*
X0443432Y0355708D02*
X0441253Y0355708D01*
X0441253Y0356707D02*
X0443432Y0356707D01*
X0443432Y0357705D02*
X0441253Y0357705D01*
X0441253Y0358704D02*
X0443432Y0358704D01*
X0443432Y0359702D02*
X0441253Y0359702D01*
X0441253Y0360701D02*
X0443432Y0360701D01*
X0443432Y0361699D02*
X0441253Y0361699D01*
X0441253Y0362698D02*
X0443432Y0362698D01*
X0443432Y0363696D02*
X0441253Y0363696D01*
X0441253Y0364695D02*
X0443432Y0364695D01*
X0443432Y0365693D02*
X0441253Y0365693D01*
X0441253Y0366692D02*
X0443432Y0366692D01*
X0443432Y0367690D02*
X0441253Y0367690D01*
X0441253Y0368689D02*
X0443432Y0368689D01*
X0443432Y0369687D02*
X0441253Y0369687D01*
X0441253Y0370686D02*
X0443432Y0370686D01*
X0443432Y0371684D02*
X0441253Y0371684D01*
X0441253Y0372683D02*
X0443522Y0372683D01*
X0443936Y0373681D02*
X0441253Y0373681D01*
X0441253Y0374680D02*
X0444934Y0374680D01*
X0445933Y0375678D02*
X0441253Y0375678D01*
X0441253Y0376677D02*
X0446931Y0376677D01*
X0447930Y0377675D02*
X0441253Y0377675D01*
X0441253Y0378674D02*
X0448928Y0378674D01*
X0449927Y0379672D02*
X0441253Y0379672D01*
X0441253Y0380671D02*
X0450925Y0380671D01*
X0451924Y0381670D02*
X0441253Y0381670D01*
X0441253Y0382668D02*
X0452922Y0382668D01*
X0453921Y0383667D02*
X0441253Y0383667D01*
X0441253Y0384665D02*
X0454456Y0384665D01*
X0454456Y0385664D02*
X0441253Y0385664D01*
X0441253Y0386662D02*
X0454456Y0386662D01*
X0454456Y0387661D02*
X0441253Y0387661D01*
X0441253Y0388659D02*
X0454456Y0388659D01*
X0454456Y0389658D02*
X0441253Y0389658D01*
X0441253Y0390656D02*
X0454456Y0390656D01*
X0454456Y0391655D02*
X0441253Y0391655D01*
X0441253Y0392653D02*
X0454456Y0392653D01*
X0454456Y0393652D02*
X0441253Y0393652D01*
X0441253Y0394650D02*
X0454456Y0394650D01*
X0454456Y0395649D02*
X0441253Y0395649D01*
X0441253Y0396647D02*
X0454456Y0396647D01*
X0454456Y0397646D02*
X0441253Y0397646D01*
X0441253Y0398644D02*
X0454456Y0398644D01*
X0454456Y0399643D02*
X0441253Y0399643D01*
X0441253Y0400641D02*
X0454456Y0400641D01*
X0454456Y0401640D02*
X0441253Y0401640D01*
X0441253Y0402638D02*
X0454456Y0402638D01*
X0454456Y0403637D02*
X0441253Y0403637D01*
X0441253Y0404635D02*
X0454456Y0404635D01*
X0454456Y0405634D02*
X0441253Y0405634D01*
X0441253Y0406632D02*
X0454456Y0406632D01*
X0454456Y0407631D02*
X0441253Y0407631D01*
X0441253Y0408629D02*
X0454456Y0408629D01*
X0454456Y0409628D02*
X0441253Y0409628D01*
X0441253Y0410626D02*
X0454456Y0410626D01*
X0454456Y0411625D02*
X0441253Y0411625D01*
X0441253Y0412623D02*
X0445388Y0412623D01*
X0445437Y0412588D02*
X0446110Y0412245D01*
X0446829Y0412011D01*
X0447567Y0411894D01*
X0447567Y0416307D01*
X0448339Y0416307D01*
X0448339Y0417079D01*
X0452751Y0417079D01*
X0452635Y0417817D01*
X0452401Y0418535D01*
X0452058Y0419209D01*
X0451614Y0419820D01*
X0451080Y0420354D01*
X0450468Y0420798D01*
X0449795Y0421141D01*
X0449077Y0421375D01*
X0448339Y0421492D01*
X0448339Y0417079D01*
X0447567Y0417079D01*
X0447567Y0421492D01*
X0446829Y0421375D01*
X0446110Y0421141D01*
X0445437Y0420798D01*
X0444826Y0420354D01*
X0444292Y0419820D01*
X0443847Y0419209D01*
X0443504Y0418535D01*
X0443271Y0417817D01*
X0443154Y0417079D01*
X0447567Y0417079D01*
X0447567Y0416307D01*
X0443154Y0416307D01*
X0443271Y0415569D01*
X0443504Y0414850D01*
X0443847Y0414177D01*
X0444292Y0413566D01*
X0444826Y0413032D01*
X0445437Y0412588D01*
X0444251Y0413622D02*
X0441953Y0413622D01*
X0442506Y0414620D02*
X0443622Y0414620D01*
X0443263Y0415619D02*
X0442920Y0415619D01*
X0442953Y0416617D02*
X0447567Y0416617D01*
X0448339Y0416617D02*
X0452953Y0416617D01*
X0452751Y0416307D02*
X0448339Y0416307D01*
X0448339Y0411894D01*
X0449077Y0412011D01*
X0449795Y0412245D01*
X0450468Y0412588D01*
X0451080Y0413032D01*
X0451614Y0413566D01*
X0452058Y0414177D01*
X0452401Y0414850D01*
X0452635Y0415569D01*
X0452751Y0416307D01*
X0452642Y0415619D02*
X0452986Y0415619D01*
X0453399Y0414620D02*
X0452284Y0414620D01*
X0451655Y0413622D02*
X0453953Y0413622D01*
X0454456Y0412623D02*
X0450518Y0412623D01*
X0448339Y0412623D02*
X0447567Y0412623D01*
X0447567Y0413622D02*
X0448339Y0413622D01*
X0448339Y0414620D02*
X0447567Y0414620D01*
X0447567Y0415619D02*
X0448339Y0415619D01*
X0448339Y0417616D02*
X0447567Y0417616D01*
X0447567Y0418614D02*
X0448339Y0418614D01*
X0448339Y0419613D02*
X0447567Y0419613D01*
X0447567Y0420611D02*
X0448339Y0420611D01*
X0450726Y0420611D02*
X0454800Y0420611D01*
X0453802Y0419613D02*
X0451764Y0419613D01*
X0452361Y0418614D02*
X0453337Y0418614D01*
X0452953Y0417616D02*
X0452666Y0417616D01*
X0450939Y0422608D02*
X0454966Y0422608D01*
X0453968Y0423607D02*
X0451938Y0423607D01*
X0452500Y0424605D02*
X0453405Y0424605D01*
X0452992Y0425604D02*
X0452914Y0425604D01*
X0452953Y0426603D02*
X0452953Y0426603D01*
X0452953Y0427601D02*
X0452953Y0427601D01*
X0452575Y0428600D02*
X0453331Y0428600D01*
X0453787Y0429598D02*
X0452119Y0429598D01*
X0451120Y0430597D02*
X0454785Y0430597D01*
X0456722Y0431595D02*
X0449183Y0431595D01*
X0446722Y0431595D02*
X0439183Y0431595D01*
X0441120Y0430597D02*
X0444785Y0430597D01*
X0443787Y0429598D02*
X0442119Y0429598D01*
X0442575Y0428600D02*
X0443331Y0428600D01*
X0442953Y0427601D02*
X0442953Y0427601D01*
X0442953Y0426603D02*
X0442953Y0426603D01*
X0442914Y0425604D02*
X0442992Y0425604D01*
X0443405Y0424605D02*
X0442500Y0424605D01*
X0441938Y0423607D02*
X0443968Y0423607D01*
X0444966Y0422608D02*
X0440939Y0422608D01*
X0441105Y0420611D02*
X0445180Y0420611D01*
X0444141Y0419613D02*
X0442104Y0419613D01*
X0442569Y0418614D02*
X0443545Y0418614D01*
X0443239Y0417616D02*
X0442953Y0417616D01*
X0439148Y0421610D02*
X0456758Y0421610D01*
X0459148Y0421610D02*
X0459540Y0421610D01*
X0463615Y0424605D02*
X0463629Y0424605D01*
X0463265Y0425604D02*
X0462914Y0425604D01*
X0462953Y0426603D02*
X0467567Y0426603D01*
X0467567Y0427601D02*
X0468339Y0427601D01*
X0468339Y0428600D02*
X0467567Y0428600D01*
X0467567Y0429598D02*
X0468339Y0429598D01*
X0468339Y0430597D02*
X0467567Y0430597D01*
X0465159Y0430597D02*
X0461120Y0430597D01*
X0462119Y0429598D02*
X0464130Y0429598D01*
X0463537Y0428600D02*
X0462575Y0428600D01*
X0462953Y0427601D02*
X0463237Y0427601D01*
X0467567Y0425604D02*
X0468339Y0425604D01*
X0468339Y0424605D02*
X0467567Y0424605D01*
X0467567Y0423607D02*
X0468339Y0423607D01*
X0468339Y0422608D02*
X0467567Y0422608D01*
X0466758Y0421610D02*
X0465768Y0421610D01*
X0469148Y0421610D02*
X0470555Y0421610D01*
X0470497Y0422608D02*
X0470610Y0422608D01*
X0470610Y0431595D02*
X0459183Y0431595D01*
X0470957Y0432594D02*
X0384794Y0432594D01*
X0386523Y0431595D02*
X0382646Y0431595D01*
X0381527Y0430597D02*
X0384113Y0430597D01*
X0382526Y0429598D02*
X0380732Y0429598D01*
X0380156Y0428600D02*
X0381527Y0428600D01*
X0380529Y0427601D02*
X0379835Y0427601D01*
X0379976Y0426603D02*
X0379567Y0426603D01*
X0379563Y0425604D02*
X0379500Y0425604D01*
X0379500Y0417616D02*
X0379632Y0417616D01*
X0379500Y0416617D02*
X0380045Y0416617D01*
X0379500Y0415619D02*
X0380695Y0415619D01*
X0381693Y0414620D02*
X0379500Y0414620D01*
X0379500Y0413622D02*
X0382692Y0413622D01*
X0384513Y0412623D02*
X0379500Y0412623D01*
X0379500Y0411625D02*
X0415053Y0411625D01*
X0415053Y0410626D02*
X0379500Y0410626D01*
X0379500Y0409628D02*
X0415053Y0409628D01*
X0415053Y0408629D02*
X0379500Y0408629D01*
X0379500Y0407631D02*
X0415053Y0407631D01*
X0415053Y0406632D02*
X0379500Y0406632D01*
X0379500Y0405634D02*
X0415053Y0405634D01*
X0415053Y0404635D02*
X0379500Y0404635D01*
X0379500Y0403637D02*
X0415053Y0403637D01*
X0415053Y0402638D02*
X0379500Y0402638D01*
X0379500Y0401640D02*
X0415053Y0401640D01*
X0415053Y0400641D02*
X0379500Y0400641D01*
X0379500Y0389658D02*
X0415053Y0389658D01*
X0415053Y0390656D02*
X0393810Y0390656D01*
X0394450Y0391655D02*
X0415053Y0391655D01*
X0415053Y0392653D02*
X0394450Y0392653D01*
X0394450Y0393652D02*
X0415053Y0393652D01*
X0415053Y0394650D02*
X0394450Y0394650D01*
X0394450Y0395649D02*
X0415053Y0395649D01*
X0415053Y0396647D02*
X0394450Y0396647D01*
X0394450Y0397646D02*
X0415053Y0397646D01*
X0415053Y0398644D02*
X0394450Y0398644D01*
X0393511Y0399643D02*
X0415053Y0399643D01*
X0420853Y0399643D02*
X0425053Y0399643D01*
X0425053Y0400641D02*
X0420853Y0400641D01*
X0420853Y0401640D02*
X0425053Y0401640D01*
X0425053Y0402638D02*
X0420853Y0402638D01*
X0420853Y0403637D02*
X0425053Y0403637D01*
X0425053Y0404635D02*
X0420853Y0404635D01*
X0420853Y0405634D02*
X0425053Y0405634D01*
X0425053Y0406632D02*
X0420853Y0406632D01*
X0420853Y0407631D02*
X0425053Y0407631D01*
X0425053Y0408629D02*
X0420853Y0408629D01*
X0420853Y0409628D02*
X0425053Y0409628D01*
X0425053Y0410626D02*
X0420853Y0410626D01*
X0420853Y0411625D02*
X0425053Y0411625D01*
X0424951Y0412623D02*
X0420954Y0412623D01*
X0421953Y0413622D02*
X0423953Y0413622D01*
X0423399Y0414620D02*
X0422506Y0414620D01*
X0422920Y0415619D02*
X0422986Y0415619D01*
X0422953Y0416617D02*
X0422953Y0416617D01*
X0422953Y0417616D02*
X0422953Y0417616D01*
X0422569Y0418614D02*
X0423337Y0418614D01*
X0423802Y0419613D02*
X0422104Y0419613D01*
X0421105Y0420611D02*
X0424800Y0420611D01*
X0425437Y0422588D02*
X0426110Y0422245D01*
X0426829Y0422011D01*
X0427567Y0421894D01*
X0427567Y0426307D01*
X0428339Y0426307D01*
X0428339Y0427079D01*
X0432751Y0427079D01*
X0432635Y0427817D01*
X0432401Y0428535D01*
X0432058Y0429209D01*
X0431614Y0429820D01*
X0431080Y0430354D01*
X0430468Y0430798D01*
X0429795Y0431141D01*
X0429077Y0431375D01*
X0428339Y0431492D01*
X0428339Y0427079D01*
X0427567Y0427079D01*
X0427567Y0431492D01*
X0426829Y0431375D01*
X0426110Y0431141D01*
X0425437Y0430798D01*
X0424826Y0430354D01*
X0424292Y0429820D01*
X0423847Y0429209D01*
X0423504Y0428535D01*
X0423271Y0427817D01*
X0423154Y0427079D01*
X0427567Y0427079D01*
X0427567Y0426307D01*
X0423154Y0426307D01*
X0423271Y0425569D01*
X0423504Y0424850D01*
X0423847Y0424177D01*
X0424292Y0423566D01*
X0424826Y0423032D01*
X0425437Y0422588D01*
X0425408Y0422608D02*
X0420939Y0422608D01*
X0421938Y0423607D02*
X0424262Y0423607D01*
X0423629Y0424605D02*
X0422500Y0424605D01*
X0422914Y0425604D02*
X0423265Y0425604D01*
X0422953Y0426603D02*
X0427567Y0426603D01*
X0428339Y0426603D02*
X0432953Y0426603D01*
X0432751Y0426307D02*
X0428339Y0426307D01*
X0428339Y0421894D01*
X0429077Y0422011D01*
X0429795Y0422245D01*
X0430468Y0422588D01*
X0431080Y0423032D01*
X0431614Y0423566D01*
X0432058Y0424177D01*
X0432401Y0424850D01*
X0432635Y0425569D01*
X0432751Y0426307D01*
X0432640Y0425604D02*
X0432992Y0425604D01*
X0433405Y0424605D02*
X0432276Y0424605D01*
X0431644Y0423607D02*
X0433968Y0423607D01*
X0434966Y0422608D02*
X0430497Y0422608D01*
X0429148Y0421610D02*
X0436758Y0421610D01*
X0434800Y0420611D02*
X0431105Y0420611D01*
X0432104Y0419613D02*
X0433802Y0419613D01*
X0433337Y0418614D02*
X0432569Y0418614D01*
X0432953Y0417616D02*
X0432953Y0417616D01*
X0432953Y0416617D02*
X0432953Y0416617D01*
X0432920Y0415619D02*
X0432986Y0415619D01*
X0433399Y0414620D02*
X0432506Y0414620D01*
X0431953Y0413622D02*
X0433953Y0413622D01*
X0434653Y0412623D02*
X0430954Y0412623D01*
X0430853Y0411625D02*
X0434653Y0411625D01*
X0434653Y0410626D02*
X0430853Y0410626D01*
X0430853Y0409628D02*
X0434653Y0409628D01*
X0434653Y0408629D02*
X0430853Y0408629D01*
X0430853Y0407631D02*
X0434653Y0407631D01*
X0434653Y0406632D02*
X0430853Y0406632D01*
X0430853Y0405634D02*
X0434653Y0405634D01*
X0434653Y0404635D02*
X0430853Y0404635D01*
X0430853Y0403637D02*
X0434653Y0403637D01*
X0434653Y0402638D02*
X0430853Y0402638D01*
X0430853Y0401640D02*
X0434653Y0401640D01*
X0434653Y0400641D02*
X0430853Y0400641D01*
X0430853Y0399643D02*
X0434653Y0399643D01*
X0434653Y0398644D02*
X0430853Y0398644D01*
X0430853Y0397646D02*
X0434653Y0397646D01*
X0434653Y0396647D02*
X0430853Y0396647D01*
X0430853Y0395649D02*
X0434653Y0395649D01*
X0434653Y0394650D02*
X0430853Y0394650D01*
X0430853Y0393652D02*
X0434653Y0393652D01*
X0434653Y0392653D02*
X0430853Y0392653D01*
X0430853Y0391655D02*
X0434653Y0391655D01*
X0434653Y0390656D02*
X0430853Y0390656D01*
X0430853Y0389658D02*
X0434653Y0389658D01*
X0434653Y0388659D02*
X0430853Y0388659D01*
X0430853Y0387661D02*
X0434653Y0387661D01*
X0434653Y0386662D02*
X0430853Y0386662D01*
X0430853Y0385664D02*
X0434653Y0385664D01*
X0434653Y0384665D02*
X0430853Y0384665D01*
X0430853Y0383667D02*
X0434653Y0383667D01*
X0434653Y0382668D02*
X0430648Y0382668D01*
X0429983Y0381670D02*
X0434653Y0381670D01*
X0434653Y0380671D02*
X0428985Y0380671D01*
X0427986Y0379672D02*
X0434653Y0379672D01*
X0434653Y0378674D02*
X0426988Y0378674D01*
X0425989Y0377675D02*
X0434653Y0377675D01*
X0434653Y0376677D02*
X0424991Y0376677D01*
X0423992Y0375678D02*
X0434653Y0375678D01*
X0434653Y0374680D02*
X0422994Y0374680D01*
X0421995Y0373681D02*
X0434653Y0373681D01*
X0434653Y0372683D02*
X0420997Y0372683D01*
X0419998Y0371684D02*
X0434653Y0371684D01*
X0434653Y0370686D02*
X0419000Y0370686D01*
X0418001Y0369687D02*
X0434653Y0369687D01*
X0434653Y0368689D02*
X0417003Y0368689D01*
X0416004Y0367690D02*
X0434653Y0367690D01*
X0434653Y0366692D02*
X0415006Y0366692D01*
X0414007Y0365693D02*
X0434653Y0365693D01*
X0434653Y0364695D02*
X0413009Y0364695D01*
X0412010Y0363696D02*
X0434653Y0363696D01*
X0434653Y0362698D02*
X0411012Y0362698D01*
X0410013Y0361699D02*
X0434653Y0361699D01*
X0434653Y0360701D02*
X0409015Y0360701D01*
X0408016Y0359702D02*
X0434653Y0359702D01*
X0434653Y0358704D02*
X0407900Y0358704D01*
X0407900Y0357705D02*
X0434653Y0357705D01*
X0434653Y0356707D02*
X0407900Y0356707D01*
X0407900Y0355708D02*
X0434653Y0355708D01*
X0434653Y0354710D02*
X0407900Y0354710D01*
X0407900Y0353711D02*
X0434653Y0353711D01*
X0434653Y0352713D02*
X0407900Y0352713D01*
X0407900Y0351714D02*
X0434653Y0351714D01*
X0434653Y0350716D02*
X0407900Y0350716D01*
X0407900Y0349717D02*
X0434653Y0349717D01*
X0434653Y0348719D02*
X0407900Y0348719D01*
X0407900Y0347720D02*
X0434653Y0347720D01*
X0434653Y0346722D02*
X0407900Y0346722D01*
X0407900Y0345723D02*
X0434653Y0345723D01*
X0434653Y0344725D02*
X0407900Y0344725D01*
X0407900Y0343726D02*
X0434653Y0343726D01*
X0434653Y0342728D02*
X0407900Y0342728D01*
X0407900Y0341729D02*
X0434653Y0341729D01*
X0434653Y0340731D02*
X0407900Y0340731D01*
X0407900Y0339732D02*
X0434653Y0339732D01*
X0434653Y0338734D02*
X0407900Y0338734D01*
X0407900Y0337735D02*
X0434653Y0337735D01*
X0434653Y0336737D02*
X0407900Y0336737D01*
X0407900Y0335738D02*
X0434653Y0335738D01*
X0434653Y0334739D02*
X0407900Y0334739D01*
X0407900Y0333741D02*
X0434653Y0333741D01*
X0434653Y0332742D02*
X0407900Y0332742D01*
X0407900Y0331744D02*
X0434653Y0331744D01*
X0434653Y0330745D02*
X0407900Y0330745D01*
X0407900Y0329747D02*
X0434653Y0329747D01*
X0434653Y0328748D02*
X0407900Y0328748D01*
X0407900Y0327750D02*
X0434653Y0327750D01*
X0434653Y0326751D02*
X0407900Y0326751D01*
X0407900Y0325753D02*
X0434653Y0325753D01*
X0434653Y0324754D02*
X0407900Y0324754D01*
X0407900Y0323756D02*
X0434653Y0323756D01*
X0433957Y0322757D02*
X0407900Y0322757D01*
X0407900Y0321759D02*
X0432958Y0321759D01*
X0431960Y0320760D02*
X0407900Y0320760D01*
X0407900Y0319762D02*
X0430961Y0319762D01*
X0429963Y0318763D02*
X0407900Y0318763D01*
X0407900Y0317765D02*
X0428964Y0317765D01*
X0427966Y0316766D02*
X0407900Y0316766D01*
X0407900Y0315768D02*
X0426967Y0315768D01*
X0425969Y0314769D02*
X0407900Y0314769D01*
X0407900Y0313771D02*
X0424970Y0313771D01*
X0423971Y0312772D02*
X0407900Y0312772D01*
X0407900Y0311774D02*
X0422973Y0311774D01*
X0421974Y0310775D02*
X0407900Y0310775D01*
X0407900Y0309777D02*
X0420976Y0309777D01*
X0419977Y0308778D02*
X0407900Y0308778D01*
X0407900Y0307780D02*
X0418979Y0307780D01*
X0417980Y0306781D02*
X0407900Y0306781D01*
X0407900Y0305783D02*
X0416982Y0305783D01*
X0415983Y0304784D02*
X0407900Y0304784D01*
X0408265Y0303786D02*
X0414985Y0303786D01*
X0413986Y0302787D02*
X0409660Y0302787D01*
X0410227Y0301789D02*
X0412988Y0301789D01*
X0412253Y0300790D02*
X0410453Y0300790D01*
X0410425Y0299792D02*
X0411936Y0299792D01*
X0411936Y0298793D02*
X0410012Y0298793D01*
X0409139Y0297795D02*
X0411936Y0297795D01*
X0411936Y0296796D02*
X0401207Y0296796D01*
X0401207Y0295798D02*
X0411936Y0295798D01*
X0411936Y0294799D02*
X0401861Y0294799D01*
X0402860Y0293801D02*
X0411936Y0293801D01*
X0411936Y0292802D02*
X0403858Y0292802D01*
X0404857Y0291803D02*
X0411936Y0291803D01*
X0411936Y0290805D02*
X0405855Y0290805D01*
X0406854Y0289806D02*
X0411936Y0289806D01*
X0411936Y0288808D02*
X0407852Y0288808D01*
X0408851Y0287809D02*
X0411936Y0287809D01*
X0411936Y0286811D02*
X0409602Y0286811D01*
X0409868Y0285812D02*
X0411936Y0285812D01*
X0411936Y0284814D02*
X0409868Y0284814D01*
X0409868Y0283815D02*
X0411936Y0283815D01*
X0411936Y0282817D02*
X0409868Y0282817D01*
X0409868Y0281818D02*
X0411936Y0281818D01*
X0411752Y0280820D02*
X0409868Y0280820D01*
X0409868Y0279821D02*
X0411752Y0279821D01*
X0412148Y0278823D02*
X0409868Y0278823D01*
X0409868Y0277824D02*
X0412957Y0277824D01*
X0409868Y0276826D02*
X0420309Y0276826D01*
X0421307Y0277824D02*
X0417516Y0277824D01*
X0418324Y0278823D02*
X0422172Y0278823D01*
X0422172Y0279821D02*
X0418720Y0279821D01*
X0418720Y0280820D02*
X0422172Y0280820D01*
X0422172Y0281818D02*
X0418536Y0281818D01*
X0418536Y0282817D02*
X0422172Y0282817D01*
X0422172Y0283815D02*
X0418536Y0283815D01*
X0418536Y0284814D02*
X0422172Y0284814D01*
X0422172Y0285812D02*
X0418536Y0285812D01*
X0418536Y0286811D02*
X0422172Y0286811D01*
X0422172Y0287809D02*
X0418536Y0287809D01*
X0418536Y0288808D02*
X0422172Y0288808D01*
X0422172Y0289806D02*
X0418536Y0289806D01*
X0418536Y0290805D02*
X0422172Y0290805D01*
X0422172Y0291803D02*
X0418536Y0291803D01*
X0418536Y0292802D02*
X0422172Y0292802D01*
X0422172Y0293801D02*
X0418536Y0293801D01*
X0418536Y0294799D02*
X0422172Y0294799D01*
X0422172Y0295798D02*
X0418536Y0295798D01*
X0418536Y0296796D02*
X0422465Y0296796D01*
X0423167Y0297795D02*
X0418536Y0297795D01*
X0419326Y0298793D02*
X0424166Y0298793D01*
X0425164Y0299792D02*
X0420325Y0299792D01*
X0421323Y0300790D02*
X0426163Y0300790D01*
X0427161Y0301789D02*
X0422322Y0301789D01*
X0423320Y0302787D02*
X0428160Y0302787D01*
X0429158Y0303786D02*
X0424319Y0303786D01*
X0425317Y0304784D02*
X0430157Y0304784D01*
X0431155Y0305783D02*
X0426316Y0305783D01*
X0427314Y0306781D02*
X0432154Y0306781D01*
X0433152Y0307780D02*
X0428313Y0307780D01*
X0429311Y0308778D02*
X0434151Y0308778D01*
X0435149Y0309777D02*
X0430310Y0309777D01*
X0431308Y0310775D02*
X0436148Y0310775D01*
X0437146Y0311774D02*
X0432307Y0311774D01*
X0433305Y0312772D02*
X0438145Y0312772D01*
X0439143Y0313771D02*
X0434304Y0313771D01*
X0435302Y0314769D02*
X0440142Y0314769D01*
X0441140Y0315768D02*
X0436301Y0315768D01*
X0437299Y0316766D02*
X0442139Y0316766D01*
X0443137Y0317765D02*
X0438298Y0317765D01*
X0439296Y0318763D02*
X0443432Y0318763D01*
X0443432Y0319762D02*
X0440295Y0319762D01*
X0440975Y0320760D02*
X0443432Y0320760D01*
X0443432Y0321759D02*
X0441253Y0321759D01*
X0441253Y0322757D02*
X0443432Y0322757D01*
X0465768Y0344725D02*
X0472763Y0344725D01*
X0471042Y0345723D02*
X0465768Y0345723D01*
X0465768Y0346722D02*
X0470340Y0346722D01*
X0470020Y0347720D02*
X0465768Y0347720D01*
X0465768Y0348719D02*
X0469439Y0348719D01*
X0468781Y0349717D02*
X0465768Y0349717D01*
X0465768Y0350716D02*
X0468642Y0350716D01*
X0468642Y0351714D02*
X0465768Y0351714D01*
X0465768Y0352713D02*
X0468642Y0352713D01*
X0468642Y0353711D02*
X0465768Y0353711D01*
X0465768Y0354710D02*
X0468642Y0354710D01*
X0468642Y0355708D02*
X0465768Y0355708D01*
X0465768Y0356707D02*
X0468642Y0356707D01*
X0468642Y0357705D02*
X0465768Y0357705D01*
X0465768Y0358704D02*
X0468642Y0358704D01*
X0468642Y0359702D02*
X0465768Y0359702D01*
X0465768Y0360701D02*
X0468642Y0360701D01*
X0468642Y0361699D02*
X0465768Y0361699D01*
X0465768Y0362698D02*
X0468642Y0362698D01*
X0468642Y0363696D02*
X0465768Y0363696D01*
X0465768Y0364695D02*
X0468642Y0364695D01*
X0468642Y0365693D02*
X0466197Y0365693D01*
X0467196Y0366692D02*
X0468642Y0366692D01*
X0468642Y0367690D02*
X0468194Y0367690D01*
X0476667Y0346722D02*
X0477957Y0346722D01*
X0491028Y0313771D02*
X0493314Y0313771D01*
X0492900Y0312772D02*
X0491161Y0312772D01*
X0491042Y0311774D02*
X0492608Y0311774D01*
X0520760Y0295798D02*
X0535122Y0295798D01*
X0536094Y0296796D02*
X0536120Y0296796D01*
X0536859Y0297795D02*
X0537119Y0297795D01*
X0537224Y0298793D02*
X0538117Y0298793D01*
X0537224Y0299792D02*
X0539116Y0299792D01*
X0540114Y0300790D02*
X0536923Y0300790D01*
X0536640Y0301789D02*
X0541113Y0301789D01*
X0542111Y0302787D02*
X0536640Y0302787D01*
X0536640Y0303786D02*
X0543110Y0303786D01*
X0544108Y0304784D02*
X0536640Y0304784D01*
X0536640Y0305783D02*
X0545107Y0305783D01*
X0546105Y0306781D02*
X0536640Y0306781D01*
X0536640Y0307780D02*
X0547104Y0307780D01*
X0548102Y0308778D02*
X0536640Y0308778D01*
X0536640Y0309777D02*
X0549101Y0309777D01*
X0550099Y0310775D02*
X0536640Y0310775D01*
X0536640Y0311774D02*
X0551098Y0311774D01*
X0552096Y0312772D02*
X0536640Y0312772D01*
X0536640Y0313771D02*
X0553095Y0313771D01*
X0554093Y0314769D02*
X0536640Y0314769D01*
X0536640Y0315768D02*
X0555092Y0315768D01*
X0556090Y0316766D02*
X0536640Y0316766D01*
X0536640Y0317765D02*
X0557089Y0317765D01*
X0558087Y0318763D02*
X0536901Y0318763D01*
X0537224Y0319762D02*
X0559086Y0319762D01*
X0560084Y0320760D02*
X0537224Y0320760D01*
X0536881Y0321759D02*
X0561083Y0321759D01*
X0562081Y0322757D02*
X0536146Y0322757D01*
X0554193Y0298793D02*
X0626406Y0298793D01*
X0626406Y0323756D02*
X0624432Y0323756D01*
X0625430Y0324754D02*
X0626406Y0324754D01*
X0540105Y0292578D02*
X0539895Y0292073D01*
X0539895Y0286792D01*
X0532145Y0279042D01*
X0513935Y0279042D01*
X0514060Y0279093D01*
X0514305Y0279338D01*
X0514910Y0279589D01*
X0523918Y0288596D01*
X0535498Y0288596D01*
X0536564Y0289038D01*
X0540105Y0292578D01*
X0539895Y0291803D02*
X0539330Y0291803D01*
X0539895Y0290805D02*
X0538331Y0290805D01*
X0537333Y0289806D02*
X0539895Y0289806D01*
X0539895Y0288808D02*
X0536010Y0288808D01*
X0539895Y0287809D02*
X0523131Y0287809D01*
X0522133Y0286811D02*
X0539895Y0286811D01*
X0538916Y0285812D02*
X0521134Y0285812D01*
X0520136Y0284814D02*
X0537917Y0284814D01*
X0536919Y0283815D02*
X0519137Y0283815D01*
X0518139Y0282817D02*
X0535920Y0282817D01*
X0534922Y0281818D02*
X0517140Y0281818D01*
X0516142Y0280820D02*
X0533923Y0280820D01*
X0532925Y0279821D02*
X0515143Y0279821D01*
X0510051Y0272832D02*
X0531841Y0272832D01*
X0530842Y0271833D02*
X0463805Y0271833D01*
X0463805Y0270835D02*
X0529844Y0270835D01*
X0528845Y0269836D02*
X0463805Y0269836D01*
X0463805Y0268838D02*
X0527847Y0268838D01*
X0527139Y0267839D02*
X0463805Y0267839D01*
X0463805Y0266841D02*
X0526903Y0266841D01*
X0526903Y0265842D02*
X0463805Y0265842D01*
X0463805Y0264844D02*
X0526903Y0264844D01*
X0526903Y0263845D02*
X0463805Y0263845D01*
X0463805Y0262847D02*
X0526903Y0262847D01*
X0526903Y0261848D02*
X0463805Y0261848D01*
X0463805Y0260850D02*
X0526903Y0260850D01*
X0526903Y0259851D02*
X0463805Y0259851D01*
X0463805Y0258853D02*
X0515067Y0258853D01*
X0514175Y0257854D02*
X0463805Y0257854D01*
X0463805Y0256856D02*
X0513762Y0256856D01*
X0513720Y0255857D02*
X0463805Y0255857D01*
X0464636Y0254859D02*
X0513932Y0254859D01*
X0514480Y0253860D02*
X0465635Y0253860D01*
X0466633Y0252862D02*
X0515829Y0252862D01*
X0518581Y0252862D02*
X0533996Y0252862D01*
X0533996Y0253860D02*
X0529339Y0253860D01*
X0530338Y0254859D02*
X0533996Y0254859D01*
X0533996Y0255857D02*
X0531336Y0255857D01*
X0532292Y0256856D02*
X0533996Y0256856D01*
X0533996Y0257854D02*
X0532703Y0257854D01*
X0532703Y0258853D02*
X0533996Y0258853D01*
X0533996Y0259851D02*
X0532703Y0259851D01*
X0532703Y0260850D02*
X0533270Y0260850D01*
X0538996Y0260850D02*
X0543140Y0260850D01*
X0543140Y0261848D02*
X0538996Y0261848D01*
X0538996Y0262847D02*
X0543140Y0262847D01*
X0543140Y0263845D02*
X0538549Y0263845D01*
X0538317Y0264844D02*
X0543140Y0264844D01*
X0543140Y0265842D02*
X0537903Y0265842D01*
X0536945Y0266841D02*
X0543140Y0266841D01*
X0543140Y0267839D02*
X0535051Y0267839D01*
X0536049Y0268838D02*
X0543140Y0268838D01*
X0543140Y0259851D02*
X0538996Y0259851D01*
X0538996Y0258853D02*
X0543140Y0258853D01*
X0543140Y0257854D02*
X0538996Y0257854D01*
X0538996Y0256856D02*
X0543140Y0256856D01*
X0543140Y0255857D02*
X0538996Y0255857D01*
X0538996Y0254859D02*
X0543140Y0254859D01*
X0543140Y0253860D02*
X0538996Y0253860D01*
X0538996Y0252862D02*
X0543140Y0252862D01*
X0543140Y0251863D02*
X0538996Y0251863D01*
X0538996Y0250865D02*
X0543140Y0250865D01*
X0543140Y0249866D02*
X0538996Y0249866D01*
X0538996Y0248868D02*
X0543140Y0248868D01*
X0543140Y0247869D02*
X0538996Y0247869D01*
X0538996Y0246870D02*
X0543140Y0246870D01*
X0543140Y0245872D02*
X0538996Y0245872D01*
X0538996Y0244873D02*
X0543140Y0244873D01*
X0543140Y0243875D02*
X0538720Y0243875D01*
X0537807Y0242876D02*
X0543140Y0242876D01*
X0543140Y0241878D02*
X0506949Y0241878D01*
X0505950Y0240879D02*
X0543140Y0240879D01*
X0543140Y0239881D02*
X0504952Y0239881D01*
X0503811Y0238882D02*
X0543140Y0238882D01*
X0543140Y0237884D02*
X0493736Y0237884D01*
X0491067Y0237884D02*
X0427930Y0237884D01*
X0428928Y0238882D02*
X0489694Y0238882D01*
X0489136Y0239881D02*
X0429927Y0239881D01*
X0430926Y0240879D02*
X0488917Y0240879D01*
X0488952Y0241878D02*
X0431924Y0241878D01*
X0432923Y0242876D02*
X0489365Y0242876D01*
X0490247Y0243875D02*
X0433921Y0243875D01*
X0434920Y0244873D02*
X0466517Y0244873D01*
X0465534Y0245759D02*
X0465534Y0245759D01*
X0465421Y0245872D02*
X0435918Y0245872D01*
X0436917Y0246870D02*
X0464422Y0246870D01*
X0463423Y0247869D02*
X0437915Y0247869D01*
X0438914Y0248868D02*
X0462425Y0248868D01*
X0461426Y0249866D02*
X0439912Y0249866D01*
X0440911Y0250865D02*
X0460428Y0250865D01*
X0459429Y0251863D02*
X0441909Y0251863D01*
X0442908Y0252862D02*
X0458440Y0252862D01*
X0458027Y0253860D02*
X0443906Y0253860D01*
X0444905Y0254859D02*
X0458006Y0254859D01*
X0458006Y0255857D02*
X0445903Y0255857D01*
X0446902Y0256856D02*
X0458006Y0256856D01*
X0458006Y0257854D02*
X0447900Y0257854D01*
X0448899Y0258853D02*
X0458006Y0258853D01*
X0458006Y0259851D02*
X0454960Y0259851D01*
X0456446Y0260850D02*
X0458006Y0260850D01*
X0458006Y0261848D02*
X0457051Y0261848D01*
X0457303Y0262847D02*
X0458006Y0262847D01*
X0458006Y0263845D02*
X0457302Y0263845D01*
X0456889Y0264844D02*
X0458006Y0264844D01*
X0458006Y0265842D02*
X0456054Y0265842D01*
X0458006Y0266841D02*
X0439396Y0266841D01*
X0439396Y0267839D02*
X0458006Y0267839D01*
X0458006Y0268838D02*
X0439396Y0268838D01*
X0439396Y0269836D02*
X0458006Y0269836D01*
X0458006Y0270835D02*
X0439396Y0270835D01*
X0439396Y0271833D02*
X0458006Y0271833D01*
X0458006Y0272832D02*
X0439396Y0272832D01*
X0439396Y0273830D02*
X0458006Y0273830D01*
X0458006Y0274829D02*
X0439396Y0274829D01*
X0439396Y0275827D02*
X0457754Y0275827D01*
X0457421Y0276826D02*
X0439396Y0276826D01*
X0439396Y0277824D02*
X0457421Y0277824D01*
X0457756Y0278823D02*
X0439396Y0278823D01*
X0439396Y0279821D02*
X0458477Y0279821D01*
X0464390Y0277824D02*
X0505863Y0277824D01*
X0505453Y0276826D02*
X0464390Y0276826D01*
X0464057Y0275827D02*
X0505453Y0275827D01*
X0505709Y0274829D02*
X0463805Y0274829D01*
X0463805Y0273830D02*
X0506321Y0273830D01*
X0507823Y0272832D02*
X0463805Y0272832D01*
X0448017Y0265842D02*
X0439396Y0265842D01*
X0439396Y0264844D02*
X0446687Y0264844D01*
X0445689Y0263845D02*
X0439396Y0263845D01*
X0439396Y0262847D02*
X0444690Y0262847D01*
X0443692Y0261848D02*
X0439396Y0261848D01*
X0439396Y0260850D02*
X0442693Y0260850D01*
X0441695Y0259851D02*
X0439247Y0259851D01*
X0438662Y0258853D02*
X0440696Y0258853D01*
X0439698Y0257854D02*
X0437664Y0257854D01*
X0436665Y0256856D02*
X0438699Y0256856D01*
X0437701Y0255857D02*
X0435667Y0255857D01*
X0434668Y0254859D02*
X0436702Y0254859D01*
X0435704Y0253860D02*
X0433670Y0253860D01*
X0432671Y0252862D02*
X0434705Y0252862D01*
X0433707Y0251863D02*
X0431673Y0251863D01*
X0430674Y0250865D02*
X0432708Y0250865D01*
X0431710Y0249866D02*
X0429676Y0249866D01*
X0428677Y0248868D02*
X0430711Y0248868D01*
X0429713Y0247869D02*
X0427679Y0247869D01*
X0428714Y0246870D02*
X0426065Y0246870D01*
X0427716Y0245872D02*
X0414962Y0245872D01*
X0415960Y0244873D02*
X0426717Y0244873D01*
X0425719Y0243875D02*
X0416959Y0243875D01*
X0413963Y0246870D02*
X0421863Y0246870D01*
X0420911Y0247869D02*
X0412964Y0247869D01*
X0411966Y0248868D02*
X0420498Y0248868D01*
X0420413Y0249866D02*
X0410967Y0249866D01*
X0409969Y0250865D02*
X0420582Y0250865D01*
X0421069Y0251863D02*
X0409868Y0251863D01*
X0409868Y0252862D02*
X0422272Y0252862D01*
X0421752Y0255857D02*
X0427465Y0255857D01*
X0428463Y0256856D02*
X0423319Y0256856D01*
X0423957Y0257854D02*
X0429462Y0257854D01*
X0430460Y0258853D02*
X0424232Y0258853D01*
X0424232Y0259851D02*
X0431459Y0259851D01*
X0432457Y0260850D02*
X0423841Y0260850D01*
X0423648Y0261848D02*
X0433456Y0261848D01*
X0433596Y0262847D02*
X0423648Y0262847D01*
X0423970Y0263845D02*
X0433596Y0263845D01*
X0433596Y0264844D02*
X0424969Y0264844D01*
X0425967Y0265842D02*
X0433596Y0265842D01*
X0433596Y0266841D02*
X0426966Y0266841D01*
X0427964Y0267839D02*
X0433596Y0267839D01*
X0433596Y0268838D02*
X0428963Y0268838D01*
X0429961Y0269836D02*
X0433596Y0269836D01*
X0433596Y0270835D02*
X0430960Y0270835D01*
X0431958Y0271833D02*
X0433596Y0271833D01*
X0433596Y0272832D02*
X0432957Y0272832D01*
X0419310Y0275827D02*
X0409868Y0275827D01*
X0409868Y0274829D02*
X0418312Y0274829D01*
X0417052Y0273830D02*
X0409868Y0273830D01*
X0409868Y0272832D02*
X0416151Y0272832D01*
X0415737Y0271833D02*
X0409868Y0271833D01*
X0409868Y0270835D02*
X0415689Y0270835D01*
X0415894Y0269836D02*
X0409868Y0269836D01*
X0409868Y0268838D02*
X0416432Y0268838D01*
X0417756Y0267839D02*
X0409868Y0267839D01*
X0409868Y0266841D02*
X0418763Y0266841D01*
X0418072Y0265842D02*
X0409868Y0265842D01*
X0409868Y0264844D02*
X0417848Y0264844D01*
X0417848Y0263845D02*
X0409868Y0263845D01*
X0409868Y0262847D02*
X0417848Y0262847D01*
X0417848Y0261848D02*
X0409868Y0261848D01*
X0409868Y0260850D02*
X0417655Y0260850D01*
X0417264Y0259851D02*
X0409868Y0259851D01*
X0409868Y0258853D02*
X0417264Y0258853D01*
X0417539Y0257854D02*
X0409868Y0257854D01*
X0409868Y0256856D02*
X0418178Y0256856D01*
X0419744Y0255857D02*
X0409868Y0255857D01*
X0409868Y0254859D02*
X0426466Y0254859D01*
X0425468Y0253860D02*
X0409868Y0253860D01*
X0384597Y0237884D02*
X0379500Y0237884D01*
X0379500Y0236885D02*
X0382727Y0236885D01*
X0381728Y0235887D02*
X0379500Y0235887D01*
X0379500Y0234888D02*
X0380730Y0234888D01*
X0380060Y0233890D02*
X0379500Y0233890D01*
X0379500Y0232891D02*
X0379646Y0232891D01*
X0393530Y0219911D02*
X0612375Y0219911D01*
X0533996Y0247869D02*
X0488012Y0247869D01*
X0488012Y0246870D02*
X0504870Y0246870D01*
X0503872Y0245872D02*
X0487665Y0245872D01*
X0486927Y0244873D02*
X0502873Y0244873D01*
X0501875Y0243875D02*
X0494556Y0243875D01*
X0487692Y0248868D02*
X0533996Y0248868D01*
X0533996Y0249866D02*
X0486991Y0249866D01*
X0485272Y0250865D02*
X0533996Y0250865D01*
X0533996Y0251863D02*
X0467632Y0251863D01*
X0468630Y0250865D02*
X0483783Y0250865D01*
X0459263Y0252030D02*
X0459263Y0252030D01*
X0452677Y0259851D02*
X0449897Y0259851D01*
X0400648Y0287809D02*
X0394448Y0287809D01*
X0396180Y0288808D02*
X0399650Y0288808D01*
X0398651Y0289806D02*
X0397314Y0289806D01*
X0401207Y0297795D02*
X0404798Y0297795D01*
X0403925Y0298793D02*
X0401207Y0298793D01*
X0401207Y0299792D02*
X0403512Y0299792D01*
X0402628Y0300790D02*
X0401207Y0300790D01*
X0401207Y0301789D02*
X0402164Y0301789D01*
X0402100Y0302787D02*
X0401207Y0302787D01*
X0401207Y0303786D02*
X0402100Y0303786D01*
X0402100Y0304784D02*
X0401207Y0304784D01*
X0401207Y0305783D02*
X0402100Y0305783D01*
X0402100Y0306781D02*
X0401207Y0306781D01*
X0401207Y0307780D02*
X0402100Y0307780D01*
X0402100Y0308778D02*
X0401207Y0308778D01*
X0401207Y0309777D02*
X0402100Y0309777D01*
X0402100Y0310775D02*
X0401207Y0310775D01*
X0401207Y0311774D02*
X0402100Y0311774D01*
X0402100Y0312772D02*
X0401207Y0312772D01*
X0401207Y0313771D02*
X0402100Y0313771D01*
X0402100Y0314769D02*
X0401207Y0314769D01*
X0401207Y0315768D02*
X0402100Y0315768D01*
X0402100Y0316766D02*
X0401207Y0316766D01*
X0401207Y0317765D02*
X0402100Y0317765D01*
X0402100Y0318763D02*
X0401207Y0318763D01*
X0401207Y0319762D02*
X0402100Y0319762D01*
X0402100Y0320760D02*
X0401207Y0320760D01*
X0401207Y0321759D02*
X0402100Y0321759D01*
X0402100Y0322757D02*
X0401207Y0322757D01*
X0401207Y0323756D02*
X0402100Y0323756D01*
X0402100Y0324754D02*
X0401207Y0324754D01*
X0401207Y0325753D02*
X0402100Y0325753D01*
X0402100Y0326751D02*
X0401207Y0326751D01*
X0401207Y0327750D02*
X0402100Y0327750D01*
X0402100Y0328748D02*
X0401207Y0328748D01*
X0401207Y0329747D02*
X0402100Y0329747D01*
X0402100Y0330745D02*
X0401207Y0330745D01*
X0401207Y0331744D02*
X0402100Y0331744D01*
X0402100Y0332742D02*
X0401207Y0332742D01*
X0401207Y0333741D02*
X0402100Y0333741D01*
X0402100Y0334739D02*
X0401207Y0334739D01*
X0401207Y0335738D02*
X0402100Y0335738D01*
X0402100Y0336737D02*
X0401207Y0336737D01*
X0401207Y0337735D02*
X0402100Y0337735D01*
X0402100Y0338734D02*
X0401207Y0338734D01*
X0401207Y0339732D02*
X0402100Y0339732D01*
X0402100Y0340731D02*
X0401207Y0340731D01*
X0401207Y0341729D02*
X0402100Y0341729D01*
X0402100Y0342728D02*
X0401207Y0342728D01*
X0401207Y0343726D02*
X0402100Y0343726D01*
X0402100Y0344725D02*
X0401207Y0344725D01*
X0401207Y0345723D02*
X0402100Y0345723D01*
X0402100Y0346722D02*
X0401207Y0346722D01*
X0401207Y0347720D02*
X0402100Y0347720D01*
X0402100Y0348719D02*
X0401207Y0348719D01*
X0401207Y0349717D02*
X0402100Y0349717D01*
X0402100Y0350716D02*
X0401207Y0350716D01*
X0401207Y0351714D02*
X0402100Y0351714D01*
X0402100Y0352713D02*
X0401207Y0352713D01*
X0401207Y0353711D02*
X0402100Y0353711D01*
X0402100Y0354710D02*
X0401207Y0354710D01*
X0401207Y0355708D02*
X0402100Y0355708D01*
X0402100Y0356707D02*
X0401207Y0356707D01*
X0401207Y0357705D02*
X0402100Y0357705D01*
X0402100Y0358704D02*
X0401207Y0358704D01*
X0401207Y0359702D02*
X0402100Y0359702D01*
X0402100Y0360701D02*
X0401207Y0360701D01*
X0401207Y0361699D02*
X0402239Y0361699D01*
X0402809Y0362698D02*
X0401207Y0362698D01*
X0401207Y0363696D02*
X0403808Y0363696D01*
X0404806Y0364695D02*
X0401207Y0364695D01*
X0402196Y0365693D02*
X0405805Y0365693D01*
X0406803Y0366692D02*
X0403195Y0366692D01*
X0404193Y0367690D02*
X0407802Y0367690D01*
X0408800Y0368689D02*
X0405192Y0368689D01*
X0406190Y0369687D02*
X0409799Y0369687D01*
X0410797Y0370686D02*
X0407189Y0370686D01*
X0408187Y0371684D02*
X0411796Y0371684D01*
X0412794Y0372683D02*
X0409186Y0372683D01*
X0410184Y0373681D02*
X0413793Y0373681D01*
X0414791Y0374680D02*
X0411183Y0374680D01*
X0412181Y0375678D02*
X0415790Y0375678D01*
X0416788Y0376677D02*
X0413180Y0376677D01*
X0414178Y0377675D02*
X0417787Y0377675D01*
X0418785Y0378674D02*
X0415177Y0378674D01*
X0416175Y0379672D02*
X0419784Y0379672D01*
X0420782Y0380671D02*
X0417174Y0380671D01*
X0418172Y0381670D02*
X0421781Y0381670D01*
X0422779Y0382668D02*
X0419171Y0382668D01*
X0420169Y0383667D02*
X0423778Y0383667D01*
X0424776Y0384665D02*
X0420725Y0384665D01*
X0420853Y0385664D02*
X0425053Y0385664D01*
X0425053Y0386662D02*
X0420853Y0386662D01*
X0420853Y0387661D02*
X0425053Y0387661D01*
X0425053Y0388659D02*
X0420853Y0388659D01*
X0420853Y0389658D02*
X0425053Y0389658D01*
X0425053Y0390656D02*
X0420853Y0390656D01*
X0420853Y0391655D02*
X0425053Y0391655D01*
X0425053Y0392653D02*
X0420853Y0392653D01*
X0420853Y0393652D02*
X0425053Y0393652D01*
X0425053Y0394650D02*
X0420853Y0394650D01*
X0420853Y0395649D02*
X0425053Y0395649D01*
X0425053Y0396647D02*
X0420853Y0396647D01*
X0420853Y0397646D02*
X0425053Y0397646D01*
X0425053Y0398644D02*
X0420853Y0398644D01*
X0415053Y0388659D02*
X0397141Y0388659D01*
X0397379Y0388561D02*
X0395835Y0389200D01*
X0394165Y0389200D01*
X0393561Y0388950D01*
X0384557Y0388950D01*
X0383429Y0387822D01*
X0383429Y0382178D01*
X0384557Y0381050D01*
X0393561Y0381050D01*
X0394165Y0380800D01*
X0395835Y0380800D01*
X0397379Y0381439D01*
X0398561Y0382621D01*
X0399200Y0384165D01*
X0399200Y0385835D01*
X0398561Y0387379D01*
X0397379Y0388561D01*
X0398279Y0387661D02*
X0415053Y0387661D01*
X0414962Y0386662D02*
X0398858Y0386662D01*
X0399200Y0385664D02*
X0413964Y0385664D01*
X0412965Y0384665D02*
X0399200Y0384665D01*
X0398994Y0383667D02*
X0411967Y0383667D01*
X0410968Y0382668D02*
X0398580Y0382668D01*
X0397609Y0381670D02*
X0409970Y0381670D01*
X0408971Y0380671D02*
X0379500Y0380671D01*
X0379500Y0381670D02*
X0383937Y0381670D01*
X0383429Y0382668D02*
X0379500Y0382668D01*
X0379500Y0383667D02*
X0383429Y0383667D01*
X0383429Y0384665D02*
X0379500Y0384665D01*
X0379500Y0385664D02*
X0383429Y0385664D01*
X0383429Y0386662D02*
X0379500Y0386662D01*
X0379500Y0387661D02*
X0383429Y0387661D01*
X0384266Y0388659D02*
X0379500Y0388659D01*
X0393482Y0379672D02*
X0407973Y0379672D01*
X0406974Y0378674D02*
X0394450Y0378674D01*
X0394450Y0377675D02*
X0405976Y0377675D01*
X0404977Y0376677D02*
X0394450Y0376677D01*
X0394450Y0375678D02*
X0403979Y0375678D01*
X0402980Y0374680D02*
X0394450Y0374680D01*
X0394450Y0373681D02*
X0401982Y0373681D01*
X0400983Y0372683D02*
X0394450Y0372683D01*
X0394450Y0371684D02*
X0399985Y0371684D01*
X0398986Y0370686D02*
X0393840Y0370686D01*
X0395991Y0367690D02*
X0379500Y0367690D01*
X0379500Y0366692D02*
X0395494Y0366692D01*
X0395407Y0365693D02*
X0379500Y0365693D01*
X0379500Y0364695D02*
X0395407Y0364695D01*
X0395407Y0363696D02*
X0392268Y0363696D01*
X0394806Y0362698D02*
X0395407Y0362698D01*
X0396989Y0368689D02*
X0379500Y0368689D01*
X0379500Y0369687D02*
X0397988Y0369687D01*
X0406958Y0411693D02*
X0408947Y0411693D01*
X0410785Y0412454D01*
X0412192Y0413861D01*
X0412953Y0415698D01*
X0412953Y0417687D01*
X0412192Y0419525D01*
X0410785Y0420932D01*
X0408947Y0421693D01*
X0410785Y0422454D01*
X0412192Y0423861D01*
X0412953Y0425698D01*
X0412953Y0427687D01*
X0412192Y0429525D01*
X0410785Y0430932D01*
X0408947Y0431693D01*
X0406958Y0431693D01*
X0405120Y0430932D01*
X0403714Y0429525D01*
X0402953Y0427687D01*
X0402953Y0425698D01*
X0403714Y0423861D01*
X0405120Y0422454D01*
X0406958Y0421693D01*
X0408947Y0421693D01*
X0406958Y0421693D01*
X0405120Y0420932D01*
X0403714Y0419525D01*
X0402953Y0417687D01*
X0402953Y0415698D01*
X0403714Y0413861D01*
X0405120Y0412454D01*
X0406958Y0411693D01*
X0404951Y0412623D02*
X0393046Y0412623D01*
X0394867Y0413622D02*
X0403953Y0413622D01*
X0403399Y0414620D02*
X0395866Y0414620D01*
X0396864Y0415619D02*
X0402986Y0415619D01*
X0402953Y0416617D02*
X0397514Y0416617D01*
X0397927Y0417616D02*
X0402953Y0417616D01*
X0403337Y0418614D02*
X0398341Y0418614D01*
X0398755Y0419613D02*
X0403802Y0419613D01*
X0404800Y0420611D02*
X0398791Y0420611D01*
X0398791Y0421610D02*
X0406758Y0421610D01*
X0404966Y0422608D02*
X0398791Y0422608D01*
X0398791Y0423607D02*
X0403968Y0423607D01*
X0403405Y0424605D02*
X0398410Y0424605D01*
X0397996Y0425604D02*
X0402992Y0425604D01*
X0402953Y0426603D02*
X0397583Y0426603D01*
X0397030Y0427601D02*
X0402953Y0427601D01*
X0403331Y0428600D02*
X0396032Y0428600D01*
X0395033Y0429598D02*
X0403787Y0429598D01*
X0404785Y0430597D02*
X0393446Y0430597D01*
X0391036Y0431595D02*
X0406722Y0431595D01*
X0409183Y0431595D02*
X0416722Y0431595D01*
X0414785Y0430597D02*
X0411120Y0430597D01*
X0412119Y0429598D02*
X0413787Y0429598D01*
X0413331Y0428600D02*
X0412575Y0428600D01*
X0412953Y0427601D02*
X0412953Y0427601D01*
X0412953Y0426603D02*
X0412953Y0426603D01*
X0412914Y0425604D02*
X0412992Y0425604D01*
X0413405Y0424605D02*
X0412500Y0424605D01*
X0411938Y0423607D02*
X0413968Y0423607D01*
X0414966Y0422608D02*
X0410939Y0422608D01*
X0411105Y0420611D02*
X0414800Y0420611D01*
X0413802Y0419613D02*
X0412104Y0419613D01*
X0412569Y0418614D02*
X0413337Y0418614D01*
X0412953Y0417616D02*
X0412953Y0417616D01*
X0412953Y0416617D02*
X0412953Y0416617D01*
X0412920Y0415619D02*
X0412986Y0415619D01*
X0413399Y0414620D02*
X0412506Y0414620D01*
X0411953Y0413622D02*
X0413953Y0413622D01*
X0414951Y0412623D02*
X0410954Y0412623D01*
X0409148Y0421610D02*
X0416758Y0421610D01*
X0419148Y0421610D02*
X0426758Y0421610D01*
X0427567Y0422608D02*
X0428339Y0422608D01*
X0428339Y0423607D02*
X0427567Y0423607D01*
X0427567Y0424605D02*
X0428339Y0424605D01*
X0428339Y0425604D02*
X0427567Y0425604D01*
X0427567Y0427601D02*
X0428339Y0427601D01*
X0428339Y0428600D02*
X0427567Y0428600D01*
X0427567Y0429598D02*
X0428339Y0429598D01*
X0428339Y0430597D02*
X0427567Y0430597D01*
X0425159Y0430597D02*
X0421120Y0430597D01*
X0422119Y0429598D02*
X0424130Y0429598D01*
X0423537Y0428600D02*
X0422575Y0428600D01*
X0422953Y0427601D02*
X0423237Y0427601D01*
X0419183Y0431595D02*
X0436722Y0431595D01*
X0434785Y0430597D02*
X0430746Y0430597D01*
X0431775Y0429598D02*
X0433787Y0429598D01*
X0433331Y0428600D02*
X0432368Y0428600D01*
X0432669Y0427601D02*
X0432953Y0427601D01*
X0480988Y0430728D02*
X0484917Y0430728D01*
X0483714Y0429525D01*
X0482953Y0427687D01*
X0482953Y0425698D01*
X0483714Y0423861D01*
X0485120Y0422454D01*
X0486958Y0421693D01*
X0488947Y0421693D01*
X0490785Y0422454D01*
X0492192Y0423861D01*
X0492953Y0425698D01*
X0492953Y0427687D01*
X0492192Y0429525D01*
X0490988Y0430728D01*
X0495341Y0430728D01*
X0494826Y0430354D01*
X0494292Y0429820D01*
X0493847Y0429209D01*
X0493504Y0428535D01*
X0493271Y0427817D01*
X0493154Y0427079D01*
X0497567Y0427079D01*
X0497567Y0426307D01*
X0498339Y0426307D01*
X0498339Y0427079D01*
X0502751Y0427079D01*
X0502635Y0427817D01*
X0502401Y0428535D01*
X0502058Y0429209D01*
X0501614Y0429820D01*
X0501080Y0430354D01*
X0500565Y0430728D01*
X0504917Y0430728D01*
X0503714Y0429525D01*
X0502953Y0427687D01*
X0502953Y0425698D01*
X0503714Y0423861D01*
X0505120Y0422454D01*
X0506958Y0421693D01*
X0508882Y0421693D01*
X0508882Y0421693D01*
X0506958Y0421693D01*
X0505120Y0420932D01*
X0503714Y0419525D01*
X0502953Y0417687D01*
X0502953Y0415698D01*
X0503714Y0413861D01*
X0504462Y0413112D01*
X0504462Y0412382D01*
X0486240Y0394160D01*
X0486240Y0395185D01*
X0498630Y0407575D01*
X0499595Y0407975D01*
X0500411Y0408790D01*
X0500853Y0409856D01*
X0500853Y0412522D01*
X0502192Y0413861D01*
X0502953Y0415698D01*
X0502953Y0417687D01*
X0502192Y0419525D01*
X0500785Y0420932D01*
X0498947Y0421693D01*
X0496958Y0421693D01*
X0495120Y0420932D01*
X0493714Y0419525D01*
X0492953Y0417687D01*
X0492953Y0415698D01*
X0493714Y0413861D01*
X0495053Y0412522D01*
X0495053Y0411069D01*
X0485340Y0401355D01*
X0485453Y0401629D01*
X0485453Y0412316D01*
X0486958Y0411693D01*
X0488947Y0411693D01*
X0490785Y0412454D01*
X0492192Y0413861D01*
X0492953Y0415698D01*
X0492953Y0417687D01*
X0492192Y0419525D01*
X0490785Y0420932D01*
X0488947Y0421693D01*
X0486958Y0421693D01*
X0485334Y0421020D01*
X0485072Y0421652D01*
X0482388Y0424336D01*
X0482953Y0425698D01*
X0482953Y0427687D01*
X0482192Y0429525D01*
X0480988Y0430728D01*
X0481120Y0430597D02*
X0484785Y0430597D01*
X0483787Y0429598D02*
X0482119Y0429598D01*
X0482575Y0428600D02*
X0483331Y0428600D01*
X0482953Y0427601D02*
X0482953Y0427601D01*
X0482953Y0426603D02*
X0482953Y0426603D01*
X0482914Y0425604D02*
X0482992Y0425604D01*
X0483405Y0424605D02*
X0482500Y0424605D01*
X0483118Y0423607D02*
X0483968Y0423607D01*
X0484116Y0422608D02*
X0484966Y0422608D01*
X0485090Y0421610D02*
X0486758Y0421610D01*
X0489148Y0421610D02*
X0496758Y0421610D01*
X0496829Y0422011D02*
X0497567Y0421894D01*
X0497567Y0426307D01*
X0493154Y0426307D01*
X0493271Y0425569D01*
X0493504Y0424850D01*
X0493847Y0424177D01*
X0494292Y0423566D01*
X0494826Y0423032D01*
X0495437Y0422588D01*
X0496110Y0422245D01*
X0496829Y0422011D01*
X0497567Y0422608D02*
X0498339Y0422608D01*
X0498339Y0421894D02*
X0499077Y0422011D01*
X0499795Y0422245D01*
X0500468Y0422588D01*
X0501080Y0423032D01*
X0501614Y0423566D01*
X0502058Y0424177D01*
X0502401Y0424850D01*
X0502635Y0425569D01*
X0502751Y0426307D01*
X0498339Y0426307D01*
X0498339Y0421894D01*
X0499148Y0421610D02*
X0506758Y0421610D01*
X0504966Y0422608D02*
X0500497Y0422608D01*
X0501644Y0423607D02*
X0503968Y0423607D01*
X0503405Y0424605D02*
X0502276Y0424605D01*
X0502640Y0425604D02*
X0502992Y0425604D01*
X0502953Y0426603D02*
X0498339Y0426603D01*
X0497567Y0426603D02*
X0492953Y0426603D01*
X0492953Y0427601D02*
X0493237Y0427601D01*
X0493537Y0428600D02*
X0492575Y0428600D01*
X0492119Y0429598D02*
X0494130Y0429598D01*
X0495159Y0430597D02*
X0491120Y0430597D01*
X0492914Y0425604D02*
X0493265Y0425604D01*
X0493629Y0424605D02*
X0492500Y0424605D01*
X0491938Y0423607D02*
X0494262Y0423607D01*
X0495408Y0422608D02*
X0490939Y0422608D01*
X0491105Y0420611D02*
X0494800Y0420611D01*
X0493802Y0419613D02*
X0492104Y0419613D01*
X0492569Y0418614D02*
X0493337Y0418614D01*
X0492953Y0417616D02*
X0492953Y0417616D01*
X0492953Y0416617D02*
X0492953Y0416617D01*
X0492920Y0415619D02*
X0492986Y0415619D01*
X0493399Y0414620D02*
X0492506Y0414620D01*
X0491953Y0413622D02*
X0493953Y0413622D01*
X0494951Y0412623D02*
X0490954Y0412623D01*
X0493612Y0409628D02*
X0485453Y0409628D01*
X0485453Y0410626D02*
X0494611Y0410626D01*
X0495053Y0411625D02*
X0485453Y0411625D01*
X0485453Y0408629D02*
X0492613Y0408629D01*
X0491615Y0407631D02*
X0485453Y0407631D01*
X0485453Y0406632D02*
X0490616Y0406632D01*
X0489618Y0405634D02*
X0485453Y0405634D01*
X0485453Y0404635D02*
X0488619Y0404635D01*
X0487621Y0403637D02*
X0485453Y0403637D01*
X0485453Y0402638D02*
X0486622Y0402638D01*
X0485624Y0401640D02*
X0485453Y0401640D01*
X0488701Y0397646D02*
X0489726Y0397646D01*
X0489699Y0398644D02*
X0490724Y0398644D01*
X0490698Y0399643D02*
X0491723Y0399643D01*
X0491696Y0400641D02*
X0492721Y0400641D01*
X0492695Y0401640D02*
X0493720Y0401640D01*
X0493693Y0402638D02*
X0494718Y0402638D01*
X0494692Y0403637D02*
X0495717Y0403637D01*
X0495690Y0404635D02*
X0496715Y0404635D01*
X0496689Y0405634D02*
X0497714Y0405634D01*
X0497688Y0406632D02*
X0498712Y0406632D01*
X0498766Y0407631D02*
X0499711Y0407631D01*
X0500250Y0408629D02*
X0500709Y0408629D01*
X0500758Y0409628D02*
X0501708Y0409628D01*
X0500853Y0410626D02*
X0502706Y0410626D01*
X0503705Y0411625D02*
X0500853Y0411625D01*
X0500954Y0412623D02*
X0504462Y0412623D01*
X0503953Y0413622D02*
X0501953Y0413622D01*
X0502506Y0414620D02*
X0503399Y0414620D01*
X0502986Y0415619D02*
X0502920Y0415619D01*
X0502953Y0416617D02*
X0502953Y0416617D01*
X0502953Y0417616D02*
X0502953Y0417616D01*
X0502569Y0418614D02*
X0503337Y0418614D01*
X0503802Y0419613D02*
X0502104Y0419613D01*
X0501105Y0420611D02*
X0504800Y0420611D01*
X0498339Y0423607D02*
X0497567Y0423607D01*
X0497567Y0424605D02*
X0498339Y0424605D01*
X0498339Y0425604D02*
X0497567Y0425604D01*
X0502669Y0427601D02*
X0502953Y0427601D01*
X0503331Y0428600D02*
X0502368Y0428600D01*
X0501775Y0429598D02*
X0503787Y0429598D01*
X0504785Y0430597D02*
X0500746Y0430597D01*
X0525217Y0421610D02*
X0536758Y0421610D01*
X0539148Y0421610D02*
X0546758Y0421610D01*
X0546829Y0422011D02*
X0547567Y0421894D01*
X0547567Y0426307D01*
X0548339Y0426307D01*
X0548339Y0427079D01*
X0552751Y0427079D01*
X0552635Y0427817D01*
X0552401Y0428535D01*
X0552058Y0429209D01*
X0551614Y0429820D01*
X0551080Y0430354D01*
X0550468Y0430798D01*
X0549795Y0431141D01*
X0549077Y0431375D01*
X0548339Y0431492D01*
X0548339Y0427079D01*
X0547567Y0427079D01*
X0547567Y0431492D01*
X0546829Y0431375D01*
X0546110Y0431141D01*
X0545437Y0430798D01*
X0544826Y0430354D01*
X0544292Y0429820D01*
X0543847Y0429209D01*
X0543504Y0428535D01*
X0543271Y0427817D01*
X0543154Y0427079D01*
X0547567Y0427079D01*
X0547567Y0426307D01*
X0543154Y0426307D01*
X0543271Y0425569D01*
X0543504Y0424850D01*
X0543847Y0424177D01*
X0544292Y0423566D01*
X0544826Y0423032D01*
X0545437Y0422588D01*
X0546110Y0422245D01*
X0546829Y0422011D01*
X0547567Y0422608D02*
X0548339Y0422608D01*
X0548339Y0421894D02*
X0549077Y0422011D01*
X0549795Y0422245D01*
X0550468Y0422588D01*
X0551080Y0423032D01*
X0551614Y0423566D01*
X0552058Y0424177D01*
X0552401Y0424850D01*
X0552635Y0425569D01*
X0552751Y0426307D01*
X0548339Y0426307D01*
X0548339Y0421894D01*
X0549148Y0421610D02*
X0556758Y0421610D01*
X0554966Y0422608D02*
X0550497Y0422608D01*
X0551644Y0423607D02*
X0553968Y0423607D01*
X0553405Y0424605D02*
X0552276Y0424605D01*
X0552640Y0425604D02*
X0552992Y0425604D01*
X0552953Y0426603D02*
X0548339Y0426603D01*
X0547567Y0426603D02*
X0542953Y0426603D01*
X0542953Y0427601D02*
X0543237Y0427601D01*
X0543537Y0428600D02*
X0542575Y0428600D01*
X0542119Y0429598D02*
X0544130Y0429598D01*
X0545159Y0430597D02*
X0541120Y0430597D01*
X0539183Y0431595D02*
X0556722Y0431595D01*
X0554785Y0430597D02*
X0550746Y0430597D01*
X0551775Y0429598D02*
X0553787Y0429598D01*
X0553331Y0428600D02*
X0552368Y0428600D01*
X0552669Y0427601D02*
X0552953Y0427601D01*
X0548339Y0427601D02*
X0547567Y0427601D01*
X0547567Y0428600D02*
X0548339Y0428600D01*
X0548339Y0429598D02*
X0547567Y0429598D01*
X0547567Y0430597D02*
X0548339Y0430597D01*
X0548339Y0425604D02*
X0547567Y0425604D01*
X0547567Y0424605D02*
X0548339Y0424605D01*
X0548339Y0423607D02*
X0547567Y0423607D01*
X0545408Y0422608D02*
X0540939Y0422608D01*
X0541938Y0423607D02*
X0544262Y0423607D01*
X0543629Y0424605D02*
X0542500Y0424605D01*
X0542914Y0425604D02*
X0543265Y0425604D01*
X0544800Y0420611D02*
X0541105Y0420611D01*
X0542104Y0419613D02*
X0543802Y0419613D01*
X0543337Y0418614D02*
X0542569Y0418614D01*
X0542953Y0417616D02*
X0542953Y0417616D01*
X0542953Y0416617D02*
X0542953Y0416617D01*
X0542920Y0415619D02*
X0542986Y0415619D01*
X0543399Y0414620D02*
X0542506Y0414620D01*
X0541953Y0413622D02*
X0543953Y0413622D01*
X0544951Y0412623D02*
X0540954Y0412623D01*
X0550954Y0412623D02*
X0554951Y0412623D01*
X0553953Y0413622D02*
X0551953Y0413622D01*
X0552506Y0414620D02*
X0553399Y0414620D01*
X0552986Y0415619D02*
X0552920Y0415619D01*
X0552953Y0416617D02*
X0552953Y0416617D01*
X0552953Y0417616D02*
X0552953Y0417616D01*
X0552569Y0418614D02*
X0553337Y0418614D01*
X0553802Y0419613D02*
X0552104Y0419613D01*
X0551105Y0420611D02*
X0554800Y0420611D01*
X0559148Y0421610D02*
X0566758Y0421610D01*
X0567567Y0422608D02*
X0568339Y0422608D01*
X0568339Y0423607D02*
X0567567Y0423607D01*
X0567567Y0424605D02*
X0568339Y0424605D01*
X0568339Y0427601D02*
X0567567Y0427601D01*
X0567567Y0428600D02*
X0568339Y0428600D01*
X0568339Y0429598D02*
X0567567Y0429598D01*
X0567567Y0430597D02*
X0568339Y0430597D01*
X0563265Y0425604D02*
X0562914Y0425604D01*
X0562500Y0424605D02*
X0563629Y0424605D01*
X0564262Y0423607D02*
X0561938Y0423607D01*
X0560939Y0422608D02*
X0565408Y0422608D01*
X0564800Y0420611D02*
X0561105Y0420611D01*
X0562104Y0419613D02*
X0563802Y0419613D01*
X0563337Y0418614D02*
X0562569Y0418614D01*
X0562953Y0417616D02*
X0562953Y0417616D01*
X0562953Y0416617D02*
X0562953Y0416617D01*
X0562920Y0415619D02*
X0562986Y0415619D01*
X0563399Y0414620D02*
X0562506Y0414620D01*
X0561953Y0413622D02*
X0563953Y0413622D01*
X0564951Y0412623D02*
X0560954Y0412623D01*
X0569148Y0421610D02*
X0576758Y0421610D01*
X0579148Y0421610D02*
X0586758Y0421610D01*
X0589148Y0421610D02*
X0607114Y0421610D01*
X0607114Y0422608D02*
X0600939Y0422608D01*
X0601938Y0423607D02*
X0607114Y0423607D01*
X0607496Y0424605D02*
X0602500Y0424605D01*
X0602914Y0425604D02*
X0607909Y0425604D01*
X0608323Y0426603D02*
X0602953Y0426603D01*
X0602953Y0427601D02*
X0608875Y0427601D01*
X0609874Y0428600D02*
X0602575Y0428600D01*
X0602119Y0429598D02*
X0610872Y0429598D01*
X0612459Y0430597D02*
X0601120Y0430597D01*
X0599183Y0431595D02*
X0614870Y0431595D01*
X0607114Y0420611D02*
X0600726Y0420611D01*
X0600468Y0420798D02*
X0599795Y0421141D01*
X0599077Y0421375D01*
X0598339Y0421492D01*
X0598339Y0417079D01*
X0602751Y0417079D01*
X0602635Y0417817D01*
X0602401Y0418535D01*
X0602058Y0419209D01*
X0601614Y0419820D01*
X0601080Y0420354D01*
X0600468Y0420798D01*
X0601764Y0419613D02*
X0607151Y0419613D01*
X0607564Y0418614D02*
X0602361Y0418614D01*
X0602666Y0417616D02*
X0607978Y0417616D01*
X0608392Y0416617D02*
X0598339Y0416617D01*
X0598339Y0416307D02*
X0598339Y0417079D01*
X0597567Y0417079D01*
X0597567Y0421492D01*
X0596829Y0421375D01*
X0596110Y0421141D01*
X0595437Y0420798D01*
X0594826Y0420354D01*
X0594292Y0419820D01*
X0593847Y0419209D01*
X0593504Y0418535D01*
X0593271Y0417817D01*
X0593154Y0417079D01*
X0597567Y0417079D01*
X0597567Y0416307D01*
X0598339Y0416307D01*
X0602751Y0416307D01*
X0602635Y0415569D01*
X0602401Y0414850D01*
X0602058Y0414177D01*
X0601614Y0413566D01*
X0601080Y0413032D01*
X0600468Y0412588D01*
X0599795Y0412245D01*
X0599077Y0412011D01*
X0598339Y0411894D01*
X0598339Y0416307D01*
X0598339Y0415619D02*
X0597567Y0415619D01*
X0597567Y0416307D02*
X0597567Y0411894D01*
X0596829Y0412011D01*
X0596110Y0412245D01*
X0595437Y0412588D01*
X0594826Y0413032D01*
X0594292Y0413566D01*
X0593847Y0414177D01*
X0593504Y0414850D01*
X0593271Y0415569D01*
X0593154Y0416307D01*
X0597567Y0416307D01*
X0597567Y0416617D02*
X0592953Y0416617D01*
X0592920Y0415619D02*
X0593263Y0415619D01*
X0593622Y0414620D02*
X0592506Y0414620D01*
X0591953Y0413622D02*
X0594251Y0413622D01*
X0595388Y0412623D02*
X0590954Y0412623D01*
X0592953Y0417616D02*
X0593239Y0417616D01*
X0593545Y0418614D02*
X0592569Y0418614D01*
X0592104Y0419613D02*
X0594141Y0419613D01*
X0595180Y0420611D02*
X0591105Y0420611D01*
X0590939Y0422608D02*
X0594966Y0422608D01*
X0593968Y0423607D02*
X0591938Y0423607D01*
X0592500Y0424605D02*
X0593405Y0424605D01*
X0592992Y0425604D02*
X0592914Y0425604D01*
X0592953Y0426603D02*
X0592953Y0426603D01*
X0592953Y0427601D02*
X0592953Y0427601D01*
X0592575Y0428600D02*
X0593331Y0428600D01*
X0593787Y0429598D02*
X0592119Y0429598D01*
X0591120Y0430597D02*
X0594785Y0430597D01*
X0596722Y0431595D02*
X0589183Y0431595D01*
X0597567Y0420611D02*
X0598339Y0420611D01*
X0598339Y0419613D02*
X0597567Y0419613D01*
X0597567Y0418614D02*
X0598339Y0418614D01*
X0598339Y0417616D02*
X0597567Y0417616D01*
X0597567Y0414620D02*
X0598339Y0414620D01*
X0598339Y0413622D02*
X0597567Y0413622D01*
X0597567Y0412623D02*
X0598339Y0412623D01*
X0600518Y0412623D02*
X0612860Y0412623D01*
X0611038Y0413622D02*
X0601655Y0413622D01*
X0602284Y0414620D02*
X0610040Y0414620D01*
X0609041Y0415619D02*
X0602642Y0415619D01*
X0528339Y0417616D02*
X0527567Y0417616D01*
X0527567Y0418614D02*
X0528339Y0418614D01*
X0528339Y0419613D02*
X0527567Y0419613D01*
X0527567Y0420611D02*
X0528339Y0420611D01*
X0488727Y0396647D02*
X0487702Y0396647D01*
X0487729Y0395649D02*
X0486704Y0395649D01*
X0486730Y0394650D02*
X0486240Y0394650D01*
D16*
X0516417Y0372205D03*
X0506575Y0357638D03*
X0536890Y0342677D03*
X0551850Y0341890D03*
X0530591Y0334016D03*
X0506969Y0331260D03*
X0507756Y0316299D03*
X0533346Y0285984D03*
X0564055Y0300551D03*
X0588858Y0333228D03*
X0592402Y0365118D03*
X0597520Y0380079D03*
X0597520Y0396614D03*
X0571929Y0394646D03*
X0551850Y0408819D03*
X0532559Y0409606D03*
X0449094Y0386772D03*
X0403425Y0396614D03*
X0412874Y0343071D03*
X0471535Y0332835D03*
X0470748Y0265118D03*
X0497913Y0268661D03*
X0510512Y0259606D03*
X0486496Y0241890D03*
X0462874Y0241102D03*
X0536890Y0235197D03*
D17*
X0527441Y0256063D02*
X0517205Y0256063D01*
X0527441Y0256063D02*
X0529803Y0258425D01*
X0529803Y0266693D01*
X0535709Y0272598D01*
X0544370Y0272598D01*
X0533346Y0276142D02*
X0542795Y0285591D01*
X0542795Y0291496D01*
X0577047Y0325748D01*
X0622323Y0325748D01*
X0625472Y0328898D01*
X0625472Y0401339D01*
X0623504Y0403307D01*
X0584921Y0403307D01*
X0577953Y0410276D01*
X0577953Y0416693D01*
X0557953Y0416693D02*
X0557953Y0386575D01*
X0548701Y0377323D01*
X0534921Y0377323D01*
X0526260Y0368661D01*
X0526260Y0321417D01*
X0533740Y0320236D02*
X0533740Y0299370D01*
X0521142Y0300157D02*
X0521142Y0372598D01*
X0534134Y0385591D01*
X0548307Y0385591D01*
X0549882Y0387165D01*
X0549882Y0401732D01*
X0517953Y0407598D02*
X0498701Y0388346D01*
X0498701Y0356063D01*
X0482165Y0346614D02*
X0482165Y0340315D01*
X0482165Y0346614D02*
X0475866Y0352913D01*
X0475866Y0364724D01*
X0488465Y0377323D01*
X0488465Y0392283D01*
X0507362Y0411181D01*
X0507362Y0416102D01*
X0507953Y0416693D01*
X0517953Y0416693D02*
X0517953Y0407598D01*
X0497953Y0410433D02*
X0497953Y0416693D01*
X0478228Y0416417D02*
X0477953Y0416693D01*
X0472323Y0411063D01*
X0472323Y0381260D01*
X0458543Y0367480D01*
X0458543Y0311575D01*
X0436496Y0289528D01*
X0436496Y0260787D01*
X0425472Y0249764D01*
X0423898Y0249764D01*
X0420748Y0259213D02*
X0420748Y0264724D01*
X0430984Y0274961D01*
X0430984Y0291496D01*
X0453819Y0314331D01*
X0453819Y0370236D01*
X0464055Y0380472D01*
X0464055Y0408819D01*
X0463268Y0409606D01*
X0427953Y0416693D02*
X0427953Y0383740D01*
X0405000Y0360787D01*
X0405000Y0302520D01*
X0406969Y0300551D01*
X0398307Y0294252D02*
X0406969Y0285591D01*
X0406969Y0249764D01*
X0416417Y0240315D01*
X0426260Y0240315D01*
X0449094Y0263150D01*
X0453819Y0263150D01*
X0460906Y0254488D02*
X0460906Y0277323D01*
X0460906Y0254488D02*
X0467992Y0247402D01*
X0484528Y0247402D01*
X0508937Y0276142D02*
X0533346Y0276142D01*
X0534921Y0291496D02*
X0522717Y0291496D01*
X0513268Y0282047D01*
X0512087Y0282047D01*
X0505787Y0283228D02*
X0505787Y0285591D01*
X0521142Y0300157D01*
X0534921Y0291496D02*
X0572323Y0328898D01*
X0572323Y0365512D01*
X0571535Y0366299D01*
X0562480Y0365512D02*
X0562480Y0342677D01*
X0564449Y0340709D01*
X0530197Y0356850D02*
X0530197Y0363937D01*
X0531772Y0365512D01*
X0546732Y0365512D01*
X0556969Y0375748D01*
X0582165Y0375748D01*
X0587677Y0370236D01*
X0417953Y0385551D02*
X0398307Y0365906D01*
X0398307Y0294252D01*
X0417953Y0385551D02*
X0417953Y0416693D01*
D18*
X0498701Y0356063D03*
X0482165Y0340315D03*
X0473504Y0348189D03*
X0487677Y0312756D03*
X0496339Y0311969D03*
X0526260Y0321417D03*
X0533740Y0320236D03*
X0533740Y0299370D03*
X0512087Y0282047D03*
X0505787Y0283228D03*
X0508937Y0276142D03*
X0534921Y0263937D03*
X0544370Y0272598D03*
X0517205Y0256063D03*
X0492402Y0241102D03*
X0484528Y0247402D03*
X0453819Y0263150D03*
X0460906Y0277323D03*
X0423898Y0249764D03*
X0420748Y0259213D03*
X0419173Y0271024D03*
X0415236Y0280472D03*
X0406969Y0300551D03*
X0530197Y0356850D03*
X0534134Y0361575D03*
X0562480Y0365512D03*
X0571535Y0366299D03*
X0564449Y0340709D03*
X0522717Y0385984D03*
X0549882Y0401732D03*
D19*
X0522717Y0385984D02*
X0522717Y0431260D01*
X0520748Y0433228D01*
X0475079Y0433228D01*
X0473110Y0431260D01*
X0473110Y0420630D01*
X0469173Y0416693D01*
X0467953Y0416693D01*
X0463268Y0421417D02*
X0463268Y0409606D01*
X0463268Y0421417D02*
X0457992Y0426693D01*
X0457953Y0426693D01*
X0477953Y0426693D02*
X0477953Y0425236D01*
X0482953Y0420236D01*
X0482953Y0402126D01*
X0479409Y0398583D01*
X0479409Y0382441D01*
X0463268Y0366299D01*
X0463268Y0326142D01*
X0480984Y0308425D01*
X0492795Y0308425D01*
X0496339Y0311969D01*
X0487677Y0312756D02*
X0487677Y0347008D01*
X0482953Y0351732D01*
X0482953Y0364724D01*
X0492795Y0374567D01*
X0492795Y0388346D01*
X0510512Y0406063D01*
X0512874Y0408031D01*
X0512874Y0421417D01*
X0507953Y0425945D01*
X0507953Y0426693D01*
X0497953Y0410433D02*
X0483740Y0396220D01*
X0483740Y0380866D01*
X0471142Y0368268D01*
X0471142Y0350551D01*
X0473504Y0348189D01*
X0534921Y0263937D02*
X0536496Y0262362D01*
X0536496Y0245039D01*
X0506575Y0245039D01*
X0502638Y0241102D01*
X0492402Y0241102D01*
D20*
X0395000Y0385000D02*
X0389129Y0385000D01*
D21*
X0437953Y0416693D02*
X0437953Y0322087D01*
X0415236Y0299370D01*
X0415236Y0280472D01*
X0419173Y0271024D02*
X0425472Y0277323D01*
X0425472Y0295433D01*
X0446732Y0316693D01*
X0446732Y0371811D01*
X0457756Y0382835D01*
X0457756Y0416496D01*
X0457953Y0416693D01*
X0587677Y0370236D02*
X0615764Y0370236D01*
X0616000Y0370000D01*
X0615000Y0360000D02*
X0586102Y0360000D01*
D22*
X0575079Y0371024D01*
X0558543Y0371024D01*
X0549094Y0361575D01*
X0534134Y0361575D01*
M02*
