%
M48
M72
T01C0.0197
T02C0.0220
T03C0.0236
T04C0.0354
T05C0.0400
T06C0.1102
%
T01
X42075Y25921
X42390Y24976
X45382Y26315
X46091Y27732
X48453Y24740
X49240Y24110
X51720Y25606
X53492Y26394
X54437Y27260
X51209Y28205
X50579Y28323
X50894Y27614
X53374Y29937
X53374Y32024
X52626Y32142
X49634Y31197
X48768Y31276
X48217Y34031
X47350Y34819
X49870Y35606
X53020Y35685
X53413Y36157
X56248Y36551
X57154Y36630
X56445Y34071
X52272Y38598
X54988Y40173
X40697Y30055
X41524Y28047
X41917Y27102
T02
X39500Y38500
T03
X40343Y39661
X44909Y38677
X41287Y34307
X47154Y33283
X50697Y33126
X50776Y31630
X53059Y33402
X53689Y34268
X55185Y34189
X58886Y33323
X56406Y30055
X53335Y28598
X49791Y26866
X51051Y25961
X48650Y24189
X46287Y24110
X47075Y26512
X53689Y23520
X50657Y35764
X51642Y37220
X53256Y40961
X55185Y40882
X57193Y39465
X59752Y39661
X59752Y38008
X59240Y36512
T04
X58795Y41669
X57795Y41669
X56795Y41669
X55795Y41669
X54795Y41669
X53795Y41669
X52795Y41669
X51795Y41669
X50795Y41669
X49795Y41669
X48795Y41669
X47795Y41669
X46795Y41669
X45795Y41669
X44795Y41669
X43795Y41669
X42795Y41669
X41795Y41669
X40795Y41669
X40795Y42669
X41795Y42669
X42795Y42669
X43795Y42669
X44795Y42669
X45795Y42669
X46795Y42669
X47795Y42669
X48795Y42669
X49795Y42669
X50795Y42669
X51795Y42669
X52795Y42669
X53795Y42669
X54795Y42669
X55795Y42669
X56795Y42669
X57795Y42669
X58795Y42669
X59795Y42669
X59795Y41669
T05
X61600Y39000
X61500Y38000
X61600Y37000
X61500Y36000
X61600Y35000
X61500Y34000
T06
X38878Y22878
X61713Y22878
X61713Y42169
X38878Y42169
M30
