G75*
%MOIN*%
%OFA0B0*%
%FSLAX25Y25*%
%IPPOS*%
%LPD*%
%AMOC8*
5,1,8,0,0,1.08239X$1,22.5*
%
%ADD10C,0.00787*%
%ADD11R,0.07874X0.05000*%
%ADD12R,0.03550X0.05118*%
%ADD13C,0.00800*%
%ADD14C,0.05000*%
%ADD15R,0.17000X0.06000*%
%ADD16C,0.06600*%
%ADD17R,0.04134X0.01181*%
%ADD18C,0.01181*%
%ADD19R,0.02500X0.05000*%
%ADD20R,0.04331X0.03937*%
%ADD21R,0.08700X0.02400*%
%ADD22R,0.03937X0.00984*%
%ADD23R,0.05118X0.03550*%
%ADD24C,0.06000*%
%ADD25C,0.03200*%
%ADD26C,0.01600*%
%ADD27R,0.03962X0.03962*%
%ADD28C,0.01200*%
%ADD29C,0.02400*%
%ADD30C,0.03569*%
%ADD31C,0.04000*%
%ADD32C,0.05000*%
D10*
X0383306Y0247322D02*
X0385670Y0247322D01*
X0383306Y0247322D02*
X0383306Y0251654D01*
X0385670Y0251654D01*
X0385670Y0247322D01*
X0385670Y0248108D02*
X0383306Y0248108D01*
X0383306Y0248894D02*
X0385670Y0248894D01*
X0385670Y0249680D02*
X0383306Y0249680D01*
X0383306Y0250466D02*
X0385670Y0250466D01*
X0385670Y0251252D02*
X0383306Y0251252D01*
X0383306Y0257322D02*
X0385670Y0257322D01*
X0383306Y0257322D02*
X0383306Y0261654D01*
X0385670Y0261654D01*
X0385670Y0257322D01*
X0385670Y0258108D02*
X0383306Y0258108D01*
X0383306Y0258894D02*
X0385670Y0258894D01*
X0385670Y0259680D02*
X0383306Y0259680D01*
X0383306Y0260466D02*
X0385670Y0260466D01*
X0385670Y0261252D02*
X0383306Y0261252D01*
X0383306Y0267322D02*
X0385670Y0267322D01*
X0383306Y0267322D02*
X0383306Y0271654D01*
X0385670Y0271654D01*
X0385670Y0267322D01*
X0385670Y0268108D02*
X0383306Y0268108D01*
X0383306Y0268894D02*
X0385670Y0268894D01*
X0385670Y0269680D02*
X0383306Y0269680D01*
X0383306Y0270466D02*
X0385670Y0270466D01*
X0385670Y0271252D02*
X0383306Y0271252D01*
X0383306Y0277322D02*
X0385670Y0277322D01*
X0383306Y0277322D02*
X0383306Y0281654D01*
X0385670Y0281654D01*
X0385670Y0277322D01*
X0385670Y0278108D02*
X0383306Y0278108D01*
X0383306Y0278894D02*
X0385670Y0278894D01*
X0385670Y0279680D02*
X0383306Y0279680D01*
X0383306Y0280466D02*
X0385670Y0280466D01*
X0385670Y0281252D02*
X0383306Y0281252D01*
X0391180Y0277322D02*
X0393544Y0277322D01*
X0391180Y0277322D02*
X0391180Y0281654D01*
X0393544Y0281654D01*
X0393544Y0277322D01*
X0393544Y0278108D02*
X0391180Y0278108D01*
X0391180Y0278894D02*
X0393544Y0278894D01*
X0393544Y0279680D02*
X0391180Y0279680D01*
X0391180Y0280466D02*
X0393544Y0280466D01*
X0393544Y0281252D02*
X0391180Y0281252D01*
X0398306Y0282048D02*
X0400670Y0282048D01*
X0400670Y0277716D01*
X0398306Y0277716D01*
X0398306Y0282048D01*
X0398306Y0278502D02*
X0400670Y0278502D01*
X0400670Y0279288D02*
X0398306Y0279288D01*
X0398306Y0280074D02*
X0400670Y0280074D01*
X0400670Y0280860D02*
X0398306Y0280860D01*
X0398306Y0281646D02*
X0400670Y0281646D01*
X0406180Y0282048D02*
X0408544Y0282048D01*
X0408544Y0277716D01*
X0406180Y0277716D01*
X0406180Y0282048D01*
X0406180Y0278502D02*
X0408544Y0278502D01*
X0408544Y0279288D02*
X0406180Y0279288D01*
X0406180Y0280074D02*
X0408544Y0280074D01*
X0408544Y0280860D02*
X0406180Y0280860D01*
X0406180Y0281646D02*
X0408544Y0281646D01*
X0408544Y0271575D02*
X0406180Y0271575D01*
X0408544Y0271575D02*
X0408544Y0267243D01*
X0406180Y0267243D01*
X0406180Y0271575D01*
X0406180Y0268029D02*
X0408544Y0268029D01*
X0408544Y0268815D02*
X0406180Y0268815D01*
X0406180Y0269601D02*
X0408544Y0269601D01*
X0408544Y0270387D02*
X0406180Y0270387D01*
X0406180Y0271173D02*
X0408544Y0271173D01*
X0400670Y0271575D02*
X0398306Y0271575D01*
X0400670Y0271575D02*
X0400670Y0267243D01*
X0398306Y0267243D01*
X0398306Y0271575D01*
X0398306Y0268029D02*
X0400670Y0268029D01*
X0400670Y0268815D02*
X0398306Y0268815D01*
X0398306Y0269601D02*
X0400670Y0269601D01*
X0400670Y0270387D02*
X0398306Y0270387D01*
X0398306Y0271173D02*
X0400670Y0271173D01*
X0393544Y0267322D02*
X0391180Y0267322D01*
X0391180Y0271654D01*
X0393544Y0271654D01*
X0393544Y0267322D01*
X0393544Y0268108D02*
X0391180Y0268108D01*
X0391180Y0268894D02*
X0393544Y0268894D01*
X0393544Y0269680D02*
X0391180Y0269680D01*
X0391180Y0270466D02*
X0393544Y0270466D01*
X0393544Y0271252D02*
X0391180Y0271252D01*
X0391180Y0257322D02*
X0393544Y0257322D01*
X0391180Y0257322D02*
X0391180Y0261654D01*
X0393544Y0261654D01*
X0393544Y0257322D01*
X0393544Y0258108D02*
X0391180Y0258108D01*
X0391180Y0258894D02*
X0393544Y0258894D01*
X0393544Y0259680D02*
X0391180Y0259680D01*
X0391180Y0260466D02*
X0393544Y0260466D01*
X0393544Y0261252D02*
X0391180Y0261252D01*
X0398306Y0261654D02*
X0400670Y0261654D01*
X0400670Y0257322D01*
X0398306Y0257322D01*
X0398306Y0261654D01*
X0398306Y0258108D02*
X0400670Y0258108D01*
X0400670Y0258894D02*
X0398306Y0258894D01*
X0398306Y0259680D02*
X0400670Y0259680D01*
X0400670Y0260466D02*
X0398306Y0260466D01*
X0398306Y0261252D02*
X0400670Y0261252D01*
X0406180Y0261654D02*
X0408544Y0261654D01*
X0408544Y0257322D01*
X0406180Y0257322D01*
X0406180Y0261654D01*
X0406180Y0258108D02*
X0408544Y0258108D01*
X0408544Y0258894D02*
X0406180Y0258894D01*
X0406180Y0259680D02*
X0408544Y0259680D01*
X0408544Y0260466D02*
X0406180Y0260466D01*
X0406180Y0261252D02*
X0408544Y0261252D01*
X0408544Y0251654D02*
X0406180Y0251654D01*
X0408544Y0251654D02*
X0408544Y0247322D01*
X0406180Y0247322D01*
X0406180Y0251654D01*
X0406180Y0248108D02*
X0408544Y0248108D01*
X0408544Y0248894D02*
X0406180Y0248894D01*
X0406180Y0249680D02*
X0408544Y0249680D01*
X0408544Y0250466D02*
X0406180Y0250466D01*
X0406180Y0251252D02*
X0408544Y0251252D01*
X0400670Y0251654D02*
X0398306Y0251654D01*
X0400670Y0251654D02*
X0400670Y0247322D01*
X0398306Y0247322D01*
X0398306Y0251654D01*
X0398306Y0248108D02*
X0400670Y0248108D01*
X0400670Y0248894D02*
X0398306Y0248894D01*
X0398306Y0249680D02*
X0400670Y0249680D01*
X0400670Y0250466D02*
X0398306Y0250466D01*
X0398306Y0251252D02*
X0400670Y0251252D01*
X0393544Y0247322D02*
X0391180Y0247322D01*
X0391180Y0251654D01*
X0393544Y0251654D01*
X0393544Y0247322D01*
X0393544Y0248108D02*
X0391180Y0248108D01*
X0391180Y0248894D02*
X0393544Y0248894D01*
X0393544Y0249680D02*
X0391180Y0249680D01*
X0391180Y0250466D02*
X0393544Y0250466D01*
X0393544Y0251252D02*
X0391180Y0251252D01*
D11*
X0427246Y0332441D03*
X0427246Y0339941D03*
X0427254Y0348189D03*
X0427254Y0356063D03*
X0427254Y0379685D03*
X0427254Y0387559D03*
X0490276Y0387559D03*
X0490254Y0379435D03*
X0490246Y0371437D03*
X0490246Y0363937D03*
X0490276Y0356015D03*
X0490254Y0348189D03*
X0490276Y0340315D03*
X0490246Y0332441D03*
D12*
X0413937Y0355000D03*
X0406063Y0355000D03*
D13*
X0387680Y0377612D02*
X0379820Y0377612D01*
X0379820Y0380812D01*
X0387680Y0380812D01*
X0387680Y0377612D01*
X0387680Y0378411D02*
X0379820Y0378411D01*
X0379820Y0379210D02*
X0387680Y0379210D01*
X0387680Y0380009D02*
X0379820Y0380009D01*
X0379820Y0380808D02*
X0387680Y0380808D01*
X0387529Y0383400D02*
X0392729Y0383400D01*
X0387529Y0383400D02*
X0387529Y0386600D01*
X0392729Y0386600D01*
X0392729Y0383400D01*
X0392729Y0384199D02*
X0387529Y0384199D01*
X0387529Y0384998D02*
X0392729Y0384998D01*
X0392729Y0385797D02*
X0387529Y0385797D01*
X0387529Y0386596D02*
X0392729Y0386596D01*
X0387680Y0389188D02*
X0379820Y0389188D01*
X0379820Y0392388D01*
X0387680Y0392388D01*
X0387680Y0389188D01*
X0387680Y0389987D02*
X0379820Y0389987D01*
X0379820Y0390786D02*
X0387680Y0390786D01*
X0387680Y0391585D02*
X0379820Y0391585D01*
X0379820Y0392384D02*
X0387680Y0392384D01*
D14*
X0395000Y0385000D03*
D15*
X0384250Y0395000D03*
X0384250Y0375000D03*
D16*
X0407953Y0416693D03*
X0417953Y0416693D03*
X0427953Y0416693D03*
X0437953Y0416693D03*
X0447953Y0416693D03*
X0457953Y0416693D03*
X0467953Y0416693D03*
X0477953Y0416693D03*
X0487953Y0416693D03*
X0497953Y0416693D03*
X0507953Y0416693D03*
X0517953Y0416693D03*
X0527953Y0416693D03*
X0537953Y0416693D03*
X0547953Y0416693D03*
X0557953Y0416693D03*
X0567953Y0416693D03*
X0577953Y0416693D03*
X0587953Y0416693D03*
X0597953Y0416693D03*
X0597953Y0426693D03*
X0587953Y0426693D03*
X0577953Y0426693D03*
X0567953Y0426693D03*
X0557953Y0426693D03*
X0547953Y0426693D03*
X0537953Y0426693D03*
X0527953Y0426693D03*
X0517953Y0426693D03*
X0507953Y0426693D03*
X0497953Y0426693D03*
X0487953Y0426693D03*
X0477953Y0426693D03*
X0467953Y0426693D03*
X0457953Y0426693D03*
X0447953Y0426693D03*
X0437953Y0426693D03*
X0427953Y0426693D03*
X0417953Y0426693D03*
X0407953Y0426693D03*
D17*
X0481949Y0257559D03*
D18*
X0483426Y0255000D02*
X0480472Y0255000D01*
X0480472Y0255000D01*
X0483426Y0255000D01*
X0483426Y0255000D01*
X0483426Y0252441D02*
X0480472Y0252441D01*
X0480472Y0252441D01*
X0483426Y0252441D01*
X0483426Y0252441D01*
X0486574Y0252441D02*
X0489528Y0252441D01*
X0486574Y0252441D02*
X0486574Y0252441D01*
X0489528Y0252441D01*
X0489528Y0252441D01*
X0489528Y0255000D02*
X0486574Y0255000D01*
X0486574Y0255000D01*
X0489528Y0255000D01*
X0489528Y0255000D01*
X0489528Y0257559D02*
X0486574Y0257559D01*
X0486574Y0257559D01*
X0489528Y0257559D01*
X0489528Y0257559D01*
D19*
X0491800Y0235000D03*
X0495000Y0235000D03*
X0498200Y0235000D03*
X0483500Y0235000D03*
X0480000Y0235000D03*
X0476500Y0235000D03*
D20*
X0453346Y0240000D03*
X0446654Y0240000D03*
X0446654Y0255000D03*
X0453346Y0255000D03*
X0453858Y0268780D03*
X0447165Y0268780D03*
X0447205Y0281772D03*
X0453898Y0281772D03*
X0453484Y0293760D03*
X0446791Y0293760D03*
X0518346Y0285157D03*
X0525039Y0285157D03*
X0523346Y0265000D03*
X0516654Y0265000D03*
X0516654Y0250000D03*
X0523346Y0250000D03*
X0523346Y0240000D03*
X0516654Y0240000D03*
X0571654Y0360000D03*
X0578346Y0360000D03*
X0578346Y0375000D03*
X0571654Y0375000D03*
X0524055Y0378898D03*
X0517362Y0378898D03*
X0516654Y0365551D03*
X0523346Y0365551D03*
D21*
X0495300Y0292500D03*
X0495300Y0287500D03*
X0495300Y0282500D03*
X0495300Y0277500D03*
X0474700Y0277500D03*
X0474700Y0282500D03*
X0474700Y0287500D03*
X0474700Y0292500D03*
D22*
X0536681Y0366063D03*
X0536681Y0368031D03*
X0536681Y0370000D03*
X0536681Y0371969D03*
X0536681Y0373937D03*
X0553319Y0373937D03*
X0553319Y0371969D03*
X0553319Y0370000D03*
X0553319Y0368031D03*
X0553319Y0366063D03*
D23*
X0555999Y0386037D03*
X0555999Y0393911D03*
X0545501Y0393911D03*
X0545501Y0386037D03*
D24*
X0612000Y0380000D02*
X0618000Y0380000D01*
X0619000Y0390000D02*
X0613000Y0390000D01*
X0613000Y0370000D02*
X0619000Y0370000D01*
X0618000Y0360000D02*
X0612000Y0360000D01*
X0613000Y0350000D02*
X0619000Y0350000D01*
X0618000Y0340000D02*
X0612000Y0340000D01*
D25*
X0615000Y0340000D02*
X0565157Y0340000D01*
X0564449Y0340709D01*
X0578346Y0360000D02*
X0578346Y0367087D01*
X0578346Y0375000D01*
X0592441Y0389094D01*
X0593346Y0390000D01*
X0616000Y0390000D01*
X0526260Y0321417D02*
X0525472Y0320630D01*
X0434134Y0320630D01*
X0427246Y0327518D01*
X0427246Y0332441D01*
X0427246Y0339941D02*
X0422736Y0339941D01*
X0414449Y0331654D01*
X0414449Y0326929D01*
X0428622Y0312756D01*
X0487677Y0312756D01*
X0495300Y0292500D02*
X0511004Y0292500D01*
X0518346Y0285157D01*
X0423898Y0249764D02*
X0423622Y0249488D01*
X0407362Y0249488D01*
X0399488Y0249488D02*
X0392362Y0249488D01*
X0392362Y0259488D02*
X0399488Y0259488D01*
X0407362Y0259488D02*
X0420472Y0259488D01*
X0420748Y0259213D01*
X0417559Y0269409D02*
X0407362Y0269409D01*
X0399488Y0269409D02*
X0392441Y0269409D01*
X0392362Y0269488D01*
X0384488Y0269488D02*
X0384488Y0279488D01*
X0392362Y0279488D02*
X0392756Y0279882D01*
X0399488Y0279882D01*
X0407362Y0279882D02*
X0414646Y0279882D01*
X0415236Y0280472D01*
X0419173Y0271024D02*
X0417559Y0269409D01*
X0427254Y0356063D02*
X0439646Y0368455D01*
X0439646Y0394646D01*
X0433346Y0400945D01*
X0414449Y0400945D01*
X0407953Y0407441D01*
X0407953Y0416693D01*
D26*
X0379800Y0286700D02*
X0379800Y0239888D01*
X0380058Y0240146D01*
X0383297Y0242016D01*
X0386909Y0242984D01*
X0390650Y0242984D01*
X0394262Y0242016D01*
X0397501Y0240146D01*
X0400146Y0237501D01*
X0402016Y0234262D01*
X0402984Y0230650D01*
X0402984Y0226909D01*
X0402016Y0223297D01*
X0400146Y0220058D01*
X0399888Y0219800D01*
X0606017Y0219800D01*
X0605759Y0220058D01*
X0603889Y0223297D01*
X0602921Y0226909D01*
X0602921Y0230650D01*
X0603889Y0234262D01*
X0605759Y0237501D01*
X0608404Y0240146D01*
X0611643Y0242016D01*
X0615256Y0242984D01*
X0618996Y0242984D01*
X0622609Y0242016D01*
X0625848Y0240146D01*
X0626106Y0239888D01*
X0626106Y0325399D01*
X0622280Y0321573D01*
X0621380Y0320673D01*
X0620203Y0320186D01*
X0576011Y0320186D01*
X0554747Y0298922D01*
X0555075Y0298822D01*
X0555635Y0298767D01*
X0555896Y0298628D01*
X0556190Y0298599D01*
X0556686Y0298333D01*
X0557224Y0298170D01*
X0557453Y0297983D01*
X0557736Y0297897D01*
X0558171Y0297540D01*
X0558667Y0297275D01*
X0558854Y0297046D01*
X0559115Y0296907D01*
X0559472Y0296472D01*
X0559907Y0296115D01*
X0560046Y0295854D01*
X0560275Y0295667D01*
X0560540Y0295171D01*
X0560897Y0294736D01*
X0560983Y0294453D01*
X0561170Y0294224D01*
X0561333Y0293686D01*
X0561599Y0293190D01*
X0561628Y0292896D01*
X0561767Y0292635D01*
X0561822Y0292075D01*
X0561985Y0291537D01*
X0561960Y0291280D01*
X0561960Y0290675D01*
X0562042Y0289840D01*
X0561960Y0289569D01*
X0561960Y0231742D01*
X0562036Y0231502D01*
X0561960Y0230636D01*
X0561960Y0230137D01*
X0561999Y0229840D01*
X0561838Y0229237D01*
X0561783Y0228615D01*
X0561684Y0228425D01*
X0561674Y0228210D01*
X0561411Y0227644D01*
X0561249Y0227041D01*
X0561118Y0226871D01*
X0561072Y0226660D01*
X0560714Y0226149D01*
X0560450Y0225584D01*
X0560291Y0225438D01*
X0560209Y0225240D01*
X0559768Y0224798D01*
X0559410Y0224287D01*
X0559228Y0224172D01*
X0559113Y0223990D01*
X0558602Y0223632D01*
X0558160Y0223191D01*
X0557962Y0223109D01*
X0557816Y0222950D01*
X0557251Y0222686D01*
X0556740Y0222328D01*
X0556529Y0222282D01*
X0556359Y0222151D01*
X0555756Y0221989D01*
X0555190Y0221725D01*
X0554975Y0221716D01*
X0554785Y0221617D01*
X0554163Y0221562D01*
X0553560Y0221401D01*
X0553263Y0221440D01*
X0552871Y0221440D01*
X0552600Y0221358D01*
X0552235Y0221394D01*
X0551898Y0221364D01*
X0551658Y0221440D01*
X0550926Y0221440D01*
X0550923Y0221441D01*
X0550778Y0221427D01*
X0550240Y0221590D01*
X0549680Y0221645D01*
X0549363Y0221815D01*
X0549005Y0221850D01*
X0548509Y0222115D01*
X0547971Y0222279D01*
X0547693Y0222507D01*
X0547348Y0222611D01*
X0546914Y0222968D01*
X0546418Y0223233D01*
X0546190Y0223511D01*
X0545872Y0223681D01*
X0545515Y0224115D01*
X0545081Y0224472D01*
X0544911Y0224790D01*
X0544633Y0225018D01*
X0544368Y0225514D01*
X0544011Y0225948D01*
X0543907Y0226293D01*
X0543679Y0226571D01*
X0543515Y0227109D01*
X0543250Y0227605D01*
X0543215Y0227963D01*
X0543045Y0228280D01*
X0542990Y0228840D01*
X0542827Y0229378D01*
X0542841Y0229523D01*
X0542840Y0229526D01*
X0542840Y0230365D01*
X0542758Y0231200D01*
X0542840Y0231471D01*
X0542840Y0251476D01*
X0542748Y0251254D01*
X0542709Y0251003D01*
X0542507Y0250672D01*
X0542358Y0250313D01*
X0542179Y0250133D01*
X0542046Y0249916D01*
X0541733Y0249688D01*
X0541458Y0249413D01*
X0541223Y0249316D01*
X0538819Y0247562D01*
X0538545Y0247287D01*
X0538310Y0247190D01*
X0538104Y0247040D01*
X0537727Y0246948D01*
X0537369Y0246800D01*
X0537114Y0246800D01*
X0536867Y0246740D01*
X0536484Y0246800D01*
X0532009Y0246800D01*
X0532009Y0231924D01*
X0531614Y0230968D01*
X0530882Y0230237D01*
X0527733Y0227087D01*
X0526777Y0226691D01*
X0496911Y0226691D01*
X0492413Y0222193D01*
X0491625Y0221406D01*
X0490596Y0220980D01*
X0443026Y0220980D01*
X0441997Y0221406D01*
X0440422Y0222981D01*
X0439634Y0223768D01*
X0439208Y0224797D01*
X0439208Y0244809D01*
X0439634Y0245838D01*
X0441996Y0248200D01*
X0442784Y0248988D01*
X0443532Y0249298D01*
X0443532Y0251159D01*
X0442488Y0252203D01*
X0442488Y0257797D01*
X0443454Y0258762D01*
X0443454Y0265529D01*
X0443000Y0265983D01*
X0443000Y0271576D01*
X0443965Y0272542D01*
X0443965Y0278049D01*
X0443039Y0278975D01*
X0443039Y0284569D01*
X0444211Y0285740D01*
X0450198Y0285740D01*
X0450551Y0285387D01*
X0450904Y0285740D01*
X0456891Y0285740D01*
X0456932Y0285700D01*
X0468350Y0285700D01*
X0468350Y0289300D01*
X0461627Y0289300D01*
X0460451Y0289787D01*
X0459580Y0290658D01*
X0457345Y0290658D01*
X0456478Y0289791D01*
X0450490Y0289791D01*
X0449979Y0290303D01*
X0449651Y0290114D01*
X0449194Y0289991D01*
X0446976Y0289991D01*
X0446976Y0293576D01*
X0446607Y0293576D01*
X0442826Y0293576D01*
X0442826Y0291554D01*
X0442949Y0291097D01*
X0443186Y0290686D01*
X0443521Y0290351D01*
X0443931Y0290114D01*
X0444389Y0289991D01*
X0446607Y0289991D01*
X0446607Y0293576D01*
X0446607Y0293944D01*
X0442826Y0293944D01*
X0442826Y0295965D01*
X0442949Y0296423D01*
X0443186Y0296834D01*
X0443521Y0297169D01*
X0443931Y0297406D01*
X0444389Y0297528D01*
X0446607Y0297528D01*
X0446607Y0293944D01*
X0446976Y0293944D01*
X0446976Y0297528D01*
X0449194Y0297528D01*
X0449651Y0297406D01*
X0449979Y0297217D01*
X0450490Y0297728D01*
X0456478Y0297728D01*
X0457148Y0297058D01*
X0461542Y0297058D01*
X0462718Y0296571D01*
X0463589Y0295700D01*
X0479878Y0295700D01*
X0480540Y0295038D01*
X0480540Y0301581D01*
X0480773Y0302143D01*
X0480052Y0302863D01*
X0448058Y0302863D01*
X0443033Y0297838D01*
X0441857Y0297351D01*
X0409120Y0297351D01*
X0409112Y0297343D01*
X0407721Y0296767D01*
X0406216Y0296767D01*
X0404825Y0297343D01*
X0403760Y0298408D01*
X0403184Y0299798D01*
X0403184Y0301304D01*
X0403760Y0302695D01*
X0404825Y0303759D01*
X0406216Y0304335D01*
X0407721Y0304335D01*
X0409112Y0303759D01*
X0409120Y0303751D01*
X0439895Y0303751D01*
X0444019Y0307876D01*
X0444019Y0307876D01*
X0444920Y0308776D01*
X0445837Y0309156D01*
X0427906Y0309156D01*
X0426583Y0309704D01*
X0425570Y0310717D01*
X0411397Y0324890D01*
X0410849Y0326213D01*
X0410849Y0332370D01*
X0411397Y0333693D01*
X0412410Y0334705D01*
X0420697Y0342993D01*
X0421309Y0343246D01*
X0421309Y0343269D01*
X0422109Y0344069D01*
X0421317Y0344861D01*
X0421317Y0351517D01*
X0421863Y0352063D01*
X0417712Y0352063D01*
X0417712Y0351613D01*
X0416540Y0350441D01*
X0411334Y0350441D01*
X0410162Y0351613D01*
X0410162Y0353661D01*
X0409937Y0354204D01*
X0409937Y0355796D01*
X0410162Y0356339D01*
X0410162Y0358387D01*
X0411334Y0359559D01*
X0412988Y0359559D01*
X0414204Y0360063D01*
X0421988Y0360063D01*
X0422488Y0360563D01*
X0426663Y0360563D01*
X0436046Y0369946D01*
X0436046Y0393154D01*
X0431855Y0397345D01*
X0413733Y0397345D01*
X0412410Y0397893D01*
X0411397Y0398906D01*
X0404901Y0405402D01*
X0404353Y0406725D01*
X0404353Y0412798D01*
X0403460Y0413691D01*
X0402653Y0415639D01*
X0402653Y0417747D01*
X0403460Y0419695D01*
X0404951Y0421186D01*
X0406174Y0421693D01*
X0404951Y0422200D01*
X0403460Y0423691D01*
X0402653Y0425639D01*
X0402653Y0427747D01*
X0403460Y0429695D01*
X0404951Y0431186D01*
X0406899Y0431993D01*
X0409007Y0431993D01*
X0410938Y0431193D01*
X0414967Y0431193D01*
X0416899Y0431993D01*
X0419007Y0431993D01*
X0420955Y0431186D01*
X0422446Y0429695D01*
X0423073Y0428180D01*
X0423226Y0428651D01*
X0423591Y0429366D01*
X0424063Y0430015D01*
X0424630Y0430583D01*
X0425280Y0431055D01*
X0425995Y0431419D01*
X0426758Y0431667D01*
X0427551Y0431793D01*
X0427867Y0431793D01*
X0427867Y0426779D01*
X0428039Y0426779D01*
X0428039Y0431793D01*
X0428354Y0431793D01*
X0429147Y0431667D01*
X0429910Y0431419D01*
X0430626Y0431055D01*
X0431275Y0430583D01*
X0431843Y0430015D01*
X0432315Y0429366D01*
X0432679Y0428651D01*
X0432832Y0428180D01*
X0433460Y0429695D01*
X0434951Y0431186D01*
X0436899Y0431993D01*
X0439007Y0431993D01*
X0440955Y0431186D01*
X0442446Y0429695D01*
X0442953Y0428471D01*
X0443460Y0429695D01*
X0444951Y0431186D01*
X0446899Y0431993D01*
X0449007Y0431993D01*
X0450955Y0431186D01*
X0452446Y0429695D01*
X0452953Y0428471D01*
X0453460Y0429695D01*
X0454951Y0431186D01*
X0456899Y0431993D01*
X0459007Y0431993D01*
X0460955Y0431186D01*
X0462446Y0429695D01*
X0463073Y0428180D01*
X0463226Y0428651D01*
X0463591Y0429366D01*
X0464063Y0430015D01*
X0464630Y0430583D01*
X0465280Y0431055D01*
X0465995Y0431419D01*
X0466758Y0431667D01*
X0467551Y0431793D01*
X0467867Y0431793D01*
X0467867Y0426779D01*
X0468039Y0426779D01*
X0468039Y0431793D01*
X0468354Y0431793D01*
X0469147Y0431667D01*
X0469910Y0431419D01*
X0470626Y0431055D01*
X0471275Y0430583D01*
X0471843Y0430015D01*
X0472315Y0429366D01*
X0472679Y0428651D01*
X0472832Y0428180D01*
X0473460Y0429695D01*
X0474951Y0431186D01*
X0476899Y0431993D01*
X0479007Y0431993D01*
X0480186Y0431504D01*
X0480579Y0432452D01*
X0480768Y0432641D01*
X0397920Y0432641D01*
X0400146Y0430415D01*
X0402016Y0427176D01*
X0402984Y0423563D01*
X0402984Y0419823D01*
X0402016Y0416210D01*
X0400146Y0412971D01*
X0397501Y0410326D01*
X0394262Y0408456D01*
X0390650Y0407488D01*
X0386909Y0407488D01*
X0383297Y0408456D01*
X0380058Y0410326D01*
X0379800Y0410584D01*
X0379800Y0399800D01*
X0383550Y0399800D01*
X0383550Y0395700D01*
X0384950Y0395700D01*
X0384950Y0399800D01*
X0392987Y0399800D01*
X0393445Y0399677D01*
X0393855Y0399440D01*
X0394190Y0399105D01*
X0394427Y0398695D01*
X0394550Y0398237D01*
X0394550Y0395700D01*
X0384950Y0395700D01*
X0384950Y0394588D01*
X0387970Y0394588D01*
X0388530Y0394438D01*
X0388770Y0394300D01*
X0394550Y0394300D01*
X0394550Y0391763D01*
X0394427Y0391305D01*
X0394190Y0390895D01*
X0393855Y0390560D01*
X0393445Y0390323D01*
X0392987Y0390200D01*
X0389881Y0390200D01*
X0389881Y0389000D01*
X0392636Y0389000D01*
X0392648Y0389012D01*
X0394302Y0389697D01*
X0399199Y0389697D01*
X0400876Y0391374D01*
X0402530Y0392059D01*
X0432019Y0392059D01*
X0433191Y0390887D01*
X0433191Y0384231D01*
X0432441Y0383481D01*
X0432631Y0383290D01*
X0432868Y0382880D01*
X0432991Y0382422D01*
X0432991Y0380135D01*
X0427704Y0380135D01*
X0427704Y0379235D01*
X0432991Y0379235D01*
X0432991Y0376948D01*
X0432868Y0376490D01*
X0432631Y0376080D01*
X0432296Y0375745D01*
X0431886Y0375508D01*
X0431428Y0375385D01*
X0427704Y0375385D01*
X0427704Y0379235D01*
X0426804Y0379235D01*
X0426804Y0375385D01*
X0423080Y0375385D01*
X0422622Y0375508D01*
X0422212Y0375745D01*
X0421877Y0376080D01*
X0421640Y0376490D01*
X0421517Y0376948D01*
X0421517Y0379235D01*
X0426804Y0379235D01*
X0426804Y0380135D01*
X0421517Y0380135D01*
X0421517Y0382422D01*
X0421640Y0382880D01*
X0421743Y0383059D01*
X0405289Y0383059D01*
X0404878Y0382648D01*
X0403612Y0381382D01*
X0401958Y0380697D01*
X0396370Y0380697D01*
X0395895Y0380500D01*
X0394105Y0380500D01*
X0392898Y0381000D01*
X0389881Y0381000D01*
X0389881Y0379800D01*
X0392987Y0379800D01*
X0393445Y0379677D01*
X0393855Y0379440D01*
X0394190Y0379105D01*
X0394427Y0378695D01*
X0394550Y0378237D01*
X0394550Y0375700D01*
X0388770Y0375700D01*
X0388530Y0375562D01*
X0387970Y0375412D01*
X0384950Y0375412D01*
X0384950Y0374300D01*
X0394550Y0374300D01*
X0394550Y0371763D01*
X0394427Y0371305D01*
X0394190Y0370895D01*
X0393855Y0370560D01*
X0393445Y0370323D01*
X0392987Y0370200D01*
X0384950Y0370200D01*
X0384950Y0374300D01*
X0383550Y0374300D01*
X0383550Y0370200D01*
X0379800Y0370200D01*
X0379800Y0364100D01*
X0389979Y0364100D01*
X0390010Y0364112D01*
X0391032Y0364100D01*
X0392054Y0364100D01*
X0392085Y0364087D01*
X0392119Y0364087D01*
X0393058Y0363684D01*
X0393153Y0363645D01*
X0393307Y0363638D01*
X0393842Y0363389D01*
X0394413Y0363236D01*
X0394612Y0363083D01*
X0394856Y0363029D01*
X0395340Y0362690D01*
X0395875Y0362441D01*
X0396045Y0362256D01*
X0396276Y0362160D01*
X0396694Y0361742D01*
X0397178Y0361404D01*
X0397312Y0361192D01*
X0397524Y0361058D01*
X0397862Y0360574D01*
X0398280Y0360156D01*
X0398376Y0359925D01*
X0398561Y0359755D01*
X0398810Y0359220D01*
X0399149Y0358736D01*
X0399203Y0358492D01*
X0399356Y0358293D01*
X0399509Y0357722D01*
X0399758Y0357187D01*
X0399769Y0356937D01*
X0399885Y0356715D01*
X0399936Y0356126D01*
X0400089Y0355556D01*
X0400060Y0355335D01*
X0400060Y0354711D01*
X0400132Y0353892D01*
X0400060Y0353664D01*
X0400060Y0296976D01*
X0400132Y0296748D01*
X0400060Y0295929D01*
X0400060Y0295305D01*
X0400089Y0295084D01*
X0399936Y0294514D01*
X0399885Y0293925D01*
X0399769Y0293703D01*
X0399758Y0293453D01*
X0399509Y0292918D01*
X0399356Y0292347D01*
X0399203Y0292148D01*
X0399149Y0291904D01*
X0398810Y0291420D01*
X0398561Y0290885D01*
X0398376Y0290715D01*
X0398280Y0290484D01*
X0397862Y0290066D01*
X0397524Y0289583D01*
X0397312Y0289448D01*
X0397178Y0289236D01*
X0396694Y0288898D01*
X0396276Y0288480D01*
X0396045Y0288384D01*
X0395875Y0288199D01*
X0395340Y0287950D01*
X0394856Y0287611D01*
X0394612Y0287557D01*
X0394413Y0287404D01*
X0393842Y0287251D01*
X0393307Y0287002D01*
X0393057Y0286991D01*
X0392835Y0286875D01*
X0392246Y0286824D01*
X0391676Y0286671D01*
X0391455Y0286700D01*
X0390831Y0286700D01*
X0390012Y0286628D01*
X0389784Y0286700D01*
X0379800Y0286700D01*
X0379800Y0286282D02*
X0468350Y0286282D01*
X0468350Y0287881D02*
X0395242Y0287881D01*
X0397362Y0289479D02*
X0461194Y0289479D01*
X0463416Y0295873D02*
X0480540Y0295873D01*
X0480540Y0297472D02*
X0456734Y0297472D01*
X0450234Y0297472D02*
X0449404Y0297472D01*
X0446976Y0297472D02*
X0446607Y0297472D01*
X0446607Y0295873D02*
X0446976Y0295873D01*
X0446976Y0294275D02*
X0446607Y0294275D01*
X0446607Y0292676D02*
X0446976Y0292676D01*
X0446976Y0291078D02*
X0446607Y0291078D01*
X0442959Y0291078D02*
X0398651Y0291078D01*
X0399444Y0292676D02*
X0442826Y0292676D01*
X0442826Y0294275D02*
X0399915Y0294275D01*
X0400060Y0295873D02*
X0442826Y0295873D01*
X0442149Y0297472D02*
X0444179Y0297472D01*
X0444265Y0299070D02*
X0480540Y0299070D01*
X0480540Y0300669D02*
X0445864Y0300669D01*
X0447462Y0302268D02*
X0480648Y0302268D01*
X0486940Y0299619D02*
X0490184Y0302863D01*
X0532284Y0302863D01*
X0531597Y0302578D01*
X0531195Y0302176D01*
X0526411Y0302176D01*
X0525235Y0301689D01*
X0524334Y0300789D01*
X0516070Y0292525D01*
X0513043Y0295552D01*
X0511720Y0296100D01*
X0494584Y0296100D01*
X0493618Y0295700D01*
X0490122Y0295700D01*
X0488950Y0294528D01*
X0488950Y0290472D01*
X0489422Y0290000D01*
X0488950Y0289528D01*
X0488950Y0285472D01*
X0489422Y0285000D01*
X0488950Y0284528D01*
X0488950Y0280472D01*
X0489422Y0280000D01*
X0488950Y0279528D01*
X0488950Y0275472D01*
X0490122Y0274300D01*
X0505604Y0274300D01*
X0505729Y0273998D01*
X0506793Y0272934D01*
X0508184Y0272357D01*
X0509690Y0272357D01*
X0510461Y0272677D01*
X0510461Y0269206D01*
X0510949Y0268030D01*
X0511454Y0267524D01*
X0503656Y0267524D01*
X0502627Y0267098D01*
X0501839Y0266310D01*
X0495887Y0260359D01*
X0492839Y0260359D01*
X0492839Y0265281D01*
X0492413Y0266310D01*
X0491625Y0267098D01*
X0490051Y0268673D01*
X0489022Y0269099D01*
X0481750Y0269099D01*
X0477500Y0273350D01*
X0477500Y0274300D01*
X0479878Y0274300D01*
X0481050Y0275472D01*
X0481050Y0279300D01*
X0483255Y0279300D01*
X0484431Y0279787D01*
X0485553Y0280909D01*
X0486453Y0281809D01*
X0486940Y0282986D01*
X0486940Y0299619D01*
X0486940Y0299070D02*
X0522616Y0299070D01*
X0521017Y0297472D02*
X0486940Y0297472D01*
X0486940Y0295873D02*
X0494037Y0295873D01*
X0488950Y0294275D02*
X0486940Y0294275D01*
X0486940Y0292676D02*
X0488950Y0292676D01*
X0488950Y0291078D02*
X0486940Y0291078D01*
X0486940Y0289479D02*
X0488950Y0289479D01*
X0488950Y0287881D02*
X0486940Y0287881D01*
X0486940Y0286282D02*
X0488950Y0286282D01*
X0489105Y0284684D02*
X0486940Y0284684D01*
X0486940Y0283085D02*
X0488950Y0283085D01*
X0488950Y0281487D02*
X0486130Y0281487D01*
X0484532Y0279888D02*
X0489310Y0279888D01*
X0488950Y0278290D02*
X0481050Y0278290D01*
X0481050Y0276691D02*
X0488950Y0276691D01*
X0489329Y0275093D02*
X0480671Y0275093D01*
X0477500Y0273494D02*
X0506233Y0273494D01*
X0510461Y0271896D02*
X0478954Y0271896D01*
X0480552Y0270297D02*
X0510461Y0270297D01*
X0510672Y0268699D02*
X0489988Y0268699D01*
X0491623Y0267100D02*
X0502632Y0267100D01*
X0501030Y0265502D02*
X0492748Y0265502D01*
X0492839Y0263903D02*
X0499432Y0263903D01*
X0497833Y0262305D02*
X0492839Y0262305D01*
X0492839Y0260706D02*
X0496235Y0260706D01*
X0497047Y0257559D02*
X0504213Y0264724D01*
X0516378Y0264724D01*
X0516654Y0265000D01*
X0520000Y0261384D02*
X0520353Y0261031D01*
X0526340Y0261031D01*
X0527509Y0262200D01*
X0531545Y0262200D01*
X0531713Y0261793D01*
X0532778Y0260729D01*
X0534169Y0260153D01*
X0535674Y0260153D01*
X0536446Y0260472D01*
X0536446Y0253752D01*
X0535689Y0253200D01*
X0527109Y0253200D01*
X0526340Y0253968D01*
X0520433Y0253968D01*
X0520989Y0255310D01*
X0520989Y0256816D01*
X0520413Y0258207D01*
X0519348Y0259271D01*
X0517957Y0259847D01*
X0516452Y0259847D01*
X0515061Y0259271D01*
X0513997Y0258207D01*
X0513420Y0256816D01*
X0513420Y0255310D01*
X0513454Y0255230D01*
X0513454Y0253762D01*
X0513397Y0253705D01*
X0509898Y0257204D01*
X0508942Y0257600D01*
X0501048Y0257600D01*
X0505372Y0261924D01*
X0512767Y0261924D01*
X0513660Y0261031D01*
X0519647Y0261031D01*
X0520000Y0261384D01*
X0519512Y0259108D02*
X0536446Y0259108D01*
X0536446Y0257509D02*
X0520702Y0257509D01*
X0520989Y0255911D02*
X0536446Y0255911D01*
X0536446Y0254312D02*
X0520576Y0254312D01*
X0513454Y0254312D02*
X0512790Y0254312D01*
X0513420Y0255911D02*
X0511191Y0255911D01*
X0509162Y0257509D02*
X0513708Y0257509D01*
X0514898Y0259108D02*
X0502556Y0259108D01*
X0504154Y0260706D02*
X0532832Y0260706D01*
X0534921Y0263937D02*
X0533858Y0265000D01*
X0523346Y0265000D01*
X0521586Y0276586D02*
X0521586Y0281435D01*
X0521852Y0281701D01*
X0522179Y0281512D01*
X0522637Y0281389D01*
X0524855Y0281389D01*
X0524855Y0284973D01*
X0525224Y0284973D01*
X0525224Y0285342D01*
X0529005Y0285342D01*
X0529005Y0287363D01*
X0528882Y0287821D01*
X0528645Y0288231D01*
X0528310Y0288566D01*
X0527899Y0288803D01*
X0527442Y0288926D01*
X0525224Y0288926D01*
X0525224Y0285342D01*
X0524855Y0285342D01*
X0524855Y0288926D01*
X0522637Y0288926D01*
X0522179Y0288803D01*
X0521852Y0288614D01*
X0521546Y0288920D01*
X0521546Y0288950D01*
X0528373Y0295776D01*
X0532527Y0295776D01*
X0532987Y0295586D01*
X0534493Y0295586D01*
X0535884Y0296162D01*
X0536948Y0297226D01*
X0537524Y0298617D01*
X0537524Y0300123D01*
X0536948Y0301514D01*
X0535884Y0302578D01*
X0535196Y0302863D01*
X0536345Y0302863D01*
X0537521Y0303350D01*
X0538421Y0304250D01*
X0538421Y0304250D01*
X0545395Y0311224D01*
X0546295Y0312124D01*
X0546783Y0313300D01*
X0546783Y0355657D01*
X0547176Y0356608D01*
X0547176Y0357881D01*
X0546689Y0359057D01*
X0546576Y0359170D01*
X0546576Y0369553D01*
X0548360Y0371337D01*
X0549351Y0371337D01*
X0549351Y0364742D01*
X0550522Y0363571D01*
X0552542Y0363571D01*
X0552802Y0363463D01*
X0555156Y0363463D01*
X0555156Y0358695D01*
X0555552Y0357740D01*
X0562417Y0350874D01*
X0562417Y0349756D01*
X0563026Y0348285D01*
X0564152Y0347160D01*
X0565622Y0346551D01*
X0609378Y0346551D01*
X0610168Y0345761D01*
X0612005Y0345000D01*
X0619995Y0345000D01*
X0621832Y0345761D01*
X0623239Y0347168D01*
X0623454Y0347686D01*
X0623454Y0331798D01*
X0618241Y0326586D01*
X0574049Y0326586D01*
X0572872Y0326099D01*
X0542557Y0295784D01*
X0541657Y0294884D01*
X0541170Y0293707D01*
X0541170Y0274750D01*
X0541162Y0274742D01*
X0540954Y0274241D01*
X0539996Y0275198D01*
X0539096Y0276099D01*
X0537920Y0276586D01*
X0521586Y0276586D01*
X0521586Y0276691D02*
X0541170Y0276691D01*
X0541170Y0275093D02*
X0540102Y0275093D01*
X0541170Y0278290D02*
X0521586Y0278290D01*
X0521586Y0279888D02*
X0541170Y0279888D01*
X0541170Y0281487D02*
X0527807Y0281487D01*
X0527899Y0281512D02*
X0528310Y0281749D01*
X0528645Y0282084D01*
X0528882Y0282494D01*
X0529005Y0282952D01*
X0529005Y0284973D01*
X0525224Y0284973D01*
X0525224Y0281389D01*
X0527442Y0281389D01*
X0527899Y0281512D01*
X0529005Y0283085D02*
X0541170Y0283085D01*
X0541170Y0284684D02*
X0529005Y0284684D01*
X0529005Y0286282D02*
X0541170Y0286282D01*
X0541170Y0287881D02*
X0528847Y0287881D01*
X0525224Y0287881D02*
X0524855Y0287881D01*
X0524855Y0286282D02*
X0525224Y0286282D01*
X0525224Y0284684D02*
X0524855Y0284684D01*
X0524855Y0283085D02*
X0525224Y0283085D01*
X0525224Y0281487D02*
X0524855Y0281487D01*
X0522272Y0281487D02*
X0521638Y0281487D01*
X0522076Y0289479D02*
X0541170Y0289479D01*
X0541170Y0291078D02*
X0523674Y0291078D01*
X0525273Y0292676D02*
X0541170Y0292676D01*
X0541405Y0294275D02*
X0526871Y0294275D01*
X0524214Y0300669D02*
X0487990Y0300669D01*
X0489588Y0302268D02*
X0531286Y0302268D01*
X0536194Y0302268D02*
X0549041Y0302268D01*
X0550640Y0303866D02*
X0538037Y0303866D01*
X0539636Y0305465D02*
X0552238Y0305465D01*
X0553837Y0307063D02*
X0541234Y0307063D01*
X0542833Y0308662D02*
X0555435Y0308662D01*
X0557034Y0310260D02*
X0544431Y0310260D01*
X0546030Y0311859D02*
X0558632Y0311859D01*
X0560231Y0313457D02*
X0546783Y0313457D01*
X0546783Y0315056D02*
X0561829Y0315056D01*
X0563428Y0316654D02*
X0546783Y0316654D01*
X0546783Y0318253D02*
X0565026Y0318253D01*
X0566625Y0319851D02*
X0546783Y0319851D01*
X0546783Y0321450D02*
X0568223Y0321450D01*
X0569822Y0323048D02*
X0546783Y0323048D01*
X0546783Y0324647D02*
X0571420Y0324647D01*
X0573226Y0326245D02*
X0546783Y0326245D01*
X0546783Y0327844D02*
X0619499Y0327844D01*
X0621098Y0329442D02*
X0546783Y0329442D01*
X0546783Y0331041D02*
X0622696Y0331041D01*
X0623454Y0332639D02*
X0546783Y0332639D01*
X0546783Y0334238D02*
X0623454Y0334238D01*
X0623454Y0335836D02*
X0620907Y0335836D01*
X0620832Y0335761D02*
X0622239Y0337168D01*
X0623000Y0339005D01*
X0623000Y0340995D01*
X0622239Y0342832D01*
X0620832Y0344239D01*
X0618995Y0345000D01*
X0611005Y0345000D01*
X0609168Y0344239D01*
X0608529Y0343600D01*
X0566909Y0343600D01*
X0566592Y0343917D01*
X0565202Y0344493D01*
X0563696Y0344493D01*
X0562305Y0343917D01*
X0561241Y0342852D01*
X0560665Y0341461D01*
X0560665Y0339956D01*
X0561241Y0338565D01*
X0562305Y0337501D01*
X0562750Y0337316D01*
X0563118Y0336948D01*
X0564441Y0336400D01*
X0608529Y0336400D01*
X0609168Y0335761D01*
X0611005Y0335000D01*
X0618995Y0335000D01*
X0620832Y0335761D01*
X0622349Y0337435D02*
X0623454Y0337435D01*
X0623454Y0339033D02*
X0623000Y0339033D01*
X0623000Y0340632D02*
X0623454Y0340632D01*
X0623454Y0342230D02*
X0622488Y0342230D01*
X0623454Y0343829D02*
X0621242Y0343829D01*
X0621026Y0345427D02*
X0623454Y0345427D01*
X0623454Y0347026D02*
X0623097Y0347026D01*
X0623454Y0352314D02*
X0623239Y0352832D01*
X0621832Y0354239D01*
X0619995Y0355000D01*
X0612005Y0355000D01*
X0610922Y0354551D01*
X0580828Y0354551D01*
X0580828Y0356031D01*
X0581340Y0356031D01*
X0582512Y0357203D01*
X0582512Y0362797D01*
X0581946Y0363362D01*
X0581946Y0371638D01*
X0582512Y0372203D01*
X0582512Y0374074D01*
X0594838Y0386400D01*
X0609529Y0386400D01*
X0610168Y0385761D01*
X0612005Y0385000D01*
X0619995Y0385000D01*
X0621832Y0385761D01*
X0623239Y0387168D01*
X0623454Y0387686D01*
X0623454Y0372314D01*
X0623239Y0372832D01*
X0621832Y0374239D01*
X0619995Y0375000D01*
X0612005Y0375000D01*
X0610168Y0374239D01*
X0608761Y0372832D01*
X0608000Y0370995D01*
X0608000Y0369005D01*
X0608761Y0367168D01*
X0610168Y0365761D01*
X0612005Y0365000D01*
X0619995Y0365000D01*
X0621832Y0365761D01*
X0623239Y0367168D01*
X0623454Y0367686D01*
X0623454Y0352314D01*
X0623454Y0353420D02*
X0622651Y0353420D01*
X0623454Y0355018D02*
X0619039Y0355018D01*
X0618995Y0355000D02*
X0620832Y0355761D01*
X0622239Y0357168D01*
X0623000Y0359005D01*
X0623000Y0360995D01*
X0622239Y0362832D01*
X0620832Y0364239D01*
X0618995Y0365000D01*
X0611005Y0365000D01*
X0609168Y0364239D01*
X0607761Y0362832D01*
X0607000Y0360995D01*
X0607000Y0359005D01*
X0607761Y0357168D01*
X0609168Y0355761D01*
X0611005Y0355000D01*
X0618995Y0355000D01*
X0621688Y0356617D02*
X0623454Y0356617D01*
X0623454Y0358215D02*
X0622673Y0358215D01*
X0623000Y0359814D02*
X0623454Y0359814D01*
X0623454Y0361412D02*
X0622827Y0361412D01*
X0623454Y0363011D02*
X0622060Y0363011D01*
X0623454Y0364609D02*
X0619937Y0364609D01*
X0622279Y0366208D02*
X0623454Y0366208D01*
X0623454Y0372602D02*
X0623334Y0372602D01*
X0623454Y0374201D02*
X0621871Y0374201D01*
X0620516Y0375895D02*
X0621127Y0376339D01*
X0621661Y0376873D01*
X0622105Y0377484D01*
X0622448Y0378157D01*
X0622682Y0378876D01*
X0622800Y0379622D01*
X0622800Y0379800D01*
X0615200Y0379800D01*
X0615200Y0380200D01*
X0614800Y0380200D01*
X0614800Y0384800D01*
X0611622Y0384800D01*
X0610876Y0384682D01*
X0610157Y0384448D01*
X0609484Y0384105D01*
X0608873Y0383661D01*
X0608339Y0383127D01*
X0607895Y0382516D01*
X0607552Y0381843D01*
X0607318Y0381124D01*
X0607200Y0380378D01*
X0607200Y0380200D01*
X0614800Y0380200D01*
X0614800Y0379800D01*
X0615200Y0379800D01*
X0615200Y0375200D01*
X0618378Y0375200D01*
X0619124Y0375318D01*
X0619843Y0375552D01*
X0620516Y0375895D01*
X0620328Y0375799D02*
X0623454Y0375799D01*
X0623454Y0377398D02*
X0622042Y0377398D01*
X0622701Y0378996D02*
X0623454Y0378996D01*
X0622800Y0380200D02*
X0622800Y0380378D01*
X0622682Y0381124D01*
X0622448Y0381843D01*
X0622105Y0382516D01*
X0621661Y0383127D01*
X0621127Y0383661D01*
X0620516Y0384105D01*
X0619843Y0384448D01*
X0619124Y0384682D01*
X0618378Y0384800D01*
X0615200Y0384800D01*
X0615200Y0380200D01*
X0622800Y0380200D01*
X0622766Y0380595D02*
X0623454Y0380595D01*
X0623454Y0382193D02*
X0622270Y0382193D01*
X0623454Y0383792D02*
X0620948Y0383792D01*
X0620936Y0385390D02*
X0623454Y0385390D01*
X0623454Y0386989D02*
X0623060Y0386989D01*
X0623454Y0392314D02*
X0623239Y0392832D01*
X0621832Y0394239D01*
X0619995Y0395000D01*
X0612005Y0395000D01*
X0610168Y0394239D01*
X0609529Y0393600D01*
X0592630Y0393600D01*
X0592111Y0393385D01*
X0585753Y0399742D01*
X0585753Y0410942D01*
X0595201Y0401494D01*
X0596101Y0400594D01*
X0597277Y0400107D01*
X0619816Y0400107D01*
X0623454Y0396470D01*
X0623454Y0392314D01*
X0623454Y0393383D02*
X0622688Y0393383D01*
X0623454Y0394981D02*
X0620040Y0394981D01*
X0621745Y0398178D02*
X0587317Y0398178D01*
X0585753Y0399777D02*
X0620147Y0399777D01*
X0623344Y0396580D02*
X0588916Y0396580D01*
X0590514Y0394981D02*
X0611960Y0394981D01*
X0611064Y0385390D02*
X0593828Y0385390D01*
X0592229Y0383792D02*
X0609052Y0383792D01*
X0607730Y0382193D02*
X0590631Y0382193D01*
X0589032Y0380595D02*
X0607234Y0380595D01*
X0607200Y0379800D02*
X0607200Y0379622D01*
X0607318Y0378876D01*
X0607552Y0378157D01*
X0607895Y0377484D01*
X0608339Y0376873D01*
X0608873Y0376339D01*
X0609484Y0375895D01*
X0610157Y0375552D01*
X0610876Y0375318D01*
X0611622Y0375200D01*
X0614800Y0375200D01*
X0614800Y0379800D01*
X0607200Y0379800D01*
X0607299Y0378996D02*
X0587434Y0378996D01*
X0585835Y0377398D02*
X0607958Y0377398D01*
X0609672Y0375799D02*
X0584237Y0375799D01*
X0582638Y0374201D02*
X0610129Y0374201D01*
X0608666Y0372602D02*
X0582512Y0372602D01*
X0581946Y0371003D02*
X0608004Y0371003D01*
X0608000Y0369405D02*
X0581946Y0369405D01*
X0581946Y0367806D02*
X0608497Y0367806D01*
X0609721Y0366208D02*
X0581946Y0366208D01*
X0581946Y0364609D02*
X0610063Y0364609D01*
X0607940Y0363011D02*
X0582298Y0363011D01*
X0582512Y0361412D02*
X0607173Y0361412D01*
X0607000Y0359814D02*
X0582512Y0359814D01*
X0582512Y0358215D02*
X0607327Y0358215D01*
X0608312Y0356617D02*
X0581926Y0356617D01*
X0580828Y0355018D02*
X0610961Y0355018D01*
X0610974Y0345427D02*
X0546783Y0345427D01*
X0546783Y0343829D02*
X0562217Y0343829D01*
X0560983Y0342230D02*
X0546783Y0342230D01*
X0546783Y0340632D02*
X0560665Y0340632D01*
X0561047Y0339033D02*
X0546783Y0339033D01*
X0546783Y0337435D02*
X0562464Y0337435D01*
X0566680Y0343829D02*
X0608758Y0343829D01*
X0609093Y0335836D02*
X0546783Y0335836D01*
X0540383Y0335836D02*
X0539423Y0335836D01*
X0539657Y0335602D02*
X0525910Y0349349D01*
X0525910Y0361583D01*
X0526340Y0361583D01*
X0526809Y0362052D01*
X0526809Y0358561D01*
X0526413Y0357603D01*
X0526413Y0356098D01*
X0526989Y0354707D01*
X0528053Y0353642D01*
X0529444Y0353066D01*
X0530950Y0353066D01*
X0532340Y0353642D01*
X0533405Y0354707D01*
X0533981Y0356098D01*
X0533981Y0357603D01*
X0533903Y0357791D01*
X0534887Y0357791D01*
X0536277Y0358367D01*
X0537342Y0359431D01*
X0537918Y0360822D01*
X0537918Y0362328D01*
X0537411Y0363551D01*
X0537458Y0363571D01*
X0539478Y0363571D01*
X0540649Y0364742D01*
X0540649Y0369352D01*
X0540449Y0369552D01*
X0540449Y0370000D01*
X0540449Y0370448D01*
X0540649Y0370648D01*
X0540649Y0375258D01*
X0539478Y0376429D01*
X0537531Y0376429D01*
X0537146Y0376589D01*
X0533821Y0376589D01*
X0530039Y0380370D01*
X0530039Y0380370D01*
X0529307Y0381102D01*
X0528352Y0381498D01*
X0528220Y0381498D01*
X0528220Y0381695D01*
X0527049Y0382866D01*
X0526855Y0382866D01*
X0526855Y0385203D01*
X0526501Y0386058D01*
X0526501Y0386737D01*
X0525925Y0388128D01*
X0524860Y0389192D01*
X0523469Y0389768D01*
X0521964Y0389768D01*
X0520573Y0389192D01*
X0519508Y0388128D01*
X0518932Y0386737D01*
X0518932Y0385232D01*
X0519508Y0383841D01*
X0520573Y0382776D01*
X0520855Y0382659D01*
X0520550Y0382354D01*
X0520222Y0382543D01*
X0519765Y0382666D01*
X0517546Y0382666D01*
X0517546Y0379082D01*
X0517178Y0379082D01*
X0517178Y0382666D01*
X0514960Y0382666D01*
X0514502Y0382543D01*
X0514092Y0382306D01*
X0513756Y0381971D01*
X0513520Y0381561D01*
X0513505Y0381509D01*
X0513505Y0385412D01*
X0520333Y0392239D01*
X0531006Y0392239D01*
X0538453Y0384792D01*
X0539241Y0384004D01*
X0540270Y0383578D01*
X0540942Y0383578D01*
X0540942Y0383434D01*
X0542114Y0382263D01*
X0548889Y0382263D01*
X0550060Y0383434D01*
X0550060Y0383437D01*
X0551440Y0383437D01*
X0551440Y0383434D01*
X0552612Y0382263D01*
X0559387Y0382263D01*
X0560558Y0383434D01*
X0560558Y0383437D01*
X0569224Y0383437D01*
X0573693Y0378968D01*
X0568660Y0378968D01*
X0567488Y0377797D01*
X0567488Y0376537D01*
X0546766Y0376537D01*
X0545811Y0376141D01*
X0545079Y0375410D01*
X0541772Y0372103D01*
X0541376Y0371147D01*
X0541376Y0359170D01*
X0540870Y0358663D01*
X0540383Y0357487D01*
X0540383Y0334876D01*
X0539657Y0335602D01*
X0540383Y0337435D02*
X0537824Y0337435D01*
X0536226Y0339033D02*
X0540383Y0339033D01*
X0540383Y0340632D02*
X0534627Y0340632D01*
X0533029Y0342230D02*
X0540383Y0342230D01*
X0540383Y0343829D02*
X0531430Y0343829D01*
X0529832Y0345427D02*
X0540383Y0345427D01*
X0540383Y0347026D02*
X0528233Y0347026D01*
X0526635Y0348624D02*
X0540383Y0348624D01*
X0540383Y0350223D02*
X0525910Y0350223D01*
X0525910Y0351821D02*
X0540383Y0351821D01*
X0540383Y0353420D02*
X0531804Y0353420D01*
X0533534Y0355018D02*
X0540383Y0355018D01*
X0540383Y0356617D02*
X0533981Y0356617D01*
X0535912Y0358215D02*
X0540684Y0358215D01*
X0541376Y0359814D02*
X0537501Y0359814D01*
X0537918Y0361412D02*
X0541376Y0361412D01*
X0541376Y0363011D02*
X0537635Y0363011D01*
X0540516Y0364609D02*
X0541376Y0364609D01*
X0541376Y0366208D02*
X0540649Y0366208D01*
X0540649Y0367806D02*
X0541376Y0367806D01*
X0541376Y0369405D02*
X0540596Y0369405D01*
X0540449Y0370000D02*
X0540001Y0370000D01*
X0540001Y0370000D01*
X0540001Y0370000D01*
X0540449Y0370000D01*
X0540649Y0371003D02*
X0541376Y0371003D01*
X0540649Y0372602D02*
X0542272Y0372602D01*
X0543870Y0374201D02*
X0540649Y0374201D01*
X0540108Y0375799D02*
X0545469Y0375799D01*
X0548027Y0371003D02*
X0549351Y0371003D01*
X0549351Y0369405D02*
X0546576Y0369405D01*
X0546576Y0367806D02*
X0549351Y0367806D01*
X0549351Y0366208D02*
X0546576Y0366208D01*
X0546576Y0364609D02*
X0549484Y0364609D01*
X0546576Y0363011D02*
X0555156Y0363011D01*
X0555156Y0361412D02*
X0546576Y0361412D01*
X0546576Y0359814D02*
X0555156Y0359814D01*
X0555355Y0358215D02*
X0547038Y0358215D01*
X0547176Y0356617D02*
X0556675Y0356617D01*
X0558273Y0355018D02*
X0546783Y0355018D01*
X0546783Y0353420D02*
X0559872Y0353420D01*
X0561470Y0351821D02*
X0546783Y0351821D01*
X0546783Y0350223D02*
X0562417Y0350223D01*
X0562886Y0348624D02*
X0546783Y0348624D01*
X0546783Y0347026D02*
X0564476Y0347026D01*
X0538071Y0333228D02*
X0538071Y0313937D01*
X0536102Y0311969D01*
X0496339Y0311969D01*
X0492859Y0313457D02*
X0491461Y0313457D01*
X0491461Y0313509D02*
X0490885Y0314900D01*
X0489821Y0315964D01*
X0488430Y0316540D01*
X0486924Y0316540D01*
X0486480Y0316356D01*
X0430113Y0316356D01*
X0418049Y0328420D01*
X0418049Y0330162D01*
X0421309Y0333423D01*
X0421309Y0329113D01*
X0422481Y0327941D01*
X0423646Y0327941D01*
X0423646Y0326802D01*
X0424194Y0325478D01*
X0431082Y0318591D01*
X0432095Y0317578D01*
X0433418Y0317030D01*
X0526189Y0317030D01*
X0527512Y0317578D01*
X0527959Y0318025D01*
X0528403Y0318209D01*
X0529468Y0319274D01*
X0529956Y0320452D01*
X0529956Y0319483D01*
X0530532Y0318093D01*
X0531597Y0317028D01*
X0532987Y0316452D01*
X0534493Y0316452D01*
X0535271Y0316774D01*
X0535271Y0315097D01*
X0534943Y0314768D01*
X0498890Y0314768D01*
X0498482Y0315177D01*
X0497091Y0315753D01*
X0495586Y0315753D01*
X0494195Y0315177D01*
X0493130Y0314112D01*
X0492554Y0312721D01*
X0492554Y0311216D01*
X0493130Y0309825D01*
X0493692Y0309263D01*
X0489133Y0309263D01*
X0489821Y0309548D01*
X0490885Y0310612D01*
X0491461Y0312003D01*
X0491461Y0313509D01*
X0491402Y0311859D02*
X0492554Y0311859D01*
X0492950Y0310260D02*
X0490533Y0310260D01*
X0490729Y0315056D02*
X0494074Y0315056D01*
X0498603Y0315056D02*
X0535230Y0315056D01*
X0535271Y0316654D02*
X0534981Y0316654D01*
X0532499Y0316654D02*
X0429815Y0316654D01*
X0428216Y0318253D02*
X0431420Y0318253D01*
X0429821Y0319851D02*
X0426618Y0319851D01*
X0425019Y0321450D02*
X0428223Y0321450D01*
X0426624Y0323048D02*
X0423421Y0323048D01*
X0421822Y0324647D02*
X0425026Y0324647D01*
X0423877Y0326245D02*
X0420224Y0326245D01*
X0418625Y0327844D02*
X0423646Y0327844D01*
X0421309Y0329442D02*
X0418049Y0329442D01*
X0418927Y0331041D02*
X0421309Y0331041D01*
X0421309Y0332639D02*
X0420526Y0332639D01*
X0415139Y0337435D02*
X0400060Y0337435D01*
X0400060Y0339033D02*
X0416737Y0339033D01*
X0418336Y0340632D02*
X0400060Y0340632D01*
X0400060Y0342230D02*
X0419934Y0342230D01*
X0421869Y0343829D02*
X0400060Y0343829D01*
X0400060Y0345427D02*
X0421317Y0345427D01*
X0421317Y0347026D02*
X0400060Y0347026D01*
X0400060Y0348624D02*
X0421317Y0348624D01*
X0421317Y0350223D02*
X0400060Y0350223D01*
X0400060Y0351821D02*
X0402591Y0351821D01*
X0402611Y0351746D02*
X0402848Y0351336D01*
X0403183Y0351001D01*
X0403593Y0350764D01*
X0404051Y0350641D01*
X0405976Y0350641D01*
X0405976Y0354913D01*
X0402488Y0354913D01*
X0402488Y0352204D01*
X0402611Y0351746D01*
X0402488Y0353420D02*
X0400060Y0353420D01*
X0400060Y0355018D02*
X0405976Y0355018D01*
X0405976Y0355087D02*
X0405976Y0354913D01*
X0406150Y0354913D01*
X0406150Y0355087D01*
X0405976Y0355087D01*
X0402488Y0355087D01*
X0402488Y0357796D01*
X0402611Y0358254D01*
X0402848Y0358664D01*
X0403183Y0358999D01*
X0403593Y0359236D01*
X0404051Y0359359D01*
X0405976Y0359359D01*
X0405976Y0355087D01*
X0406150Y0355087D02*
X0406150Y0359359D01*
X0408075Y0359359D01*
X0408533Y0359236D01*
X0408943Y0358999D01*
X0409278Y0358664D01*
X0409515Y0358254D01*
X0409638Y0357796D01*
X0409638Y0355087D01*
X0406150Y0355087D01*
X0406150Y0355018D02*
X0409937Y0355018D01*
X0409638Y0354913D02*
X0406150Y0354913D01*
X0406150Y0350641D01*
X0408075Y0350641D01*
X0408533Y0350764D01*
X0408943Y0351001D01*
X0409278Y0351336D01*
X0409515Y0351746D01*
X0409638Y0352204D01*
X0409638Y0354913D01*
X0409638Y0353420D02*
X0410162Y0353420D01*
X0410162Y0351821D02*
X0409535Y0351821D01*
X0406150Y0351821D02*
X0405976Y0351821D01*
X0405976Y0353420D02*
X0406150Y0353420D01*
X0406150Y0356617D02*
X0405976Y0356617D01*
X0405976Y0358215D02*
X0406150Y0358215D01*
X0409525Y0358215D02*
X0410162Y0358215D01*
X0410162Y0356617D02*
X0409638Y0356617D01*
X0413603Y0359814D02*
X0398497Y0359814D01*
X0399376Y0358215D02*
X0402601Y0358215D01*
X0402488Y0356617D02*
X0399893Y0356617D01*
X0397165Y0361412D02*
X0427512Y0361412D01*
X0429111Y0363011D02*
X0394882Y0363011D01*
X0394253Y0371003D02*
X0436046Y0371003D01*
X0436046Y0372602D02*
X0394550Y0372602D01*
X0394550Y0374201D02*
X0436046Y0374201D01*
X0436046Y0375799D02*
X0432351Y0375799D01*
X0432991Y0377398D02*
X0436046Y0377398D01*
X0436046Y0378996D02*
X0432991Y0378996D01*
X0432991Y0380595D02*
X0436046Y0380595D01*
X0436046Y0382193D02*
X0432991Y0382193D01*
X0432752Y0383792D02*
X0436046Y0383792D01*
X0436046Y0385390D02*
X0433191Y0385390D01*
X0433191Y0386989D02*
X0436046Y0386989D01*
X0436046Y0388587D02*
X0433191Y0388587D01*
X0433191Y0390186D02*
X0436046Y0390186D01*
X0436046Y0391784D02*
X0432294Y0391784D01*
X0434219Y0394981D02*
X0384950Y0394981D01*
X0384950Y0396580D02*
X0383550Y0396580D01*
X0383550Y0398178D02*
X0384950Y0398178D01*
X0384950Y0399777D02*
X0383550Y0399777D01*
X0379800Y0401375D02*
X0408927Y0401375D01*
X0407329Y0402974D02*
X0379800Y0402974D01*
X0379800Y0404572D02*
X0405730Y0404572D01*
X0404582Y0406171D02*
X0379800Y0406171D01*
X0379800Y0407769D02*
X0385860Y0407769D01*
X0381718Y0409368D02*
X0379800Y0409368D01*
X0391699Y0407769D02*
X0404353Y0407769D01*
X0404353Y0409368D02*
X0395841Y0409368D01*
X0398141Y0410966D02*
X0404353Y0410966D01*
X0404353Y0412565D02*
X0399740Y0412565D01*
X0400834Y0414163D02*
X0403264Y0414163D01*
X0402653Y0415762D02*
X0401757Y0415762D01*
X0402324Y0417360D02*
X0402653Y0417360D01*
X0402753Y0418959D02*
X0403155Y0418959D01*
X0402984Y0420557D02*
X0404322Y0420557D01*
X0405057Y0422156D02*
X0402984Y0422156D01*
X0402933Y0423754D02*
X0403433Y0423754D01*
X0402771Y0425353D02*
X0402505Y0425353D01*
X0402653Y0426951D02*
X0402076Y0426951D01*
X0401223Y0428550D02*
X0402985Y0428550D01*
X0403913Y0430148D02*
X0400300Y0430148D01*
X0398814Y0431747D02*
X0406305Y0431747D01*
X0409601Y0431747D02*
X0416305Y0431747D01*
X0419601Y0431747D02*
X0427261Y0431747D01*
X0427867Y0431747D02*
X0428039Y0431747D01*
X0428644Y0431747D02*
X0436305Y0431747D01*
X0433913Y0430148D02*
X0431710Y0430148D01*
X0432712Y0428550D02*
X0432985Y0428550D01*
X0428039Y0428550D02*
X0427867Y0428550D01*
X0427867Y0430148D02*
X0428039Y0430148D01*
X0428039Y0426951D02*
X0427867Y0426951D01*
X0424196Y0430148D02*
X0421993Y0430148D01*
X0422920Y0428550D02*
X0423194Y0428550D01*
X0439601Y0431747D02*
X0446305Y0431747D01*
X0443913Y0430148D02*
X0441993Y0430148D01*
X0442920Y0428550D02*
X0442985Y0428550D01*
X0449601Y0431747D02*
X0456305Y0431747D01*
X0453913Y0430148D02*
X0451993Y0430148D01*
X0452920Y0428550D02*
X0452985Y0428550D01*
X0459601Y0431747D02*
X0467261Y0431747D01*
X0467867Y0431747D02*
X0468039Y0431747D01*
X0468644Y0431747D02*
X0476305Y0431747D01*
X0473913Y0430148D02*
X0471710Y0430148D01*
X0472712Y0428550D02*
X0472985Y0428550D01*
X0468039Y0428550D02*
X0467867Y0428550D01*
X0467867Y0430148D02*
X0468039Y0430148D01*
X0468039Y0426951D02*
X0467867Y0426951D01*
X0464196Y0430148D02*
X0461993Y0430148D01*
X0462920Y0428550D02*
X0463194Y0428550D01*
X0479601Y0431747D02*
X0480287Y0431747D01*
X0482953Y0430866D02*
X0484921Y0432835D01*
X0580984Y0432835D01*
X0582953Y0430866D01*
X0582953Y0398583D01*
X0592441Y0389094D01*
X0587915Y0389660D02*
X0579135Y0380880D01*
X0578914Y0381102D01*
X0571774Y0388242D01*
X0570818Y0388637D01*
X0560558Y0388637D01*
X0560558Y0388641D01*
X0559387Y0389812D01*
X0552612Y0389812D01*
X0551440Y0388641D01*
X0551440Y0388637D01*
X0550060Y0388637D01*
X0550060Y0388641D01*
X0548889Y0389812D01*
X0542114Y0389812D01*
X0541733Y0389431D01*
X0534539Y0396625D01*
X0534539Y0396625D01*
X0533751Y0397413D01*
X0532722Y0397839D01*
X0520421Y0397839D01*
X0520727Y0398145D01*
X0540203Y0398145D01*
X0541232Y0398571D01*
X0542019Y0399359D01*
X0548712Y0406051D01*
X0549500Y0406839D01*
X0549926Y0407868D01*
X0549926Y0411774D01*
X0550955Y0412200D01*
X0552446Y0413691D01*
X0552953Y0414914D01*
X0553460Y0413691D01*
X0554951Y0412200D01*
X0556899Y0411393D01*
X0559007Y0411393D01*
X0560955Y0412200D01*
X0562446Y0413691D01*
X0562953Y0414914D01*
X0563460Y0413691D01*
X0564753Y0412398D01*
X0564753Y0411680D01*
X0558005Y0404932D01*
X0552034Y0404932D01*
X0552025Y0404940D01*
X0550635Y0405517D01*
X0549129Y0405517D01*
X0547738Y0404940D01*
X0546674Y0403876D01*
X0546098Y0402485D01*
X0546098Y0400980D01*
X0546674Y0399589D01*
X0547738Y0398524D01*
X0549129Y0397948D01*
X0550635Y0397948D01*
X0552025Y0398524D01*
X0552034Y0398532D01*
X0559967Y0398532D01*
X0561143Y0399019D01*
X0562044Y0399920D01*
X0570666Y0408542D01*
X0571153Y0409718D01*
X0571153Y0412398D01*
X0572446Y0413691D01*
X0572953Y0414914D01*
X0573460Y0413691D01*
X0574951Y0412200D01*
X0576899Y0411393D01*
X0579007Y0411393D01*
X0580153Y0411868D01*
X0580153Y0398026D01*
X0580579Y0396997D01*
X0587915Y0389660D01*
X0587390Y0390186D02*
X0540979Y0390186D01*
X0541502Y0391031D02*
X0541837Y0390696D01*
X0542248Y0390459D01*
X0542705Y0390337D01*
X0545414Y0390337D01*
X0545414Y0393824D01*
X0541142Y0393824D01*
X0541142Y0391900D01*
X0541265Y0391442D01*
X0541502Y0391031D01*
X0541173Y0391784D02*
X0539380Y0391784D01*
X0537782Y0393383D02*
X0541142Y0393383D01*
X0541142Y0393999D02*
X0545414Y0393999D01*
X0545414Y0397486D01*
X0542705Y0397486D01*
X0542248Y0397364D01*
X0541837Y0397127D01*
X0541502Y0396791D01*
X0541265Y0396381D01*
X0541142Y0395923D01*
X0541142Y0393999D01*
X0541142Y0394981D02*
X0536183Y0394981D01*
X0534585Y0396580D02*
X0541380Y0396580D01*
X0540283Y0398178D02*
X0548573Y0398178D01*
X0548297Y0397486D02*
X0545589Y0397486D01*
X0545589Y0393999D01*
X0545414Y0393999D01*
X0545414Y0393824D01*
X0545589Y0393824D01*
X0545589Y0393999D01*
X0549860Y0393999D01*
X0549860Y0395923D01*
X0549738Y0396381D01*
X0549501Y0396791D01*
X0549166Y0397127D01*
X0548755Y0397364D01*
X0548297Y0397486D01*
X0549623Y0396580D02*
X0551878Y0396580D01*
X0551763Y0396381D02*
X0551640Y0395923D01*
X0551640Y0393999D01*
X0555912Y0393999D01*
X0555912Y0397486D01*
X0553203Y0397486D01*
X0552746Y0397364D01*
X0552335Y0397127D01*
X0552000Y0396791D01*
X0551763Y0396381D01*
X0551640Y0394981D02*
X0549860Y0394981D01*
X0549860Y0393824D02*
X0549860Y0391900D01*
X0549738Y0391442D01*
X0549501Y0391031D01*
X0549166Y0390696D01*
X0548755Y0390459D01*
X0548297Y0390337D01*
X0545589Y0390337D01*
X0545589Y0393824D01*
X0549860Y0393824D01*
X0549860Y0393383D02*
X0551640Y0393383D01*
X0551640Y0393824D02*
X0551640Y0391900D01*
X0551763Y0391442D01*
X0552000Y0391031D01*
X0552335Y0390696D01*
X0552746Y0390459D01*
X0553203Y0390337D01*
X0555912Y0390337D01*
X0555912Y0393824D01*
X0556087Y0393824D01*
X0556087Y0393999D01*
X0560358Y0393999D01*
X0560358Y0395923D01*
X0560236Y0396381D01*
X0559999Y0396791D01*
X0559664Y0397127D01*
X0559253Y0397364D01*
X0558795Y0397486D01*
X0556087Y0397486D01*
X0556087Y0393999D01*
X0555912Y0393999D01*
X0555912Y0393824D01*
X0551640Y0393824D01*
X0551671Y0391784D02*
X0549830Y0391784D01*
X0545589Y0391784D02*
X0545414Y0391784D01*
X0545414Y0393383D02*
X0545589Y0393383D01*
X0545589Y0394981D02*
X0545414Y0394981D01*
X0545414Y0396580D02*
X0545589Y0396580D01*
X0546596Y0399777D02*
X0542437Y0399777D01*
X0544036Y0401375D02*
X0546098Y0401375D01*
X0546300Y0402974D02*
X0545634Y0402974D01*
X0547233Y0404572D02*
X0547370Y0404572D01*
X0548831Y0406171D02*
X0559244Y0406171D01*
X0560842Y0407769D02*
X0549885Y0407769D01*
X0549926Y0409368D02*
X0562441Y0409368D01*
X0564039Y0410966D02*
X0549926Y0410966D01*
X0551320Y0412565D02*
X0554586Y0412565D01*
X0553264Y0414163D02*
X0552642Y0414163D01*
X0547953Y0416693D02*
X0547126Y0415866D01*
X0547126Y0408425D01*
X0539646Y0400945D01*
X0519567Y0400945D01*
X0506181Y0387559D01*
X0506181Y0381260D01*
X0496732Y0371811D01*
X0490620Y0371811D01*
X0490246Y0371437D01*
X0484309Y0371003D02*
X0483391Y0371003D01*
X0483391Y0369405D02*
X0484309Y0369405D01*
X0484309Y0368109D02*
X0484731Y0367687D01*
X0484309Y0367265D01*
X0484309Y0366737D01*
X0483391Y0366737D01*
X0483391Y0391124D01*
X0488443Y0396176D01*
X0498470Y0396176D01*
X0499499Y0396603D01*
X0500287Y0397390D01*
X0509342Y0406445D01*
X0509542Y0406928D01*
X0510408Y0407794D01*
X0513391Y0407794D01*
X0514347Y0408190D01*
X0515078Y0408921D01*
X0515474Y0409877D01*
X0515474Y0411983D01*
X0516899Y0411393D01*
X0519007Y0411393D01*
X0520955Y0412200D01*
X0522446Y0413691D01*
X0523073Y0415206D01*
X0523226Y0414735D01*
X0523591Y0414020D01*
X0524063Y0413370D01*
X0524630Y0412803D01*
X0525280Y0412331D01*
X0525995Y0411967D01*
X0526758Y0411718D01*
X0527551Y0411593D01*
X0527867Y0411593D01*
X0527867Y0416607D01*
X0528039Y0416607D01*
X0528039Y0411593D01*
X0528354Y0411593D01*
X0529147Y0411718D01*
X0529910Y0411967D01*
X0530626Y0412331D01*
X0531275Y0412803D01*
X0531843Y0413370D01*
X0532315Y0414020D01*
X0532679Y0414735D01*
X0532832Y0415206D01*
X0533460Y0413691D01*
X0534951Y0412200D01*
X0536899Y0411393D01*
X0539007Y0411393D01*
X0540389Y0411965D01*
X0540389Y0411553D01*
X0536517Y0407682D01*
X0516648Y0407682D01*
X0515619Y0407256D01*
X0500658Y0392295D01*
X0499870Y0391507D01*
X0499444Y0390478D01*
X0499444Y0384782D01*
X0497147Y0382485D01*
X0496191Y0382485D01*
X0496191Y0382763D01*
X0495327Y0383628D01*
X0495653Y0383954D01*
X0495890Y0384364D01*
X0496013Y0384822D01*
X0496013Y0387109D01*
X0490726Y0387109D01*
X0490726Y0388009D01*
X0496013Y0388009D01*
X0496013Y0390296D01*
X0495890Y0390754D01*
X0495653Y0391164D01*
X0495318Y0391499D01*
X0494907Y0391736D01*
X0494450Y0391859D01*
X0490726Y0391859D01*
X0490726Y0388009D01*
X0489826Y0388009D01*
X0489826Y0391859D01*
X0486102Y0391859D01*
X0485644Y0391736D01*
X0485233Y0391499D01*
X0484898Y0391164D01*
X0484661Y0390754D01*
X0484539Y0390296D01*
X0484539Y0388009D01*
X0489826Y0388009D01*
X0489826Y0387109D01*
X0484539Y0387109D01*
X0484539Y0384822D01*
X0484661Y0384364D01*
X0484898Y0383954D01*
X0485203Y0383649D01*
X0484317Y0382763D01*
X0484317Y0376107D01*
X0484984Y0375440D01*
X0484309Y0374765D01*
X0484309Y0368109D01*
X0484611Y0367806D02*
X0483391Y0367806D01*
X0480591Y0364331D02*
X0480984Y0363937D01*
X0490246Y0363937D01*
X0496183Y0364609D02*
X0511209Y0364609D01*
X0511209Y0365074D02*
X0511209Y0336568D01*
X0511697Y0335392D01*
X0519610Y0327479D01*
X0520510Y0326579D01*
X0521686Y0326091D01*
X0528478Y0326091D01*
X0530540Y0324029D01*
X0530540Y0322388D01*
X0530532Y0322380D01*
X0530044Y0321202D01*
X0530044Y0322170D01*
X0529468Y0323561D01*
X0528403Y0324625D01*
X0527013Y0325202D01*
X0525507Y0325202D01*
X0524116Y0324625D01*
X0523721Y0324230D01*
X0435625Y0324230D01*
X0431914Y0327941D01*
X0432011Y0327941D01*
X0433183Y0329113D01*
X0433183Y0335769D01*
X0432761Y0336191D01*
X0433183Y0336613D01*
X0433183Y0343269D01*
X0432391Y0344061D01*
X0433191Y0344861D01*
X0433191Y0345389D01*
X0444533Y0345389D01*
X0445562Y0345815D01*
X0446350Y0346603D01*
X0470760Y0371012D01*
X0471186Y0372041D01*
X0471186Y0388368D01*
X0486475Y0403657D01*
X0491384Y0403657D01*
X0492413Y0404083D01*
X0494775Y0406445D01*
X0495563Y0407233D01*
X0495989Y0408262D01*
X0495989Y0411770D01*
X0496899Y0411393D01*
X0499007Y0411393D01*
X0500955Y0412200D01*
X0502446Y0413691D01*
X0502953Y0414914D01*
X0503460Y0413691D01*
X0504951Y0412200D01*
X0506725Y0411465D01*
X0505865Y0410605D01*
X0505382Y0410405D01*
X0496754Y0401776D01*
X0486727Y0401776D01*
X0485697Y0401350D01*
X0478217Y0393870D01*
X0477791Y0392840D01*
X0477791Y0363774D01*
X0478217Y0362745D01*
X0478611Y0362351D01*
X0479398Y0361563D01*
X0480427Y0361137D01*
X0484309Y0361137D01*
X0484309Y0360609D01*
X0484956Y0359961D01*
X0484339Y0359343D01*
X0484339Y0352687D01*
X0484912Y0352113D01*
X0484317Y0351517D01*
X0484317Y0351389D01*
X0475656Y0351389D01*
X0475648Y0351397D01*
X0474257Y0351973D01*
X0472751Y0351973D01*
X0471360Y0351397D01*
X0470296Y0350333D01*
X0469720Y0348942D01*
X0469720Y0347436D01*
X0470296Y0346045D01*
X0471360Y0344981D01*
X0472751Y0344405D01*
X0474257Y0344405D01*
X0475648Y0344981D01*
X0475656Y0344989D01*
X0484317Y0344989D01*
X0484317Y0344861D01*
X0484936Y0344241D01*
X0484339Y0343643D01*
X0484339Y0343515D01*
X0484317Y0343515D01*
X0484309Y0343523D01*
X0482918Y0344099D01*
X0481413Y0344099D01*
X0480022Y0343523D01*
X0478957Y0342459D01*
X0478381Y0341068D01*
X0478381Y0339562D01*
X0478957Y0338171D01*
X0480022Y0337107D01*
X0481413Y0336531D01*
X0482918Y0336531D01*
X0484309Y0337107D01*
X0484317Y0337115D01*
X0484339Y0337115D01*
X0484339Y0336987D01*
X0485074Y0336251D01*
X0484869Y0336046D01*
X0484632Y0335636D01*
X0484509Y0335178D01*
X0484509Y0332891D01*
X0489796Y0332891D01*
X0489796Y0331991D01*
X0484509Y0331991D01*
X0484509Y0329704D01*
X0484632Y0329246D01*
X0484869Y0328836D01*
X0485204Y0328501D01*
X0485614Y0328264D01*
X0486072Y0328141D01*
X0489796Y0328141D01*
X0489796Y0331991D01*
X0490696Y0331991D01*
X0490696Y0332891D01*
X0495983Y0332891D01*
X0495983Y0335178D01*
X0495860Y0335636D01*
X0495623Y0336046D01*
X0495448Y0336222D01*
X0496213Y0336987D01*
X0496213Y0343643D01*
X0495593Y0344263D01*
X0496191Y0344861D01*
X0496191Y0351517D01*
X0495617Y0352091D01*
X0496213Y0352687D01*
X0496213Y0352815D01*
X0496654Y0352815D01*
X0497948Y0352279D01*
X0499454Y0352279D01*
X0500844Y0352855D01*
X0501909Y0353919D01*
X0502485Y0355310D01*
X0502485Y0356816D01*
X0501909Y0358207D01*
X0500844Y0359271D01*
X0499454Y0359847D01*
X0497948Y0359847D01*
X0496557Y0359271D01*
X0496501Y0359215D01*
X0496213Y0359215D01*
X0496213Y0359343D01*
X0495565Y0359991D01*
X0496183Y0360609D01*
X0496183Y0367265D01*
X0495761Y0367687D01*
X0496183Y0368109D01*
X0496183Y0369011D01*
X0497289Y0369011D01*
X0498318Y0369437D01*
X0499106Y0370225D01*
X0508306Y0379424D01*
X0508306Y0368538D01*
X0508701Y0367582D01*
X0511209Y0365074D01*
X0510076Y0366208D02*
X0496183Y0366208D01*
X0495881Y0367806D02*
X0508608Y0367806D01*
X0508306Y0369405D02*
X0498240Y0369405D01*
X0499885Y0371003D02*
X0508306Y0371003D01*
X0508306Y0372602D02*
X0501483Y0372602D01*
X0503082Y0374201D02*
X0508306Y0374201D01*
X0508306Y0375799D02*
X0504680Y0375799D01*
X0506279Y0377398D02*
X0508306Y0377398D01*
X0508306Y0378996D02*
X0507877Y0378996D01*
X0513505Y0376287D02*
X0513520Y0376234D01*
X0513756Y0375824D01*
X0514092Y0375489D01*
X0514502Y0375252D01*
X0514960Y0375129D01*
X0517178Y0375129D01*
X0517178Y0378713D01*
X0517546Y0378713D01*
X0517546Y0375129D01*
X0519765Y0375129D01*
X0520222Y0375252D01*
X0520550Y0375441D01*
X0521061Y0374929D01*
X0527049Y0374929D01*
X0527588Y0375468D01*
X0528499Y0374557D01*
X0527981Y0374342D01*
X0523158Y0369520D01*
X0520353Y0369520D01*
X0520000Y0369167D01*
X0519647Y0369520D01*
X0514118Y0369520D01*
X0513505Y0370132D01*
X0513505Y0376287D01*
X0513505Y0375799D02*
X0513781Y0375799D01*
X0513505Y0374201D02*
X0527839Y0374201D01*
X0526241Y0372602D02*
X0513505Y0372602D01*
X0513505Y0371003D02*
X0524642Y0371003D01*
X0520238Y0369405D02*
X0519762Y0369405D01*
X0516654Y0365551D02*
X0514409Y0365551D01*
X0511209Y0363011D02*
X0496183Y0363011D01*
X0496183Y0361412D02*
X0511209Y0361412D01*
X0511209Y0359814D02*
X0499534Y0359814D01*
X0497868Y0359814D02*
X0495742Y0359814D01*
X0501900Y0358215D02*
X0511209Y0358215D01*
X0511209Y0356617D02*
X0502485Y0356617D01*
X0502364Y0355018D02*
X0511209Y0355018D01*
X0511209Y0353420D02*
X0501409Y0353420D01*
X0495887Y0351821D02*
X0511209Y0351821D01*
X0511209Y0350223D02*
X0496191Y0350223D01*
X0496191Y0348624D02*
X0511209Y0348624D01*
X0511209Y0347026D02*
X0496191Y0347026D01*
X0496191Y0345427D02*
X0511209Y0345427D01*
X0511209Y0343829D02*
X0496027Y0343829D01*
X0496213Y0342230D02*
X0511209Y0342230D01*
X0511209Y0340632D02*
X0496213Y0340632D01*
X0496213Y0339033D02*
X0511209Y0339033D01*
X0511209Y0337435D02*
X0496213Y0337435D01*
X0495745Y0335836D02*
X0511513Y0335836D01*
X0512851Y0334238D02*
X0495983Y0334238D01*
X0495983Y0331991D02*
X0490696Y0331991D01*
X0490696Y0328141D01*
X0494420Y0328141D01*
X0494878Y0328264D01*
X0495288Y0328501D01*
X0495623Y0328836D01*
X0495860Y0329246D01*
X0495983Y0329704D01*
X0495983Y0331991D01*
X0495983Y0331041D02*
X0516048Y0331041D01*
X0514449Y0332639D02*
X0490696Y0332639D01*
X0489796Y0332639D02*
X0433183Y0332639D01*
X0433183Y0331041D02*
X0484509Y0331041D01*
X0484579Y0329442D02*
X0433183Y0329442D01*
X0432011Y0327844D02*
X0519245Y0327844D01*
X0517646Y0329442D02*
X0495913Y0329442D01*
X0490696Y0329442D02*
X0489796Y0329442D01*
X0489796Y0331041D02*
X0490696Y0331041D01*
X0484509Y0334238D02*
X0433183Y0334238D01*
X0433116Y0335836D02*
X0484748Y0335836D01*
X0479694Y0337435D02*
X0433183Y0337435D01*
X0433183Y0339033D02*
X0478600Y0339033D01*
X0478381Y0340632D02*
X0433183Y0340632D01*
X0433183Y0342230D02*
X0478863Y0342230D01*
X0480760Y0343829D02*
X0432624Y0343829D01*
X0427254Y0348189D02*
X0443976Y0348189D01*
X0468386Y0372598D01*
X0468386Y0389528D01*
X0485315Y0406457D01*
X0490827Y0406457D01*
X0493189Y0408819D01*
X0493189Y0422992D01*
X0489488Y0426693D01*
X0487953Y0426693D01*
X0482953Y0422598D02*
X0482953Y0430866D01*
X0482953Y0422598D02*
X0487953Y0417598D01*
X0487953Y0416693D01*
X0495989Y0410966D02*
X0506226Y0410966D01*
X0504586Y0412565D02*
X0501320Y0412565D01*
X0502642Y0414163D02*
X0503264Y0414163D01*
X0503031Y0413937D02*
X0503031Y0422205D01*
X0498543Y0426693D01*
X0497953Y0426693D01*
X0498039Y0426779D02*
X0502653Y0426779D01*
X0502653Y0426607D01*
X0498039Y0426607D01*
X0498039Y0426779D01*
X0502832Y0425206D02*
X0503460Y0423691D01*
X0504951Y0422200D01*
X0506174Y0421693D01*
X0504951Y0421186D01*
X0503460Y0419695D01*
X0502953Y0418471D01*
X0502446Y0419695D01*
X0500955Y0421186D01*
X0499440Y0421814D01*
X0499910Y0421967D01*
X0500626Y0422331D01*
X0501275Y0422803D01*
X0501843Y0423370D01*
X0502315Y0424020D01*
X0502679Y0424735D01*
X0502832Y0425206D01*
X0503433Y0423754D02*
X0502122Y0423754D01*
X0500282Y0422156D02*
X0505057Y0422156D01*
X0504322Y0420557D02*
X0501584Y0420557D01*
X0502751Y0418959D02*
X0503155Y0418959D01*
X0504345Y0409368D02*
X0495989Y0409368D01*
X0495785Y0407769D02*
X0502746Y0407769D01*
X0501148Y0406171D02*
X0494501Y0406171D01*
X0492902Y0404572D02*
X0499549Y0404572D01*
X0497951Y0402974D02*
X0485792Y0402974D01*
X0485758Y0401375D02*
X0484193Y0401375D01*
X0484124Y0399777D02*
X0482595Y0399777D01*
X0482525Y0398178D02*
X0480996Y0398178D01*
X0480927Y0396580D02*
X0479398Y0396580D01*
X0479328Y0394981D02*
X0477799Y0394981D01*
X0478015Y0393383D02*
X0476201Y0393383D01*
X0477791Y0391784D02*
X0474602Y0391784D01*
X0473004Y0390186D02*
X0477791Y0390186D01*
X0477791Y0388587D02*
X0471405Y0388587D01*
X0471186Y0386989D02*
X0477791Y0386989D01*
X0477791Y0385390D02*
X0471186Y0385390D01*
X0471186Y0383792D02*
X0477791Y0383792D01*
X0477791Y0382193D02*
X0471186Y0382193D01*
X0471186Y0380595D02*
X0477791Y0380595D01*
X0477791Y0378996D02*
X0471186Y0378996D01*
X0471186Y0377398D02*
X0477791Y0377398D01*
X0477791Y0375799D02*
X0471186Y0375799D01*
X0471186Y0374201D02*
X0477791Y0374201D01*
X0477791Y0372602D02*
X0471186Y0372602D01*
X0470751Y0371003D02*
X0477791Y0371003D01*
X0477791Y0369405D02*
X0469152Y0369405D01*
X0467554Y0367806D02*
X0477791Y0367806D01*
X0477791Y0366208D02*
X0465955Y0366208D01*
X0464357Y0364609D02*
X0477791Y0364609D01*
X0478107Y0363011D02*
X0462758Y0363011D01*
X0461160Y0361412D02*
X0479762Y0361412D01*
X0480591Y0364331D02*
X0480591Y0392283D01*
X0487283Y0398976D01*
X0497913Y0398976D01*
X0506969Y0408031D01*
X0509068Y0406171D02*
X0514534Y0406171D01*
X0512935Y0404572D02*
X0507469Y0404572D01*
X0505871Y0402974D02*
X0511337Y0402974D01*
X0509738Y0401375D02*
X0504272Y0401375D01*
X0502673Y0399777D02*
X0508140Y0399777D01*
X0506541Y0398178D02*
X0501075Y0398178D01*
X0499444Y0396580D02*
X0504943Y0396580D01*
X0503344Y0394981D02*
X0487248Y0394981D01*
X0485650Y0393383D02*
X0501746Y0393383D01*
X0500658Y0392295D02*
X0500658Y0392295D01*
X0500147Y0391784D02*
X0494729Y0391784D01*
X0496013Y0390186D02*
X0499444Y0390186D01*
X0499444Y0388587D02*
X0496013Y0388587D01*
X0496013Y0386989D02*
X0499444Y0386989D01*
X0499444Y0385390D02*
X0496013Y0385390D01*
X0495491Y0383792D02*
X0498454Y0383792D01*
X0502244Y0383622D02*
X0498307Y0379685D01*
X0490504Y0379685D01*
X0490254Y0379435D01*
X0484317Y0378996D02*
X0483391Y0378996D01*
X0483391Y0377398D02*
X0484317Y0377398D01*
X0484625Y0375799D02*
X0483391Y0375799D01*
X0483391Y0374201D02*
X0484309Y0374201D01*
X0484309Y0372602D02*
X0483391Y0372602D01*
X0483391Y0380595D02*
X0484317Y0380595D01*
X0484317Y0382193D02*
X0483391Y0382193D01*
X0483391Y0383792D02*
X0485060Y0383792D01*
X0484539Y0385390D02*
X0483391Y0385390D01*
X0483391Y0386989D02*
X0484539Y0386989D01*
X0484539Y0388587D02*
X0483391Y0388587D01*
X0483391Y0390186D02*
X0484539Y0390186D01*
X0484051Y0391784D02*
X0485822Y0391784D01*
X0489826Y0391784D02*
X0490726Y0391784D01*
X0490726Y0390186D02*
X0489826Y0390186D01*
X0489826Y0388587D02*
X0490726Y0388587D01*
X0502244Y0389921D02*
X0502244Y0383622D01*
X0502244Y0389921D02*
X0517205Y0404882D01*
X0537677Y0404882D01*
X0543189Y0410394D01*
X0543189Y0420236D01*
X0544764Y0421811D01*
X0552244Y0421811D01*
X0557126Y0426693D01*
X0557953Y0426693D01*
X0562642Y0414163D02*
X0563264Y0414163D01*
X0564586Y0412565D02*
X0561320Y0412565D01*
X0568295Y0406171D02*
X0580153Y0406171D01*
X0580153Y0407769D02*
X0569893Y0407769D01*
X0571008Y0409368D02*
X0580153Y0409368D01*
X0580153Y0410966D02*
X0571153Y0410966D01*
X0571320Y0412565D02*
X0574586Y0412565D01*
X0573264Y0414163D02*
X0572642Y0414163D01*
X0585753Y0409368D02*
X0587327Y0409368D01*
X0585753Y0407769D02*
X0588926Y0407769D01*
X0590524Y0406171D02*
X0585753Y0406171D01*
X0585753Y0404572D02*
X0592123Y0404572D01*
X0593721Y0402974D02*
X0585753Y0402974D01*
X0585753Y0401375D02*
X0595320Y0401375D01*
X0599239Y0406507D02*
X0620505Y0406507D01*
X0621778Y0406507D01*
X0622954Y0406020D01*
X0626106Y0402869D01*
X0626106Y0410584D01*
X0625848Y0410326D01*
X0622609Y0408456D01*
X0618996Y0407488D01*
X0615256Y0407488D01*
X0611643Y0408456D01*
X0608404Y0410326D01*
X0605759Y0412971D01*
X0603889Y0416210D01*
X0602921Y0419823D01*
X0602921Y0423563D01*
X0603889Y0427176D01*
X0605759Y0430415D01*
X0607986Y0432641D01*
X0585138Y0432641D01*
X0585326Y0432452D01*
X0585719Y0431504D01*
X0586899Y0431993D01*
X0589007Y0431993D01*
X0590955Y0431186D01*
X0592446Y0429695D01*
X0592953Y0428471D01*
X0593460Y0429695D01*
X0594951Y0431186D01*
X0596899Y0431993D01*
X0599007Y0431993D01*
X0600955Y0431186D01*
X0602446Y0429695D01*
X0603253Y0427747D01*
X0603253Y0425639D01*
X0602446Y0423691D01*
X0600955Y0422200D01*
X0599440Y0421572D01*
X0599910Y0421419D01*
X0600626Y0421055D01*
X0601275Y0420583D01*
X0601843Y0420015D01*
X0602315Y0419366D01*
X0602679Y0418651D01*
X0602927Y0417887D01*
X0603053Y0417094D01*
X0603053Y0416779D01*
X0598039Y0416779D01*
X0598039Y0416607D01*
X0603053Y0416607D01*
X0603053Y0416292D01*
X0602927Y0415499D01*
X0602679Y0414735D01*
X0602315Y0414020D01*
X0601843Y0413370D01*
X0601275Y0412803D01*
X0600626Y0412331D01*
X0599910Y0411967D01*
X0599147Y0411718D01*
X0598354Y0411593D01*
X0598039Y0411593D01*
X0598039Y0416607D01*
X0597867Y0416607D01*
X0597867Y0411593D01*
X0597551Y0411593D01*
X0596758Y0411718D01*
X0595995Y0411967D01*
X0595280Y0412331D01*
X0594630Y0412803D01*
X0594063Y0413370D01*
X0593591Y0414020D01*
X0593226Y0414735D01*
X0593073Y0415206D01*
X0592446Y0413691D01*
X0592251Y0413495D01*
X0599239Y0406507D01*
X0597977Y0407769D02*
X0614207Y0407769D01*
X0610064Y0409368D02*
X0596378Y0409368D01*
X0594780Y0410966D02*
X0607764Y0410966D01*
X0606166Y0412565D02*
X0600948Y0412565D01*
X0602388Y0414163D02*
X0605071Y0414163D01*
X0604148Y0415762D02*
X0602969Y0415762D01*
X0603011Y0417360D02*
X0603581Y0417360D01*
X0603153Y0418959D02*
X0602522Y0418959D01*
X0602921Y0420557D02*
X0601301Y0420557D01*
X0600849Y0422156D02*
X0602921Y0422156D01*
X0602973Y0423754D02*
X0602472Y0423754D01*
X0603134Y0425353D02*
X0603401Y0425353D01*
X0603253Y0426951D02*
X0603829Y0426951D01*
X0604683Y0428550D02*
X0602920Y0428550D01*
X0601993Y0430148D02*
X0605606Y0430148D01*
X0607091Y0431747D02*
X0599601Y0431747D01*
X0596305Y0431747D02*
X0589601Y0431747D01*
X0591993Y0430148D02*
X0593913Y0430148D01*
X0592985Y0428550D02*
X0592920Y0428550D01*
X0586305Y0431747D02*
X0585619Y0431747D01*
X0592642Y0414163D02*
X0593518Y0414163D01*
X0593181Y0412565D02*
X0594958Y0412565D01*
X0597867Y0412565D02*
X0598039Y0412565D01*
X0598039Y0414163D02*
X0597867Y0414163D01*
X0597867Y0415762D02*
X0598039Y0415762D01*
X0580153Y0404572D02*
X0566696Y0404572D01*
X0565098Y0402974D02*
X0580153Y0402974D01*
X0580153Y0401375D02*
X0563499Y0401375D01*
X0561901Y0399777D02*
X0580153Y0399777D01*
X0580153Y0398178D02*
X0551190Y0398178D01*
X0555912Y0396580D02*
X0556087Y0396580D01*
X0556087Y0394981D02*
X0555912Y0394981D01*
X0556087Y0393824D02*
X0560358Y0393824D01*
X0560358Y0391900D01*
X0560236Y0391442D01*
X0559999Y0391031D01*
X0559664Y0390696D01*
X0559253Y0390459D01*
X0558795Y0390337D01*
X0556087Y0390337D01*
X0556087Y0393824D01*
X0556087Y0393383D02*
X0555912Y0393383D01*
X0555912Y0391784D02*
X0556087Y0391784D01*
X0560327Y0391784D02*
X0585791Y0391784D01*
X0584193Y0393383D02*
X0560358Y0393383D01*
X0560358Y0394981D02*
X0582594Y0394981D01*
X0580996Y0396580D02*
X0560121Y0396580D01*
X0570940Y0388587D02*
X0586842Y0388587D01*
X0585244Y0386989D02*
X0573027Y0386989D01*
X0574625Y0385390D02*
X0583645Y0385390D01*
X0582047Y0383792D02*
X0576224Y0383792D01*
X0577822Y0382193D02*
X0580448Y0382193D01*
X0573666Y0378996D02*
X0531413Y0378996D01*
X0529815Y0380595D02*
X0572067Y0380595D01*
X0570469Y0382193D02*
X0527722Y0382193D01*
X0526855Y0383792D02*
X0539754Y0383792D01*
X0537855Y0385390D02*
X0526777Y0385390D01*
X0526397Y0386989D02*
X0536256Y0386989D01*
X0534658Y0388587D02*
X0525465Y0388587D01*
X0522717Y0385984D02*
X0524055Y0384646D01*
X0524055Y0378898D01*
X0519557Y0383792D02*
X0513505Y0383792D01*
X0513505Y0385390D02*
X0518932Y0385390D01*
X0519037Y0386989D02*
X0515082Y0386989D01*
X0516681Y0388587D02*
X0519968Y0388587D01*
X0518279Y0390186D02*
X0533059Y0390186D01*
X0531461Y0391784D02*
X0519878Y0391784D01*
X0519173Y0395039D02*
X0510906Y0386772D01*
X0513505Y0382193D02*
X0513978Y0382193D01*
X0517178Y0382193D02*
X0517546Y0382193D01*
X0517546Y0380595D02*
X0517178Y0380595D01*
X0517178Y0377398D02*
X0517546Y0377398D01*
X0517546Y0375799D02*
X0517178Y0375799D01*
X0523110Y0365512D02*
X0523110Y0348189D01*
X0538071Y0333228D01*
X0535271Y0332069D02*
X0535271Y0328349D01*
X0531616Y0332004D01*
X0530440Y0332491D01*
X0523648Y0332491D01*
X0517609Y0338530D01*
X0517609Y0361583D01*
X0519647Y0361583D01*
X0520000Y0361935D01*
X0520310Y0361625D01*
X0520310Y0347632D01*
X0520737Y0346603D01*
X0535271Y0332069D01*
X0534700Y0332639D02*
X0523500Y0332639D01*
X0521902Y0334238D02*
X0533102Y0334238D01*
X0531503Y0335836D02*
X0520303Y0335836D01*
X0518705Y0337435D02*
X0529905Y0337435D01*
X0528306Y0339033D02*
X0517609Y0339033D01*
X0517609Y0340632D02*
X0526708Y0340632D01*
X0525109Y0342230D02*
X0517609Y0342230D01*
X0517609Y0343829D02*
X0523511Y0343829D01*
X0521912Y0345427D02*
X0517609Y0345427D01*
X0517609Y0347026D02*
X0520561Y0347026D01*
X0520310Y0348624D02*
X0517609Y0348624D01*
X0517609Y0350223D02*
X0520310Y0350223D01*
X0520310Y0351821D02*
X0517609Y0351821D01*
X0517609Y0353420D02*
X0520310Y0353420D01*
X0520310Y0355018D02*
X0517609Y0355018D01*
X0517609Y0356617D02*
X0520310Y0356617D01*
X0520310Y0358215D02*
X0517609Y0358215D01*
X0517609Y0359814D02*
X0520310Y0359814D01*
X0520310Y0361412D02*
X0517609Y0361412D01*
X0523110Y0365512D02*
X0529567Y0371969D01*
X0533012Y0377398D02*
X0567488Y0377398D01*
X0570591Y0373937D02*
X0571654Y0375000D01*
X0545501Y0386037D02*
X0545161Y0386378D01*
X0540827Y0386378D01*
X0532165Y0395039D01*
X0519173Y0395039D01*
X0515263Y0409368D02*
X0538203Y0409368D01*
X0536605Y0407769D02*
X0510383Y0407769D01*
X0515474Y0410966D02*
X0539802Y0410966D01*
X0534586Y0412565D02*
X0530948Y0412565D01*
X0532388Y0414163D02*
X0533264Y0414163D01*
X0528039Y0414163D02*
X0527867Y0414163D01*
X0527867Y0412565D02*
X0528039Y0412565D01*
X0524958Y0412565D02*
X0521320Y0412565D01*
X0522642Y0414163D02*
X0523518Y0414163D01*
X0527867Y0415762D02*
X0528039Y0415762D01*
X0517953Y0426693D02*
X0512874Y0421614D01*
X0481698Y0406800D02*
X0466800Y0391901D01*
X0466800Y0391901D01*
X0466012Y0391114D01*
X0465586Y0390085D01*
X0465586Y0373758D01*
X0442817Y0350989D01*
X0433191Y0350989D01*
X0433191Y0351517D01*
X0432582Y0352126D01*
X0433191Y0352735D01*
X0433191Y0356909D01*
X0442698Y0366415D01*
X0443246Y0367739D01*
X0443246Y0391695D01*
X0443821Y0391933D01*
X0458688Y0406800D01*
X0481698Y0406800D01*
X0481069Y0406171D02*
X0458058Y0406171D01*
X0456460Y0404572D02*
X0479471Y0404572D01*
X0477872Y0402974D02*
X0454861Y0402974D01*
X0453263Y0401375D02*
X0476274Y0401375D01*
X0474675Y0399777D02*
X0451664Y0399777D01*
X0450066Y0398178D02*
X0473077Y0398178D01*
X0471478Y0396580D02*
X0448467Y0396580D01*
X0446869Y0394981D02*
X0469880Y0394981D01*
X0468281Y0393383D02*
X0445270Y0393383D01*
X0443462Y0391784D02*
X0466683Y0391784D01*
X0465628Y0390186D02*
X0443246Y0390186D01*
X0443246Y0388587D02*
X0465586Y0388587D01*
X0465586Y0386989D02*
X0443246Y0386989D01*
X0443246Y0385390D02*
X0465586Y0385390D01*
X0465586Y0383792D02*
X0443246Y0383792D01*
X0443246Y0382193D02*
X0465586Y0382193D01*
X0465586Y0380595D02*
X0443246Y0380595D01*
X0443246Y0378996D02*
X0465586Y0378996D01*
X0465586Y0377398D02*
X0443246Y0377398D01*
X0443246Y0375799D02*
X0465586Y0375799D01*
X0465586Y0374201D02*
X0443246Y0374201D01*
X0443246Y0372602D02*
X0464430Y0372602D01*
X0462831Y0371003D02*
X0443246Y0371003D01*
X0443246Y0369405D02*
X0461233Y0369405D01*
X0459634Y0367806D02*
X0443246Y0367806D01*
X0442490Y0366208D02*
X0458036Y0366208D01*
X0456437Y0364609D02*
X0440892Y0364609D01*
X0439293Y0363011D02*
X0454839Y0363011D01*
X0453240Y0361412D02*
X0437695Y0361412D01*
X0436096Y0359814D02*
X0451642Y0359814D01*
X0450043Y0358215D02*
X0434498Y0358215D01*
X0433191Y0356617D02*
X0448445Y0356617D01*
X0446846Y0355018D02*
X0433191Y0355018D01*
X0433191Y0353420D02*
X0445247Y0353420D01*
X0443649Y0351821D02*
X0432887Y0351821D01*
X0421621Y0351821D02*
X0417712Y0351821D01*
X0413540Y0335836D02*
X0400060Y0335836D01*
X0400060Y0334238D02*
X0411942Y0334238D01*
X0410960Y0332639D02*
X0400060Y0332639D01*
X0400060Y0331041D02*
X0410849Y0331041D01*
X0410849Y0329442D02*
X0400060Y0329442D01*
X0400060Y0327844D02*
X0410849Y0327844D01*
X0410849Y0326245D02*
X0400060Y0326245D01*
X0400060Y0324647D02*
X0411640Y0324647D01*
X0413239Y0323048D02*
X0400060Y0323048D01*
X0400060Y0321450D02*
X0414837Y0321450D01*
X0416436Y0319851D02*
X0400060Y0319851D01*
X0400060Y0318253D02*
X0418034Y0318253D01*
X0419633Y0316654D02*
X0400060Y0316654D01*
X0400060Y0315056D02*
X0421231Y0315056D01*
X0422830Y0313457D02*
X0400060Y0313457D01*
X0400060Y0311859D02*
X0424428Y0311859D01*
X0426027Y0310260D02*
X0400060Y0310260D01*
X0400060Y0308662D02*
X0444805Y0308662D01*
X0443207Y0307063D02*
X0400060Y0307063D01*
X0400060Y0305465D02*
X0441608Y0305465D01*
X0440010Y0303866D02*
X0408854Y0303866D01*
X0405083Y0303866D02*
X0400060Y0303866D01*
X0400060Y0302268D02*
X0403583Y0302268D01*
X0403184Y0300669D02*
X0400060Y0300669D01*
X0400060Y0299070D02*
X0403486Y0299070D01*
X0404696Y0297472D02*
X0400060Y0297472D01*
X0401145Y0284441D02*
X0397831Y0284441D01*
X0396951Y0284077D01*
X0396357Y0283482D01*
X0395100Y0283482D01*
X0394899Y0283683D01*
X0394019Y0284047D01*
X0390705Y0284047D01*
X0389825Y0283683D01*
X0389152Y0283009D01*
X0388787Y0282130D01*
X0388787Y0280265D01*
X0388762Y0280204D01*
X0388762Y0278772D01*
X0388787Y0278711D01*
X0388787Y0276847D01*
X0389152Y0275967D01*
X0389825Y0275294D01*
X0390705Y0274929D01*
X0394019Y0274929D01*
X0394899Y0275294D01*
X0395573Y0275967D01*
X0395703Y0276282D01*
X0396357Y0276282D01*
X0396951Y0275687D01*
X0397831Y0275323D01*
X0401145Y0275323D01*
X0402025Y0275687D01*
X0402699Y0276361D01*
X0403063Y0277240D01*
X0403063Y0279105D01*
X0403088Y0279166D01*
X0403088Y0280598D01*
X0403063Y0280659D01*
X0403063Y0282523D01*
X0402699Y0283403D01*
X0402025Y0284077D01*
X0401145Y0284441D01*
X0402830Y0283085D02*
X0404020Y0283085D01*
X0404152Y0283403D02*
X0403787Y0282523D01*
X0403787Y0280659D01*
X0403762Y0280598D01*
X0403762Y0279166D01*
X0403787Y0279105D01*
X0403787Y0277240D01*
X0404152Y0276361D01*
X0404825Y0275687D01*
X0405705Y0275323D01*
X0409019Y0275323D01*
X0409899Y0275687D01*
X0410494Y0276282D01*
X0415362Y0276282D01*
X0416685Y0276830D01*
X0416935Y0277080D01*
X0417380Y0277264D01*
X0418444Y0278329D01*
X0419020Y0279720D01*
X0419020Y0281225D01*
X0418444Y0282616D01*
X0417380Y0283681D01*
X0415989Y0284257D01*
X0414483Y0284257D01*
X0413093Y0283681D01*
X0412894Y0283482D01*
X0410494Y0283482D01*
X0409899Y0284077D01*
X0409019Y0284441D01*
X0405705Y0284441D01*
X0404825Y0284077D01*
X0404152Y0283403D01*
X0403787Y0281487D02*
X0403063Y0281487D01*
X0403088Y0279888D02*
X0403762Y0279888D01*
X0403787Y0278290D02*
X0403063Y0278290D01*
X0402836Y0276691D02*
X0404015Y0276691D01*
X0404825Y0273604D02*
X0404152Y0272931D01*
X0403787Y0272051D01*
X0403787Y0270186D01*
X0403762Y0270126D01*
X0403762Y0268693D01*
X0403787Y0268633D01*
X0403787Y0266768D01*
X0404152Y0265888D01*
X0404825Y0265215D01*
X0405705Y0264850D01*
X0409019Y0264850D01*
X0409899Y0265215D01*
X0410494Y0265809D01*
X0418275Y0265809D01*
X0419598Y0266358D01*
X0420872Y0267631D01*
X0421317Y0267815D01*
X0422381Y0268880D01*
X0422957Y0270271D01*
X0422957Y0271776D01*
X0422381Y0273167D01*
X0421317Y0274232D01*
X0419926Y0274808D01*
X0418420Y0274808D01*
X0417030Y0274232D01*
X0415965Y0273167D01*
X0415900Y0273009D01*
X0410494Y0273009D01*
X0409899Y0273604D01*
X0409019Y0273968D01*
X0405705Y0273968D01*
X0404825Y0273604D01*
X0404715Y0273494D02*
X0402135Y0273494D01*
X0402025Y0273604D02*
X0401145Y0273968D01*
X0397831Y0273968D01*
X0396951Y0273604D01*
X0396357Y0273009D01*
X0395573Y0273009D01*
X0395573Y0273009D01*
X0394899Y0273683D01*
X0394019Y0274047D01*
X0390705Y0274047D01*
X0389825Y0273683D01*
X0389152Y0273009D01*
X0388787Y0272130D01*
X0388787Y0270265D01*
X0388762Y0270204D01*
X0388762Y0268772D01*
X0388787Y0268711D01*
X0388787Y0266847D01*
X0389152Y0265967D01*
X0389825Y0265294D01*
X0390705Y0264929D01*
X0394019Y0264929D01*
X0394899Y0265294D01*
X0395415Y0265809D01*
X0396357Y0265809D01*
X0396951Y0265215D01*
X0397831Y0264850D01*
X0401145Y0264850D01*
X0402025Y0265215D01*
X0402699Y0265888D01*
X0403063Y0266768D01*
X0403063Y0268633D01*
X0403088Y0268693D01*
X0403088Y0270126D01*
X0403063Y0270186D01*
X0403063Y0272051D01*
X0402699Y0272931D01*
X0402025Y0273604D01*
X0403063Y0271896D02*
X0403787Y0271896D01*
X0403787Y0270297D02*
X0403063Y0270297D01*
X0403088Y0268699D02*
X0403762Y0268699D01*
X0403787Y0267100D02*
X0403063Y0267100D01*
X0402312Y0265502D02*
X0404538Y0265502D01*
X0405357Y0263903D02*
X0401493Y0263903D01*
X0401145Y0264047D02*
X0397831Y0264047D01*
X0396951Y0263683D01*
X0396357Y0263088D01*
X0395494Y0263088D01*
X0394899Y0263683D01*
X0394019Y0264047D01*
X0390705Y0264047D01*
X0389825Y0263683D01*
X0389152Y0263009D01*
X0388787Y0262130D01*
X0388787Y0260265D01*
X0388762Y0260204D01*
X0388762Y0258772D01*
X0388787Y0258711D01*
X0388787Y0256847D01*
X0389152Y0255967D01*
X0389825Y0255294D01*
X0390705Y0254929D01*
X0394019Y0254929D01*
X0394899Y0255294D01*
X0395494Y0255888D01*
X0396357Y0255888D01*
X0396951Y0255294D01*
X0397831Y0254929D01*
X0401145Y0254929D01*
X0402025Y0255294D01*
X0402699Y0255967D01*
X0403063Y0256847D01*
X0403063Y0258711D01*
X0403088Y0258772D01*
X0403088Y0260204D01*
X0403063Y0260265D01*
X0403063Y0262130D01*
X0402699Y0263009D01*
X0402025Y0263683D01*
X0401145Y0264047D01*
X0402990Y0262305D02*
X0403860Y0262305D01*
X0403787Y0262130D02*
X0404152Y0263009D01*
X0404825Y0263683D01*
X0405705Y0264047D01*
X0409019Y0264047D01*
X0409899Y0263683D01*
X0410494Y0263088D01*
X0421189Y0263088D01*
X0421409Y0262997D01*
X0421501Y0262997D01*
X0422892Y0262421D01*
X0423956Y0261356D01*
X0424532Y0259965D01*
X0424532Y0258460D01*
X0423956Y0257069D01*
X0422892Y0256004D01*
X0421501Y0255428D01*
X0419995Y0255428D01*
X0418885Y0255888D01*
X0410494Y0255888D01*
X0409899Y0255294D01*
X0409019Y0254929D01*
X0405705Y0254929D01*
X0404825Y0255294D01*
X0404152Y0255967D01*
X0403787Y0256847D01*
X0403787Y0258711D01*
X0403762Y0258772D01*
X0403762Y0260204D01*
X0403787Y0260265D01*
X0403787Y0262130D01*
X0403787Y0260706D02*
X0403063Y0260706D01*
X0403088Y0259108D02*
X0403762Y0259108D01*
X0403787Y0257509D02*
X0403063Y0257509D01*
X0402642Y0255911D02*
X0404208Y0255911D01*
X0404825Y0253683D02*
X0404152Y0253009D01*
X0403787Y0252130D01*
X0403787Y0250265D01*
X0403762Y0250204D01*
X0403762Y0248772D01*
X0403787Y0248711D01*
X0403787Y0246847D01*
X0404152Y0245967D01*
X0404825Y0245294D01*
X0405705Y0244929D01*
X0409019Y0244929D01*
X0409899Y0245294D01*
X0410494Y0245888D01*
X0424338Y0245888D01*
X0424559Y0245980D01*
X0424650Y0245980D01*
X0426041Y0246556D01*
X0427106Y0247620D01*
X0427682Y0249011D01*
X0427682Y0250517D01*
X0427106Y0251907D01*
X0426041Y0252972D01*
X0424650Y0253548D01*
X0423145Y0253548D01*
X0422035Y0253088D01*
X0410494Y0253088D01*
X0409899Y0253683D01*
X0409019Y0254047D01*
X0405705Y0254047D01*
X0404825Y0253683D01*
X0404029Y0252714D02*
X0402821Y0252714D01*
X0402699Y0253009D02*
X0402025Y0253683D01*
X0401145Y0254047D01*
X0397831Y0254047D01*
X0396951Y0253683D01*
X0396357Y0253088D01*
X0395494Y0253088D01*
X0394899Y0253683D01*
X0394019Y0254047D01*
X0390705Y0254047D01*
X0389825Y0253683D01*
X0389152Y0253009D01*
X0388787Y0252130D01*
X0388787Y0250265D01*
X0388762Y0250204D01*
X0388762Y0248772D01*
X0388787Y0248711D01*
X0388787Y0246847D01*
X0389152Y0245967D01*
X0389825Y0245294D01*
X0390705Y0244929D01*
X0394019Y0244929D01*
X0394899Y0245294D01*
X0395494Y0245888D01*
X0396357Y0245888D01*
X0396951Y0245294D01*
X0397831Y0244929D01*
X0401145Y0244929D01*
X0402025Y0245294D01*
X0402699Y0245967D01*
X0403063Y0246847D01*
X0403063Y0248711D01*
X0403088Y0248772D01*
X0403088Y0250204D01*
X0403063Y0250265D01*
X0403063Y0252130D01*
X0402699Y0253009D01*
X0403063Y0251115D02*
X0403787Y0251115D01*
X0403762Y0249517D02*
X0403088Y0249517D01*
X0403063Y0247918D02*
X0403787Y0247918D01*
X0404006Y0246320D02*
X0402845Y0246320D01*
X0397722Y0239926D02*
X0439208Y0239926D01*
X0439208Y0241524D02*
X0395115Y0241524D01*
X0399320Y0238327D02*
X0439208Y0238327D01*
X0439208Y0236729D02*
X0400592Y0236729D01*
X0401515Y0235130D02*
X0439208Y0235130D01*
X0439208Y0233532D02*
X0402212Y0233532D01*
X0402640Y0231933D02*
X0439208Y0231933D01*
X0439208Y0230334D02*
X0402984Y0230334D01*
X0402984Y0228736D02*
X0439208Y0228736D01*
X0439208Y0227137D02*
X0402984Y0227137D01*
X0402617Y0225539D02*
X0439208Y0225539D01*
X0439563Y0223940D02*
X0402189Y0223940D01*
X0401465Y0222342D02*
X0441060Y0222342D01*
X0443583Y0223780D02*
X0442008Y0225354D01*
X0442008Y0244252D01*
X0444370Y0246614D01*
X0446732Y0246614D01*
X0443532Y0249517D02*
X0427682Y0249517D01*
X0427434Y0251115D02*
X0443532Y0251115D01*
X0442488Y0252714D02*
X0426299Y0252714D01*
X0422665Y0255911D02*
X0442488Y0255911D01*
X0442488Y0257509D02*
X0424138Y0257509D01*
X0424532Y0259108D02*
X0443454Y0259108D01*
X0443454Y0260706D02*
X0424225Y0260706D01*
X0423008Y0262305D02*
X0443454Y0262305D01*
X0443454Y0263903D02*
X0409367Y0263903D01*
X0410186Y0265502D02*
X0443454Y0265502D01*
X0443000Y0267100D02*
X0420341Y0267100D01*
X0422200Y0268699D02*
X0443000Y0268699D01*
X0443000Y0270297D02*
X0422957Y0270297D01*
X0422908Y0271896D02*
X0443319Y0271896D01*
X0443965Y0273494D02*
X0422054Y0273494D01*
X0416292Y0273494D02*
X0410009Y0273494D01*
X0416350Y0276691D02*
X0443965Y0276691D01*
X0443965Y0275093D02*
X0394415Y0275093D01*
X0395088Y0273494D02*
X0396841Y0273494D01*
X0390310Y0275093D02*
X0379800Y0275093D01*
X0379800Y0276691D02*
X0381205Y0276691D01*
X0381263Y0276476D02*
X0381552Y0275976D01*
X0381960Y0275567D01*
X0382460Y0275279D01*
X0383018Y0275129D01*
X0384488Y0275129D01*
X0384488Y0279488D01*
X0384488Y0279488D01*
X0381113Y0279488D01*
X0381113Y0277034D01*
X0381263Y0276476D01*
X0381113Y0278290D02*
X0379800Y0278290D01*
X0379800Y0279888D02*
X0381113Y0279888D01*
X0381113Y0279488D02*
X0384488Y0279488D01*
X0384488Y0279488D01*
X0384488Y0275129D01*
X0385958Y0275129D01*
X0386516Y0275279D01*
X0387016Y0275567D01*
X0387425Y0275976D01*
X0387713Y0276476D01*
X0387863Y0277034D01*
X0387863Y0279488D01*
X0384488Y0279488D01*
X0384488Y0279488D01*
X0384488Y0283847D01*
X0383018Y0283847D01*
X0382460Y0283698D01*
X0381960Y0283409D01*
X0381552Y0283001D01*
X0381263Y0282500D01*
X0381113Y0281942D01*
X0381113Y0279488D01*
X0381113Y0281487D02*
X0379800Y0281487D01*
X0379800Y0283085D02*
X0381637Y0283085D01*
X0379800Y0284684D02*
X0443155Y0284684D01*
X0443039Y0283085D02*
X0417975Y0283085D01*
X0418912Y0281487D02*
X0443039Y0281487D01*
X0443039Y0279888D02*
X0419020Y0279888D01*
X0418405Y0278290D02*
X0443724Y0278290D01*
X0450512Y0265164D02*
X0450544Y0265132D01*
X0450035Y0263902D01*
X0450035Y0262397D01*
X0450611Y0261006D01*
X0451675Y0259941D01*
X0453066Y0259365D01*
X0454572Y0259365D01*
X0455962Y0259941D01*
X0457027Y0261006D01*
X0457603Y0262397D01*
X0457603Y0263902D01*
X0457117Y0265076D01*
X0457502Y0265461D01*
X0461542Y0265461D01*
X0462718Y0265949D01*
X0463618Y0266849D01*
X0471070Y0274300D01*
X0471900Y0274300D01*
X0471900Y0271633D01*
X0472326Y0270604D01*
X0478217Y0264713D01*
X0479004Y0263925D01*
X0480034Y0263499D01*
X0487239Y0263499D01*
X0487239Y0260253D01*
X0486989Y0260150D01*
X0486059Y0260150D01*
X0485200Y0259794D01*
X0484844Y0260150D01*
X0483011Y0260150D01*
X0482506Y0260359D01*
X0470506Y0260359D01*
X0469477Y0259933D01*
X0458958Y0249414D01*
X0454634Y0249414D01*
X0453668Y0249814D01*
X0449932Y0249814D01*
X0449932Y0251316D01*
X0450159Y0251543D01*
X0450486Y0251354D01*
X0450944Y0251231D01*
X0453162Y0251231D01*
X0453162Y0254816D01*
X0453531Y0254816D01*
X0453531Y0255184D01*
X0457312Y0255184D01*
X0457312Y0257205D01*
X0457189Y0257663D01*
X0456952Y0258074D01*
X0456617Y0258409D01*
X0456207Y0258646D01*
X0455749Y0258768D01*
X0453531Y0258768D01*
X0453531Y0255184D01*
X0453162Y0255184D01*
X0453162Y0258768D01*
X0450944Y0258768D01*
X0450486Y0258646D01*
X0450159Y0258457D01*
X0449854Y0258762D01*
X0449854Y0264811D01*
X0450159Y0264811D01*
X0450512Y0265164D01*
X0450035Y0263903D02*
X0449854Y0263903D01*
X0449854Y0262305D02*
X0450073Y0262305D01*
X0449854Y0260706D02*
X0450911Y0260706D01*
X0449854Y0259108D02*
X0468652Y0259108D01*
X0467053Y0257509D02*
X0457230Y0257509D01*
X0457312Y0255911D02*
X0465455Y0255911D01*
X0463856Y0254312D02*
X0457312Y0254312D01*
X0457312Y0254816D02*
X0453531Y0254816D01*
X0453531Y0251231D01*
X0455749Y0251231D01*
X0456207Y0251354D01*
X0456617Y0251591D01*
X0456952Y0251926D01*
X0457189Y0252337D01*
X0457312Y0252795D01*
X0457312Y0254816D01*
X0457290Y0252714D02*
X0462258Y0252714D01*
X0460659Y0251115D02*
X0449932Y0251115D01*
X0453162Y0252714D02*
X0453531Y0252714D01*
X0453531Y0254312D02*
X0453162Y0254312D01*
X0453162Y0255911D02*
X0453531Y0255911D01*
X0453531Y0257509D02*
X0453162Y0257509D01*
X0456727Y0260706D02*
X0487239Y0260706D01*
X0487239Y0262305D02*
X0457565Y0262305D01*
X0457603Y0263903D02*
X0479058Y0263903D01*
X0477428Y0265502D02*
X0461639Y0265502D01*
X0463870Y0267100D02*
X0475830Y0267100D01*
X0474231Y0268699D02*
X0465468Y0268699D01*
X0467067Y0270297D02*
X0472633Y0270297D01*
X0471900Y0271896D02*
X0468665Y0271896D01*
X0470264Y0273494D02*
X0471900Y0273494D01*
X0474700Y0272190D02*
X0480591Y0266299D01*
X0488465Y0266299D01*
X0490039Y0264724D01*
X0490039Y0258346D01*
X0490827Y0257559D01*
X0497047Y0257559D01*
X0490827Y0257559D02*
X0488051Y0257559D01*
X0488051Y0252441D02*
X0488051Y0250925D01*
X0484528Y0247402D01*
X0487199Y0244721D02*
X0491249Y0244721D01*
X0491649Y0244887D02*
X0490258Y0244310D01*
X0489193Y0243246D01*
X0488617Y0241855D01*
X0488617Y0240350D01*
X0489000Y0239426D01*
X0489000Y0238778D01*
X0488550Y0238328D01*
X0488550Y0231672D01*
X0489722Y0230500D01*
X0492400Y0230500D01*
X0492400Y0230100D01*
X0488880Y0226580D01*
X0444808Y0226580D01*
X0444808Y0228265D01*
X0444920Y0228153D01*
X0446096Y0227666D01*
X0463904Y0227666D01*
X0465080Y0228153D01*
X0465981Y0229053D01*
X0468727Y0231800D01*
X0473250Y0231800D01*
X0473250Y0231672D01*
X0474422Y0230500D01*
X0482078Y0230500D01*
X0482278Y0230700D01*
X0483500Y0230700D01*
X0484987Y0230700D01*
X0485445Y0230823D01*
X0485855Y0231060D01*
X0486190Y0231395D01*
X0486427Y0231805D01*
X0486550Y0232263D01*
X0486550Y0235000D01*
X0486550Y0237737D01*
X0486427Y0238195D01*
X0486190Y0238605D01*
X0485855Y0238940D01*
X0485445Y0239177D01*
X0484987Y0239300D01*
X0483500Y0239300D01*
X0483500Y0235000D01*
X0483500Y0235000D01*
X0486550Y0235000D01*
X0483500Y0235000D01*
X0483500Y0235000D01*
X0483500Y0239300D01*
X0482800Y0239300D01*
X0482800Y0241462D01*
X0482374Y0242492D01*
X0477879Y0246987D01*
X0477879Y0252200D01*
X0478083Y0252200D01*
X0478174Y0251744D01*
X0478354Y0251309D01*
X0478616Y0250917D01*
X0478949Y0250584D01*
X0479340Y0250322D01*
X0479775Y0250142D01*
X0480237Y0250050D01*
X0481825Y0250050D01*
X0481319Y0249545D01*
X0480743Y0248154D01*
X0480743Y0246649D01*
X0481319Y0245258D01*
X0482384Y0244193D01*
X0483775Y0243617D01*
X0485280Y0243617D01*
X0486671Y0244193D01*
X0487736Y0245258D01*
X0488312Y0246649D01*
X0488312Y0247226D01*
X0490425Y0249339D01*
X0490550Y0249641D01*
X0500376Y0249641D01*
X0511288Y0238729D01*
X0512075Y0237941D01*
X0512488Y0237770D01*
X0512488Y0237203D01*
X0512876Y0236816D01*
X0501450Y0236816D01*
X0501450Y0238328D01*
X0500278Y0239500D01*
X0495834Y0239500D01*
X0496186Y0240350D01*
X0496186Y0241855D01*
X0495610Y0243246D01*
X0494545Y0244310D01*
X0493154Y0244887D01*
X0491649Y0244887D01*
X0493554Y0244721D02*
X0505295Y0244721D01*
X0503697Y0246320D02*
X0488175Y0246320D01*
X0489004Y0247918D02*
X0502098Y0247918D01*
X0500500Y0249517D02*
X0490498Y0249517D01*
X0488051Y0252441D02*
X0501535Y0252441D01*
X0513661Y0240315D01*
X0516339Y0240315D01*
X0516654Y0240000D01*
X0511690Y0238327D02*
X0501450Y0238327D01*
X0498200Y0235000D02*
X0499184Y0234016D01*
X0520748Y0234016D01*
X0523346Y0236614D01*
X0523346Y0240000D01*
X0532009Y0239926D02*
X0542840Y0239926D01*
X0542840Y0241524D02*
X0532009Y0241524D01*
X0532009Y0243123D02*
X0542840Y0243123D01*
X0542840Y0244721D02*
X0532009Y0244721D01*
X0532009Y0246320D02*
X0542840Y0246320D01*
X0542840Y0247918D02*
X0539308Y0247918D01*
X0541562Y0249517D02*
X0542840Y0249517D01*
X0542840Y0251115D02*
X0542727Y0251115D01*
X0542840Y0238327D02*
X0532009Y0238327D01*
X0532009Y0236729D02*
X0542840Y0236729D01*
X0542840Y0235130D02*
X0532009Y0235130D01*
X0532009Y0233532D02*
X0542840Y0233532D01*
X0542840Y0231933D02*
X0532009Y0231933D01*
X0530980Y0230334D02*
X0542840Y0230334D01*
X0543000Y0228736D02*
X0529381Y0228736D01*
X0527783Y0227137D02*
X0543500Y0227137D01*
X0544347Y0225539D02*
X0495759Y0225539D01*
X0494160Y0223940D02*
X0545659Y0223940D01*
X0547893Y0222342D02*
X0492562Y0222342D01*
X0490039Y0223780D02*
X0443583Y0223780D01*
X0444808Y0227137D02*
X0489438Y0227137D01*
X0491036Y0228736D02*
X0465663Y0228736D01*
X0467262Y0230334D02*
X0492400Y0230334D01*
X0495000Y0228740D02*
X0490039Y0223780D01*
X0488550Y0231933D02*
X0486462Y0231933D01*
X0486550Y0233532D02*
X0488550Y0233532D01*
X0488550Y0235130D02*
X0486550Y0235130D01*
X0486550Y0236729D02*
X0488550Y0236729D01*
X0488550Y0238327D02*
X0486351Y0238327D01*
X0483500Y0238327D02*
X0483500Y0238327D01*
X0483500Y0236729D02*
X0483500Y0236729D01*
X0483500Y0235130D02*
X0483500Y0235130D01*
X0483500Y0235000D02*
X0483500Y0230700D01*
X0483500Y0235000D01*
X0483500Y0235000D01*
X0483500Y0233532D02*
X0483500Y0233532D01*
X0483500Y0231933D02*
X0483500Y0231933D01*
X0480000Y0235000D02*
X0480000Y0240906D01*
X0475079Y0245827D01*
X0475079Y0254488D01*
X0475591Y0255000D01*
X0481949Y0255000D01*
X0481949Y0257559D02*
X0471063Y0257559D01*
X0460118Y0246614D01*
X0453661Y0246614D01*
X0453346Y0246299D01*
X0454386Y0249517D02*
X0459061Y0249517D01*
X0462492Y0245028D02*
X0472223Y0254759D01*
X0472279Y0254759D01*
X0472279Y0245270D01*
X0472705Y0244241D01*
X0473493Y0243453D01*
X0477200Y0239746D01*
X0477200Y0239500D01*
X0474422Y0239500D01*
X0473250Y0238328D01*
X0473250Y0238200D01*
X0466765Y0238200D01*
X0465589Y0237713D01*
X0461942Y0234066D01*
X0449932Y0234066D01*
X0449932Y0236316D01*
X0450000Y0236384D01*
X0450353Y0236031D01*
X0456340Y0236031D01*
X0457512Y0237203D01*
X0457512Y0242797D01*
X0456546Y0243762D01*
X0456546Y0243814D01*
X0460675Y0243814D01*
X0461704Y0244240D01*
X0462492Y0245028D01*
X0462185Y0244721D02*
X0472506Y0244721D01*
X0472279Y0246320D02*
X0463783Y0246320D01*
X0465382Y0247918D02*
X0472279Y0247918D01*
X0472279Y0249517D02*
X0466980Y0249517D01*
X0468579Y0251115D02*
X0472279Y0251115D01*
X0472279Y0252714D02*
X0470177Y0252714D01*
X0471776Y0254312D02*
X0472279Y0254312D01*
X0477879Y0251115D02*
X0478483Y0251115D01*
X0477879Y0249517D02*
X0481308Y0249517D01*
X0480743Y0247918D02*
X0477879Y0247918D01*
X0478546Y0246320D02*
X0480880Y0246320D01*
X0480144Y0244721D02*
X0481856Y0244721D01*
X0481743Y0243123D02*
X0489142Y0243123D01*
X0488617Y0241524D02*
X0482774Y0241524D01*
X0482800Y0239926D02*
X0488793Y0239926D01*
X0491800Y0240501D02*
X0492402Y0241102D01*
X0491800Y0240501D02*
X0491800Y0235000D01*
X0496010Y0239926D02*
X0510091Y0239926D01*
X0508492Y0241524D02*
X0496186Y0241524D01*
X0495661Y0243123D02*
X0506894Y0243123D01*
X0477020Y0239926D02*
X0457512Y0239926D01*
X0457512Y0241524D02*
X0475422Y0241524D01*
X0473823Y0243123D02*
X0457186Y0243123D01*
X0457512Y0238327D02*
X0473250Y0238327D01*
X0464605Y0236729D02*
X0457037Y0236729D01*
X0463006Y0235130D02*
X0449932Y0235130D01*
X0439208Y0243123D02*
X0379800Y0243123D01*
X0379800Y0244721D02*
X0439208Y0244721D01*
X0440116Y0246320D02*
X0425471Y0246320D01*
X0427229Y0247918D02*
X0441714Y0247918D01*
X0442488Y0254312D02*
X0379800Y0254312D01*
X0379800Y0252714D02*
X0381386Y0252714D01*
X0381263Y0252500D02*
X0381113Y0251942D01*
X0381113Y0249488D01*
X0381113Y0247034D01*
X0381263Y0246476D01*
X0381552Y0245976D01*
X0381960Y0245567D01*
X0382460Y0245279D01*
X0383018Y0245129D01*
X0384488Y0245129D01*
X0384488Y0249488D01*
X0384488Y0249488D01*
X0381113Y0249488D01*
X0384488Y0249488D01*
X0384488Y0249488D01*
X0384488Y0245129D01*
X0385958Y0245129D01*
X0386516Y0245279D01*
X0387016Y0245567D01*
X0387425Y0245976D01*
X0387713Y0246476D01*
X0387863Y0247034D01*
X0387863Y0249488D01*
X0384488Y0249488D01*
X0384488Y0249488D01*
X0384488Y0253847D01*
X0383018Y0253847D01*
X0382460Y0253698D01*
X0381960Y0253409D01*
X0381552Y0253001D01*
X0381263Y0252500D01*
X0381113Y0251115D02*
X0379800Y0251115D01*
X0379800Y0249517D02*
X0381113Y0249517D01*
X0381113Y0247918D02*
X0379800Y0247918D01*
X0379800Y0246320D02*
X0381353Y0246320D01*
X0384488Y0246320D02*
X0384488Y0246320D01*
X0384488Y0247918D02*
X0384488Y0247918D01*
X0384488Y0249488D02*
X0387863Y0249488D01*
X0387863Y0251942D01*
X0387713Y0252500D01*
X0387425Y0253001D01*
X0387016Y0253409D01*
X0386516Y0253698D01*
X0385958Y0253847D01*
X0384488Y0253847D01*
X0384488Y0249488D01*
X0384488Y0249488D01*
X0384488Y0249517D02*
X0384488Y0249517D01*
X0384488Y0251115D02*
X0384488Y0251115D01*
X0384488Y0252714D02*
X0384488Y0252714D01*
X0384488Y0255129D02*
X0385958Y0255129D01*
X0386516Y0255279D01*
X0387016Y0255567D01*
X0387425Y0255976D01*
X0387713Y0256476D01*
X0387863Y0257034D01*
X0387863Y0259488D01*
X0384488Y0259488D01*
X0384488Y0259488D01*
X0384488Y0255129D01*
X0383018Y0255129D01*
X0382460Y0255279D01*
X0381960Y0255567D01*
X0381552Y0255976D01*
X0381263Y0256476D01*
X0381113Y0257034D01*
X0381113Y0259488D01*
X0384488Y0259488D01*
X0384488Y0259488D01*
X0384488Y0255129D01*
X0384488Y0255911D02*
X0384488Y0255911D01*
X0384488Y0257509D02*
X0384488Y0257509D01*
X0384488Y0259108D02*
X0384488Y0259108D01*
X0384488Y0259488D02*
X0384488Y0259488D01*
X0381113Y0259488D01*
X0381113Y0261942D01*
X0381263Y0262500D01*
X0381552Y0263001D01*
X0381960Y0263409D01*
X0382460Y0263698D01*
X0383018Y0263847D01*
X0384488Y0263847D01*
X0384488Y0259488D01*
X0384488Y0259488D01*
X0387863Y0259488D01*
X0387863Y0261942D01*
X0387713Y0262500D01*
X0387425Y0263001D01*
X0387016Y0263409D01*
X0386516Y0263698D01*
X0385958Y0263847D01*
X0384488Y0263847D01*
X0384488Y0259488D01*
X0384488Y0260706D02*
X0384488Y0260706D01*
X0384488Y0262305D02*
X0384488Y0262305D01*
X0384488Y0265129D02*
X0385958Y0265129D01*
X0386516Y0265279D01*
X0387016Y0265567D01*
X0387425Y0265976D01*
X0387713Y0266476D01*
X0387863Y0267034D01*
X0387863Y0269488D01*
X0384488Y0269488D01*
X0384488Y0269488D01*
X0384488Y0265129D01*
X0383018Y0265129D01*
X0382460Y0265279D01*
X0381960Y0265567D01*
X0381552Y0265976D01*
X0381263Y0266476D01*
X0381113Y0267034D01*
X0381113Y0269488D01*
X0384488Y0269488D01*
X0384488Y0269488D01*
X0384488Y0265129D01*
X0384488Y0265502D02*
X0384488Y0265502D01*
X0384488Y0267100D02*
X0384488Y0267100D01*
X0384488Y0268699D02*
X0384488Y0268699D01*
X0384488Y0269488D02*
X0384488Y0269488D01*
X0381113Y0269488D01*
X0381113Y0271942D01*
X0381263Y0272500D01*
X0381552Y0273001D01*
X0381960Y0273409D01*
X0382460Y0273698D01*
X0383018Y0273847D01*
X0384488Y0273847D01*
X0384488Y0269488D01*
X0384488Y0269488D01*
X0387863Y0269488D01*
X0387863Y0271942D01*
X0387713Y0272500D01*
X0387425Y0273001D01*
X0387016Y0273409D01*
X0386516Y0273698D01*
X0385958Y0273847D01*
X0384488Y0273847D01*
X0384488Y0269488D01*
X0384488Y0270297D02*
X0384488Y0270297D01*
X0384488Y0271896D02*
X0384488Y0271896D01*
X0384488Y0273494D02*
X0384488Y0273494D01*
X0382108Y0273494D02*
X0379800Y0273494D01*
X0379800Y0271896D02*
X0381113Y0271896D01*
X0381113Y0270297D02*
X0379800Y0270297D01*
X0379800Y0268699D02*
X0381113Y0268699D01*
X0381113Y0267100D02*
X0379800Y0267100D01*
X0379800Y0265502D02*
X0382074Y0265502D01*
X0379800Y0263903D02*
X0390357Y0263903D01*
X0389617Y0265502D02*
X0386902Y0265502D01*
X0387863Y0267100D02*
X0388787Y0267100D01*
X0388787Y0268699D02*
X0387863Y0268699D01*
X0387863Y0270297D02*
X0388787Y0270297D01*
X0388787Y0271896D02*
X0387863Y0271896D01*
X0386868Y0273494D02*
X0389637Y0273494D01*
X0388852Y0276691D02*
X0387771Y0276691D01*
X0387863Y0278290D02*
X0388787Y0278290D01*
X0387863Y0279488D02*
X0387863Y0281942D01*
X0387713Y0282500D01*
X0387425Y0283001D01*
X0387016Y0283409D01*
X0386516Y0283698D01*
X0385958Y0283847D01*
X0384488Y0283847D01*
X0384488Y0279488D01*
X0384488Y0279488D01*
X0387863Y0279488D01*
X0387863Y0279888D02*
X0388762Y0279888D01*
X0388787Y0281487D02*
X0387863Y0281487D01*
X0387340Y0283085D02*
X0389228Y0283085D01*
X0384488Y0283085D02*
X0384488Y0283085D01*
X0384488Y0281487D02*
X0384488Y0281487D01*
X0384488Y0279888D02*
X0384488Y0279888D01*
X0384488Y0278290D02*
X0384488Y0278290D01*
X0384488Y0276691D02*
X0384488Y0276691D01*
X0395107Y0265502D02*
X0396664Y0265502D01*
X0397483Y0263903D02*
X0394367Y0263903D01*
X0388860Y0262305D02*
X0387766Y0262305D01*
X0387863Y0260706D02*
X0388787Y0260706D01*
X0388762Y0259108D02*
X0387863Y0259108D01*
X0387863Y0257509D02*
X0388787Y0257509D01*
X0389208Y0255911D02*
X0387359Y0255911D01*
X0387590Y0252714D02*
X0389029Y0252714D01*
X0388787Y0251115D02*
X0387863Y0251115D01*
X0387863Y0249517D02*
X0388762Y0249517D01*
X0388787Y0247918D02*
X0387863Y0247918D01*
X0387623Y0246320D02*
X0389006Y0246320D01*
X0382444Y0241524D02*
X0379800Y0241524D01*
X0379800Y0239926D02*
X0379837Y0239926D01*
X0379800Y0255911D02*
X0381617Y0255911D01*
X0381113Y0257509D02*
X0379800Y0257509D01*
X0379800Y0259108D02*
X0381113Y0259108D01*
X0381113Y0260706D02*
X0379800Y0260706D01*
X0379800Y0262305D02*
X0381210Y0262305D01*
X0400542Y0220743D02*
X0605363Y0220743D01*
X0604441Y0222342D02*
X0556759Y0222342D01*
X0559042Y0223940D02*
X0603717Y0223940D01*
X0603288Y0225539D02*
X0560401Y0225539D01*
X0561275Y0227137D02*
X0602921Y0227137D01*
X0602921Y0228736D02*
X0561794Y0228736D01*
X0561960Y0230334D02*
X0602921Y0230334D01*
X0603265Y0231933D02*
X0561960Y0231933D01*
X0561960Y0233532D02*
X0603693Y0233532D01*
X0604390Y0235130D02*
X0561960Y0235130D01*
X0561960Y0236729D02*
X0605313Y0236729D01*
X0606585Y0238327D02*
X0561960Y0238327D01*
X0561960Y0239926D02*
X0608184Y0239926D01*
X0610791Y0241524D02*
X0561960Y0241524D01*
X0561960Y0243123D02*
X0626106Y0243123D01*
X0626106Y0244721D02*
X0561960Y0244721D01*
X0561960Y0246320D02*
X0626106Y0246320D01*
X0626106Y0247918D02*
X0561960Y0247918D01*
X0561960Y0249517D02*
X0626106Y0249517D01*
X0626106Y0251115D02*
X0561960Y0251115D01*
X0561960Y0252714D02*
X0626106Y0252714D01*
X0626106Y0254312D02*
X0561960Y0254312D01*
X0561960Y0255911D02*
X0626106Y0255911D01*
X0626106Y0257509D02*
X0561960Y0257509D01*
X0561960Y0259108D02*
X0626106Y0259108D01*
X0626106Y0260706D02*
X0561960Y0260706D01*
X0561960Y0262305D02*
X0626106Y0262305D01*
X0626106Y0263903D02*
X0561960Y0263903D01*
X0561960Y0265502D02*
X0626106Y0265502D01*
X0626106Y0267100D02*
X0561960Y0267100D01*
X0561960Y0268699D02*
X0626106Y0268699D01*
X0626106Y0270297D02*
X0561960Y0270297D01*
X0561960Y0271896D02*
X0626106Y0271896D01*
X0626106Y0273494D02*
X0561960Y0273494D01*
X0561960Y0275093D02*
X0626106Y0275093D01*
X0626106Y0276691D02*
X0561960Y0276691D01*
X0561960Y0278290D02*
X0626106Y0278290D01*
X0626106Y0279888D02*
X0561960Y0279888D01*
X0561960Y0281487D02*
X0626106Y0281487D01*
X0626106Y0283085D02*
X0561960Y0283085D01*
X0561960Y0284684D02*
X0626106Y0284684D01*
X0626106Y0286282D02*
X0561960Y0286282D01*
X0561960Y0287881D02*
X0626106Y0287881D01*
X0626106Y0289479D02*
X0561960Y0289479D01*
X0561960Y0291078D02*
X0626106Y0291078D01*
X0626106Y0292676D02*
X0561745Y0292676D01*
X0561129Y0294275D02*
X0626106Y0294275D01*
X0626106Y0295873D02*
X0560036Y0295873D01*
X0558298Y0297472D02*
X0626106Y0297472D01*
X0626106Y0299070D02*
X0554895Y0299070D01*
X0556494Y0300669D02*
X0626106Y0300669D01*
X0626106Y0302268D02*
X0558092Y0302268D01*
X0559691Y0303866D02*
X0626106Y0303866D01*
X0626106Y0305465D02*
X0561289Y0305465D01*
X0562888Y0307063D02*
X0626106Y0307063D01*
X0626106Y0308662D02*
X0564486Y0308662D01*
X0566085Y0310260D02*
X0626106Y0310260D01*
X0626106Y0311859D02*
X0567683Y0311859D01*
X0569282Y0313457D02*
X0626106Y0313457D01*
X0626106Y0315056D02*
X0570880Y0315056D01*
X0572479Y0316654D02*
X0626106Y0316654D01*
X0626106Y0318253D02*
X0574077Y0318253D01*
X0575676Y0319851D02*
X0626106Y0319851D01*
X0626106Y0321450D02*
X0622156Y0321450D01*
X0623755Y0323048D02*
X0626106Y0323048D01*
X0626106Y0324647D02*
X0625353Y0324647D01*
X0615200Y0375799D02*
X0614800Y0375799D01*
X0614800Y0377398D02*
X0615200Y0377398D01*
X0615200Y0378996D02*
X0614800Y0378996D01*
X0614800Y0380595D02*
X0615200Y0380595D01*
X0615200Y0382193D02*
X0614800Y0382193D01*
X0614800Y0383792D02*
X0615200Y0383792D01*
X0626001Y0402974D02*
X0626106Y0402974D01*
X0626106Y0404572D02*
X0624402Y0404572D01*
X0626106Y0406171D02*
X0622590Y0406171D01*
X0620045Y0407769D02*
X0626106Y0407769D01*
X0626106Y0409368D02*
X0624188Y0409368D01*
X0545501Y0386037D02*
X0545448Y0385984D01*
X0526809Y0361412D02*
X0525910Y0361412D01*
X0525910Y0359814D02*
X0526809Y0359814D01*
X0526666Y0358215D02*
X0525910Y0358215D01*
X0525910Y0356617D02*
X0526413Y0356617D01*
X0526860Y0355018D02*
X0525910Y0355018D01*
X0525910Y0353420D02*
X0528590Y0353420D01*
X0532579Y0331041D02*
X0535271Y0331041D01*
X0535271Y0329442D02*
X0534178Y0329442D01*
X0529922Y0324647D02*
X0528352Y0324647D01*
X0529680Y0323048D02*
X0530540Y0323048D01*
X0530147Y0321450D02*
X0530044Y0321450D01*
X0529956Y0319851D02*
X0529707Y0319851D01*
X0530466Y0318253D02*
X0528447Y0318253D01*
X0524167Y0324647D02*
X0435208Y0324647D01*
X0433610Y0326245D02*
X0521315Y0326245D01*
X0537298Y0300669D02*
X0547443Y0300669D01*
X0545844Y0299070D02*
X0537524Y0299070D01*
X0537050Y0297472D02*
X0544246Y0297472D01*
X0542647Y0295873D02*
X0535187Y0295873D01*
X0519419Y0295873D02*
X0512267Y0295873D01*
X0514320Y0294275D02*
X0517820Y0294275D01*
X0516222Y0292676D02*
X0515919Y0292676D01*
X0474700Y0277500D02*
X0474700Y0272190D01*
X0483571Y0343829D02*
X0484524Y0343829D01*
X0484621Y0351821D02*
X0474623Y0351821D01*
X0472385Y0351821D02*
X0451569Y0351821D01*
X0453167Y0353420D02*
X0484339Y0353420D01*
X0484339Y0355018D02*
X0454766Y0355018D01*
X0456364Y0356617D02*
X0484339Y0356617D01*
X0484339Y0358215D02*
X0457963Y0358215D01*
X0459561Y0359814D02*
X0484809Y0359814D01*
X0470250Y0350223D02*
X0449970Y0350223D01*
X0448372Y0348624D02*
X0469720Y0348624D01*
X0469890Y0347026D02*
X0446773Y0347026D01*
X0444626Y0345427D02*
X0470914Y0345427D01*
X0435505Y0369405D02*
X0379800Y0369405D01*
X0379800Y0367806D02*
X0433906Y0367806D01*
X0432308Y0366208D02*
X0379800Y0366208D01*
X0379800Y0364609D02*
X0430709Y0364609D01*
X0427704Y0375799D02*
X0426804Y0375799D01*
X0426804Y0377398D02*
X0427704Y0377398D01*
X0427704Y0378996D02*
X0426804Y0378996D01*
X0421517Y0378996D02*
X0394253Y0378996D01*
X0394550Y0377398D02*
X0421517Y0377398D01*
X0422157Y0375799D02*
X0394550Y0375799D01*
X0393877Y0380595D02*
X0389881Y0380595D01*
X0396123Y0380595D02*
X0421517Y0380595D01*
X0421517Y0382193D02*
X0404423Y0382193D01*
X0399688Y0390186D02*
X0389881Y0390186D01*
X0394550Y0391784D02*
X0401866Y0391784D01*
X0394550Y0393383D02*
X0435818Y0393383D01*
X0432620Y0396580D02*
X0394550Y0396580D01*
X0394550Y0398178D02*
X0412124Y0398178D01*
X0410526Y0399777D02*
X0393074Y0399777D01*
X0411553Y0408932D02*
X0411553Y0412798D01*
X0412446Y0413691D01*
X0412953Y0414914D01*
X0413460Y0413691D01*
X0414951Y0412200D01*
X0416899Y0411393D01*
X0419007Y0411393D01*
X0420955Y0412200D01*
X0422446Y0413691D01*
X0422953Y0414914D01*
X0423460Y0413691D01*
X0424951Y0412200D01*
X0426899Y0411393D01*
X0429007Y0411393D01*
X0430955Y0412200D01*
X0432446Y0413691D01*
X0432953Y0414914D01*
X0433460Y0413691D01*
X0434951Y0412200D01*
X0436899Y0411393D01*
X0439007Y0411393D01*
X0440955Y0412200D01*
X0442446Y0413691D01*
X0443073Y0415206D01*
X0443226Y0414735D01*
X0443591Y0414020D01*
X0444063Y0413370D01*
X0444630Y0412803D01*
X0445280Y0412331D01*
X0445995Y0411967D01*
X0446758Y0411718D01*
X0447551Y0411593D01*
X0447867Y0411593D01*
X0447867Y0416607D01*
X0448039Y0416607D01*
X0448039Y0411593D01*
X0448354Y0411593D01*
X0449147Y0411718D01*
X0449910Y0411967D01*
X0450626Y0412331D01*
X0451275Y0412803D01*
X0451843Y0413370D01*
X0452315Y0414020D01*
X0452679Y0414735D01*
X0452832Y0415206D01*
X0453460Y0413691D01*
X0454951Y0412200D01*
X0455011Y0412175D01*
X0454649Y0411813D01*
X0441110Y0398273D01*
X0435386Y0403997D01*
X0434063Y0404545D01*
X0415940Y0404545D01*
X0411553Y0408932D01*
X0411553Y0409368D02*
X0452205Y0409368D01*
X0453803Y0410966D02*
X0411553Y0410966D01*
X0411553Y0412565D02*
X0414586Y0412565D01*
X0413264Y0414163D02*
X0412642Y0414163D01*
X0412716Y0407769D02*
X0450606Y0407769D01*
X0449007Y0406171D02*
X0414314Y0406171D01*
X0415913Y0404572D02*
X0447409Y0404572D01*
X0445810Y0402974D02*
X0436409Y0402974D01*
X0438007Y0401375D02*
X0444212Y0401375D01*
X0442613Y0399777D02*
X0439606Y0399777D01*
X0441320Y0412565D02*
X0444958Y0412565D01*
X0443518Y0414163D02*
X0442642Y0414163D01*
X0447867Y0414163D02*
X0448039Y0414163D01*
X0448039Y0412565D02*
X0447867Y0412565D01*
X0450948Y0412565D02*
X0454586Y0412565D01*
X0453264Y0414163D02*
X0452388Y0414163D01*
X0448039Y0415762D02*
X0447867Y0415762D01*
X0434586Y0412565D02*
X0431320Y0412565D01*
X0432642Y0414163D02*
X0433264Y0414163D01*
X0424586Y0412565D02*
X0421320Y0412565D01*
X0422642Y0414163D02*
X0423264Y0414163D01*
X0384950Y0374201D02*
X0383550Y0374201D01*
X0383550Y0372602D02*
X0384950Y0372602D01*
X0384950Y0371003D02*
X0383550Y0371003D01*
X0623461Y0241524D02*
X0626106Y0241524D01*
X0626068Y0239926D02*
X0626106Y0239926D01*
D27*
X0536890Y0235197D03*
X0510512Y0259606D03*
X0497913Y0268661D03*
X0470748Y0265118D03*
X0462874Y0241102D03*
X0486496Y0241890D03*
X0533346Y0285984D03*
X0564055Y0300551D03*
X0588858Y0333228D03*
X0551850Y0341890D03*
X0536890Y0342677D03*
X0530591Y0334016D03*
X0506969Y0331260D03*
X0507756Y0316299D03*
X0471535Y0332835D03*
X0506575Y0357638D03*
X0516417Y0372205D03*
X0532559Y0409606D03*
X0551850Y0408819D03*
X0571929Y0394646D03*
X0597520Y0396614D03*
X0597520Y0380079D03*
X0592402Y0365118D03*
X0449094Y0386772D03*
X0403425Y0396614D03*
X0412874Y0343071D03*
D28*
X0384250Y0375000D02*
X0384250Y0378712D01*
X0383750Y0379212D01*
X0383750Y0390788D02*
X0384250Y0391288D01*
X0384250Y0395000D01*
X0506969Y0408031D02*
X0509331Y0410394D01*
X0512874Y0410394D01*
X0512874Y0421614D01*
X0510906Y0386772D02*
X0510906Y0369055D01*
X0514409Y0365551D01*
X0523346Y0365551D02*
X0523346Y0365748D01*
X0529567Y0371969D01*
X0536681Y0371969D01*
X0536681Y0373937D02*
X0536629Y0373989D01*
X0532744Y0373989D01*
X0527835Y0378898D01*
X0524055Y0378898D01*
X0531535Y0370000D02*
X0527441Y0365906D01*
X0527441Y0360787D01*
X0526260Y0359606D01*
X0526260Y0352913D01*
X0536890Y0342283D01*
X0530197Y0356850D02*
X0529409Y0357638D01*
X0529409Y0364724D01*
X0532717Y0368031D01*
X0536681Y0368031D01*
X0536681Y0366063D02*
X0534685Y0366063D01*
X0533346Y0364724D01*
X0533346Y0362362D01*
X0534134Y0361575D01*
X0536681Y0370000D02*
X0531535Y0370000D01*
X0543976Y0370630D02*
X0543976Y0357244D01*
X0553319Y0366063D02*
X0557205Y0366063D01*
X0557756Y0365512D01*
X0557756Y0359213D01*
X0566417Y0350551D01*
X0568780Y0354488D02*
X0566417Y0356850D01*
X0566417Y0366299D01*
X0562717Y0370000D01*
X0553319Y0370000D01*
X0553319Y0368031D02*
X0559961Y0368031D01*
X0562480Y0365512D01*
X0565472Y0371969D02*
X0553319Y0371969D01*
X0553319Y0373937D02*
X0547283Y0373937D01*
X0543976Y0370630D01*
X0553319Y0373937D02*
X0570591Y0373937D01*
X0565472Y0371969D02*
X0571142Y0366299D01*
X0571142Y0360512D01*
X0571654Y0360000D01*
X0568780Y0354488D02*
X0578228Y0354488D01*
X0578228Y0359882D01*
X0578346Y0360000D01*
X0578346Y0367087D02*
X0577559Y0367874D01*
X0578346Y0375000D02*
X0577441Y0375906D01*
X0577441Y0378898D01*
X0570301Y0386037D01*
X0555999Y0386037D01*
X0545501Y0386037D01*
X0508425Y0255000D02*
X0488051Y0255000D01*
X0481949Y0252441D02*
X0478150Y0252441D01*
X0477835Y0252126D01*
X0477835Y0248189D01*
X0482953Y0243071D01*
X0485315Y0243071D01*
X0486496Y0241890D01*
X0495000Y0235000D02*
X0495000Y0228740D01*
X0496339Y0229291D02*
X0495000Y0230630D01*
X0495000Y0235000D01*
X0496339Y0229291D02*
X0526260Y0229291D01*
X0529409Y0232441D01*
X0529409Y0247402D01*
X0527047Y0249764D01*
X0523583Y0249764D01*
X0523346Y0250000D01*
X0516654Y0250000D02*
X0516102Y0250551D01*
X0512874Y0250551D01*
X0508425Y0255000D01*
X0481949Y0252441D02*
X0478543Y0252441D01*
X0478228Y0252126D01*
D29*
X0460906Y0268661D02*
X0453976Y0268661D01*
X0453858Y0268780D01*
X0453858Y0263189D01*
X0453819Y0263150D01*
X0447165Y0268780D02*
X0447165Y0281732D01*
X0447205Y0281772D01*
X0453898Y0281772D02*
X0454626Y0282500D01*
X0460906Y0282500D01*
X0460906Y0277323D01*
X0460906Y0282500D02*
X0474700Y0282500D01*
X0482618Y0282500D01*
X0483740Y0283622D01*
X0483740Y0300945D01*
X0485118Y0302323D01*
X0481378Y0306063D01*
X0446732Y0306063D01*
X0441220Y0300551D01*
X0406969Y0300551D01*
X0453484Y0293760D02*
X0453583Y0293858D01*
X0460906Y0293858D01*
X0462264Y0292500D01*
X0474700Y0292500D01*
X0485118Y0302323D02*
X0488858Y0306063D01*
X0535709Y0306063D01*
X0543583Y0313937D01*
X0543583Y0356850D01*
X0543976Y0357244D01*
X0571654Y0360000D02*
X0571654Y0366181D01*
X0571535Y0366299D01*
X0559331Y0401732D02*
X0549882Y0401732D01*
X0559331Y0401732D02*
X0567953Y0410354D01*
X0567953Y0416693D01*
X0587953Y0416693D02*
X0587953Y0413268D01*
X0597913Y0403307D01*
X0621142Y0403307D01*
X0626654Y0397795D01*
X0626654Y0330472D01*
X0619567Y0323386D01*
X0574685Y0323386D01*
X0544370Y0293071D01*
X0544370Y0272598D01*
X0539646Y0271024D02*
X0537283Y0273386D01*
X0519173Y0273386D01*
X0518386Y0274173D01*
X0518386Y0285118D01*
X0518346Y0285157D01*
X0518346Y0290276D01*
X0527047Y0298976D01*
X0533346Y0298976D01*
X0533740Y0299370D01*
X0533740Y0320236D02*
X0533740Y0325354D01*
X0529803Y0329291D01*
X0522323Y0329291D01*
X0514409Y0337205D01*
X0514409Y0365551D01*
X0498701Y0356063D02*
X0498653Y0356015D01*
X0490276Y0356015D01*
X0490254Y0348189D02*
X0473504Y0348189D01*
X0482165Y0340315D02*
X0490276Y0340315D01*
X0495300Y0282500D02*
X0505059Y0282500D01*
X0505787Y0283228D01*
X0507579Y0277500D02*
X0508937Y0276142D01*
X0507579Y0277500D02*
X0495300Y0277500D01*
X0512087Y0282047D02*
X0513661Y0280472D01*
X0513661Y0269843D01*
X0516654Y0266850D01*
X0516654Y0265000D01*
X0517205Y0256063D02*
X0516654Y0255512D01*
X0516654Y0250000D01*
X0523346Y0250000D02*
X0536732Y0250000D01*
X0539646Y0252126D01*
X0539646Y0271024D01*
X0476500Y0235000D02*
X0467402Y0235000D01*
X0463268Y0230866D01*
X0446732Y0230866D01*
X0446732Y0239921D01*
X0446654Y0240000D01*
X0446732Y0246614D02*
X0446732Y0254921D01*
X0446654Y0255000D01*
X0446654Y0268268D01*
X0447165Y0268780D01*
X0460906Y0268661D02*
X0469744Y0277500D01*
X0474700Y0277500D01*
X0453031Y0246614D02*
X0446732Y0246614D01*
X0453031Y0246614D02*
X0453346Y0246299D01*
X0453346Y0240000D01*
X0442008Y0394646D02*
X0457362Y0410000D01*
X0481260Y0410000D01*
X0487953Y0416693D01*
X0442008Y0394646D02*
X0439646Y0394646D01*
D30*
X0498701Y0356063D03*
X0482165Y0340315D03*
X0473504Y0348189D03*
X0487677Y0312756D03*
X0496339Y0311969D03*
X0526260Y0321417D03*
X0533740Y0320236D03*
X0533740Y0299370D03*
X0512087Y0282047D03*
X0505787Y0283228D03*
X0508937Y0276142D03*
X0534921Y0263937D03*
X0544370Y0272598D03*
X0517205Y0256063D03*
X0492402Y0241102D03*
X0484528Y0247402D03*
X0453819Y0263150D03*
X0460906Y0277323D03*
X0423898Y0249764D03*
X0420748Y0259213D03*
X0419173Y0271024D03*
X0415236Y0280472D03*
X0406969Y0300551D03*
X0530197Y0356850D03*
X0534134Y0361575D03*
X0562480Y0365512D03*
X0571535Y0366299D03*
X0564449Y0340709D03*
X0522717Y0385984D03*
X0549882Y0401732D03*
D31*
X0566417Y0350551D02*
X0615449Y0350551D01*
X0616000Y0350000D01*
X0427254Y0356063D02*
X0415000Y0356063D01*
X0413937Y0355000D01*
X0395000Y0385000D02*
X0390129Y0385000D01*
D32*
X0395000Y0385000D02*
X0395197Y0385197D01*
X0401063Y0385197D01*
X0403425Y0387559D01*
X0427254Y0387559D01*
X0417953Y0426693D02*
X0407953Y0426693D01*
M02*
