G75*
%MOIN*%
%OFA0B0*%
%FSLAX25Y25*%
%IPPOS*%
%LPD*%
%AMOC8*
5,1,8,0,0,1.08239X$1,22.5*
%
%ADD10C,0.01600*%
%ADD11C,0.01000*%
%ADD12C,0.00000*%
D10*
X0549494Y0228094D02*
X0550040Y0227647D01*
X0550662Y0227314D01*
X0551338Y0227109D01*
X0552040Y0227040D01*
X0552520Y0227040D01*
X0553187Y0227098D01*
X0553833Y0227272D01*
X0554440Y0227554D01*
X0554988Y0227938D01*
X0555462Y0228412D01*
X0555846Y0228960D01*
X0556128Y0229567D01*
X0556302Y0230213D01*
X0556360Y0230880D01*
X0556360Y0290400D01*
X0556303Y0290977D01*
X0556135Y0291533D01*
X0555861Y0292044D01*
X0555493Y0292493D01*
X0555044Y0292861D01*
X0554533Y0293135D01*
X0553977Y0293303D01*
X0553400Y0293360D01*
X0552200Y0293360D01*
X0551880Y0293520D01*
X0551209Y0293454D01*
X0550564Y0293258D01*
X0549969Y0292940D01*
X0549448Y0292512D01*
X0549020Y0291991D01*
X0548702Y0291396D01*
X0548506Y0290751D01*
X0548440Y0290080D01*
X0548440Y0230640D01*
X0548509Y0229938D01*
X0548714Y0229262D01*
X0549047Y0228640D01*
X0549494Y0228094D01*
X0548995Y0228736D02*
X0555689Y0228736D01*
X0556312Y0230334D02*
X0548470Y0230334D01*
X0548440Y0231933D02*
X0556360Y0231933D01*
X0556360Y0233532D02*
X0548440Y0233532D01*
X0548440Y0235130D02*
X0556360Y0235130D01*
X0556360Y0236729D02*
X0548440Y0236729D01*
X0548440Y0238327D02*
X0556360Y0238327D01*
X0556360Y0239926D02*
X0548440Y0239926D01*
X0548440Y0241524D02*
X0556360Y0241524D01*
X0556360Y0243123D02*
X0548440Y0243123D01*
X0548440Y0244721D02*
X0556360Y0244721D01*
X0556360Y0246320D02*
X0548440Y0246320D01*
X0548440Y0247918D02*
X0556360Y0247918D01*
X0556360Y0249517D02*
X0548440Y0249517D01*
X0548440Y0251115D02*
X0556360Y0251115D01*
X0556360Y0252714D02*
X0548440Y0252714D01*
X0548440Y0254312D02*
X0556360Y0254312D01*
X0556360Y0255911D02*
X0548440Y0255911D01*
X0548440Y0257509D02*
X0556360Y0257509D01*
X0556360Y0259108D02*
X0548440Y0259108D01*
X0548440Y0260706D02*
X0556360Y0260706D01*
X0556360Y0262305D02*
X0548440Y0262305D01*
X0548440Y0263903D02*
X0556360Y0263903D01*
X0556360Y0265502D02*
X0548440Y0265502D01*
X0548440Y0267100D02*
X0556360Y0267100D01*
X0556360Y0268699D02*
X0548440Y0268699D01*
X0548440Y0270297D02*
X0556360Y0270297D01*
X0556360Y0271896D02*
X0548440Y0271896D01*
X0548440Y0273494D02*
X0556360Y0273494D01*
X0556360Y0275093D02*
X0548440Y0275093D01*
X0548440Y0276691D02*
X0556360Y0276691D01*
X0556360Y0278290D02*
X0548440Y0278290D01*
X0548440Y0279888D02*
X0556360Y0279888D01*
X0556360Y0281487D02*
X0548440Y0281487D01*
X0548440Y0283085D02*
X0556360Y0283085D01*
X0556360Y0284684D02*
X0548440Y0284684D01*
X0548440Y0286282D02*
X0556360Y0286282D01*
X0556360Y0287881D02*
X0548440Y0287881D01*
X0548440Y0289479D02*
X0556360Y0289479D01*
X0556273Y0291078D02*
X0548605Y0291078D01*
X0549647Y0292676D02*
X0555270Y0292676D01*
X0553333Y0227137D02*
X0551244Y0227137D01*
D11*
X0394509Y0294737D02*
X0394203Y0294080D01*
X0393787Y0293486D01*
X0393274Y0292973D01*
X0392680Y0292557D01*
X0392023Y0292251D01*
X0391322Y0292063D01*
X0390600Y0292000D01*
X0375160Y0292000D01*
X0375160Y0358640D01*
X0375172Y0358701D01*
X0375207Y0358753D01*
X0375259Y0358788D01*
X0375320Y0358800D01*
X0391000Y0358800D01*
X0390600Y0358640D01*
X0391322Y0358577D01*
X0392023Y0358389D01*
X0392680Y0358083D01*
X0393274Y0357667D01*
X0393787Y0357154D01*
X0394203Y0356560D01*
X0394509Y0355903D01*
X0394697Y0355202D01*
X0394760Y0354480D01*
X0394760Y0296160D01*
X0394697Y0295438D01*
X0394509Y0294737D01*
X0394526Y0294799D02*
X0375160Y0294799D01*
X0375160Y0293801D02*
X0394007Y0293801D01*
X0393029Y0292802D02*
X0375160Y0292802D01*
X0375160Y0295798D02*
X0394728Y0295798D01*
X0394760Y0296796D02*
X0375160Y0296796D01*
X0375160Y0297795D02*
X0394760Y0297795D01*
X0394760Y0298793D02*
X0375160Y0298793D01*
X0375160Y0299792D02*
X0394760Y0299792D01*
X0394760Y0300790D02*
X0375160Y0300790D01*
X0375160Y0301789D02*
X0394760Y0301789D01*
X0394760Y0302787D02*
X0375160Y0302787D01*
X0375160Y0303786D02*
X0394760Y0303786D01*
X0394760Y0304784D02*
X0375160Y0304784D01*
X0375160Y0305783D02*
X0394760Y0305783D01*
X0394760Y0306781D02*
X0375160Y0306781D01*
X0375160Y0307780D02*
X0394760Y0307780D01*
X0394760Y0308778D02*
X0375160Y0308778D01*
X0375160Y0309777D02*
X0394760Y0309777D01*
X0394760Y0310775D02*
X0375160Y0310775D01*
X0375160Y0311774D02*
X0394760Y0311774D01*
X0394760Y0312772D02*
X0375160Y0312772D01*
X0375160Y0313771D02*
X0394760Y0313771D01*
X0394760Y0314769D02*
X0375160Y0314769D01*
X0375160Y0315768D02*
X0394760Y0315768D01*
X0394760Y0316766D02*
X0375160Y0316766D01*
X0375160Y0317765D02*
X0394760Y0317765D01*
X0394760Y0318763D02*
X0375160Y0318763D01*
X0375160Y0319762D02*
X0394760Y0319762D01*
X0394760Y0320760D02*
X0375160Y0320760D01*
X0375160Y0321759D02*
X0394760Y0321759D01*
X0394760Y0322757D02*
X0375160Y0322757D01*
X0375160Y0323756D02*
X0394760Y0323756D01*
X0394760Y0324754D02*
X0375160Y0324754D01*
X0375160Y0325753D02*
X0394760Y0325753D01*
X0394760Y0326751D02*
X0375160Y0326751D01*
X0375160Y0327750D02*
X0394760Y0327750D01*
X0394760Y0328748D02*
X0375160Y0328748D01*
X0375160Y0329747D02*
X0394760Y0329747D01*
X0394760Y0330745D02*
X0375160Y0330745D01*
X0375160Y0331744D02*
X0394760Y0331744D01*
X0394760Y0332742D02*
X0375160Y0332742D01*
X0375160Y0333741D02*
X0394760Y0333741D01*
X0394760Y0334739D02*
X0375160Y0334739D01*
X0375160Y0335738D02*
X0394760Y0335738D01*
X0394760Y0336737D02*
X0375160Y0336737D01*
X0375160Y0337735D02*
X0394760Y0337735D01*
X0394760Y0338734D02*
X0375160Y0338734D01*
X0375160Y0339732D02*
X0394760Y0339732D01*
X0394760Y0340731D02*
X0375160Y0340731D01*
X0375160Y0341729D02*
X0394760Y0341729D01*
X0394760Y0342728D02*
X0375160Y0342728D01*
X0375160Y0343726D02*
X0394760Y0343726D01*
X0394760Y0344725D02*
X0375160Y0344725D01*
X0375160Y0345723D02*
X0394760Y0345723D01*
X0394760Y0346722D02*
X0375160Y0346722D01*
X0375160Y0347720D02*
X0394760Y0347720D01*
X0394760Y0348719D02*
X0375160Y0348719D01*
X0375160Y0349717D02*
X0394760Y0349717D01*
X0394760Y0350716D02*
X0375160Y0350716D01*
X0375160Y0351714D02*
X0394760Y0351714D01*
X0394760Y0352713D02*
X0375160Y0352713D01*
X0375160Y0353711D02*
X0394760Y0353711D01*
X0394740Y0354710D02*
X0375160Y0354710D01*
X0375160Y0355708D02*
X0394561Y0355708D01*
X0394100Y0356707D02*
X0375160Y0356707D01*
X0375160Y0357705D02*
X0393219Y0357705D01*
X0390759Y0358704D02*
X0375174Y0358704D01*
D12*
X0375000Y0425630D02*
X0375000Y0226811D01*
X0375003Y0226526D01*
X0375014Y0226240D01*
X0375031Y0225955D01*
X0375055Y0225671D01*
X0375086Y0225387D01*
X0375124Y0225104D01*
X0375169Y0224823D01*
X0375220Y0224542D01*
X0375278Y0224262D01*
X0375343Y0223984D01*
X0375415Y0223708D01*
X0375493Y0223434D01*
X0375578Y0223161D01*
X0375670Y0222891D01*
X0375768Y0222623D01*
X0375872Y0222357D01*
X0375983Y0222094D01*
X0376100Y0221834D01*
X0376223Y0221576D01*
X0376353Y0221322D01*
X0376489Y0221071D01*
X0376630Y0220823D01*
X0376778Y0220579D01*
X0376931Y0220338D01*
X0377091Y0220102D01*
X0377256Y0219869D01*
X0377426Y0219640D01*
X0377602Y0219415D01*
X0377784Y0219195D01*
X0377970Y0218979D01*
X0378162Y0218768D01*
X0378359Y0218561D01*
X0378561Y0218359D01*
X0378768Y0218162D01*
X0378979Y0217970D01*
X0379195Y0217784D01*
X0379415Y0217602D01*
X0379640Y0217426D01*
X0379869Y0217256D01*
X0380102Y0217091D01*
X0380338Y0216931D01*
X0380579Y0216778D01*
X0380823Y0216630D01*
X0381071Y0216489D01*
X0381322Y0216353D01*
X0381576Y0216223D01*
X0381834Y0216100D01*
X0382094Y0215983D01*
X0382357Y0215872D01*
X0382623Y0215768D01*
X0382891Y0215670D01*
X0383161Y0215578D01*
X0383434Y0215493D01*
X0383708Y0215415D01*
X0383984Y0215343D01*
X0384262Y0215278D01*
X0384542Y0215220D01*
X0384823Y0215169D01*
X0385104Y0215124D01*
X0385387Y0215086D01*
X0385671Y0215055D01*
X0385955Y0215031D01*
X0386240Y0215014D01*
X0386526Y0215003D01*
X0386811Y0215000D01*
X0619094Y0215000D01*
X0619379Y0215003D01*
X0619665Y0215014D01*
X0619950Y0215031D01*
X0620234Y0215055D01*
X0620518Y0215086D01*
X0620801Y0215124D01*
X0621082Y0215169D01*
X0621363Y0215220D01*
X0621643Y0215278D01*
X0621921Y0215343D01*
X0622197Y0215415D01*
X0622471Y0215493D01*
X0622744Y0215578D01*
X0623014Y0215670D01*
X0623282Y0215768D01*
X0623548Y0215872D01*
X0623811Y0215983D01*
X0624071Y0216100D01*
X0624329Y0216223D01*
X0624583Y0216353D01*
X0624834Y0216489D01*
X0625082Y0216630D01*
X0625326Y0216778D01*
X0625567Y0216931D01*
X0625803Y0217091D01*
X0626036Y0217256D01*
X0626265Y0217426D01*
X0626490Y0217602D01*
X0626710Y0217784D01*
X0626926Y0217970D01*
X0627137Y0218162D01*
X0627344Y0218359D01*
X0627546Y0218561D01*
X0627743Y0218768D01*
X0627935Y0218979D01*
X0628121Y0219195D01*
X0628303Y0219415D01*
X0628479Y0219640D01*
X0628649Y0219869D01*
X0628814Y0220102D01*
X0628974Y0220338D01*
X0629127Y0220579D01*
X0629275Y0220823D01*
X0629416Y0221071D01*
X0629552Y0221322D01*
X0629682Y0221576D01*
X0629805Y0221834D01*
X0629922Y0222094D01*
X0630033Y0222357D01*
X0630137Y0222623D01*
X0630235Y0222891D01*
X0630327Y0223161D01*
X0630412Y0223434D01*
X0630490Y0223708D01*
X0630562Y0223984D01*
X0630627Y0224262D01*
X0630685Y0224542D01*
X0630736Y0224823D01*
X0630781Y0225104D01*
X0630819Y0225387D01*
X0630850Y0225671D01*
X0630874Y0225955D01*
X0630891Y0226240D01*
X0630902Y0226526D01*
X0630905Y0226811D01*
X0630906Y0226811D02*
X0630906Y0425630D01*
X0630905Y0425630D02*
X0630902Y0425915D01*
X0630891Y0426201D01*
X0630874Y0426486D01*
X0630850Y0426770D01*
X0630819Y0427054D01*
X0630781Y0427337D01*
X0630736Y0427618D01*
X0630685Y0427899D01*
X0630627Y0428179D01*
X0630562Y0428457D01*
X0630490Y0428733D01*
X0630412Y0429007D01*
X0630327Y0429280D01*
X0630235Y0429550D01*
X0630137Y0429818D01*
X0630033Y0430084D01*
X0629922Y0430347D01*
X0629805Y0430607D01*
X0629682Y0430865D01*
X0629552Y0431119D01*
X0629416Y0431370D01*
X0629275Y0431618D01*
X0629127Y0431862D01*
X0628974Y0432103D01*
X0628814Y0432339D01*
X0628649Y0432572D01*
X0628479Y0432801D01*
X0628303Y0433026D01*
X0628121Y0433246D01*
X0627935Y0433462D01*
X0627743Y0433673D01*
X0627546Y0433880D01*
X0627344Y0434082D01*
X0627137Y0434279D01*
X0626926Y0434471D01*
X0626710Y0434657D01*
X0626490Y0434839D01*
X0626265Y0435015D01*
X0626036Y0435185D01*
X0625803Y0435350D01*
X0625567Y0435510D01*
X0625326Y0435663D01*
X0625082Y0435811D01*
X0624834Y0435952D01*
X0624583Y0436088D01*
X0624329Y0436218D01*
X0624071Y0436341D01*
X0623811Y0436458D01*
X0623548Y0436569D01*
X0623282Y0436673D01*
X0623014Y0436771D01*
X0622744Y0436863D01*
X0622471Y0436948D01*
X0622197Y0437026D01*
X0621921Y0437098D01*
X0621643Y0437163D01*
X0621363Y0437221D01*
X0621082Y0437272D01*
X0620801Y0437317D01*
X0620518Y0437355D01*
X0620234Y0437386D01*
X0619950Y0437410D01*
X0619665Y0437427D01*
X0619379Y0437438D01*
X0619094Y0437441D01*
X0386811Y0437441D01*
X0386526Y0437438D01*
X0386240Y0437427D01*
X0385955Y0437410D01*
X0385671Y0437386D01*
X0385387Y0437355D01*
X0385104Y0437317D01*
X0384823Y0437272D01*
X0384542Y0437221D01*
X0384262Y0437163D01*
X0383984Y0437098D01*
X0383708Y0437026D01*
X0383434Y0436948D01*
X0383161Y0436863D01*
X0382891Y0436771D01*
X0382623Y0436673D01*
X0382357Y0436569D01*
X0382094Y0436458D01*
X0381834Y0436341D01*
X0381576Y0436218D01*
X0381322Y0436088D01*
X0381071Y0435952D01*
X0380823Y0435811D01*
X0380579Y0435663D01*
X0380338Y0435510D01*
X0380102Y0435350D01*
X0379869Y0435185D01*
X0379640Y0435015D01*
X0379415Y0434839D01*
X0379195Y0434657D01*
X0378979Y0434471D01*
X0378768Y0434279D01*
X0378561Y0434082D01*
X0378359Y0433880D01*
X0378162Y0433673D01*
X0377970Y0433462D01*
X0377784Y0433246D01*
X0377602Y0433026D01*
X0377426Y0432801D01*
X0377256Y0432572D01*
X0377091Y0432339D01*
X0376931Y0432103D01*
X0376778Y0431862D01*
X0376630Y0431618D01*
X0376489Y0431370D01*
X0376353Y0431119D01*
X0376223Y0430865D01*
X0376100Y0430607D01*
X0375983Y0430347D01*
X0375872Y0430084D01*
X0375768Y0429818D01*
X0375670Y0429550D01*
X0375578Y0429280D01*
X0375493Y0429007D01*
X0375415Y0428733D01*
X0375343Y0428457D01*
X0375278Y0428179D01*
X0375220Y0427899D01*
X0375169Y0427618D01*
X0375124Y0427337D01*
X0375086Y0427054D01*
X0375055Y0426770D01*
X0375031Y0426486D01*
X0375014Y0426201D01*
X0375003Y0425915D01*
X0375000Y0425630D01*
X0383268Y0421693D02*
X0383270Y0421841D01*
X0383276Y0421989D01*
X0383286Y0422137D01*
X0383300Y0422284D01*
X0383318Y0422431D01*
X0383339Y0422577D01*
X0383365Y0422723D01*
X0383395Y0422868D01*
X0383428Y0423012D01*
X0383466Y0423155D01*
X0383507Y0423297D01*
X0383552Y0423438D01*
X0383600Y0423578D01*
X0383653Y0423717D01*
X0383709Y0423854D01*
X0383769Y0423989D01*
X0383832Y0424123D01*
X0383899Y0424255D01*
X0383970Y0424385D01*
X0384044Y0424513D01*
X0384121Y0424639D01*
X0384202Y0424763D01*
X0384286Y0424885D01*
X0384373Y0425004D01*
X0384464Y0425121D01*
X0384558Y0425236D01*
X0384654Y0425348D01*
X0384754Y0425458D01*
X0384856Y0425564D01*
X0384962Y0425668D01*
X0385070Y0425769D01*
X0385181Y0425867D01*
X0385294Y0425963D01*
X0385410Y0426055D01*
X0385528Y0426144D01*
X0385649Y0426229D01*
X0385772Y0426312D01*
X0385897Y0426391D01*
X0386024Y0426467D01*
X0386153Y0426539D01*
X0386284Y0426608D01*
X0386417Y0426673D01*
X0386552Y0426734D01*
X0386688Y0426792D01*
X0386825Y0426847D01*
X0386964Y0426897D01*
X0387105Y0426944D01*
X0387246Y0426987D01*
X0387389Y0427027D01*
X0387533Y0427062D01*
X0387677Y0427094D01*
X0387823Y0427121D01*
X0387969Y0427145D01*
X0388116Y0427165D01*
X0388263Y0427181D01*
X0388410Y0427193D01*
X0388558Y0427201D01*
X0388706Y0427205D01*
X0388854Y0427205D01*
X0389002Y0427201D01*
X0389150Y0427193D01*
X0389297Y0427181D01*
X0389444Y0427165D01*
X0389591Y0427145D01*
X0389737Y0427121D01*
X0389883Y0427094D01*
X0390027Y0427062D01*
X0390171Y0427027D01*
X0390314Y0426987D01*
X0390455Y0426944D01*
X0390596Y0426897D01*
X0390735Y0426847D01*
X0390872Y0426792D01*
X0391008Y0426734D01*
X0391143Y0426673D01*
X0391276Y0426608D01*
X0391407Y0426539D01*
X0391536Y0426467D01*
X0391663Y0426391D01*
X0391788Y0426312D01*
X0391911Y0426229D01*
X0392032Y0426144D01*
X0392150Y0426055D01*
X0392266Y0425963D01*
X0392379Y0425867D01*
X0392490Y0425769D01*
X0392598Y0425668D01*
X0392704Y0425564D01*
X0392806Y0425458D01*
X0392906Y0425348D01*
X0393002Y0425236D01*
X0393096Y0425121D01*
X0393187Y0425004D01*
X0393274Y0424885D01*
X0393358Y0424763D01*
X0393439Y0424639D01*
X0393516Y0424513D01*
X0393590Y0424385D01*
X0393661Y0424255D01*
X0393728Y0424123D01*
X0393791Y0423989D01*
X0393851Y0423854D01*
X0393907Y0423717D01*
X0393960Y0423578D01*
X0394008Y0423438D01*
X0394053Y0423297D01*
X0394094Y0423155D01*
X0394132Y0423012D01*
X0394165Y0422868D01*
X0394195Y0422723D01*
X0394221Y0422577D01*
X0394242Y0422431D01*
X0394260Y0422284D01*
X0394274Y0422137D01*
X0394284Y0421989D01*
X0394290Y0421841D01*
X0394292Y0421693D01*
X0394290Y0421545D01*
X0394284Y0421397D01*
X0394274Y0421249D01*
X0394260Y0421102D01*
X0394242Y0420955D01*
X0394221Y0420809D01*
X0394195Y0420663D01*
X0394165Y0420518D01*
X0394132Y0420374D01*
X0394094Y0420231D01*
X0394053Y0420089D01*
X0394008Y0419948D01*
X0393960Y0419808D01*
X0393907Y0419669D01*
X0393851Y0419532D01*
X0393791Y0419397D01*
X0393728Y0419263D01*
X0393661Y0419131D01*
X0393590Y0419001D01*
X0393516Y0418873D01*
X0393439Y0418747D01*
X0393358Y0418623D01*
X0393274Y0418501D01*
X0393187Y0418382D01*
X0393096Y0418265D01*
X0393002Y0418150D01*
X0392906Y0418038D01*
X0392806Y0417928D01*
X0392704Y0417822D01*
X0392598Y0417718D01*
X0392490Y0417617D01*
X0392379Y0417519D01*
X0392266Y0417423D01*
X0392150Y0417331D01*
X0392032Y0417242D01*
X0391911Y0417157D01*
X0391788Y0417074D01*
X0391663Y0416995D01*
X0391536Y0416919D01*
X0391407Y0416847D01*
X0391276Y0416778D01*
X0391143Y0416713D01*
X0391008Y0416652D01*
X0390872Y0416594D01*
X0390735Y0416539D01*
X0390596Y0416489D01*
X0390455Y0416442D01*
X0390314Y0416399D01*
X0390171Y0416359D01*
X0390027Y0416324D01*
X0389883Y0416292D01*
X0389737Y0416265D01*
X0389591Y0416241D01*
X0389444Y0416221D01*
X0389297Y0416205D01*
X0389150Y0416193D01*
X0389002Y0416185D01*
X0388854Y0416181D01*
X0388706Y0416181D01*
X0388558Y0416185D01*
X0388410Y0416193D01*
X0388263Y0416205D01*
X0388116Y0416221D01*
X0387969Y0416241D01*
X0387823Y0416265D01*
X0387677Y0416292D01*
X0387533Y0416324D01*
X0387389Y0416359D01*
X0387246Y0416399D01*
X0387105Y0416442D01*
X0386964Y0416489D01*
X0386825Y0416539D01*
X0386688Y0416594D01*
X0386552Y0416652D01*
X0386417Y0416713D01*
X0386284Y0416778D01*
X0386153Y0416847D01*
X0386024Y0416919D01*
X0385897Y0416995D01*
X0385772Y0417074D01*
X0385649Y0417157D01*
X0385528Y0417242D01*
X0385410Y0417331D01*
X0385294Y0417423D01*
X0385181Y0417519D01*
X0385070Y0417617D01*
X0384962Y0417718D01*
X0384856Y0417822D01*
X0384754Y0417928D01*
X0384654Y0418038D01*
X0384558Y0418150D01*
X0384464Y0418265D01*
X0384373Y0418382D01*
X0384286Y0418501D01*
X0384202Y0418623D01*
X0384121Y0418747D01*
X0384044Y0418873D01*
X0383970Y0419001D01*
X0383899Y0419131D01*
X0383832Y0419263D01*
X0383769Y0419397D01*
X0383709Y0419532D01*
X0383653Y0419669D01*
X0383600Y0419808D01*
X0383552Y0419948D01*
X0383507Y0420089D01*
X0383466Y0420231D01*
X0383428Y0420374D01*
X0383395Y0420518D01*
X0383365Y0420663D01*
X0383339Y0420809D01*
X0383318Y0420955D01*
X0383300Y0421102D01*
X0383286Y0421249D01*
X0383276Y0421397D01*
X0383270Y0421545D01*
X0383268Y0421693D01*
X0611614Y0421693D02*
X0611616Y0421841D01*
X0611622Y0421989D01*
X0611632Y0422137D01*
X0611646Y0422284D01*
X0611664Y0422431D01*
X0611685Y0422577D01*
X0611711Y0422723D01*
X0611741Y0422868D01*
X0611774Y0423012D01*
X0611812Y0423155D01*
X0611853Y0423297D01*
X0611898Y0423438D01*
X0611946Y0423578D01*
X0611999Y0423717D01*
X0612055Y0423854D01*
X0612115Y0423989D01*
X0612178Y0424123D01*
X0612245Y0424255D01*
X0612316Y0424385D01*
X0612390Y0424513D01*
X0612467Y0424639D01*
X0612548Y0424763D01*
X0612632Y0424885D01*
X0612719Y0425004D01*
X0612810Y0425121D01*
X0612904Y0425236D01*
X0613000Y0425348D01*
X0613100Y0425458D01*
X0613202Y0425564D01*
X0613308Y0425668D01*
X0613416Y0425769D01*
X0613527Y0425867D01*
X0613640Y0425963D01*
X0613756Y0426055D01*
X0613874Y0426144D01*
X0613995Y0426229D01*
X0614118Y0426312D01*
X0614243Y0426391D01*
X0614370Y0426467D01*
X0614499Y0426539D01*
X0614630Y0426608D01*
X0614763Y0426673D01*
X0614898Y0426734D01*
X0615034Y0426792D01*
X0615171Y0426847D01*
X0615310Y0426897D01*
X0615451Y0426944D01*
X0615592Y0426987D01*
X0615735Y0427027D01*
X0615879Y0427062D01*
X0616023Y0427094D01*
X0616169Y0427121D01*
X0616315Y0427145D01*
X0616462Y0427165D01*
X0616609Y0427181D01*
X0616756Y0427193D01*
X0616904Y0427201D01*
X0617052Y0427205D01*
X0617200Y0427205D01*
X0617348Y0427201D01*
X0617496Y0427193D01*
X0617643Y0427181D01*
X0617790Y0427165D01*
X0617937Y0427145D01*
X0618083Y0427121D01*
X0618229Y0427094D01*
X0618373Y0427062D01*
X0618517Y0427027D01*
X0618660Y0426987D01*
X0618801Y0426944D01*
X0618942Y0426897D01*
X0619081Y0426847D01*
X0619218Y0426792D01*
X0619354Y0426734D01*
X0619489Y0426673D01*
X0619622Y0426608D01*
X0619753Y0426539D01*
X0619882Y0426467D01*
X0620009Y0426391D01*
X0620134Y0426312D01*
X0620257Y0426229D01*
X0620378Y0426144D01*
X0620496Y0426055D01*
X0620612Y0425963D01*
X0620725Y0425867D01*
X0620836Y0425769D01*
X0620944Y0425668D01*
X0621050Y0425564D01*
X0621152Y0425458D01*
X0621252Y0425348D01*
X0621348Y0425236D01*
X0621442Y0425121D01*
X0621533Y0425004D01*
X0621620Y0424885D01*
X0621704Y0424763D01*
X0621785Y0424639D01*
X0621862Y0424513D01*
X0621936Y0424385D01*
X0622007Y0424255D01*
X0622074Y0424123D01*
X0622137Y0423989D01*
X0622197Y0423854D01*
X0622253Y0423717D01*
X0622306Y0423578D01*
X0622354Y0423438D01*
X0622399Y0423297D01*
X0622440Y0423155D01*
X0622478Y0423012D01*
X0622511Y0422868D01*
X0622541Y0422723D01*
X0622567Y0422577D01*
X0622588Y0422431D01*
X0622606Y0422284D01*
X0622620Y0422137D01*
X0622630Y0421989D01*
X0622636Y0421841D01*
X0622638Y0421693D01*
X0622636Y0421545D01*
X0622630Y0421397D01*
X0622620Y0421249D01*
X0622606Y0421102D01*
X0622588Y0420955D01*
X0622567Y0420809D01*
X0622541Y0420663D01*
X0622511Y0420518D01*
X0622478Y0420374D01*
X0622440Y0420231D01*
X0622399Y0420089D01*
X0622354Y0419948D01*
X0622306Y0419808D01*
X0622253Y0419669D01*
X0622197Y0419532D01*
X0622137Y0419397D01*
X0622074Y0419263D01*
X0622007Y0419131D01*
X0621936Y0419001D01*
X0621862Y0418873D01*
X0621785Y0418747D01*
X0621704Y0418623D01*
X0621620Y0418501D01*
X0621533Y0418382D01*
X0621442Y0418265D01*
X0621348Y0418150D01*
X0621252Y0418038D01*
X0621152Y0417928D01*
X0621050Y0417822D01*
X0620944Y0417718D01*
X0620836Y0417617D01*
X0620725Y0417519D01*
X0620612Y0417423D01*
X0620496Y0417331D01*
X0620378Y0417242D01*
X0620257Y0417157D01*
X0620134Y0417074D01*
X0620009Y0416995D01*
X0619882Y0416919D01*
X0619753Y0416847D01*
X0619622Y0416778D01*
X0619489Y0416713D01*
X0619354Y0416652D01*
X0619218Y0416594D01*
X0619081Y0416539D01*
X0618942Y0416489D01*
X0618801Y0416442D01*
X0618660Y0416399D01*
X0618517Y0416359D01*
X0618373Y0416324D01*
X0618229Y0416292D01*
X0618083Y0416265D01*
X0617937Y0416241D01*
X0617790Y0416221D01*
X0617643Y0416205D01*
X0617496Y0416193D01*
X0617348Y0416185D01*
X0617200Y0416181D01*
X0617052Y0416181D01*
X0616904Y0416185D01*
X0616756Y0416193D01*
X0616609Y0416205D01*
X0616462Y0416221D01*
X0616315Y0416241D01*
X0616169Y0416265D01*
X0616023Y0416292D01*
X0615879Y0416324D01*
X0615735Y0416359D01*
X0615592Y0416399D01*
X0615451Y0416442D01*
X0615310Y0416489D01*
X0615171Y0416539D01*
X0615034Y0416594D01*
X0614898Y0416652D01*
X0614763Y0416713D01*
X0614630Y0416778D01*
X0614499Y0416847D01*
X0614370Y0416919D01*
X0614243Y0416995D01*
X0614118Y0417074D01*
X0613995Y0417157D01*
X0613874Y0417242D01*
X0613756Y0417331D01*
X0613640Y0417423D01*
X0613527Y0417519D01*
X0613416Y0417617D01*
X0613308Y0417718D01*
X0613202Y0417822D01*
X0613100Y0417928D01*
X0613000Y0418038D01*
X0612904Y0418150D01*
X0612810Y0418265D01*
X0612719Y0418382D01*
X0612632Y0418501D01*
X0612548Y0418623D01*
X0612467Y0418747D01*
X0612390Y0418873D01*
X0612316Y0419001D01*
X0612245Y0419131D01*
X0612178Y0419263D01*
X0612115Y0419397D01*
X0612055Y0419532D01*
X0611999Y0419669D01*
X0611946Y0419808D01*
X0611898Y0419948D01*
X0611853Y0420089D01*
X0611812Y0420231D01*
X0611774Y0420374D01*
X0611741Y0420518D01*
X0611711Y0420663D01*
X0611685Y0420809D01*
X0611664Y0420955D01*
X0611646Y0421102D01*
X0611632Y0421249D01*
X0611622Y0421397D01*
X0611616Y0421545D01*
X0611614Y0421693D01*
X0611614Y0228780D02*
X0611616Y0228928D01*
X0611622Y0229076D01*
X0611632Y0229224D01*
X0611646Y0229371D01*
X0611664Y0229518D01*
X0611685Y0229664D01*
X0611711Y0229810D01*
X0611741Y0229955D01*
X0611774Y0230099D01*
X0611812Y0230242D01*
X0611853Y0230384D01*
X0611898Y0230525D01*
X0611946Y0230665D01*
X0611999Y0230804D01*
X0612055Y0230941D01*
X0612115Y0231076D01*
X0612178Y0231210D01*
X0612245Y0231342D01*
X0612316Y0231472D01*
X0612390Y0231600D01*
X0612467Y0231726D01*
X0612548Y0231850D01*
X0612632Y0231972D01*
X0612719Y0232091D01*
X0612810Y0232208D01*
X0612904Y0232323D01*
X0613000Y0232435D01*
X0613100Y0232545D01*
X0613202Y0232651D01*
X0613308Y0232755D01*
X0613416Y0232856D01*
X0613527Y0232954D01*
X0613640Y0233050D01*
X0613756Y0233142D01*
X0613874Y0233231D01*
X0613995Y0233316D01*
X0614118Y0233399D01*
X0614243Y0233478D01*
X0614370Y0233554D01*
X0614499Y0233626D01*
X0614630Y0233695D01*
X0614763Y0233760D01*
X0614898Y0233821D01*
X0615034Y0233879D01*
X0615171Y0233934D01*
X0615310Y0233984D01*
X0615451Y0234031D01*
X0615592Y0234074D01*
X0615735Y0234114D01*
X0615879Y0234149D01*
X0616023Y0234181D01*
X0616169Y0234208D01*
X0616315Y0234232D01*
X0616462Y0234252D01*
X0616609Y0234268D01*
X0616756Y0234280D01*
X0616904Y0234288D01*
X0617052Y0234292D01*
X0617200Y0234292D01*
X0617348Y0234288D01*
X0617496Y0234280D01*
X0617643Y0234268D01*
X0617790Y0234252D01*
X0617937Y0234232D01*
X0618083Y0234208D01*
X0618229Y0234181D01*
X0618373Y0234149D01*
X0618517Y0234114D01*
X0618660Y0234074D01*
X0618801Y0234031D01*
X0618942Y0233984D01*
X0619081Y0233934D01*
X0619218Y0233879D01*
X0619354Y0233821D01*
X0619489Y0233760D01*
X0619622Y0233695D01*
X0619753Y0233626D01*
X0619882Y0233554D01*
X0620009Y0233478D01*
X0620134Y0233399D01*
X0620257Y0233316D01*
X0620378Y0233231D01*
X0620496Y0233142D01*
X0620612Y0233050D01*
X0620725Y0232954D01*
X0620836Y0232856D01*
X0620944Y0232755D01*
X0621050Y0232651D01*
X0621152Y0232545D01*
X0621252Y0232435D01*
X0621348Y0232323D01*
X0621442Y0232208D01*
X0621533Y0232091D01*
X0621620Y0231972D01*
X0621704Y0231850D01*
X0621785Y0231726D01*
X0621862Y0231600D01*
X0621936Y0231472D01*
X0622007Y0231342D01*
X0622074Y0231210D01*
X0622137Y0231076D01*
X0622197Y0230941D01*
X0622253Y0230804D01*
X0622306Y0230665D01*
X0622354Y0230525D01*
X0622399Y0230384D01*
X0622440Y0230242D01*
X0622478Y0230099D01*
X0622511Y0229955D01*
X0622541Y0229810D01*
X0622567Y0229664D01*
X0622588Y0229518D01*
X0622606Y0229371D01*
X0622620Y0229224D01*
X0622630Y0229076D01*
X0622636Y0228928D01*
X0622638Y0228780D01*
X0622636Y0228632D01*
X0622630Y0228484D01*
X0622620Y0228336D01*
X0622606Y0228189D01*
X0622588Y0228042D01*
X0622567Y0227896D01*
X0622541Y0227750D01*
X0622511Y0227605D01*
X0622478Y0227461D01*
X0622440Y0227318D01*
X0622399Y0227176D01*
X0622354Y0227035D01*
X0622306Y0226895D01*
X0622253Y0226756D01*
X0622197Y0226619D01*
X0622137Y0226484D01*
X0622074Y0226350D01*
X0622007Y0226218D01*
X0621936Y0226088D01*
X0621862Y0225960D01*
X0621785Y0225834D01*
X0621704Y0225710D01*
X0621620Y0225588D01*
X0621533Y0225469D01*
X0621442Y0225352D01*
X0621348Y0225237D01*
X0621252Y0225125D01*
X0621152Y0225015D01*
X0621050Y0224909D01*
X0620944Y0224805D01*
X0620836Y0224704D01*
X0620725Y0224606D01*
X0620612Y0224510D01*
X0620496Y0224418D01*
X0620378Y0224329D01*
X0620257Y0224244D01*
X0620134Y0224161D01*
X0620009Y0224082D01*
X0619882Y0224006D01*
X0619753Y0223934D01*
X0619622Y0223865D01*
X0619489Y0223800D01*
X0619354Y0223739D01*
X0619218Y0223681D01*
X0619081Y0223626D01*
X0618942Y0223576D01*
X0618801Y0223529D01*
X0618660Y0223486D01*
X0618517Y0223446D01*
X0618373Y0223411D01*
X0618229Y0223379D01*
X0618083Y0223352D01*
X0617937Y0223328D01*
X0617790Y0223308D01*
X0617643Y0223292D01*
X0617496Y0223280D01*
X0617348Y0223272D01*
X0617200Y0223268D01*
X0617052Y0223268D01*
X0616904Y0223272D01*
X0616756Y0223280D01*
X0616609Y0223292D01*
X0616462Y0223308D01*
X0616315Y0223328D01*
X0616169Y0223352D01*
X0616023Y0223379D01*
X0615879Y0223411D01*
X0615735Y0223446D01*
X0615592Y0223486D01*
X0615451Y0223529D01*
X0615310Y0223576D01*
X0615171Y0223626D01*
X0615034Y0223681D01*
X0614898Y0223739D01*
X0614763Y0223800D01*
X0614630Y0223865D01*
X0614499Y0223934D01*
X0614370Y0224006D01*
X0614243Y0224082D01*
X0614118Y0224161D01*
X0613995Y0224244D01*
X0613874Y0224329D01*
X0613756Y0224418D01*
X0613640Y0224510D01*
X0613527Y0224606D01*
X0613416Y0224704D01*
X0613308Y0224805D01*
X0613202Y0224909D01*
X0613100Y0225015D01*
X0613000Y0225125D01*
X0612904Y0225237D01*
X0612810Y0225352D01*
X0612719Y0225469D01*
X0612632Y0225588D01*
X0612548Y0225710D01*
X0612467Y0225834D01*
X0612390Y0225960D01*
X0612316Y0226088D01*
X0612245Y0226218D01*
X0612178Y0226350D01*
X0612115Y0226484D01*
X0612055Y0226619D01*
X0611999Y0226756D01*
X0611946Y0226895D01*
X0611898Y0227035D01*
X0611853Y0227176D01*
X0611812Y0227318D01*
X0611774Y0227461D01*
X0611741Y0227605D01*
X0611711Y0227750D01*
X0611685Y0227896D01*
X0611664Y0228042D01*
X0611646Y0228189D01*
X0611632Y0228336D01*
X0611622Y0228484D01*
X0611616Y0228632D01*
X0611614Y0228780D01*
X0383268Y0228780D02*
X0383270Y0228928D01*
X0383276Y0229076D01*
X0383286Y0229224D01*
X0383300Y0229371D01*
X0383318Y0229518D01*
X0383339Y0229664D01*
X0383365Y0229810D01*
X0383395Y0229955D01*
X0383428Y0230099D01*
X0383466Y0230242D01*
X0383507Y0230384D01*
X0383552Y0230525D01*
X0383600Y0230665D01*
X0383653Y0230804D01*
X0383709Y0230941D01*
X0383769Y0231076D01*
X0383832Y0231210D01*
X0383899Y0231342D01*
X0383970Y0231472D01*
X0384044Y0231600D01*
X0384121Y0231726D01*
X0384202Y0231850D01*
X0384286Y0231972D01*
X0384373Y0232091D01*
X0384464Y0232208D01*
X0384558Y0232323D01*
X0384654Y0232435D01*
X0384754Y0232545D01*
X0384856Y0232651D01*
X0384962Y0232755D01*
X0385070Y0232856D01*
X0385181Y0232954D01*
X0385294Y0233050D01*
X0385410Y0233142D01*
X0385528Y0233231D01*
X0385649Y0233316D01*
X0385772Y0233399D01*
X0385897Y0233478D01*
X0386024Y0233554D01*
X0386153Y0233626D01*
X0386284Y0233695D01*
X0386417Y0233760D01*
X0386552Y0233821D01*
X0386688Y0233879D01*
X0386825Y0233934D01*
X0386964Y0233984D01*
X0387105Y0234031D01*
X0387246Y0234074D01*
X0387389Y0234114D01*
X0387533Y0234149D01*
X0387677Y0234181D01*
X0387823Y0234208D01*
X0387969Y0234232D01*
X0388116Y0234252D01*
X0388263Y0234268D01*
X0388410Y0234280D01*
X0388558Y0234288D01*
X0388706Y0234292D01*
X0388854Y0234292D01*
X0389002Y0234288D01*
X0389150Y0234280D01*
X0389297Y0234268D01*
X0389444Y0234252D01*
X0389591Y0234232D01*
X0389737Y0234208D01*
X0389883Y0234181D01*
X0390027Y0234149D01*
X0390171Y0234114D01*
X0390314Y0234074D01*
X0390455Y0234031D01*
X0390596Y0233984D01*
X0390735Y0233934D01*
X0390872Y0233879D01*
X0391008Y0233821D01*
X0391143Y0233760D01*
X0391276Y0233695D01*
X0391407Y0233626D01*
X0391536Y0233554D01*
X0391663Y0233478D01*
X0391788Y0233399D01*
X0391911Y0233316D01*
X0392032Y0233231D01*
X0392150Y0233142D01*
X0392266Y0233050D01*
X0392379Y0232954D01*
X0392490Y0232856D01*
X0392598Y0232755D01*
X0392704Y0232651D01*
X0392806Y0232545D01*
X0392906Y0232435D01*
X0393002Y0232323D01*
X0393096Y0232208D01*
X0393187Y0232091D01*
X0393274Y0231972D01*
X0393358Y0231850D01*
X0393439Y0231726D01*
X0393516Y0231600D01*
X0393590Y0231472D01*
X0393661Y0231342D01*
X0393728Y0231210D01*
X0393791Y0231076D01*
X0393851Y0230941D01*
X0393907Y0230804D01*
X0393960Y0230665D01*
X0394008Y0230525D01*
X0394053Y0230384D01*
X0394094Y0230242D01*
X0394132Y0230099D01*
X0394165Y0229955D01*
X0394195Y0229810D01*
X0394221Y0229664D01*
X0394242Y0229518D01*
X0394260Y0229371D01*
X0394274Y0229224D01*
X0394284Y0229076D01*
X0394290Y0228928D01*
X0394292Y0228780D01*
X0394290Y0228632D01*
X0394284Y0228484D01*
X0394274Y0228336D01*
X0394260Y0228189D01*
X0394242Y0228042D01*
X0394221Y0227896D01*
X0394195Y0227750D01*
X0394165Y0227605D01*
X0394132Y0227461D01*
X0394094Y0227318D01*
X0394053Y0227176D01*
X0394008Y0227035D01*
X0393960Y0226895D01*
X0393907Y0226756D01*
X0393851Y0226619D01*
X0393791Y0226484D01*
X0393728Y0226350D01*
X0393661Y0226218D01*
X0393590Y0226088D01*
X0393516Y0225960D01*
X0393439Y0225834D01*
X0393358Y0225710D01*
X0393274Y0225588D01*
X0393187Y0225469D01*
X0393096Y0225352D01*
X0393002Y0225237D01*
X0392906Y0225125D01*
X0392806Y0225015D01*
X0392704Y0224909D01*
X0392598Y0224805D01*
X0392490Y0224704D01*
X0392379Y0224606D01*
X0392266Y0224510D01*
X0392150Y0224418D01*
X0392032Y0224329D01*
X0391911Y0224244D01*
X0391788Y0224161D01*
X0391663Y0224082D01*
X0391536Y0224006D01*
X0391407Y0223934D01*
X0391276Y0223865D01*
X0391143Y0223800D01*
X0391008Y0223739D01*
X0390872Y0223681D01*
X0390735Y0223626D01*
X0390596Y0223576D01*
X0390455Y0223529D01*
X0390314Y0223486D01*
X0390171Y0223446D01*
X0390027Y0223411D01*
X0389883Y0223379D01*
X0389737Y0223352D01*
X0389591Y0223328D01*
X0389444Y0223308D01*
X0389297Y0223292D01*
X0389150Y0223280D01*
X0389002Y0223272D01*
X0388854Y0223268D01*
X0388706Y0223268D01*
X0388558Y0223272D01*
X0388410Y0223280D01*
X0388263Y0223292D01*
X0388116Y0223308D01*
X0387969Y0223328D01*
X0387823Y0223352D01*
X0387677Y0223379D01*
X0387533Y0223411D01*
X0387389Y0223446D01*
X0387246Y0223486D01*
X0387105Y0223529D01*
X0386964Y0223576D01*
X0386825Y0223626D01*
X0386688Y0223681D01*
X0386552Y0223739D01*
X0386417Y0223800D01*
X0386284Y0223865D01*
X0386153Y0223934D01*
X0386024Y0224006D01*
X0385897Y0224082D01*
X0385772Y0224161D01*
X0385649Y0224244D01*
X0385528Y0224329D01*
X0385410Y0224418D01*
X0385294Y0224510D01*
X0385181Y0224606D01*
X0385070Y0224704D01*
X0384962Y0224805D01*
X0384856Y0224909D01*
X0384754Y0225015D01*
X0384654Y0225125D01*
X0384558Y0225237D01*
X0384464Y0225352D01*
X0384373Y0225469D01*
X0384286Y0225588D01*
X0384202Y0225710D01*
X0384121Y0225834D01*
X0384044Y0225960D01*
X0383970Y0226088D01*
X0383899Y0226218D01*
X0383832Y0226350D01*
X0383769Y0226484D01*
X0383709Y0226619D01*
X0383653Y0226756D01*
X0383600Y0226895D01*
X0383552Y0227035D01*
X0383507Y0227176D01*
X0383466Y0227318D01*
X0383428Y0227461D01*
X0383395Y0227605D01*
X0383365Y0227750D01*
X0383339Y0227896D01*
X0383318Y0228042D01*
X0383300Y0228189D01*
X0383286Y0228336D01*
X0383276Y0228484D01*
X0383270Y0228632D01*
X0383268Y0228780D01*
M02*
